<?xml version="1.0" encoding="UTF-8"?>
<!DOCTYPE svg PUBLIC "-//W3C//DTD SVG 1.1//EN" "http://www.w3.org/Graphics/SVG/1.1/DTD/svg11.dtd">
<!-- Creator: CorelDRAW 2019 (64-Bit) -->
<svg xmlns="http://www.w3.org/2000/svg" xml:space="preserve" width="293px" height="180px" version="1.1" style="shape-rendering:geometricPrecision; text-rendering:geometricPrecision; image-rendering:optimizeQuality; fill-rule:evenodd; clip-rule:evenodd"
viewBox="0 0 12.9 7.93"
 xmlns:xlink="http://www.w3.org/1999/xlink"
 enable-background="new 0 0 512 512">
 <defs>
  <style type="text/css">
   <![CDATA[
    .fil0 {fill:none}
    .fil2 {fill:#A8D340}
    .fil1 {fill:#B5E245}
    .fil5 {fill:#C6865C}
    .fil3 {fill:#C6E873}
    .fil4 {fill:#CE9875}
    .fil8 {fill:#DD636E}
    .fil7 {fill:#FFCBBE}
    .fil6 {fill:#FFDDCE}
   ]]>
  </style>
 </defs>
 <g id="Layer_x0020_1">
  <metadata id="CorelCorpID_0Corel-Layer"/>
  <rect class="fil0" width="12.9" height="7.93"/>
  <g id="agriculture.svg">
   <g>
    <g>
     <g>
      <g>
       <g>
        <g>
         <g>
          <g>
           <path class="fil1" d="M9.48 2.37l-0.04 0c-0.52,0.02 -1.84,0.21 -1.99,1.44 0,0.04 0.03,0.08 0.08,0.08 1.6,0.15 2,-0.97 2.09,-1.38l-0.02 -0.04 -0.12 -0.1z"/>
           <path class="fil2" d="M9.64 2.45c0.01,-0.05 -0.04,-0.09 -0.09,-0.09 -0.03,0 -0.07,0 -0.11,0.01 -0.34,0.18 -1.27,0.73 -2.05,1.41 -0.51,0.46 -0.42,0.99 -0.42,1.01 0.01,0.05 0.06,0.09 0.11,0.09 0.01,0 0.01,0 0.02,0 0.06,-0.01 0.1,-0.07 0.09,-0.13 0,0 -0.08,-0.43 0.35,-0.81 0.83,-0.73 1.85,-1.3 2.08,-1.43 0.01,-0.02 0.01,-0.04 0.02,-0.06l0 0z"/>
          </g>
         </g>
        </g>
       </g>
      </g>
      <g>
       <g>
        <g>
         <g>
          <g>
           <path class="fil1" d="M6.7 3.81c-0.16,-1.23 -1.48,-1.42 -1.99,-1.44l-0.1 0.03 -0.06 0.06 -0.03 0.05c0.1,0.42 0.51,1.53 2.1,1.38 0.05,0 0.08,-0.04 0.08,-0.08l0 0z"/>
           <path class="fil2" d="M6.75 3.78c-0.77,-0.68 -1.71,-1.23 -2.04,-1.41 -0.05,-0.01 -0.08,-0.01 -0.11,-0.01 -0.06,0 -0.1,0.04 -0.09,0.09 0,0.02 0.01,0.04 0.01,0.06 0.23,0.13 1.26,0.7 2.09,1.43 0.42,0.37 0.35,0.8 0.35,0.81 -0.01,0.06 0.03,0.12 0.09,0.13 0,0 0.01,0 0.02,0 0.05,0 0.09,-0.04 0.1,-0.09 0.01,-0.02 0.1,-0.55 -0.42,-1.01l0 0z"/>
          </g>
         </g>
        </g>
       </g>
      </g>
     </g>
     <g>
      <g>
       <g>
        <path class="fil3" d="M7.13 0.47l-0.14 0c0,0 -0.03,0.01 -0.03,0.02 -0.27,0.45 -0.88,1.73 0.11,2.58l0 0c0.99,-0.85 0.37,-2.13 0.11,-2.58 -0.01,-0.01 -0.05,-0.02 -0.05,-0.02l0 0z"/>
        <path class="fil2" d="M7.12 0.39c-0.03,-0.04 -0.08,-0.04 -0.1,0 -0.02,0.03 -0.04,0.06 -0.06,0.1l0 4.35c0,0.06 0.05,0.11 0.11,0.11 0.06,0 0.11,-0.05 0.11,-0.11l0 -4.35c-0.03,-0.04 -0.05,-0.07 -0.06,-0.1l0 0z"/>
       </g>
      </g>
      <g>
       <g>
        <path class="fil4" d="M8.54 6.02l-0.67 -0.53c-0.5,-0.4 -1.12,-0.59 -1.73,-0.57 -0.24,0.01 -0.46,0.09 -0.65,0.23 -0.01,0.02 -0.03,0.03 -0.05,0.04l-0.66 0.53 2.29 1.1 1.52 -0.73 -0.05 -0.07z"/>
        <g>
         <path class="fil5" d="M7.8 5.56l0.66 0.53 0.05 0.04 0.85 -0.41 -0.67 -0.53c-0.88,-0.7 -2.12,-0.75 -3.05,-0.14 0.74,-0.15 1.54,0.02 2.16,0.51l0 0z"/>
        </g>
        <g>
         <g>
          <g>
           <g>
            <g>
             <path class="fil6" d="M4.87 6.46c0.09,-0.08 0.21,-0.1 0.32,-0.07l0.92 0.3c0.1,0.04 0.2,0.05 0.31,0.04l1.82 -0.19c0.12,-0.01 0.36,-0.18 0.47,-0.42 0.07,-0.13 0.12,-0.26 0.12,-0.26l-0.02 -0.05 -0.23 0.12c-0.21,0.11 -0.43,0.17 -0.66,0.18l0.01 -0.11c0,-0.08 -0.01,-0.15 -0.05,-0.22 -0.06,-0.12 -0.17,-0.21 -0.31,-0.23l-0.87 -0.11c-0.2,-0.03 -0.3,-0.1 -0.48,-0.21 -0.17,-0.1 -0.49,-0.23 -0.66,-0.28 -0.31,-0.09 -0.63,-0.05 -0.91,0.1l-1.23 0.69 0.8 1.28 0.65 -0.56z"/>
             <g>
              <polygon class="fil7" points="3.42,5.74 3.42,5.74 3.43,5.76 "/>
              <path class="fil7" d="M9.72 5.59c-0.08,-0.12 -0.24,-0.15 -0.36,-0.07l-0.55 0.29c0,0 -0.06,0.13 -0.12,0.26 -0.11,0.24 -0.35,0.41 -0.47,0.42l-1.82 0.19c-0.11,0.01 -0.22,-0.01 -0.32,-0.04l-0.91 -0.3c-0.11,-0.03 -0.23,-0.01 -0.32,0.07l-0.66 0.57 0.19 0.3 0.53 -0.46c0.09,-0.08 0.2,-0.1 0.31,-0.07l0.88 0.29c0.1,0.03 0.2,0.05 0.31,0.04l1.75 -0.18c0.11,-0.01 0.21,-0.05 0.31,-0.12l1.21 -0.83c0.1,-0.09 0.11,-0.24 0.04,-0.36z"/>
             </g>
            </g>
           </g>
           <path class="fil7" d="M6.71 6.19c0.01,0 0.01,0 0.01,0l1.2 -0.08 0.01 -0.11c0,-0.04 0,-0.07 -0.01,-0.11l-1.21 0.08c-0.06,0 -0.11,0.05 -0.1,0.11 0,0.06 0.05,0.11 0.1,0.11z"/>
          </g>
         </g>
         <path class="fil8" d="M4.62 7.39l-0.25 0.15c-0.1,0.05 -0.22,0.02 -0.28,-0.08l-0.92 -1.6c-0.06,-0.09 -0.03,-0.22 0.07,-0.27l0.25 -0.15c0.1,-0.06 0.22,-0.02 0.28,0.07l0.92 1.6c0.06,0.1 0.03,0.23 -0.07,0.28z"/>
        </g>
       </g>
      </g>
     </g>
    </g>
   </g>
  </g>
 </g>
</svg>
