<?xml version="1.0" encoding="UTF-8"?>
<!DOCTYPE svg PUBLIC "-//W3C//DTD SVG 1.1//EN" "http://www.w3.org/Graphics/SVG/1.1/DTD/svg11.dtd">
<!-- Creator: CorelDRAW 2019 (64-Bit) -->
<svg xmlns="http://www.w3.org/2000/svg" xml:space="preserve" width="293px" height="180px" version="1.1" style="shape-rendering:geometricPrecision; text-rendering:geometricPrecision; image-rendering:optimizeQuality; fill-rule:evenodd; clip-rule:evenodd"
viewBox="0 0 11.74 7.21"
 xmlns:xlink="http://www.w3.org/1999/xlink"
 enable-background="new 0 0 512 512">
 <defs>
  <style type="text/css">
   <![CDATA[
    .fil0 {fill:none}
    .fil10 {fill:#2B2B2B}
    .fil8 {fill:#3D72A3}
    .fil2 {fill:#4DA3BA}
    .fil9 {fill:#564D47}
    .fil7 {fill:#5D91C9}
    .fil1 {fill:#69B8D4}
    .fil3 {fill:#CCCCCC}
    .fil5 {fill:#D82525}
    .fil6 {fill:#E6E6E6}
    .fil4 {fill:#F73E3E}
   ]]>
  </style>
 </defs>
 <g id="Layer_x0020_1">
  <metadata id="CorelCorpID_0Corel-Layer"/>
  <rect class="fil0" width="11.74" height="7.21"/>
  <g id="airlines.svg">
   <g>
    <g>
     <path class="fil1" d="M8.79 4.13l0.21 -0.18 0 0c0.01,-0.11 0.01,-0.23 0.01,-0.34 0,-1.74 -1.4,-3.15 -3.14,-3.15 -0.76,0 -1.46,0.27 -2,0.72l0.09 0.24 -0.47 0.13c-0.47,0.55 -0.76,1.27 -0.76,2.06 0,0.57 0.15,1.11 0.42,1.57l2.72 0.78 2.72 -0.78c0.16,-0.27 0.27,-0.55 0.34,-0.86l-0.14 -0.19z"/>
    </g>
    <g>
     <path class="fil2" d="M9 3.95l-0.22 0c-0.1,0 -0.18,-0.08 -0.18,-0.18 0,-0.11 -0.08,-0.19 -0.18,-0.19l-3.2 0c-0.1,0 -0.18,0.08 -0.18,0.19 0,0.1 0.08,0.18 0.18,0.18l0.91 0c0.11,0 0.19,0.08 0.19,0.18 0,0.11 -0.08,0.19 -0.19,0.19l-0.18 0c-0.1,0 -0.18,0.08 -0.18,0.18 0,0.1 0.08,0.19 0.18,0.19l1.71 0c0.1,0 0.19,-0.09 0.19,-0.19 0,-0.1 0.08,-0.18 0.18,-0.18l0.9 0c0.03,-0.12 0.05,-0.24 0.07,-0.37z"/>
    </g>
    <g>
     <path class="fil2" d="M3.87 1.18l1.06 0c0.11,0 0.19,0.09 0.19,0.19 0,0.1 0.08,0.18 0.18,0.18l0.38 0c0.1,0 0.18,0.08 0.18,0.19 0,0.1 -0.08,0.18 -0.18,0.18l-1.51 0c-0.1,0 -0.19,-0.08 -0.19,-0.18 0,-0.11 -0.08,-0.19 -0.18,-0.19l-0.31 0c0.12,-0.13 0.24,-0.26 0.38,-0.37z"/>
    </g>
    <g>
     <g>
      <path class="fil3" d="M6.59 2.53l0.11 0.29c0.02,0.02 0.04,0.04 0.07,0.04 0.24,-0.02 0.47,-0.12 0.66,-0.27 0.02,-0.02 0.03,-0.05 0.01,-0.08l-0.11 -0.28c-0.01,-0.03 -0.04,-0.04 -0.07,-0.04 -0.24,0.01 -0.47,0.11 -0.65,0.27 -0.03,0.02 -0.03,0.05 -0.02,0.07z"/>
     </g>
     <g>
      <path class="fil4" d="M7.21 2.18l0.18 0.45c0.02,0.04 0.08,0.07 0.12,0.05 0.05,-0.02 0.07,-0.08 0.05,-0.12l-0.18 -0.45c-0.02,-0.05 -0.07,-0.07 -0.12,-0.05 -0.05,0.02 -0.07,0.07 -0.05,0.12z"/>
     </g>
     <g>
      <path class="fil4" d="M4.49 2.93l-1.45 -0.74c-0.03,-0.02 -0.07,-0.02 -0.11,0l-0.16 0.06c-0.04,0.02 -0.06,0.07 -0.03,0.11l0.88 1.12 0.87 -0.55z"/>
     </g>
     <g>
      <path class="fil5" d="M2.84 2.22l-0.07 0.03c-0.04,0.02 -0.06,0.07 -0.03,0.11l0.88 1.12 -0.04 -0.54c0,-0.08 -0.04,-0.14 -0.1,-0.19l-0.64 -0.53z"/>
     </g>
     <g>
      <path class="fil6" d="M8.93 1.73l-1.98 0.82c-1.24,0.51 -2.52,0.93 -3.82,1.25 -0.08,0.01 -0.12,-0.08 -0.06,-0.12 0.82,-0.55 1.69,-1.02 2.6,-1.4l1.99 -0.82c0.41,-0.17 0.87,-0.16 1.28,0.02 0.1,0.05 0.1,0.2 -0.01,0.25z"/>
     </g>
     <g>
      <path class="fil3" d="M6.01 2.14l-0.34 0.14c-0.91,0.38 -1.78,0.85 -2.6,1.4 -0.06,0.04 -0.02,0.13 0.06,0.12 1.07,-0.26 2.13,-0.59 3.16,-0.99l0 0c-0.19,0.08 -0.4,-0.01 -0.48,-0.19 -0.07,-0.19 0.01,-0.4 0.2,-0.48l0 0z"/>
     </g>
     <g>
      <path class="fil5" d="M6.63 2.54l-1.67 0.28c-0.05,0.01 -0.09,0.02 -0.14,0.04l-0.19 0.08c-0.02,0.01 -0.01,0.05 0.01,0.05l1.48 0.05 0.62 -0.26 -0.11 -0.24z"/>
     </g>
     <g>
      <path class="fil4" d="M6.69 3.02l-0.39 0.11c-0.07,0.02 -0.15,-0.02 -0.18,-0.09 -0.03,-0.07 0,-0.15 0.06,-0.19l0.36 -0.2 0.15 0.37z"/>
     </g>
     <g>
      <path class="fil6" d="M6.31 2.8l0.11 0.28c0.02,0.02 0.04,0.04 0.07,0.04 0.24,-0.02 0.47,-0.12 0.66,-0.27 0.02,-0.02 0.02,-0.05 0.01,-0.08l-0.11 -0.28c-0.01,-0.03 -0.04,-0.04 -0.07,-0.04 -0.24,0.02 -0.47,0.11 -0.65,0.27 -0.03,0.02 -0.03,0.05 -0.02,0.08z"/>
     </g>
     <g>
      <path class="fil4" d="M6.93 2.44l0.18 0.45c0.02,0.04 0.08,0.07 0.12,0.05 0.05,-0.02 0.07,-0.08 0.05,-0.12l-0.18 -0.45c-0.02,-0.05 -0.07,-0.07 -0.12,-0.05 -0.05,0.02 -0.07,0.07 -0.05,0.12z"/>
     </g>
     <g>
      <path class="fil5" d="M3.83 3.34l-1.1 0.46c0.01,0.06 0.01,0.13 0.02,0.19l1.15 -0.48c0.05,-0.02 0.07,-0.07 0.05,-0.12 -0.02,-0.04 -0.07,-0.07 -0.12,-0.05l0 0z"/>
     </g>
     <g>
      <path class="fil7" d="M8.45 1.35l-0.48 0.2c0.04,0.1 0.16,0.15 0.26,0.1l0.56 -0.23c-0.11,-0.03 -0.23,-0.06 -0.34,-0.07l0 0z"/>
     </g>
     <g>
      <path class="fil8" d="M8.21 1.44l-0.24 0.11c0.04,0.1 0.16,0.15 0.26,0.1l0.25 -0.1c-0.11,0.04 -0.22,0 -0.27,-0.11z"/>
     </g>
     <g>
      <path class="fil3" d="M6.68 2.81c-0.05,-0.12 0,-0.26 0.11,-0.33 -0.17,0.04 -0.33,0.12 -0.46,0.24 -0.03,0.02 -0.03,0.05 -0.02,0.08l0.11 0.28c0.02,0.02 0.04,0.04 0.07,0.04 0.17,-0.01 0.33,-0.06 0.48,-0.15 -0.12,0.02 -0.24,-0.05 -0.29,-0.16l0 0z"/>
     </g>
    </g>
    <g>
     <path class="fil9" d="M8.07 5.72l0.21 -0.09c0.12,-0.14 0.22,-0.29 0.31,-0.45l-5.44 0c0.09,0.16 0.2,0.31 0.31,0.45l0.22 0.09 -0.05 0.09c0.57,0.58 1.36,0.94 2.24,0.94 0.88,0 1.67,-0.36 2.24,-0.94l-0.04 -0.09z"/>
    </g>
    <g>
     <path class="fil10" d="M6.26 5.18l-3.11 0c0.09,0.16 0.2,0.31 0.31,0.45l0.22 0.09 -0.05 0.09c0.57,0.58 1.36,0.94 2.24,0.94 0.09,0 0.18,0 0.26,-0.01 -0.37,-0.06 -0.65,-0.39 -0.65,-0.78 0,-0.43 0.35,-0.78 0.78,-0.78l0 0z"/>
    </g>
    <g>
     <path class="fil6" d="M6.52 5.81l-1.29 0c-0.05,0 -0.1,-0.04 -0.1,-0.09 0,-0.05 0.05,-0.09 0.1,-0.09l1.29 0c0.05,0 0.09,0.04 0.09,0.09 0,0.05 -0.04,0.09 -0.09,0.09l0 0z"/>
    </g>
    <g>
     <path class="fil6" d="M8.28 5.63l-0.65 0c-0.05,0 -0.09,0.04 -0.09,0.09 0,0.05 0.04,0.09 0.09,0.09l0.48 0c0.06,-0.06 0.12,-0.12 0.17,-0.18l0 0z"/>
    </g>
    <g>
     <path class="fil6" d="M4.11 5.63l-0.65 0c0.06,0.06 0.11,0.12 0.17,0.18l0.48 0c0.05,0 0.09,-0.04 0.09,-0.09 0,-0.05 -0.04,-0.09 -0.09,-0.09l0 0z"/>
    </g>
   </g>
  </g>
 </g>
</svg>
