<?xml version="1.0" encoding="UTF-8"?>
<!DOCTYPE svg PUBLIC "-//W3C//DTD SVG 1.1//EN" "http://www.w3.org/Graphics/SVG/1.1/DTD/svg11.dtd">
<!-- Creator: CorelDRAW 2019 (64-Bit) -->
<svg xmlns="http://www.w3.org/2000/svg" xml:space="preserve" width="293px" height="180px" version="1.1" style="shape-rendering:geometricPrecision; text-rendering:geometricPrecision; image-rendering:optimizeQuality; fill-rule:evenodd; clip-rule:evenodd"
viewBox="0 0 18.49 11.36"
 xmlns:xlink="http://www.w3.org/1999/xlink"
 data-name="color line">
 <defs>
  <style type="text/css">
   <![CDATA[
    .fil0 {fill:none}
    .fil2 {fill:#323C6B}
    .fil3 {fill:#84879C}
    .fil1 {fill:#9297AB}
    .fil6 {fill:#E1E6E9}
    .fil5 {fill:#F7BE56}
    .fil4 {fill:#FCD462}
    .fil7 {fill:white}
   ]]>
  </style>
 </defs>
 <g id="Layer_x0020_1">
  <metadata id="CorelCorpID_0Corel-Layer"/>
  <rect class="fil0" width="18.49" height="11.36"/>
  <g id="and-more.svg">
   <path class="fil1" d="M8.82 10.03c0.29,0 0.52,-0.24 0.52,-0.53l0 -0.12 -1.04 0 0 0.12c0,0 0,0 0,0 0,0.29 0.23,0.53 0.52,0.53 0,0 0,0 0,0l0 0z"/>
   <path class="fil2" d="M8.82 10.08c-0.32,0 -0.58,-0.26 -0.58,-0.58l0 -0.17 1.16 0 0 0.17c0,0.32 -0.26,0.58 -0.58,0.58l0 0zm0.11 -1.22l0 0.06c0,0.26 0.21,0.47 0.47,0.47 0.26,0 0.47,-0.21 0.47,-0.47l0 -0.06 -0.94 0z"/>
   <path class="fil1" d="M7.68 7.89l2.28 0 0 1.12c0,0.26 -0.21,0.47 -0.47,0.47l-1.34 0c-0.26,0 -0.47,-0.21 -0.47,-0.47l0 -1.12 0 0 0 0z"/>
   <path class="fil3" d="M9.96 7.89l0 1.12c0,0 0,0 0,0 0,0.26 -0.21,0.47 -0.47,0.47l-0.32 0c0.26,0 0.47,-0.21 0.47,-0.47 0,0 0,0 0,0l0 -1.12 0.32 0z"/>
   <g>
    <polygon class="fil2" points="7.68,8.36 9.96,8.36 9.96,8.47 7.68,8.47 "/>
    <polygon class="fil2" points="7.68,8.9 9.96,8.9 9.96,9.01 7.68,9.01 "/>
    <polygon class="fil2" points="6.82,2.51 6.92,2.46 7.19,3.04 7.08,3.09 "/>
    <polygon class="fil2" points="5.97,3.19 6.04,3.11 6.54,3.51 6.47,3.6 "/>
    <polygon class="fil2" points="5.53,4.19 5.55,4.08 6.17,4.21 6.15,4.32 "/>
    <polygon class="fil2" points="10.45,3.04 10.72,2.46 10.82,2.51 10.55,3.09 "/>
    <polygon class="fil2" points="11.1,3.51 11.59,3.11 11.66,3.19 11.17,3.6 "/>
    <polygon class="fil2" points="11.46,4.21 12.09,4.08 12.11,4.19 11.49,4.32 "/>
    <polygon class="fil2" points="8.64,7.14 9.11,7.14 9.11,7.25 8.64,7.25 "/>
    <polygon class="fil2" points="8.64,3.84 9.11,3.84 9.11,3.95 8.64,3.95 "/>
   </g>
   <path class="fil4" d="M10.37 3.65c0.38,0.09 0.65,0.42 0.67,0.8 0,0.01 0,0.01 0,0.02 0,0.03 -0.01,0.06 -0.01,0.09 0.22,0.16 0.35,0.42 0.36,0.69 -0.01,0.24 -0.11,0.46 -0.29,0.62 0.07,0.12 0.11,0.26 0.11,0.4 0,0 0,0 0,0 -0.01,0.34 -0.22,0.65 -0.54,0.77 -0.04,0.48 -0.49,0.86 -1.03,0.86l-0.01 0c-0.01,0 -0.01,0 -0.01,0 -0.35,0 -0.64,-0.28 -0.65,-0.63l0 -4.02c0.04,-0.24 0.25,-0.35 0.52,-0.35 0.53,0.04 0.77,0.46 0.88,0.75l0 0z"/>
   <path class="fil5" d="M10.36 7.29c0.12,-0.05 0.22,-0.12 0.31,-0.21 -0.05,0.3 -0.24,0.55 -0.51,0.69 0.12,-0.14 0.19,-0.3 0.2,-0.48l0 0z"/>
   <path class="fil5" d="M11.1 5.87c0.07,0.12 0.11,0.26 0.11,0.4 -0.01,0.32 -0.2,0.61 -0.49,0.75 0.12,-0.14 0.18,-0.32 0.18,-0.51 0,-0.14 -0.04,-0.27 -0.11,-0.4 0.18,-0.15 0.29,-0.38 0.29,-0.61 0,-0.28 -0.14,-0.53 -0.36,-0.69 0.01,-0.03 0.01,-0.06 0.01,-0.09 0,-0.01 0,-0.01 0,-0.02 -0.02,-0.38 -0.29,-0.71 -0.66,-0.8 -0.11,-0.29 -0.35,-0.71 -0.89,-0.75 0,0 -0.01,0 -0.02,0 -0.05,0 -0.11,0.01 -0.17,0.02 0.07,-0.18 0.26,-0.27 0.5,-0.27 0.53,0.04 0.77,0.46 0.89,0.75 0.37,0.09 0.64,0.42 0.66,0.8 0,0.01 0,0.01 0,0.02 0,0.03 -0.01,0.06 -0.01,0.09 0.22,0.16 0.35,0.42 0.36,0.69 -0.01,0.24 -0.11,0.46 -0.29,0.62l0 0z"/>
   <path class="fil2" d="M10.03 5.92c0,0 0,0 0,0 -0.03,0 -0.05,-0.02 -0.05,-0.05 0,-0.01 0,-0.03 0.01,-0.04 0.13,-0.18 0.34,-0.29 0.56,-0.3 0.34,0 0.58,0.29 0.59,0.3 0.01,0.01 0.02,0.02 0.02,0.04 0,0.03 -0.03,0.05 -0.06,0.05 -0.01,0 -0.03,0 -0.04,-0.02 0,0 -0.23,-0.26 -0.51,-0.26l0 0c-0.19,0.02 -0.36,0.11 -0.47,0.26 -0.01,0.02 -0.03,0.02 -0.05,0.02z"/>
   <path class="fil2" d="M10.47 5.65c0,0 0,0 0,0 -0.01,0 -0.01,0 -0.02,0 -0.2,-0.08 -0.36,-0.24 -0.42,-0.45 -0.01,0 -0.01,0 -0.01,-0.01 0,-0.03 0.03,-0.05 0.06,-0.05 0.02,0 0.05,0.01 0.05,0.04 0.06,0.16 0.19,0.3 0.36,0.36 0.02,0.01 0.03,0.03 0.03,0.05 0,0.04 -0.02,0.06 -0.05,0.06 0,0 0,0 0,0l0 0z"/>
   <path class="fil2" d="M9.87 3.78c0,0 0,0 0,0 -0.03,0 -0.06,-0.03 -0.06,-0.06 0,-0.02 0.01,-0.04 0.03,-0.05 0.12,-0.06 0.25,-0.09 0.38,-0.09 0.06,0 0.11,0.01 0.17,0.02 0.02,0.01 0.04,0.03 0.04,0.05 0,0.03 -0.02,0.06 -0.06,0.06 0,0 0,0 -0.01,0 -0.05,-0.01 -0.09,-0.02 -0.14,-0.02 -0.11,0 -0.23,0.03 -0.33,0.08 0,0.01 -0.01,0.01 -0.02,0.01 0,0 0,0 0,0z"/>
   <path class="fil2" d="M10.65 7.1c-0.02,0 -0.04,0 -0.05,0 -0.24,0 -0.46,-0.09 -0.62,-0.26 -0.01,-0.01 -0.02,-0.02 -0.02,-0.04 0,-0.03 0.03,-0.05 0.06,-0.05 0.01,0 0.03,0 0.04,0.02 0.09,0.1 0.27,0.22 0.61,0.22l0 0c0,0 0,0 0,0 0.03,0 0.06,0.02 0.06,0.05 0,0.03 -0.03,0.06 -0.06,0.06l-0.02 0z"/>
   <circle class="fil6" cx="9.67" cy="3.84" r="0.24"/>
   <path class="fil2" d="M9.67 4.13c-0.16,0 -0.29,-0.13 -0.29,-0.29 0,-0.16 0.13,-0.29 0.29,-0.29 0.16,0 0.29,0.13 0.29,0.29 0,0 0,0 0,0 0,0.16 -0.13,0.29 -0.29,0.29l0 0zm0.29 -0.76c-0.1,0 -0.18,0.08 -0.18,0.18 0,0.1 0.08,0.18 0.18,0.18 0.1,0 0.18,-0.08 0.18,-0.18 0,0 0,0 0,0 0,-0.1 -0.08,-0.18 -0.18,-0.18l0 0z"/>
   <circle class="fil6" cx="10.02" cy="4.96" r="0.24"/>
   <path class="fil2" d="M10.02 5.25c-0.16,0 -0.29,-0.13 -0.29,-0.29 0,-0.16 0.13,-0.29 0.29,-0.29 0.17,0 0.3,0.13 0.3,0.29 0,0 0,0 0,0 0,0.16 -0.13,0.29 -0.3,0.29 0,0 0,0 0,0zm0.3 -0.76c-0.1,0 -0.18,0.08 -0.18,0.18 0,0.1 0.08,0.18 0.18,0.18 0.1,0 0.18,-0.08 0.18,-0.18 0,-0.1 -0.08,-0.18 -0.18,-0.18 0,0 0,0 0,0z"/>
   <circle class="fil6" cx="9.9" cy="6.6" r="0.24"/>
   <path class="fil2" d="M9.9 6.89c0,0 0,0 0,0 -0.16,0 -0.29,-0.13 -0.29,-0.29 0,-0.16 0.13,-0.29 0.29,-0.29 0.16,0 0.29,0.13 0.29,0.29 0,0.16 -0.13,0.29 -0.29,0.29l0 0zm0.29 -0.76c0,0 0,0 0,0 -0.1,0 -0.18,0.08 -0.18,0.18 0,0.1 0.08,0.18 0.18,0.18 0.1,0 0.18,-0.08 0.18,-0.18 0,0 0,0 0,0 0,-0.1 -0.08,-0.18 -0.18,-0.18l0 0z"/>
   <path class="fil4" d="M7.27 3.65c-0.38,0.09 -0.65,0.42 -0.67,0.8 0,0.01 0,0.01 0,0.02 0,0.03 0.01,0.06 0.01,0.09 -0.22,0.16 -0.35,0.42 -0.36,0.69 0.01,0.24 0.11,0.46 0.29,0.62 -0.07,0.12 -0.11,0.26 -0.11,0.4 0,0 0,0 0,0 0.01,0.34 0.22,0.65 0.54,0.77 0.04,0.48 0.49,0.86 1.04,0.86l0 0c0.01,0 0.01,0 0.02,0 0.34,0 0.63,-0.28 0.64,-0.63l0 -4.02c-0.04,-0.24 -0.24,-0.35 -0.52,-0.35 -0.53,0.04 -0.77,0.46 -0.88,0.75l0 0z"/>
   <path class="fil5" d="M6.69 6.12c-0.07,0.12 -0.11,0.26 -0.11,0.4 0,0 0,0 0,0 0,0 0,0 0,0 0,0.1 0.02,0.19 0.06,0.28 -0.13,-0.14 -0.21,-0.33 -0.21,-0.53 0,0 0,0 0,0 0,-0.13 0.03,-0.25 0.09,-0.36 0.04,0.07 0.1,0.14 0.17,0.21l0 0z"/>
   <path class="fil5" d="M8.67 3.25c-0.1,-0.07 -0.21,-0.1 -0.33,-0.1 -0.01,0 -0.02,0 -0.04,0 -0.53,0.04 -0.77,0.46 -0.88,0.75 -0.38,0.09 -0.65,0.42 -0.66,0.8 0,0 0,0.01 0,0.01 0,0.03 0,0.07 0.01,0.1 -0.23,0.16 -0.36,0.41 -0.36,0.69 0,0 0,0 0,0 0,0.1 0.01,0.19 0.05,0.29 -0.13,-0.15 -0.21,-0.34 -0.21,-0.54 0.01,-0.27 0.14,-0.53 0.36,-0.69 0,-0.03 -0.01,-0.06 -0.01,-0.09 0,-0.01 0,-0.01 0,-0.02 0.02,-0.38 0.29,-0.71 0.67,-0.8 0.11,-0.29 0.35,-0.71 0.88,-0.75 0.27,0 0.48,0.11 0.52,0.35l0 0z"/>
   <path class="fil2" d="M7.61 5.92c0,0 0,0 0,0 -0.02,0 -0.04,0 -0.05,-0.02 -0.11,-0.15 -0.28,-0.24 -0.47,-0.26l0 0c-0.28,0 -0.51,0.26 -0.51,0.26 -0.01,0.02 -0.03,0.02 -0.04,0.02 -0.03,0 -0.06,-0.02 -0.06,-0.05 0,-0.01 0.01,-0.03 0.02,-0.04 0.01,-0.01 0.25,-0.3 0.59,-0.3 0.22,0.01 0.43,0.12 0.56,0.3 0.01,0.01 0.01,0.03 0.01,0.04 0,0.03 -0.02,0.05 -0.05,0.05l0 0z"/>
   <path class="fil2" d="M7.17 5.65c0,0 0,0 0,0 -0.03,0 -0.05,-0.03 -0.05,-0.06 0,-0.02 0.01,-0.04 0.03,-0.05 0.17,-0.06 0.3,-0.2 0.36,-0.36 0,-0.03 0.03,-0.05 0.05,-0.05 0.03,0 0.06,0.03 0.06,0.06 0,0.01 0,0.01 0,0.01 -0.07,0.21 -0.23,0.37 -0.43,0.45 -0.01,0 -0.01,0 -0.02,0l0 0z"/>
   <path class="fil2" d="M7.77 3.78c-0.01,0 -0.02,0 -0.02,-0.01 -0.1,-0.05 -0.22,-0.08 -0.33,-0.08 -0.05,0 -0.09,0.01 -0.14,0.02 0,0 -0.01,0 -0.01,0 -0.03,0 -0.06,-0.03 -0.06,-0.06 0,-0.02 0.02,-0.04 0.04,-0.05 0.06,-0.01 0.11,-0.02 0.17,-0.02 0.13,0 0.26,0.03 0.38,0.09 0.02,0.01 0.03,0.03 0.03,0.05 0,0.03 -0.03,0.06 -0.06,0.06 0,0 0,0 0,0l0 0z"/>
   <path class="fil2" d="M6.99 7.1l-0.02 0c-0.03,0 -0.06,-0.03 -0.06,-0.06 0,-0.03 0.03,-0.05 0.06,-0.05 0,0 0,0 0,0l0.02 0c0.02,0 0.03,0 0.05,0 0.21,0 0.4,-0.08 0.54,-0.22 0.01,-0.02 0.03,-0.02 0.04,-0.02 0.03,0 0.06,0.02 0.06,0.05 0,0.02 -0.01,0.03 -0.01,0.04 -0.17,0.17 -0.39,0.26 -0.63,0.26 -0.01,0 -0.03,0 -0.05,0l0 0z"/>
   <circle class="fil6" cx="7.97" cy="3.84" r="0.24"/>
   <path class="fil2" d="M7.97 4.13c0,0 0,0 0,0 -0.16,0 -0.29,-0.13 -0.29,-0.29 0,-0.16 0.13,-0.29 0.29,-0.29 0.16,0 0.29,0.13 0.29,0.29 0,0 0,0 0,0 0,0.16 -0.13,0.29 -0.29,0.29l0 0zm0.29 -0.76c0,0 0,0 0,0 -0.09,0 -0.18,0.08 -0.18,0.18 0,0.1 0.09,0.18 0.18,0.18 0.1,0 0.18,-0.08 0.18,-0.18 0,-0.1 -0.08,-0.18 -0.18,-0.18l0 0z"/>
   <circle class="fil6" cx="7.62" cy="4.96" r="0.24"/>
   <path class="fil2" d="M7.62 5.25c0,0 0,0 0,0 -0.16,0 -0.3,-0.13 -0.3,-0.29 0,-0.16 0.14,-0.29 0.3,-0.29 0.16,0 0.29,0.13 0.29,0.29 0,0.16 -0.13,0.29 -0.29,0.29l0 0zm0.29 -0.76c0,0 0,0 0,0 -0.1,0 -0.18,0.08 -0.18,0.18 0,0.1 0.08,0.18 0.18,0.18 0.1,0 0.18,-0.08 0.18,-0.18 0,0 0,0 0,0 0,-0.1 -0.08,-0.18 -0.18,-0.18l0 0z"/>
   <circle class="fil6" cx="7.74" cy="6.6" r="0.24"/>
   <path class="fil2" d="M7.74 6.89c-0.16,0 -0.29,-0.13 -0.29,-0.29 0,-0.16 0.13,-0.29 0.29,-0.29 0.16,0 0.29,0.13 0.29,0.29 0,0 0,0 0,0 0,0.16 -0.13,0.29 -0.29,0.29l0 0zm0.29 -0.76c-0.1,0 -0.18,0.08 -0.18,0.18 0,0.1 0.08,0.18 0.18,0.18 0.1,0 0.18,-0.08 0.18,-0.18 0,-0.1 -0.08,-0.18 -0.18,-0.18l0 0z"/>
   <path class="fil2" d="M9.64 9.86c-0.03,0 -0.06,-0.03 -0.06,-0.06 0,-0.02 0.02,-0.05 0.05,-0.05 0.34,-0.07 0.6,-0.36 0.61,-0.71 0,-0.03 0.03,-0.06 0.06,-0.06 0.03,0 0.05,0.03 0.05,0.06 0,0 0,0 0,0 -0.01,0.4 -0.3,0.74 -0.7,0.82 0,0 -0.01,0 -0.01,0 0,0 0,0 0,0l0 0z"/>
   <path class="fil2" d="M10.3 8.84c-0.03,0 -0.06,-0.03 -0.06,-0.06l0 -0.05c0,-0.03 0.03,-0.05 0.06,-0.05 0.03,0 0.06,0.02 0.06,0.05l0 0.05c0,0.03 -0.03,0.06 -0.06,0.06l0 0z"/>
   <path class="fil2" d="M7.49 2.85c-0.03,0 -0.05,-0.03 -0.05,-0.06 0,-0.02 0.01,-0.03 0.02,-0.04l0.01 -0.01c0.02,-0.01 0.03,-0.02 0.04,-0.03 0.01,0 0.02,-0.01 0.03,-0.01 0.03,0 0.06,0.03 0.06,0.06 0,0.02 -0.01,0.04 -0.03,0.05 -0.01,0 -0.02,0.01 -0.03,0.02l-0.01 0.01c-0.01,0 -0.02,0.01 -0.04,0.01 0,0 0,0 0,0z"/>
   <path class="fil2" d="M8.62 2.73c0,0 -0.01,0 -0.02,-0.01 -0.13,-0.06 -0.28,-0.1 -0.42,-0.1 -0.01,0 -0.01,0 -0.02,0l-0.03 0c-0.11,0.01 -0.21,0.03 -0.31,0.07 -0.01,0 -0.02,0 -0.02,0 -0.03,0 -0.06,-0.02 -0.06,-0.05 0,-0.03 0.02,-0.05 0.04,-0.06 0.11,-0.04 0.23,-0.06 0.35,-0.07l0.03 0c0.01,0 0.01,0 0.02,0 0.16,0 0.33,0.04 0.47,0.12 0.02,0.01 0.03,0.02 0.03,0.05 0,0.03 -0.02,0.05 -0.05,0.05 0,0 0,0 0,0l-0.01 0z"/>
   <path class="fil2" d="M9.64 7.95c-0.01,0 -0.02,0 -0.02,0 -0.38,0 -0.7,-0.3 -0.71,-0.68l0 -4.02c0.05,-0.26 0.26,-0.41 0.58,-0.4 0.42,0.03 0.74,0.29 0.93,0.76 0.38,0.1 0.66,0.44 0.67,0.84 0,0.01 0,0.01 0,0.01 0,0.03 0,0.05 0,0.08 0.22,0.17 0.35,0.43 0.35,0.71 0,0.24 -0.1,0.46 -0.27,0.63 0.06,0.12 0.1,0.25 0.1,0.39 0,0 0,0 0,0 -0.01,0.35 -0.22,0.67 -0.55,0.81 -0.06,0.49 -0.53,0.87 -1.08,0.87l0 0zm1.47 -6.67c-0.15,0 -0.41,0.04 -0.46,0.3l0.01 4.01c0.01,0.32 0.27,0.57 0.59,0.57 0,0 0.01,0 0.01,0 0.52,0 0.95,-0.35 0.99,-0.8 0,-0.02 0.01,-0.04 0.03,-0.05 0.3,-0.12 0.5,-0.4 0.51,-0.72 0,0 0,0 0,-0.01 0,-0.13 -0.04,-0.25 -0.1,-0.37 -0.01,-0.01 -0.01,-0.02 -0.01,-0.03 0,-0.01 0.01,-0.03 0.02,-0.04 0.16,-0.14 0.26,-0.35 0.26,-0.57 0,-0.26 -0.13,-0.5 -0.33,-0.64 -0.02,-0.01 -0.03,-0.03 -0.03,-0.05 0,0 0,-0.01 0.01,-0.01 0,-0.03 0,-0.06 0,-0.09 0,0 0,-0.01 0,-0.01 -0.01,-0.36 -0.27,-0.66 -0.62,-0.75 -0.02,0 -0.03,-0.01 -0.04,-0.03 -0.16,-0.45 -0.44,-0.69 -0.83,-0.71l-0.01 0z"/>
   <path class="fil2" d="M8.01 7.95c-0.56,0 -1.03,-0.38 -1.09,-0.87 -0.32,-0.14 -0.54,-0.46 -0.55,-0.81 0,0 0,0 0,0 0,-0.14 0.04,-0.27 0.1,-0.39 -0.17,-0.17 -0.27,-0.39 -0.27,-0.63 0,-0.28 0.13,-0.54 0.35,-0.71 0,-0.03 0,-0.05 0,-0.08 0,0 0,0 0,-0.01 0.01,-0.4 0.29,-0.74 0.67,-0.84 0.19,-0.47 0.51,-0.73 0.93,-0.76l0.01 0c0.32,0 0.52,0.14 0.57,0.39l0 4.03c-0.01,0.38 -0.32,0.68 -0.7,0.68 -0.01,0 -0.01,0 -0.02,0l0 0zm0.87 -5.67l-0.01 0c-0.39,0.03 -0.67,0.27 -0.84,0.71 0,0.02 -0.02,0.03 -0.03,0.04 -0.35,0.08 -0.61,0.38 -0.62,0.74 0,0.01 -0.01,0.01 -0.01,0.02 0,0.02 0.01,0.05 0.01,0.08 0,0.01 0.01,0.01 0.01,0.01 0,0.02 -0.01,0.04 -0.03,0.05 -0.21,0.15 -0.33,0.38 -0.33,0.64 0,0.22 0.1,0.43 0.26,0.58 0.01,0.01 0.02,0.02 0.02,0.04 0,0.01 0,0.02 -0.01,0.03 -0.06,0.11 -0.1,0.24 -0.1,0.37 0,0 0,0 0,0 0.01,0.32 0.21,0.6 0.51,0.72 0.02,0.01 0.03,0.03 0.03,0.05 0.04,0.45 0.47,0.8 0.98,0.8 0.01,0 0.02,0 0.02,0 0.32,0 0.58,-0.25 0.59,-0.57l0 -4.02c-0.04,-0.25 -0.3,-0.29 -0.45,-0.29l0 0z"/>
   <path class="fil2" d="M9.49 9.54l-1.34 0c-0.29,0 -0.53,-0.24 -0.53,-0.53l0 -1.18 2.4 0 0 1.18c0,0.29 -0.24,0.53 -0.53,0.53l0 0zm-1.23 -2.12l0 1.06c0,0.23 0.18,0.42 0.41,0.42l1.35 0c0.23,0 0.42,-0.19 0.42,-0.42l0 -1.06 -2.18 0z"/>
   <path class="fil7" d="M8.32 5.35c0,0 0,0 0,0 0.04,0 0.07,0.03 0.07,0.07l0 0.76c0,0.04 -0.03,0.07 -0.07,0.07 -0.04,0 -0.07,-0.03 -0.07,-0.07l-0.01 -0.76c0,-0.04 0.04,-0.07 0.08,-0.07l0 0z"/>
   <path class="fil7" d="M8.32 5.08c0,0 0,0 0,0 0.04,0 0.07,0.03 0.07,0.07l0 0.04c0,0.04 -0.03,0.07 -0.07,0.07 -0.04,0 -0.08,-0.03 -0.08,-0.07l0 -0.04c0,-0.04 0.04,-0.07 0.08,-0.07l0 0z"/>
  </g>
 </g>
</svg>
