<?xml version="1.0" encoding="UTF-8"?>
<!DOCTYPE svg PUBLIC "-//W3C//DTD SVG 1.1//EN" "http://www.w3.org/Graphics/SVG/1.1/DTD/svg11.dtd">
<!-- Creator: CorelDRAW 2019 (64-Bit) -->
<svg xmlns="http://www.w3.org/2000/svg" xml:space="preserve" width="400px" height="250px" version="1.1" style="shape-rendering:geometricPrecision; text-rendering:geometricPrecision; image-rendering:optimizeQuality; fill-rule:evenodd; clip-rule:evenodd"
viewBox="0 0 18.49 11.56"
 xmlns:xlink="http://www.w3.org/1999/xlink">
 <defs>
  <style type="text/css">
   <![CDATA[
    .fil0 {fill:none}
    .fil7 {fill:black}
    .fil3 {fill:#78D2FA}
    .fil2 {fill:#7D9BFF}
    .fil5 {fill:#BEBEBE}
    .fil6 {fill:#F5B955}
    .fil4 {fill:#FFB487}
    .fil1 {fill:#FFCDAC}
   ]]>
  </style>
 </defs>
 <g id="Layer_x0020_1">
  <metadata id="CorelCorpID_0Corel-Layer"/>
  <rect class="fil0" width="18.49" height="11.56"/>
  <g id="best-support.svg">
   <g>
    <g>
     <path class="fil1" d="M6 8.65l-0.71 -0.75c-0.23,-0.24 -0.35,-0.56 -0.35,-0.89l0 -2.66c0,-0.24 -0.17,-0.45 -0.4,-0.5l0 0c-0.32,-0.07 -0.62,0.17 -0.62,0.5l0 3.35c0,0.4 0.12,0.78 0.35,1.1l0.39 0.54 0.92 1.3 0.33 0.46 2.46 0 -0.36 -1.69c-0.16,-0.76 -0.61,-1.43 -1.25,-1.86l-0.76 -0.51c-0.23,-0.15 -0.53,-0.12 -0.71,0.09l0 0c-0.2,0.22 -0.2,0.57 0.01,0.79 0.42,0.43 1.03,1.09 1.03,1.09l-0.33 -0.36zm0 0l0 0 0 0z"/>
    </g>
    <g>
     <path class="fil1" d="M12.49 8.65l0.71 -0.75c0.23,-0.24 0.35,-0.56 0.35,-0.89l0 -2.66c0,-0.24 0.17,-0.45 0.4,-0.5l0 0c0.32,-0.07 0.62,0.17 0.62,0.5l0 3.35c0,0.4 -0.12,0.78 -0.35,1.1l-0.39 0.54 -0.92 1.3 -0.33 0.46 -2.46 0 0.36 -1.69c0.16,-0.76 0.61,-1.43 1.25,-1.86l0.76 -0.51c0.23,-0.15 0.53,-0.12 0.71,0.09l0 0c0.2,0.22 0.19,0.57 -0.01,0.79 -0.42,0.43 -1.03,1.09 -1.03,1.09l0.33 -0.36zm0 0l0 0 0 0z"/>
    </g>
   </g>
   <g>
    <path class="fil2" d="M9.77 4.82c0.1,-0.11 0.23,-0.19 0.39,-0.22l0.55 -0.14 0 0 0 0 0 -0.33 0.67 0 0 0.33 0 0 0.56 0.14c0.36,0.08 0.61,0.4 0.61,0.77l0 0.41 -1.22 0 -1.56 -0.96z"/>
    <path class="fil2" d="M8.73 4.82c-0.11,-0.11 -0.24,-0.19 -0.39,-0.23l-0.56 -0.13 0 0 0 0 0 -0.34 -0.67 0 0 0.34 0 0 -0.55 0.13c-0.36,0.09 -0.62,0.41 -0.62,0.78l0 0.41 1.22 0 1.57 -0.96z"/>
   </g>
   <g>
    <path class="fil3" d="M8.78 4.81l-0.77 0.18c-0.51,0.12 -0.86,0.57 -0.86,1.08l0 0.78 4.19 0 0 -0.77c0,-0.52 -0.36,-0.97 -0.86,-1.09l-0.76 -0.18 -0.94 0zm0 0l0 0 0 0z"/>
   </g>
   <g>
    <path class="fil4" d="M9.72 4.34l0 0.47 -0.47 1.07 -0.47 -1.07 0 -0.47 0.94 0zm0 0l0 0 0 0z"/>
   </g>
   <g>
    <path class="fil1" d="M10.29 2.72l0 0.65c0,0.58 -0.46,1.05 -1.04,1.05l0 0 0 0c-0.58,0 -1.05,-0.47 -1.05,-1.05l0 -0.65 2.09 0zm0 0l0 0 0 0z"/>
   </g>
   <path class="fil5" d="M9.25 1.62l0 0c-0.58,0 -1.05,0.47 -1.05,1.05l0 0.25 0.51 0c0.34,0 0.67,-0.15 0.88,-0.41l0 0 0.7 0.41 0 -0.25c0,-0.58 -0.46,-1.05 -1.04,-1.05z"/>
   <g>
    <path class="fil6" d="M8.2 3.11l0 -0.18c0,-0.42 -0.34,-0.75 -0.75,-0.75l0 0c-0.42,0 -0.76,0.33 -0.76,0.75l0 0.18 0.52 0c0.33,0 0.65,-0.09 0.92,-0.25l0 0 0.07 0.25zm0 0l0 0 0 0z"/>
   </g>
   <g>
    <path class="fil1" d="M8.2 2.96l0 0.47c0,0.42 -0.34,0.75 -0.75,0.75l0 0 0 0c-0.42,0 -0.76,-0.33 -0.76,-0.75l0 -0.47 1.51 0zm0 0l0 0 0 0z"/>
   </g>
   <g>
    <path class="fil6" d="M10.29 3.11l0 -0.18c0,-0.42 0.34,-0.75 0.76,-0.75l0 0c0.41,0 0.75,0.33 0.75,0.75l0 0.18 -0.52 0c-0.32,0 -0.64,-0.09 -0.92,-0.25l0 0 -0.07 0.25zm0 0l0 0 0 0z"/>
   </g>
   <g>
    <path class="fil1" d="M10.29 2.96l0 0.47c0,0.42 0.34,0.75 0.76,0.75l0 0 0 0c0.41,0 0.75,-0.33 0.75,-0.75l0 -0.47 -1.51 0zm0 0l0 0 0 0z"/>
   </g>
   <path class="fil7" d="M5.76 10.52c-0.07,-0.1 -0.21,-0.12 -0.31,-0.05 -0.09,0.07 -0.12,0.2 -0.05,0.3l0.33 0.46c0.04,0.06 0.11,0.09 0.18,0.09 0.04,0 0.08,-0.02 0.12,-0.04 0.1,-0.07 0.12,-0.21 0.05,-0.3l-0.32 -0.46z"/>
   <path class="fil7" d="M8.22 9.37c-0.17,-0.82 -0.65,-1.54 -1.34,-2l-0.76 -0.51c-0.3,-0.21 -0.71,-0.16 -0.97,0.1l0 -2.61c0,-0.34 -0.23,-0.63 -0.56,-0.71 -0.22,-0.05 -0.44,0 -0.61,0.14 -0.18,0.14 -0.28,0.35 -0.28,0.57l0 3.35c0,0.44 0.14,0.86 0.39,1.22l0.39 0.55c0.04,0.06 0.11,0.09 0.18,0.09 0.04,0 0.08,-0.01 0.12,-0.04 0.1,-0.07 0.12,-0.21 0.05,-0.3l-0.38 -0.55c-0.21,-0.28 -0.31,-0.62 -0.31,-0.97l0 -3.35c0,-0.09 0.04,-0.17 0.11,-0.23 0.07,-0.05 0.16,-0.08 0.24,-0.06 0.14,0.03 0.23,0.15 0.23,0.29l0 2.66c0,0.38 0.14,0.74 0.39,1.02 0.01,0.01 0.02,0.02 0.03,0.03 0.15,0.16 0.32,0.34 0.48,0.5l0.22 0.24c0,0 0,0 0,0 0.19,0.21 0.33,0.36 0.34,0.36 0.08,0.09 0.21,0.09 0.3,0.01 0.09,-0.08 0.09,-0.22 0.01,-0.31 0,0 -0.26,-0.27 -0.55,-0.58l-0.49 -0.53c0,0 0,0 -0.01,0 -0.11,-0.14 -0.11,-0.34 0.01,-0.48 0.11,-0.12 0.29,-0.14 0.43,-0.05l0.75 0.51c0.61,0.4 1.02,1.02 1.17,1.73l0.35 1.69c0.03,0.1 0.12,0.17 0.22,0.17 0.01,0 0.03,0 0.04,-0.01 0.12,-0.02 0.19,-0.14 0.17,-0.25l-0.36 -1.69z"/>
   <path class="fil7" d="M5.31 9.88c-0.07,-0.09 -0.21,-0.12 -0.31,-0.05 -0.09,0.07 -0.12,0.21 -0.05,0.31l0.01 0c0.04,0.06 0.1,0.09 0.17,0.09 0.05,0 0.09,-0.01 0.13,-0.04 0.09,-0.07 0.12,-0.21 0.05,-0.3l0 -0.01z"/>
   <path class="fil7" d="M14.51 3.78c-0.17,-0.13 -0.39,-0.19 -0.61,-0.14 -0.33,0.08 -0.56,0.37 -0.56,0.71l0 2.61c-0.26,-0.26 -0.67,-0.31 -0.97,-0.1l-0.76 0.51c-0.69,0.46 -1.17,1.18 -1.34,2l-0.36 1.69c-0.02,0.11 0.05,0.23 0.17,0.25 0.01,0.01 0.03,0.01 0.04,0.01 0.1,0 0.19,-0.07 0.21,-0.17l0.36 -1.69c0.15,-0.71 0.56,-1.33 1.16,-1.73l0.76 -0.51c0.14,-0.09 0.32,-0.07 0.43,0.05 0.12,0.14 0.12,0.34 0.01,0.48 -0.01,0 -0.01,0 -0.01,0 0,0 -1.04,1.11 -1.04,1.11 -0.08,0.09 -0.08,0.23 0.01,0.31 0.09,0.08 0.22,0.08 0.3,-0.01 0.01,0 0.89,-0.94 1.03,-1.1 0.02,-0.01 0.03,-0.02 0.04,-0.03 0.25,-0.28 0.39,-0.64 0.39,-1.02l0 -2.66c0,-0.14 0.09,-0.26 0.23,-0.29 0.08,-0.02 0.17,0.01 0.24,0.06 0.07,0.06 0.11,0.14 0.11,0.23l0 3.35c0,0.35 -0.11,0.69 -0.31,0.97l-1.63 2.31c-0.07,0.09 -0.05,0.23 0.05,0.3 0.04,0.02 0.08,0.04 0.12,0.04 0.07,0 0.14,-0.03 0.18,-0.09l1.64 -2.31c0.25,-0.35 0.38,-0.78 0.38,-1.22l0 -3.35c0,-0.22 -0.09,-0.43 -0.27,-0.57z"/>
   <path class="fil7" d="M11.34 7.07c0.12,0 0.22,-0.1 0.22,-0.22l0 -0.77c0,-0.03 -0.01,-0.06 -0.01,-0.08l1 0c0.12,0 0.22,-0.1 0.22,-0.22l0 -0.41c0,-0.47 -0.32,-0.87 -0.78,-0.98l-0.39 -0.1 0 -0.07c0.25,-0.17 0.41,-0.46 0.41,-0.79l0 -0.5c0,-0.53 -0.43,-0.97 -0.96,-0.97 -0.24,0 -0.46,0.09 -0.63,0.23 -0.19,-0.46 -0.64,-0.78 -1.17,-0.78 -0.53,0 -0.99,0.32 -1.17,0.79 -0.17,-0.15 -0.39,-0.24 -0.63,-0.24 -0.54,0 -0.97,0.44 -0.97,0.97l0 0.03 0 0.47c0,0.33 0.16,0.62 0.41,0.79l0 0.07 -0.38 0.1c-0.46,0.11 -0.78,0.51 -0.78,0.98l0 0.41c0,0.12 0.09,0.22 0.21,0.22l1 0c-0.01,0.02 -0.01,0.05 -0.01,0.07l0 0.78c0,0.12 0.1,0.22 0.22,0.22l1.3 0c0.12,0 0.22,-0.1 0.22,-0.22 0,-0.12 -0.1,-0.21 -0.22,-0.21l-0.22 0 0 -0.45c0,-0.12 -0.1,-0.22 -0.22,-0.22 -0.12,0 -0.22,0.1 -0.22,0.22l0 0.45 -0.42 0 0 -0.57c0,-0.41 0.28,-0.77 0.69,-0.87l0.59 -0.14 0.4 0.9c0.03,0.08 0.11,0.13 0.2,0.13l0 0c0.08,0 0.16,-0.05 0.19,-0.13l0.4 -0.9 0.59 0.14c0.41,0.1 0.69,0.46 0.69,0.88l0 0.56 -0.43 0 0 -0.45c0,-0.12 -0.09,-0.22 -0.21,-0.22 -0.12,0 -0.22,0.1 -0.22,0.22l0 0.45 -0.24 0c-0.12,0 -0.22,0.09 -0.22,0.21 0,0.12 0.1,0.22 0.22,0.22l1.32 0zm-2.78 -2.63c-0.06,-0.02 -0.11,-0.04 -0.17,-0.05l-0.39 -0.1 0 -0.06c0.07,-0.05 0.13,-0.11 0.19,-0.18 0.09,0.15 0.22,0.28 0.37,0.38l0 0.01zm-1.65 -1.01l0 -0.1 0.3 0c0.27,0 0.53,-0.05 0.77,-0.16l0 0.26c0,0.3 -0.24,0.54 -0.53,0.54 -0.3,0 -0.54,-0.24 -0.54,-0.54zm1.51 -0.06l0 -0.23 0.29 0c0.35,0 0.67,-0.13 0.92,-0.36l0.45 0.27 0 0.35c-0.02,0.44 -0.38,0.8 -0.83,0.8 -0.46,0 -0.83,-0.37 -0.83,-0.83zm1.51 1.07l0 -0.01c0.15,-0.1 0.28,-0.22 0.38,-0.37 0.05,0.06 0.11,0.12 0.18,0.17l0 0.06 -0.38 0.1c-0.06,0.01 -0.12,0.03 -0.18,0.05zm0.58 -1.01l0 -0.03c0,-0.01 0,-0.02 0,-0.03l0 -0.2c0.24,0.11 0.51,0.16 0.77,0.16l0.3 0 0 0.1c0,0.3 -0.24,0.54 -0.53,0.54 -0.3,0 -0.54,-0.24 -0.54,-0.54zm0.54 -1.04c0.28,0 0.51,0.23 0.53,0.51l-0.3 0c-0.25,0 -0.5,-0.07 -0.73,-0.18 0.09,-0.19 0.28,-0.33 0.5,-0.33zm-2.63 0.28c0,-0.46 0.37,-0.83 0.83,-0.83 0.41,0 0.75,0.3 0.82,0.7l-0.37 -0.22c-0.09,-0.05 -0.2,-0.03 -0.27,0.05 -0.18,0.21 -0.44,0.34 -0.72,0.34l-0.29 0 0 -0.04 0 0zm-0.97 -0.28c0.22,0 0.41,0.14 0.49,0.33 -0.23,0.11 -0.48,0.18 -0.73,0.18l-0.3 0c0.02,-0.28 0.25,-0.51 0.54,-0.51zm0.51 2.39c-0.43,0.1 -0.77,0.4 -0.92,0.78l-0.88 0 0 -0.19c0,-0.27 0.18,-0.5 0.45,-0.56l0.55 -0.14c0.1,-0.02 0.16,-0.11 0.16,-0.21l0 -0.07c0.04,0.01 0.08,0.01 0.13,0.01 0.04,0 0.08,0 0.12,-0.01l0 0.06c0,0.01 0,0.01 0,0.01 0,0.07 0.03,0.14 0.09,0.19 0.03,0.01 0.06,0.02 0.08,0.03l0.32 0.07 -0.1 0.03zm1.29 0.56l-0.26 -0.58 0 -0.15c0.08,0.01 0.17,0.02 0.26,0.02 0.08,0 0.17,-0.01 0.25,-0.02l0 0.15 -0.25 0.58zm1.28 -0.56l-0.11 -0.03 0.33 -0.07c0.03,-0.01 0.05,-0.02 0.08,-0.03 0.06,-0.05 0.1,-0.12 0.1,-0.19 0,0 0,0 0,0l0 -0.07c0.04,0.01 0.08,0.01 0.12,0.01 0.04,0 0.08,0 0.12,-0.01l0 0.07c0,0.1 0.07,0.19 0.16,0.21l0.55 0.14c0.27,0.06 0.45,0.29 0.45,0.56l0 0.19 -0.88 0c-0.16,-0.38 -0.49,-0.68 -0.92,-0.78z"/>
   <path class="fil7" d="M9.24 6.64c-0.05,0 -0.11,0.02 -0.15,0.06 -0.04,0.04 -0.06,0.1 -0.06,0.15 0,0.06 0.02,0.12 0.06,0.16 0.04,0.04 0.1,0.06 0.15,0.06 0.06,0 0.12,-0.02 0.16,-0.06 0.04,-0.04 0.06,-0.1 0.06,-0.16 0,-0.05 -0.02,-0.11 -0.06,-0.15 -0.04,-0.04 -0.1,-0.06 -0.16,-0.06z"/>
   <path class="fil7" d="M9.24 0.99c0.12,0 0.22,-0.09 0.22,-0.21l0 -0.33c0,-0.12 -0.1,-0.21 -0.22,-0.21 -0.12,0 -0.21,0.09 -0.21,0.21l0 0.33c0,0.12 0.09,0.21 0.21,0.21z"/>
   <path class="fil7" d="M8.14 1.25c0.04,0.04 0.1,0.06 0.15,0.06 0.06,0 0.12,-0.02 0.16,-0.06 0.08,-0.08 0.08,-0.22 0,-0.31l-0.23 -0.22c-0.08,-0.09 -0.22,-0.09 -0.31,0 -0.08,0.08 -0.08,0.22 0,0.3l0.23 0.23z"/>
   <path class="fil7" d="M10.19 1.32c0.06,0 0.11,-0.02 0.15,-0.07l0.23 -0.22c0.08,-0.09 0.08,-0.22 0,-0.31 -0.09,-0.08 -0.22,-0.08 -0.31,0l-0.22 0.23c-0.09,0.08 -0.09,0.22 0,0.3 0.04,0.05 0.1,0.07 0.15,0.07z"/>
   <g>
   </g>
   <g>
   </g>
   <g>
   </g>
   <g>
   </g>
   <g>
   </g>
   <g>
   </g>
   <g>
   </g>
   <g>
   </g>
   <g>
   </g>
   <g>
   </g>
   <g>
   </g>
   <g>
   </g>
   <g>
   </g>
   <g>
   </g>
   <g>
   </g>
  </g>
 </g>
</svg>
