<?xml version="1.0" encoding="UTF-8"?>
<!DOCTYPE svg PUBLIC "-//W3C//DTD SVG 1.1//EN" "http://www.w3.org/Graphics/SVG/1.1/DTD/svg11.dtd">
<!-- Creator: CorelDRAW 2019 (64-Bit) -->
<svg xmlns="http://www.w3.org/2000/svg" xml:space="preserve" width="150px" height="100px" version="1.1" style="shape-rendering:geometricPrecision; text-rendering:geometricPrecision; image-rendering:optimizeQuality; fill-rule:evenodd; clip-rule:evenodd"
viewBox="0 0 3.8 2.53"
 xmlns:xlink="http://www.w3.org/1999/xlink"
 enable-background="new 0 0 64 64">
 <defs>
  <style type="text/css">
   <![CDATA[
    .fil0 {fill:none}
    .fil8 {fill:black}
    .fil7 {fill:#4472B0}
    .fil3 {fill:#8892A0}
    .fil4 {fill:#8BD2F5}
    .fil1 {fill:#A0A8B3}
    .fil2 {fill:#B3B9C2}
    .fil5 {fill:#B9E4F9}
    .fil6 {fill:#EBF7FE}
   ]]>
  </style>
 </defs>
 <g id="Layer_x0020_1">
  <metadata id="CorelCorpID_0Corel-Layer"/>
  <rect class="fil0" width="3.8" height="2.53"/>
  <g id="chat-bot.svg">
   <g>
    <path class="fil1" d="M2.44 2.34l-1.07 0c-0.08,0 -0.15,-0.06 -0.15,-0.14l0 -0.86c0,-0.08 0.07,-0.14 0.15,-0.14l1.07 0c0.07,0 0.14,0.06 0.14,0.14l0 0.86c0,0.08 -0.07,0.14 -0.14,0.14l0 0z"/>
    <path class="fil2" d="M2.44 1.2l-1.07 0c-0.08,0 -0.15,0.06 -0.15,0.14l0 0.76c0.08,0.02 0.16,0.03 0.24,0.03 0.51,0 0.94,-0.38 1.08,-0.89 -0.03,-0.02 -0.07,-0.04 -0.1,-0.04l0 0z"/>
    <path class="fil3" d="M1.22 1.48l-0.14 0c-0.04,0 -0.07,0.04 -0.07,0.08l0 0.42c0,0.04 0.03,0.07 0.07,0.07l0.14 0 0 -0.57z"/>
    <path class="fil4" d="M1.69 0.7l0 -0.43c0,-0.04 -0.03,-0.07 -0.07,-0.07l-0.72 0c-0.04,0 -0.07,0.03 -0.07,0.07l0 0.43c0,0.04 0.03,0.07 0.07,0.07l0.32 0 0.15 0.14 0 -0.14 0.25 0c0.04,0 0.07,-0.03 0.07,-0.07l0 0z"/>
    <path class="fil5" d="M1.65 0.21c-0.01,-0.01 -0.02,-0.01 -0.03,-0.01l-0.72 0c-0.04,0 -0.07,0.03 -0.07,0.07l0 0.43c0,0.01 0,0.01 0,0.02 0.36,-0.06 0.66,-0.25 0.82,-0.51z"/>
    <path class="fil4" d="M2.11 0.84l0 -0.42c0,-0.04 0.04,-0.08 0.08,-0.08l0.71 0c0.04,0 0.07,0.04 0.07,0.08l0 0.42c0,0.04 -0.03,0.07 -0.07,0.07l-0.32 0 -0.14 0.15 0 -0.15 -0.25 0c-0.04,0 -0.08,-0.03 -0.08,-0.07z"/>
    <path class="fil5" d="M2.9 0.34c0,0 0,0 0,0l-0.71 0c-0.04,0 -0.08,0.04 -0.08,0.08l0 0.42c0,0.02 0.01,0.03 0.01,0.04 0.38,-0.01 0.69,-0.23 0.78,-0.54z"/>
    <path class="fil3" d="M2.58 1.48l0.14 0c0.04,0 0.07,0.04 0.07,0.08l0 0.42c0,0.04 -0.03,0.07 -0.07,0.07l-0.14 0 0 -0.57z"/>
    <g>
     <path class="fil6" d="M1.58 1.84l0.64 0 0 0.04c0,0.17 -0.14,0.32 -0.32,0.32 -0.18,0 -0.32,-0.15 -0.32,-0.32l0 -0.04z"/>
     <circle class="fil6" cx="1.54" cy="1.59" r="0.11"/>
     <circle class="fil6" cx="2.26" cy="1.59" r="0.11"/>
    </g>
    <polygon class="fil3" points="1.58,1.06 2.22,1.06 2.22,1.2 1.58,1.2 "/>
    <circle class="fil7" cx="1.9" cy="0.81" r="0.11"/>
    <g>
     <path class="fil8" d="M2.72 1.45l-0.11 0 0 -0.11c0,-0.1 -0.08,-0.18 -0.17,-0.18l-0.18 0 0 -0.11c0,-0.02 -0.02,-0.03 -0.04,-0.03l-0.28 0 0 -0.08c0.06,-0.01 0.1,-0.07 0.1,-0.14 0,-0.07 -0.06,-0.14 -0.14,-0.14 -0.08,0 -0.14,0.07 -0.14,0.14 0,0.07 0.04,0.13 0.11,0.14l0 0.08 -0.29 0c-0.02,0 -0.04,0.01 -0.04,0.03l0 0.11 -0.17 0c-0.1,0 -0.18,0.08 -0.18,0.18l0 0.11 -0.11 0c-0.06,0 -0.11,0.04 -0.11,0.1l0 0.43c0,0.06 0.05,0.11 0.11,0.11l0.11 0 0 0.1c0,0.1 0.08,0.18 0.18,0.18l1.07 0c0.09,0 0.17,-0.08 0.17,-0.18l0 -0.1 0.11 0c0.06,0 0.11,-0.05 0.11,-0.11l0 -0.43c0,-0.06 -0.05,-0.1 -0.11,-0.1zm-0.89 -0.65c0,-0.04 0.03,-0.07 0.07,-0.07 0.04,0 0.07,0.03 0.07,0.07 0,0.04 -0.03,0.08 -0.07,0.08 -0.04,0 -0.07,-0.04 -0.07,-0.08zm-0.75 1.22c-0.02,0 -0.03,-0.02 -0.03,-0.04l0 -0.43c0,-0.02 0.01,-0.03 0.03,-0.03l0.11 0 0 0.5 -0.11 0zm0.54 -0.93l0.57 0 0 0.07 -0.57 0 0 -0.07zm0.92 1.1c0,0.06 -0.05,0.11 -0.1,0.11l-1.07 0c-0.06,0 -0.11,-0.05 -0.11,-0.11l0 -0.85c0,-0.06 0.05,-0.11 0.11,-0.11l1.07 0c0.05,0 0.1,0.05 0.1,0.11l0 0.85zm0.22 -0.21c0,0.02 -0.02,0.04 -0.04,0.04l-0.11 0 0 -0.5 0.11 0c0.02,0 0.04,0.01 0.04,0.03l0 0.43z"/>
     <path class="fil8" d="M2.22 1.8l-0.64 0c-0.02,0 -0.04,0.02 -0.04,0.04l0 0.03c0,0.2 0.16,0.36 0.36,0.36 0.2,0 0.36,-0.16 0.36,-0.36l0 -0.03c0,-0.02 -0.02,-0.04 -0.04,-0.04zm-0.32 0.36c-0.16,0 -0.28,-0.13 -0.28,-0.29l0.57 0c0,0.16 -0.13,0.29 -0.29,0.29z"/>
     <path class="fil8" d="M1.69 1.59c0,-0.08 -0.07,-0.14 -0.15,-0.14 -0.07,0 -0.14,0.06 -0.14,0.14 0,0.08 0.07,0.14 0.14,0.14 0.08,0 0.15,-0.06 0.15,-0.14zm-0.22 0c0,-0.04 0.04,-0.07 0.07,-0.07 0.04,0 0.08,0.03 0.08,0.07 0,0.04 -0.04,0.07 -0.08,0.07 -0.03,0 -0.07,-0.03 -0.07,-0.07z"/>
     <path class="fil8" d="M2.26 1.45c-0.08,0 -0.15,0.06 -0.15,0.14 0,0.08 0.07,0.14 0.15,0.14 0.08,0 0.14,-0.06 0.14,-0.14 0,-0.08 -0.06,-0.14 -0.14,-0.14zm0 0.21c-0.04,0 -0.07,-0.03 -0.07,-0.07 0,-0.04 0.03,-0.07 0.07,-0.07 0.04,0 0.07,0.03 0.07,0.07 0,0.04 -0.03,0.07 -0.07,0.07z"/>
     <path class="fil8" d="M1.34 0.94c0.01,0 0.02,0.01 0.03,0.01 0,0 0.01,0 0.01,-0.01 0.01,0 0.02,-0.01 0.02,-0.03l0 -0.11 0.22 0c0.05,0 0.1,-0.04 0.1,-0.1l0 -0.43c0,-0.06 -0.05,-0.11 -0.1,-0.11l-0.72 0c-0.06,0 -0.1,0.05 -0.1,0.11l0 0.43c0,0.06 0.04,0.1 0.1,0.1l0.31 0 0.13 0.14zm-0.47 -0.24l0 -0.43c0,-0.02 0.01,-0.04 0.03,-0.04l0.72 0c0.02,0 0.03,0.02 0.03,0.04l0 0.43c0,0.02 -0.01,0.03 -0.03,0.03l-0.25 0c-0.02,0 -0.04,0.02 -0.04,0.04l0 0.05 -0.08 -0.08c-0.01,0 -0.02,-0.01 -0.03,-0.01l-0.32 0c-0.02,0 -0.03,-0.01 -0.03,-0.03l0 0z"/>
     <path class="fil8" d="M2.9 0.31l-0.71 0c-0.06,0 -0.11,0.04 -0.11,0.1l0 0.43c0,0.06 0.05,0.11 0.11,0.11l0.21 0 0 0.1c0,0.02 0.01,0.03 0.02,0.04 0.01,0 0.01,0 0.02,0 0,0 0.01,0 0.02,-0.01l0.13 -0.13 0.31 0c0.06,0 0.11,-0.05 0.11,-0.11l0 -0.43c0,-0.06 -0.05,-0.1 -0.11,-0.1zm0.03 0.53c0,0.02 -0.01,0.04 -0.03,0.04l-0.32 0c-0.01,0 -0.02,0 -0.03,0.01l-0.08 0.08 0 -0.06c0,-0.02 -0.02,-0.03 -0.03,-0.03l-0.25 0c-0.02,0 -0.04,-0.02 -0.04,-0.04l0 -0.43c0,-0.02 0.02,-0.03 0.04,-0.03l0.71 0c0.02,0 0.03,0.01 0.03,0.03l0 0.43z"/>
     <polygon class="fil8" points="0.94,0.31 1.58,0.31 1.58,0.38 0.94,0.38 "/>
     <polygon class="fil8" points="0.94,0.59 1.58,0.59 1.58,0.66 0.94,0.66 "/>
     <polygon class="fil8" points="1.01,0.45 1.51,0.45 1.51,0.52 1.01,0.52 "/>
     <polygon class="fil8" points="2.22,0.45 2.86,0.45 2.86,0.52 2.22,0.52 "/>
     <polygon class="fil8" points="2.22,0.73 2.86,0.73 2.86,0.8 2.22,0.8 "/>
     <polygon class="fil8" points="2.29,0.59 2.79,0.59 2.79,0.66 2.29,0.66 "/>
    </g>
   </g>
  </g>
 </g>
</svg>
