<?xml version="1.0" encoding="UTF-8"?>
<!DOCTYPE svg PUBLIC "-//W3C//DTD SVG 1.1//EN" "http://www.w3.org/Graphics/SVG/1.1/DTD/svg11.dtd">
<!-- Creator: CorelDRAW 2019 (64-Bit) -->
<svg xmlns="http://www.w3.org/2000/svg" xml:space="preserve" width="884px" height="562px" version="1.1" style="shape-rendering:geometricPrecision; text-rendering:geometricPrecision; image-rendering:optimizeQuality; fill-rule:evenodd; clip-rule:evenodd"
viewBox="0 0 104.76 66.6"
 xmlns:xlink="http://www.w3.org/1999/xlink"
 enable-background="new 0 0 512 512">
 <defs>
  <style type="text/css">
   <![CDATA[
    .fil0 {fill:none}
    .fil13 {fill:#2626BC}
    .fil10 {fill:#4369FD}
    .fil7 {fill:#6583FE}
    .fil4 {fill:#8399FE}
    .fil12 {fill:#97FFD2}
    .fil3 {fill:#9FB0FE}
    .fil8 {fill:#B7C5FF}
    .fil11 {fill:#FF7EB8}
    .fil9 {fill:#FFA8CF}
    .fil6 {fill:#FFC4DF}
    .fil5 {fill:white}
    .fil2 {fill:#2626BC;fill-opacity:0.101961}
    .fil1 {fill:url(#id0)}
   ]]>
  </style>
  <linearGradient id="id0" gradientUnits="userSpaceOnUse" x1="31.83" y1="21.6" x2="74.35" y2="44.53">
   <stop offset="0" style="stop-opacity:1; stop-color:#FFDBED"/>
   <stop offset="1" style="stop-opacity:1; stop-color:#DCFDEE"/>
  </linearGradient>
 </defs>
 <g id="Layer_x0020_1">
  <metadata id="CorelCorpID_0Corel-Layer"/>
  <rect class="fil0" width="104.76" height="66.6"/>
  <ellipse class="fil0" cx="52.38" cy="33.3" rx="32.1" ry="32.73"/>
  <g id="devlopment-new.svg">
   <g>
    <path class="fil1" d="M75.27 36.37c-1.09,-3.18 -3.5,-5.52 -6.41,-6.62 -1.5,-0.58 -2.5,-2.01 -2.52,-3.62 -0.01,-0.03 -0.01,-0.07 -0.01,-0.11 -0.14,-5.92 -5.08,-10.66 -11.01,-10.56 -3.49,0.06 -6.58,1.77 -8.51,4.39 -1.67,2.26 -4.27,3.67 -7.07,3.67 -0.08,0 -0.17,0 -0.25,0 -5.68,0.12 -10.5,4.99 -10.58,10.67 -0.08,6.05 4.8,10.97 10.82,10.97 4.67,0 8.65,-2.96 10.17,-7.1 0.4,-1.09 1.57,-1.67 2.68,-1.36 0.02,0.01 0.03,0.01 0.05,0.01 1.01,0.29 1.69,1.26 1.6,2.31 -0.11,1.41 0.06,2.86 0.54,4.29 1.88,5.6 7.99,8.68 13.61,6.85 5.75,-1.88 8.84,-8.09 6.89,-13.79l0 0z"/>
    <path class="fil2" d="M66.21 21.82l-2.57 0 0 -2.83c0,-0.27 -0.06,-0.53 -0.17,-0.78l-1.84 -3.95c-0.33,-0.71 -1.34,-0.71 -1.67,0l-1.84 3.95c-0.11,0.25 -0.17,0.51 -0.17,0.78l0 2.83 -19.39 0c-0.84,0 -1.52,0.68 -1.52,1.51l0 19.8c0,0.84 0.68,1.52 1.52,1.52l27.65 0c0.84,0 1.52,-0.68 1.52,-1.52l0 -19.8c0,-0.83 -0.68,-1.51 -1.52,-1.51l0 0z"/>
    <polygon class="fil3" points="56.94,52.42 47.83,52.42 49.01,47.71 49.65,45.2 55.12,45.2 55.75,47.71 "/>
    <polygon class="fil4" points="55.75,47.71 49.01,47.71 49.65,45.2 55.12,45.2 "/>
    <path class="fil5" d="M66.21 46.58l-27.65 0c-0.84,0 -1.52,-0.68 -1.52,-1.52l0 -19.8c0,-0.84 0.68,-1.52 1.52,-1.52l27.65 0c0.84,0 1.52,0.68 1.52,1.52l0 19.8c0,0.84 -0.68,1.52 -1.52,1.52l0 0z"/>
    <path class="fil6" d="M37.04 36.33l0 8.73c0,0.84 0.68,1.52 1.52,1.52l27.65 0c0.84,0 1.52,-0.68 1.52,-1.52l0 -8.73 -30.69 0z"/>
    <path class="fil7" d="M67.73 27.61l0 -2.35c0,-0.84 -0.68,-1.52 -1.52,-1.52l-27.65 0c-0.84,0 -1.52,0.68 -1.52,1.52l0 2.35 30.69 0z"/>
    <path class="fil8" d="M37.04 42.53l0 2.53c0,0.84 0.68,1.52 1.52,1.52l27.65 0c0.84,0 1.52,-0.68 1.52,-1.52l0 -2.53 -30.69 0z"/>
    <path class="fil5" d="M46.76 38.5l-6.76 0c-0.25,0 -0.46,-0.21 -0.46,-0.46 0,-0.25 0.21,-0.46 0.46,-0.46l6.76 0c0.26,0 0.46,0.21 0.46,0.46 0,0.25 -0.2,0.46 -0.46,0.46z"/>
    <path class="fil9" d="M41.54 35.2l-1.54 0c-0.25,0 -0.46,-0.21 -0.46,-0.46 0,-0.25 0.21,-0.46 0.46,-0.46l1.54 0c0.25,0 0.46,0.21 0.46,0.46 0,0.25 -0.21,0.46 -0.46,0.46z"/>
    <path class="fil5" d="M46.76 40.32l-6.76 0c-0.25,0 -0.46,-0.21 -0.46,-0.46 0,-0.25 0.21,-0.46 0.46,-0.46l6.76 0c0.26,0 0.46,0.21 0.46,0.46 0,0.25 -0.2,0.46 -0.46,0.46z"/>
    <g>
     <path class="fil10" d="M41.21 33.01c-0.12,0 -0.24,-0.04 -0.33,-0.13l-1.1 -1.1c-0.18,-0.18 -0.18,-0.47 0,-0.65l1.1 -1.11c0.18,-0.17 0.47,-0.17 0.65,0 0.18,0.18 0.18,0.47 0,0.65l-0.78 0.78 0.78 0.78c0.18,0.18 0.18,0.47 0,0.65 -0.09,0.09 -0.21,0.13 -0.32,0.13l0 0z"/>
     <path class="fil10" d="M45.49 33.01c-0.11,0 -0.23,-0.04 -0.32,-0.13 -0.18,-0.18 -0.18,-0.47 0,-0.65l0.78 -0.78 -0.78 -0.78c-0.18,-0.18 -0.18,-0.47 0,-0.65 0.18,-0.17 0.47,-0.17 0.65,0l1.1 1.11c0.18,0.18 0.18,-0.08 0,0.1l-1.1 1.65c-0.09,0.09 -0.21,0.13 -0.33,0.13z"/>
     <path class="fil10" d="M42.73 33.01c-0.08,0 -0.16,-0.01 -0.23,-0.05 -0.22,-0.13 -0.3,-0.41 -0.17,-0.63l1.24 -2.21c0.13,-0.22 0.41,-0.29 0.63,-0.17 0.22,0.12 0.3,0.4 0.17,0.62l-1.24 2.21c-0.09,0.15 -0.24,0.23 -0.4,0.23l0 0z"/>
    </g>
    <path class="fil11" d="M59.96 16.18l-1.84 3.96c-0.11,0.24 -0.17,0.5 -0.17,0.77l0 21.62 5.69 0 0 -21.62c0,-0.27 -0.06,-0.53 -0.17,-0.77l-1.84 -3.96c-0.33,-0.7 -1.34,-0.7 -1.67,0z"/>
    <polygon class="fil12" points="57.95,21.44 60.8,21.44 60.8,42.53 57.95,42.53 "/>
    <path class="fil6" d="M59.96 16.18l-1.84 3.96c-0.11,0.24 -0.17,0.5 -0.17,0.77l0 1.17c0.33,0.18 0.71,0.28 1.1,0.28 0.46,0 0.89,-0.14 1.25,-0.37 0.31,-0.19 0.7,-0.18 1,0.01 0.36,0.23 0.78,0.36 1.24,0.36 0.4,0 0.77,-0.1 1.1,-0.28l0 -1.17c0,-0.27 -0.06,-0.53 -0.17,-0.77l-1.84 -3.96c-0.33,-0.71 -1.34,-0.71 -1.67,0l0 0z"/>
    <path class="fil10" d="M59.96 16.18l-1 2.17c0.5,0.41 1.14,0.65 1.84,0.65 0.69,0 1.33,-0.24 1.83,-0.65l-1 -2.17c-0.33,-0.7 -1.34,-0.7 -1.67,0l0 0z"/>
    <path class="fil7" d="M51.28 26.36l-1.84 3.96c-0.11,0.24 -0.17,0.5 -0.17,0.77l0 11.44 5.69 0 0 -11.44c0,-0.27 -0.06,-0.53 -0.17,-0.77l-1.84 -3.96c-0.33,-0.71 -1.34,-0.71 -1.67,0l0 0z"/>
    <polygon class="fil3" points="49.27,31.62 52.11,31.62 52.11,42.53 49.27,42.53 "/>
    <path class="fil6" d="M51.28 26.36l-1.84 3.96c-0.11,0.24 -0.17,0.5 -0.17,0.77l0 1.17c0.33,0.18 0.7,0.28 1.1,0.28 0.46,0 0.89,-0.14 1.25,-0.37 0.31,-0.19 0.7,-0.18 1,0.01 0.36,0.22 0.78,0.35 1.24,0.35 0.4,0 0.77,-0.09 1.1,-0.27l0 -1.17c0,-0.27 -0.06,-0.53 -0.17,-0.77l-1.84 -3.96c-0.33,-0.71 -1.34,-0.71 -1.67,0l0 0z"/>
    <path class="fil4" d="M51.28 26.36l-1 2.17c0.5,0.41 1.14,0.65 1.83,0.65 0.7,0 1.34,-0.24 1.84,-0.65l-1 -2.17c-0.33,-0.71 -1.34,-0.71 -1.67,0l0 0z"/>
    <g>
     <path class="fil13" d="M39.64 25.67l0 0.01c0,0.26 0.2,0.46 0.46,0.46 0.25,0 0.45,-0.2 0.45,-0.46l0 -0.01c0,-0.25 -0.2,-0.46 -0.45,-0.46 -0.26,0 -0.46,0.21 -0.46,0.46z"/>
     <path class="fil13" d="M41.19 25.67l0 0.01c0,0.26 0.21,0.46 0.46,0.46 0.25,0 0.46,-0.2 0.46,-0.46l0 -0.01c0,-0.25 -0.21,-0.46 -0.46,-0.46 -0.25,0 -0.46,0.21 -0.46,0.46z"/>
     <path class="fil13" d="M42.74 25.67l0 0.01c0,0.26 0.21,0.46 0.46,0.46 0.25,0 0.46,-0.2 0.46,-0.46l0 -0.01c0,-0.25 -0.21,-0.46 -0.46,-0.46 -0.25,0 -0.46,0.21 -0.46,0.46z"/>
     <path class="fil13" d="M66.21 23.28l-2.11 0 0 -2.37c0,-0.33 -0.08,-0.66 -0.22,-0.96l-1.84 -3.96c-0.23,-0.49 -0.7,-0.8 -1.24,-0.8 -0.55,0 -1.02,0.31 -1.25,0.8l-1.84 3.96c-0.14,0.3 -0.22,0.63 -0.22,0.96l0 6.24 -3.67 0 -0.46 -0.98c-0.23,-0.49 -0.7,-0.8 -1.24,-0.8 -0.55,0 -1.02,0.31 -1.25,0.8l-0.46 0.98 -12.91 0 0 -1.89c0,-0.58 0.47,-1.06 1.06,-1.06l16.87 0c0.25,0 0.46,-0.21 0.46,-0.46 0,-0.25 -0.21,-0.46 -0.46,-0.46l-16.87 0c-1.09,0 -1.98,0.89 -1.98,1.98l0 19.8c0,1.09 0.89,1.98 1.98,1.98l10.15 0 -1.24 4.92 -1.19 0c-0.25,0 -0.46,0.2 -0.46,0.46 0,0.25 0.21,0.46 0.46,0.46l12.2 0c0.25,0 0.46,-0.21 0.46,-0.46 0,-0.25 -0.21,-0.46 -0.46,-0.46l-1.19 0 -1.24 -4.92 10.16 0c1.09,0 1.97,-0.89 1.97,-1.98l0 -19.8c0,-1.09 -0.88,-1.98 -1.97,-1.98l0 0zm-4.96 18.79l0 -19.57c0.4,0.21 0.84,0.32 1.29,0.32 0.22,0 0.43,-0.03 0.64,-0.08l0 19.33 -1.93 0zm-2.84 0l0 -19.33c0.21,0.05 0.43,0.08 0.64,0.08 0.45,0 0.89,-0.11 1.29,-0.32l0 19.57 -1.93 0zm5.69 -14l3.17 0 0 14 -3.17 0 0 -14zm2.11 -3.87c0.58,0 1.06,0.48 1.06,1.06l0 1.89 -3.17 0 0 -2.95 2.11 0zm-5.83 -7.82c0.11,-0.25 0.35,-0.27 0.42,-0.27 0.06,0 0.3,0.02 0.41,0.27l0.85 1.81c-0.38,0.23 -0.82,0.36 -1.26,0.36 -0.46,0 -0.89,-0.13 -1.27,-0.36l0.85 -1.81zm-1.84 3.95l0.61 -1.3c0.5,0.28 1.07,0.43 1.65,0.43 0.58,0 1.14,-0.15 1.65,-0.43l0.6 1.3c0.09,0.18 0.13,0.38 0.13,0.58l0 0.87c-0.2,0.08 -0.42,0.12 -0.64,0.12 -0.35,0 -0.7,-0.1 -0.99,-0.29 -0.46,-0.29 -1.05,-0.29 -1.5,0 -0.29,0.19 -0.64,0.29 -1,0.29 -0.22,0 -0.43,-0.04 -0.64,-0.12l0 -0.87c0,-0.2 0.05,-0.4 0.13,-0.58l0 0zm-1.05 7.74l0 14 -2.07 0 0 -10.98c0,-0.33 -0.08,-0.67 -0.22,-0.97l-0.95 -2.05 3.24 0zm-4.92 14l0 -9.39c0.4,0.2 0.84,0.31 1.29,0.31 0.21,0 0.43,-0.02 0.64,-0.07l0 9.15 -1.93 0 0 0zm-2.71 -11.56l0.61 -1.3c0.5,0.28 1.07,0.43 1.64,0.43 0.58,0 1.15,-0.15 1.66,-0.43l0.6 1.3c0.09,0.18 0.13,0.38 0.13,0.58l0 0.87c-0.2,0.08 -0.42,0.12 -0.64,0.12 -0.35,0 -0.7,-0.1 -0.99,-0.29 -0.46,-0.29 -1.05,-0.29 -1.5,-0.01 -0.29,0.2 -0.64,0.3 -1,0.3 -0.22,0 -0.43,-0.04 -0.64,-0.12l0 -0.87c0,-0.2 0.05,-0.4 0.13,-0.58l0 0zm1.84 -3.96c0.11,-0.24 0.35,-0.26 0.42,-0.26 0.06,0 0.3,0.02 0.41,0.26l0.85 1.82c-0.38,0.23 -0.82,0.35 -1.27,0.35 -0.45,0 -0.88,-0.12 -1.26,-0.35l0.85 -1.82zm-1.72 1.52l-0.95 2.05c-0.14,0.3 -0.22,0.64 -0.22,0.97l0 8.91c0,0.26 0.21,0.46 0.46,0.46 0.26,0 0.46,-0.2 0.46,-0.46l0 -7.08c0.21,0.05 0.43,0.07 0.64,0.07 0.45,0 0.89,-0.11 1.29,-0.31l0 9.39 -14.16 0 0 -14 12.48 0zm6.37 23.89l-7.94 0 1.25 -4.92 5.45 0 1.24 4.92zm9.86 -5.84l-27.65 0c-0.59,0 -1.06,-0.48 -1.06,-1.06l0 -2.07 29.77 0 0 2.07c0,0.58 -0.48,1.06 -1.06,1.06l0 0z"/>
    </g>
    <path class="fil11" d="M53.95 21.97c-0.11,0 -0.23,-0.05 -0.32,-0.14l-1.01 -1.01c-0.18,-0.17 -0.18,-0.46 0,-0.64l1.01 -1.01c0.18,-0.18 0.47,-0.18 0.65,0l1.01 1.01c0.17,0.18 0.17,0.47 0,0.64l-1.01 1.01c-0.09,0.09 -0.21,0.14 -0.33,0.14zm-0.36 -1.47l0.36 0.36 0.36 -0.36 -0.36 -0.36 -0.36 0.36z"/>
    <path class="fil7" d="M40.65 51.86c-0.25,0 -0.45,-0.21 -0.45,-0.46 0,-0.3 -0.25,-0.55 -0.55,-0.55 -0.26,0 -0.46,-0.21 -0.46,-0.46 0,-0.25 0.2,-0.46 0.46,-0.46 0.3,0 0.55,-0.24 0.55,-0.55 0,-0.25 0.2,-0.46 0.45,-0.46 0.26,0 0.46,0.21 0.46,0.46 0,0.31 0.25,0.55 0.55,0.55 0.26,0 0.46,0.21 0.46,0.46 0,0.25 -0.2,0.46 -0.46,0.46 -0.3,0 -0.55,0.25 -0.55,0.55 0,0.25 -0.2,0.46 -0.46,0.46z"/>
    <path class="fil7" d="M49.96 18.99c-0.25,0 -0.46,-0.2 -0.46,-0.46 0,-0.3 -0.24,-0.55 -0.55,-0.55 -0.25,0 -0.46,-0.2 -0.46,-0.45 0,-0.26 0.21,-0.46 0.46,-0.46 0.31,0 0.55,-0.25 0.55,-0.55 0,-0.26 0.21,-0.46 0.46,-0.46 0.25,0 0.46,0.2 0.46,0.46 0,0.3 0.25,0.55 0.55,0.55 0.25,0 0.46,0.2 0.46,0.46 0,0.25 -0.21,0.45 -0.46,0.45 -0.3,0 -0.55,0.25 -0.55,0.55 0,0.26 -0.21,0.46 -0.46,0.46z"/>
    <path class="fil12" d="M41.13 21.14c-0.25,0 -0.46,-0.2 -0.46,-0.46 0,-0.3 -0.24,-0.55 -0.55,-0.55 -0.25,0 -0.46,-0.2 -0.46,-0.45 0,-0.26 0.21,-0.46 0.46,-0.46 0.31,0 0.55,-0.25 0.55,-0.55 0,-0.26 0.21,-0.46 0.46,-0.46 0.25,0 0.46,0.2 0.46,0.46 0,0.3 0.25,0.55 0.55,0.55 0.25,0 0.46,0.2 0.46,0.46 0,0.25 -0.21,0.45 -0.46,0.45 -0.3,0 -0.55,0.25 -0.55,0.55 0,0.26 -0.21,0.46 -0.46,0.46z"/>
   </g>
  </g>
 </g>
</svg>
