<?xml version="1.0" encoding="UTF-8"?>
<!DOCTYPE svg PUBLIC "-//W3C//DTD SVG 1.1//EN" "http://www.w3.org/Graphics/SVG/1.1/DTD/svg11.dtd">
<!-- Creator: CorelDRAW 2019 (64-Bit) -->
<svg xmlns="http://www.w3.org/2000/svg" xml:space="preserve" width="150px" height="100px" version="1.1" style="shape-rendering:geometricPrecision; text-rendering:geometricPrecision; image-rendering:optimizeQuality; fill-rule:evenodd; clip-rule:evenodd"
viewBox="0 0 3.81 2.54"
 xmlns:xlink="http://www.w3.org/1999/xlink">
 <defs>
  <style type="text/css">
   <![CDATA[
    .fil0 {fill:none}
    .fil10 {fill:#39519D}
    .fil3 {fill:#57B7EB}
    .fil6 {fill:#A1D51C}
    .fil1 {fill:#AAE1F9}
    .fil5 {fill:#C4F236}
    .fil9 {fill:#CC5144}
    .fil8 {fill:#F8664F}
    .fil7 {fill:#F89C8D}
    .fil2 {fill:#F9E109}
    .fil4 {fill:#FCBC04}
   ]]>
  </style>
 </defs>
 <g id="Layer_x0020_1">
  <metadata id="CorelCorpID_0Corel-Layer"/>
  <rect class="fil0" width="3.81" height="2.54"/>
  <g id="digital-marketing.svg">
   <g id="Fill_Outline" data-name="Fill Outline">
    <polygon class="fil1" points="1.01,1.44 1.97,1.44 1.97,2.2 1.01,2.2 "/>
    <path class="fil2" d="M0.91 2.2l1.17 0 0 0.07c0,0.07 -0.06,0.14 -0.14,0.14l-0.9 0c-0.07,0 -0.13,-0.07 -0.13,-0.14l0 -0.07z"/>
    <path class="fil3" d="M1.15 1.72l0 -0.28 -0.14 0 0 0.76 0.96 0 0 -0.14 -0.48 0c-0.19,0 -0.34,-0.15 -0.34,-0.34l0 0z"/>
    <path class="fil4" d="M1.11 2.3c-0.05,0 -0.1,-0.04 -0.1,-0.1l-0.1 0 0 0.07c0,0.07 0.06,0.14 0.13,0.14l0.9 0c0.06,0 0.12,-0.05 0.13,-0.11l-0.96 0z"/>
    <path class="fil5" d="M2.42 1.48l0.41 0c0.04,0 0.07,0.03 0.07,0.07l0 0.41c0,0.04 -0.03,0.07 -0.07,0.07l-0.41 0c-0.04,0 -0.07,-0.03 -0.07,-0.07l0 -0.41c0,-0.04 0.03,-0.07 0.07,-0.07z"/>
    <circle class="fil3" cx="2.63" cy="1.75" r="0.1"/>
    <path class="fil6" d="M2.46 1.65l0 -0.17 -0.04 0c-0.04,0 -0.07,0.03 -0.07,0.07l0 0.41c0,0.04 0.03,0.07 0.07,0.07l0.41 0c0.04,0 0.07,-0.03 0.07,-0.07l0 -0.04 -0.17 0c-0.15,0 -0.27,-0.12 -0.27,-0.27l0 0z"/>
    <circle class="fil1" cx="2.66" cy="1.72" r="0.03"/>
    <polygon class="fil5" points="0.91,0.72 1.32,0.72 1.32,1.27 0.91,1.27 "/>
    <circle class="fil7" cx="1.73" cy="0.65" r="0.28"/>
    <polygon class="fil1" points="1.66,0.75 1.66,0.55 1.87,0.65 "/>
    <path class="fil8" d="M1.84 0.82c-0.16,0 -0.28,-0.12 -0.28,-0.27 0,0 0,0 0,0 0,-0.05 0.01,-0.1 0.04,-0.14 -0.09,0.05 -0.14,0.14 -0.14,0.24 0,0.15 0.12,0.27 0.28,0.27 0.09,0 0.18,-0.05 0.23,-0.13 -0.04,0.02 -0.08,0.03 -0.13,0.03 0,0 0,0 0,0l0 0z"/>
    <path class="fil1" d="M2.42 0.41l0.41 0c0.04,0 0.07,0.03 0.07,0.07l0 0.41c0,0.04 -0.03,0.07 -0.07,0.07l-0.41 0c-0.04,0 -0.07,-0.03 -0.07,-0.07l0 -0.41c0,-0.04 0.03,-0.07 0.07,-0.07z"/>
    <path class="fil3" d="M2.46 0.58l0 -0.17 -0.04 0c-0.04,0 -0.07,0.03 -0.07,0.07l0 0.41c0,0.04 0.03,0.07 0.07,0.07l0.41 0c0.04,0 0.07,-0.03 0.07,-0.07l0 -0.03 -0.17 0c-0.15,0 -0.27,-0.13 -0.27,-0.28z"/>
    <path class="fil6" d="M1.01 0.96l0 -0.24 -0.1 0 0 0.55 0.41 0 0 -0.1 -0.1 0c-0.12,0 -0.21,-0.1 -0.21,-0.21l0 0z"/>
    <path class="fil8" d="M1.46 1.79l0.12 -0.07 0.14 0.24c0.02,0.03 0,0.08 -0.03,0.1 -0.03,0.01 -0.07,0 -0.09,-0.03l-0.14 -0.24 0 0z"/>
    <polygon class="fil9" points="1.67,1.87 1.58,1.72 1.46,1.79 1.54,1.93 1.6,1.9 "/>
    <polygon class="fil5" points="2.19,1.61 1.6,1.83 1.43,1.53 1.91,1.13 "/>
    <path class="fil7" d="M1.28 1.62l0.15 -0.09 0.17 0.3 -0.15 0.09c-0.05,0.02 -0.11,0.01 -0.14,-0.04l-0.07 -0.12c-0.03,-0.05 -0.01,-0.11 0.04,-0.14l0 0z"/>
    <path class="fil9" d="M1.18 1.79l0.06 -0.03 0.07 0.12 -0.06 0.03c-0.03,0.02 -0.07,0.01 -0.09,-0.02 -0.02,-0.04 -0.01,-0.08 0.02,-0.1l0 0z"/>
    <path class="fil6" d="M1.64 1.72c0,0.01 -0.01,0.01 -0.01,0.01l-0.07 0.04 0.04 0.06 0.59 -0.22 -0.04 -0.08 -0.51 0.19z"/>
    <path class="fil8" d="M1.55 1.78c-0.03,0.01 -0.06,0.02 -0.09,0.02 -0.09,0 -0.17,-0.08 -0.17,-0.17 0,-0.01 0,-0.01 0,-0.02l-0.01 0.01c-0.03,0.02 -0.05,0.05 -0.05,0.09 0,0.01 0,0.03 0.01,0.05l0.07 0.12c0.02,0.03 0.05,0.05 0.09,0.05 0.02,0 0.04,-0.01 0.05,-0.01l0.15 -0.09 -0.04 -0.06 -0.01 0.01z"/>
    <g>
     <path class="fil10" d="M2.08 2.16l-0.07 0 0 -0.33c0,-0.02 -0.02,-0.04 -0.04,-0.04 -0.02,0 -0.03,0.02 -0.03,0.04l0 0.33 -0.9 0 0 -0.68 0.29 0c0.02,0 0.04,-0.02 0.04,-0.04 0,-0.02 -0.02,-0.03 -0.04,-0.03l-0.32 0c-0.02,0 -0.03,0.01 -0.03,0.03l0 0.72 -0.07 0c-0.02,0 -0.04,0.02 -0.04,0.04l0 0.07c0,0.09 0.08,0.17 0.17,0.17l0.9 0c0.09,0 0.17,-0.08 0.17,-0.17l0 -0.07c0,-0.02 -0.01,-0.04 -0.03,-0.04l0 0zm0 0.14c0,0.06 -0.05,0.11 -0.11,0.11l-0.07 0 0 -0.04c0,-0.02 -0.01,-0.03 -0.03,-0.03 -0.02,0 -0.03,0.01 -0.03,0.03l0 0.04 -0.62 0 0 -0.04c0,-0.02 -0.02,-0.03 -0.04,-0.03 -0.02,0 -0.03,0.01 -0.03,0.03l0 0.04 -0.07 0c-0.06,0 -0.1,-0.05 -0.1,-0.11l0 -0.03 1.1 0 0 0.03z"/>
     <path class="fil10" d="M2.66 0.58l0.07 0c0.02,0 0.03,-0.01 0.03,-0.03 0,-0.02 -0.01,-0.04 -0.03,-0.04l-0.07 0c-0.06,0 -0.1,0.05 -0.1,0.11l0 0.03 -0.04 0c-0.01,0 -0.03,0.02 -0.03,0.04 0,0.01 0.02,0.03 0.03,0.03l0.04 0 0 0.1c0,0.02 0.01,0.04 0.03,0.04 0.02,0 0.04,-0.02 0.04,-0.04l0 -0.1 0.03 0c0.02,0 0.04,-0.02 0.04,-0.03 0,-0.02 -0.02,-0.04 -0.04,-0.04l-0.03 0 0 -0.03c0,-0.02 0.01,-0.04 0.03,-0.04z"/>
     <path class="fil10" d="M2.83 0.38l-0.41 0c-0.06,0 -0.1,0.04 -0.1,0.1l0 0.07c0,0.02 0.01,0.03 0.03,0.03 0.02,0 0.04,-0.01 0.04,-0.03l0 -0.07c0,-0.02 0.01,-0.04 0.03,-0.04l0.41 0c0.02,0 0.04,0.02 0.04,0.04l0 0.41c0,0.02 -0.02,0.04 -0.04,0.04l-0.41 0c-0.02,0 -0.03,-0.02 -0.03,-0.04l0 -0.2c0,-0.02 -0.02,-0.04 -0.04,-0.04 -0.02,0 -0.03,0.02 -0.03,0.04l0 0.2c0,0.06 0.04,0.1 0.1,0.1l0.41 0c0.06,0 0.11,-0.04 0.11,-0.1l0 -0.41c0,-0.06 -0.05,-0.1 -0.11,-0.1z"/>
     <path class="fil10" d="M2.49 1.75c0,0.08 0.06,0.14 0.14,0.14 0.07,0 0.13,-0.06 0.13,-0.14 0,-0.07 -0.06,-0.14 -0.13,-0.14 -0.08,0 -0.14,0.07 -0.14,0.14l0 0zm0.34 -0.14c0,0.04 -0.03,0.07 -0.07,0.07 -0.03,0 -0.06,-0.03 -0.06,-0.07 0,-0.03 0.03,-0.06 0.06,-0.06 0.04,0 0.07,0.03 0.07,0.06l0 0z"/>
     <path class="fil10" d="M2.83 1.44l-0.41 0c-0.06,0 -0.1,0.05 -0.1,0.11l0 0.41c0,0.06 0.04,0.1 0.1,0.1l0.41 0c0.06,0 0.11,-0.04 0.11,-0.1l0 -0.07c0,-0.02 -0.02,-0.04 -0.04,-0.04 -0.02,0 -0.03,0.02 -0.03,0.04l0 0.07c0,0.02 -0.02,0.03 -0.04,0.03l-0.41 0c-0.02,0 -0.03,-0.01 -0.03,-0.03l0 -0.41c0,-0.02 0.01,-0.04 0.03,-0.04l0.41 0c0.02,0 0.04,0.02 0.04,0.04l0 0.2c0,0.02 0.01,0.04 0.03,0.04 0.02,0 0.04,-0.02 0.04,-0.04l0 -0.2c0,-0.06 -0.05,-0.11 -0.11,-0.11l0 0z"/>
     <path class="fil10" d="M1.65 0.78c0,0.01 0.01,0.01 0.01,0.01 0,0 0,0 0,0 0.01,0 0.01,0 0.02,-0.01l0.21 -0.1c0.01,0 0.01,-0.02 0.01,-0.03 0,-0.01 0,-0.02 -0.01,-0.03l-0.21 -0.1c-0.01,-0.01 -0.01,-0.01 -0.02,-0.01 -0.01,0 -0.03,0.02 -0.03,0.04l0 0.2c0,0 0,0 0,0 0,0.02 0.01,0.03 0.02,0.03l0 0zm0.03 -0.21l0.1 0.05 -0.1 0.05 0 -0.1z"/>
     <path class="fil10" d="M1.73 0.96c0.17,0 0.31,-0.14 0.31,-0.31 0,-0.17 -0.14,-0.31 -0.31,-0.31 -0.17,0 -0.31,0.14 -0.31,0.31 0,0.17 0.14,0.31 0.31,0.31l0 0zm-0.31 -0.86c0.14,0 0.24,0.11 0.24,0.24 0,0.13 -0.1,0.24 -0.24,0.24 -0.13,0 -0.24,-0.11 -0.24,-0.24 0,-0.13 0.11,-0.24 0.24,-0.24l0 0z"/>
     <path class="fil10" d="M2.08 1.1c0.01,0 0.02,-0.01 0.02,-0.02l0.11 -0.13c0,-0.01 0,-0.02 0,-0.02 0,-0.02 -0.01,-0.04 -0.03,-0.04 -0.01,0 -0.02,0.01 -0.03,0.02l-0.1 0.13c-0.01,0.01 -0.01,0.02 -0.01,0.02 0,0.01 0.01,0.02 0.02,0.03 0,0.01 0.01,0.01 0.02,0.01z"/>
     <path class="fil10" d="M2.15 1.22c0.01,0.01 0.02,0.02 0.03,0.02 0.01,0 0.01,-0.01 0.02,-0.01l0.14 -0.1c0.01,-0.01 0.01,-0.02 0.01,-0.03 0,-0.02 -0.01,-0.04 -0.03,-0.04 -0.01,0 -0.02,0.01 -0.02,0.01l-0.14 0.1c-0.01,0.01 -0.01,0.02 -0.01,0.03 0,0.01 0,0.02 0,0.02l0 0z"/>
     <path class="fil10" d="M2.49 1.3c0,-0.02 -0.02,-0.03 -0.03,-0.03 -0.01,0 -0.01,0 -0.01,0l-0.17 0.03c-0.02,0.01 -0.03,0.02 -0.03,0.04 0,0.02 0.01,0.03 0.03,0.03 0,0 0,0 0,0l0.01 0 0.17 -0.03c0.02,0 0.03,-0.02 0.03,-0.04 0,0 0,0 0,0l0 0z"/>
     <path class="fil10" d="M0.91 1.3l0.41 0c0.02,0 0.03,-0.01 0.03,-0.03l0 -0.55c0,-0.02 -0.01,-0.03 -0.03,-0.03l-0.41 0c-0.02,0 -0.04,0.01 -0.04,0.03l0 0.55c0,0.02 0.02,0.03 0.04,0.03l0 0zm0 -0.58l0.34 0 0 0.48 -0.34 0 0 -0.48z"/>
     <path class="fil10" d="M1.18 0.82l-0.07 0c-0.02,0 -0.03,0.02 -0.03,0.04 0,0.02 0.01,0.03 0.03,0.03l0.07 0c0.02,0 0.04,-0.01 0.04,-0.03 0,-0.02 -0.02,-0.04 -0.04,-0.04l0 0z"/>
     <path class="fil10" d="M1.18 0.96l-0.14 0c-0.01,0 -0.03,0.02 -0.03,0.03 0,0.02 0.02,0.04 0.03,0.04l0.14 0c0.02,0 0.04,-0.02 0.04,-0.04 0,-0.01 -0.02,-0.03 -0.04,-0.03l0 0z"/>
     <path class="fil10" d="M1.18 1.1l-0.14 0c-0.01,0 -0.03,0.01 -0.03,0.03 0,0.02 0.02,0.04 0.03,0.04l0.14 0c0.02,0 0.04,-0.02 0.04,-0.04 0,-0.02 -0.02,-0.03 -0.04,-0.03l0 0z"/>
     <path class="fil10" d="M2.05 1.29c-0.01,-0.01 -0.02,-0.01 -0.03,-0.01 -0.02,0 -0.04,0.01 -0.04,0.03 0,0.01 0,0.01 0.01,0.02l0.15 0.26 -0.55 0.21c0,0 0,0 0,0l-0.01 0 -0.09 0.05 -0.06 0.03c-0.01,0.01 -0.02,0.01 -0.03,0.01 -0.01,0 -0.01,0 -0.02,0 -0.02,0 -0.03,-0.02 -0.04,-0.03l-0.07 -0.12c0,-0.01 -0.01,-0.02 -0.01,-0.03 0,-0.03 0.02,-0.05 0.04,-0.06l0.12 -0.07 0.08 0.15c0.01,0.01 0.02,0.02 0.03,0.02 0,0 0,0 0,0 0,0 0,0 0,0 0.02,0 0.04,-0.02 0.04,-0.04 0,0 -0.01,-0.01 -0.01,-0.02l-0.09 -0.15 0.43 -0.36 0.02 0.03c0.01,0.01 0.02,0.02 0.03,0.02 0.02,0 0.03,-0.02 0.03,-0.04 0,0 0,-0.01 0,-0.02l-0.04 -0.05c0,-0.01 -0.01,-0.02 -0.02,-0.02 0,0 0,0 -0.01,0 0,0 -0.01,0 -0.02,0.01l-0.48 0.39 -0.15 0.09c-0.04,0.02 -0.06,0.07 -0.06,0.12 0,0.01 0,0.02 0,0.03l-0.03 0.02c-0.04,0.02 -0.06,0.06 -0.06,0.09 0,0.05 0.04,0.09 0.08,0.1 0.01,0 0.02,0.01 0.03,0.01 0,0 0,0 0,0 0.02,0 0.03,-0.01 0.05,-0.02l0.03 -0.02c0.02,0.02 0.04,0.03 0.06,0.04 0.02,0 0.03,0 0.04,0 0,0 0,0 0,0 0,0 0,0 0,0 0.02,0 0.05,0 0.07,-0.02l0.03 -0.01 0.07 0.12c0.02,0.03 0.05,0.05 0.09,0.05 0.02,0 0.03,-0.01 0.05,-0.02 0.03,-0.01 0.05,-0.05 0.05,-0.09 0,-0.01 0,-0.03 -0.01,-0.05l-0.07 -0.11 0.52 -0.19c0.01,0 0.02,-0.01 0.02,-0.02 0,0 0,-0.01 0,-0.01 0,-0.01 0,-0.01 0,-0.02l-0.17 -0.3zm-0.64 0.92c-0.01,0 -0.01,0 -0.02,0 0,0 -0.01,0 -0.01,0 -0.01,0 -0.01,-0.01 -0.02,-0.01 0,-0.01 0,-0.02 0,-0.02 0,0 0,-0.01 0,-0.01 0,-0.01 0.01,-0.02 0.01,-0.02l0.03 -0.02 0.04 0.06 -0.03 0.02zm0.4 0.06c0,0 0,0.01 0,0.01 0,0.01 0,0.01 0,0.01 0,0.01 0,0.02 -0.01,0.02 -0.01,0.01 -0.01,0.01 -0.02,0.01 -0.01,0 -0.02,-0.01 -0.03,-0.02l-0.07 -0.12 0.06 -0.03 0 0 0.07 0.12z"/>
    </g>
   </g>
  </g>
 </g>
</svg>
