<?xml version="1.0" encoding="UTF-8"?>
<!DOCTYPE svg PUBLIC "-//W3C//DTD SVG 1.1//EN" "http://www.w3.org/Graphics/SVG/1.1/DTD/svg11.dtd">
<!-- Creator: CorelDRAW 2019 (64-Bit) -->
<svg xmlns="http://www.w3.org/2000/svg" xml:space="preserve" width="884px" height="562px" version="1.1" style="shape-rendering:geometricPrecision; text-rendering:geometricPrecision; image-rendering:optimizeQuality; fill-rule:evenodd; clip-rule:evenodd"
viewBox="0 0 104.28 66.3"
 xmlns:xlink="http://www.w3.org/1999/xlink"
 enable-background="new 0 0 512 512">
 <defs>
  <style type="text/css">
   <![CDATA[
    .fil0 {fill:none}
    .fil8 {fill:#01ECA5}
    .fil3 {fill:#02FFB3}
    .fil7 {fill:#2626BC}
    .fil9 {fill:#6583FE}
    .fil5 {fill:#9FB0FE}
    .fil6 {fill:#FF7EB8}
    .fil4 {fill:white}
    .fil2 {fill:#2626BC;fill-opacity:0.101961}
    .fil1 {fill:url(#id0)}
   ]]>
  </style>
  <linearGradient id="id0" gradientUnits="userSpaceOnUse" x1="36.65" y1="33.46" x2="66.56" y2="33.46">
   <stop offset="0" style="stop-opacity:1; stop-color:#FFDBED"/>
   <stop offset="0.0509804" style="stop-opacity:1; stop-color:#FFDBED"/>
   <stop offset="1" style="stop-opacity:1; stop-color:#D2DEFF"/>
  </linearGradient>
 </defs>
 <g id="Layer_x0020_1">
  <metadata id="CorelCorpID_0Corel-Layer"/>
  <rect class="fil0" width="104.28" height="66.3"/>
  <ellipse class="fil0" cx="52.14" cy="33.15" rx="31.95" ry="32.58"/>
  <g id="dynamic.svg">
   <g>
    <g>
     <path class="fil1" d="M54.55 13.41c-7.42,2.18 -5.93,7.35 -6.76,13.09 -1.04,7.16 -5.51,3.49 -10.65,7.35 -8.89,6.68 -2.43,21.43 8.6,19.19 5.86,-1.19 7.06,-5.51 9.45,-10.12 3.09,-5.98 8.22,-4.35 12.82,-8.25 9.32,-7.9 -2.94,-24.36 -13.46,-21.26l0 0z"/>
    </g>
    <g>
     <g>
      <path class="fil2" d="M64.35 34.33c0.42,-0.47 0.81,-0.94 1.16,-1.41 2.23,-2.93 2.87,-5.55 1.83,-7.37 -1.05,-1.81 -3.64,-2.56 -7.3,-2.1 -0.58,0.07 -1.18,0.18 -1.8,0.31 -0.19,-0.6 -0.4,-1.17 -0.63,-1.71 -0.05,-0.12 -0.1,-0.23 -0.14,-0.34 0.38,-0.32 0.62,-0.81 0.62,-1.35 0,-0.97 -0.78,-1.75 -1.75,-1.75 -0.24,0 -0.46,0.04 -0.66,0.12 -1.07,-1.27 -2.28,-1.95 -3.54,-1.95 -2.1,0 -4.04,1.87 -5.47,5.27 -0.23,0.54 -0.44,1.11 -0.63,1.71 -0.62,-0.13 -1.22,-0.24 -1.8,-0.31 -3.66,-0.46 -6.25,0.29 -7.29,2.1 -1.05,1.82 -0.41,4.44 1.82,7.37 0.35,0.47 0.74,0.94 1.16,1.41 -0.4,0.45 -0.78,0.9 -1.13,1.35 -0.16,-0.05 -0.34,-0.08 -0.52,-0.08 -0.97,0 -1.76,0.79 -1.76,1.76 0,0.49 0.2,0.93 0.52,1.25 -0.74,1.75 -0.78,3.29 -0.09,4.49 0.84,1.47 2.7,2.24 5.3,2.24 0.62,0 1.29,-0.05 1.99,-0.13 0.58,-0.08 1.18,-0.18 1.8,-0.31 0.19,0.6 0.4,1.17 0.63,1.71 1.43,3.39 3.37,5.26 5.47,5.26 2.1,0 4.04,-1.87 5.47,-5.26 0.23,-0.54 0.44,-1.11 0.63,-1.71 0.62,0.13 1.22,0.23 1.8,0.31 0.7,0.08 1.37,0.13 1.99,0.13 2.6,0 4.46,-0.77 5.31,-2.24 1.04,-1.82 0.4,-4.43 -1.83,-7.37 -0.35,-0.47 -0.74,-0.94 -1.16,-1.4l0 0zm-4.21 -10.1c0.66,-0.08 1.28,-0.12 1.86,-0.12 2.31,0 3.96,0.64 4.65,1.84 0.87,1.5 0.23,3.87 -1.76,6.5 -0.33,0.43 -0.69,0.87 -1.08,1.3 -1.22,-1.27 -2.66,-2.52 -4.27,-3.69 -0.21,-1.98 -0.57,-3.86 -1.06,-5.55 0.56,-0.12 1.12,-0.21 1.66,-0.28zm-9.73 18.51c-1.31,0.52 -2.6,0.93 -3.84,1.23 -0.42,-1.46 -0.75,-3.07 -0.96,-4.76 0.87,0.59 1.78,1.17 2.72,1.71 0.7,0.41 1.4,0.78 2.1,1.14 -0.03,0.13 -0.05,0.26 -0.05,0.4 0,0.1 0.01,0.19 0.03,0.28zm3.44 -0.68c0.7,-0.36 1.4,-0.73 2.1,-1.14 0.95,-0.54 1.86,-1.12 2.72,-1.71 -0.21,1.69 -0.53,3.3 -0.96,4.76 -1.24,-0.3 -2.53,-0.71 -3.84,-1.23 0.02,-0.09 0.03,-0.18 0.03,-0.28 0,-0.14 -0.02,-0.27 -0.05,-0.4l0 0zm1.71 -1.82c-0.68,0.4 -1.37,0.77 -2.06,1.11 -0.32,-0.4 -0.81,-0.65 -1.36,-0.65 -0.55,0 -1.04,0.25 -1.36,0.65 -0.69,-0.34 -1.37,-0.71 -2.06,-1.11 -1.13,-0.65 -2.21,-1.35 -3.23,-2.07 -0.12,-1.25 -0.18,-2.53 -0.18,-3.84 0,-1.31 0.06,-2.6 0.18,-3.84 1.02,-0.73 2.1,-1.42 3.23,-2.08 1.14,-0.65 2.28,-1.24 3.42,-1.76 1.14,0.52 2.28,1.11 3.42,1.76 1.13,0.66 2.21,1.35 3.23,2.08 0.12,1.24 0.18,2.53 0.18,3.84 0,1.31 -0.06,2.59 -0.18,3.84 -1.02,0.72 -2.1,1.42 -3.23,2.07l0 0zm-10.91 -2.69c-1.36,-1.04 -2.59,-2.12 -3.65,-3.22 1.06,-1.1 2.29,-2.19 3.65,-3.22 -0.08,1.05 -0.13,2.13 -0.13,3.22 0,1.09 0.05,2.17 0.13,3.22zm3.68 -9.82c-0.94,0.55 -1.85,1.12 -2.72,1.72 0.21,-1.7 0.54,-3.3 0.96,-4.77 1.48,0.36 3.04,0.89 4.61,1.55 -0.95,0.45 -1.9,0.95 -2.85,1.5zm4.77 -1.5c1.58,-0.66 3.13,-1.19 4.61,-1.55 0.43,1.47 0.75,3.07 0.96,4.77 -0.86,-0.6 -1.77,-1.17 -2.72,-1.72 -0.95,-0.55 -1.9,-1.05 -2.85,-1.5zm6.53 4.88c1.37,1.03 2.59,2.12 3.65,3.22 -1.06,1.1 -2.28,2.18 -3.65,3.22 0.09,-1.05 0.13,-2.13 0.13,-3.22 0,-1.09 -0.04,-2.17 -0.13,-3.22zm-12.24 -8.76c1.28,-3.04 3.01,-4.78 4.75,-4.78 0.99,0 1.98,0.57 2.89,1.62 -0.28,0.31 -0.45,0.72 -0.45,1.17 0,0.97 0.79,1.76 1.76,1.76 0.14,0 0.29,-0.02 0.42,-0.05 0.05,0.09 0.09,0.19 0.13,0.28 0.21,0.5 0.41,1.03 0.59,1.58 -1.72,0.42 -3.52,1.05 -5.34,1.86 -1.82,-0.81 -3.62,-1.44 -5.33,-1.86 0.18,-0.55 0.37,-1.08 0.58,-1.58l0 0zm-7.99 10.1c-2,-2.63 -2.64,-5 -1.77,-6.5 0.69,-1.2 2.34,-1.84 4.65,-1.84 0.58,0 1.2,0.04 1.86,0.12 0.54,0.07 1.1,0.16 1.67,0.28 -0.5,1.69 -0.85,3.57 -1.06,5.55 -1.62,1.17 -3.06,2.42 -4.28,3.69 -0.39,-0.43 -0.75,-0.87 -1.07,-1.3l0 0zm4.74 11.98c-3.27,0.41 -5.65,-0.22 -6.51,-1.72 -0.55,-0.94 -0.5,-2.22 0.1,-3.68 0.17,0.06 0.36,0.09 0.55,0.09 0.97,0 1.75,-0.79 1.75,-1.76 0,-0.5 -0.21,-0.95 -0.54,-1.27 0.3,-0.4 0.63,-0.79 0.98,-1.19 1.22,1.28 2.66,2.52 4.28,3.7 0.21,1.98 0.56,3.85 1.06,5.55 -0.57,0.11 -1.13,0.21 -1.67,0.28zm12.75 1.87c-1.28,3.04 -3.01,4.79 -4.75,4.79 -1.74,0 -3.47,-1.75 -4.75,-4.79 -0.21,-0.5 -0.4,-1.03 -0.58,-1.58 1.26,-0.31 2.56,-0.73 3.89,-1.25 0.32,0.45 0.85,0.75 1.44,0.75 0.59,0 1.12,-0.3 1.44,-0.75 1.33,0.52 2.64,0.94 3.9,1.25 -0.18,0.55 -0.38,1.08 -0.59,1.58l0 0zm9.76 -3.59c-0.86,1.5 -3.24,2.13 -6.51,1.72 -0.54,-0.07 -1.1,-0.17 -1.66,-0.28 0.49,-1.7 0.85,-3.57 1.06,-5.55 1.61,-1.18 3.05,-2.42 4.27,-3.7 0.39,0.44 0.75,0.87 1.08,1.3 1.99,2.63 2.63,5 1.76,6.51z"/>
      <path class="fil2" d="M55.87 34.33c0,-2.06 -1.67,-3.73 -3.73,-3.73 -2.06,0 -3.73,1.67 -3.73,3.73 0,2.06 1.67,3.73 3.73,3.73 2.06,0 3.73,-1.67 3.73,-3.73z"/>
     </g>
     <g>
      <circle class="fil3" cx="52.14" cy="32.44" r="3.73"/>
      <path class="fil4" d="M53.37 31.96l-0.95 0 0 -1.88c0,-0.08 -0.12,-0.11 -0.16,-0.03l-1.43 2.75c-0.02,0.06 0.02,0.12 0.08,0.12l0.96 0 0 1.88c0,0.09 0.11,0.11 0.15,0.04l1.43 -2.76c0.03,-0.05 -0.02,-0.12 -0.08,-0.12l0 0z"/>
     </g>
     <circle class="fil5" cx="56.34" cy="18.48" r="1.76"/>
     <circle class="fil6" cx="38.28" cy="35.47" r="1.76"/>
     <g>
      <circle class="fil4" cx="52.14" cy="40.57" r="1.76"/>
      <g>
       <path class="fil7" d="M64.35 32.44c0.42,-0.47 0.81,-0.93 1.16,-1.4 2.23,-2.94 2.87,-5.55 1.83,-7.37 -1.05,-1.82 -3.64,-2.57 -7.3,-2.11 -0.58,0.08 -1.18,0.18 -1.79,0.31 -0.19,-0.58 -0.4,-1.14 -0.62,-1.67 0.52,-0.4 0.86,-1.02 0.86,-1.72 0,-1.19 -0.97,-2.15 -2.15,-2.15 -0.34,0 -0.65,0.07 -0.94,0.21 -1.01,-1.09 -2.11,-1.64 -3.26,-1.64 -2.1,0 -4.04,1.86 -5.47,5.26 -0.23,0.54 -0.44,1.11 -0.63,1.71 -0.62,-0.13 -1.22,-0.23 -1.8,-0.31 -3.66,-0.46 -6.25,0.29 -7.29,2.11 -1.05,1.82 -0.41,4.43 1.82,7.37 0.35,0.47 0.74,0.94 1.16,1.4 -0.31,0.34 -0.6,0.69 -0.87,1.03 -0.24,-0.09 -0.51,-0.15 -0.78,-0.15 -1.19,0 -2.15,0.97 -2.15,2.15 0,0.66 0.29,1.25 0.76,1.65 -0.59,1.59 -0.57,3 0.06,4.09 0.82,1.43 2.6,2.21 5.15,2.24 0.05,0 0.11,0 0.16,0 1.15,0 2.42,-0.15 3.78,-0.44 0.19,0.6 0.4,1.17 0.63,1.71 1.43,3.4 3.37,5.27 5.47,5.27 2.1,0 4.04,-1.87 5.47,-5.27 0.23,-0.54 0.44,-1.11 0.63,-1.71 1.36,0.29 2.63,0.44 3.78,0.44 0.05,0 0.11,0 0.16,0 2.55,-0.03 4.33,-0.81 5.16,-2.24 1.04,-1.81 0.4,-4.43 -1.83,-7.37 -0.35,-0.46 -0.74,-0.93 -1.16,-1.4l0 0zm-4.21 -10.1c3.27,-0.41 5.65,0.22 6.51,1.72 0.87,1.5 0.23,3.87 -1.76,6.5 -0.33,0.44 -0.69,0.87 -1.08,1.3 -1.22,-1.27 -2.66,-2.52 -4.27,-3.69 -0.21,-1.98 -0.57,-3.86 -1.06,-5.55 0.56,-0.12 1.12,-0.21 1.66,-0.28zm-10.11 18.66c-1.19,0.45 -2.35,0.81 -3.46,1.08 -0.42,-1.46 -0.75,-3.06 -0.96,-4.76 0.87,0.6 1.78,1.17 2.72,1.72 0.57,0.33 1.16,0.65 1.74,0.95 -0.05,0.18 -0.08,0.38 -0.08,0.58 0,0.15 0.02,0.29 0.04,0.43zm2.11 -1.79c0.75,0 1.36,0.61 1.36,1.36 0,0.75 -0.61,1.37 -1.36,1.37 -0.75,0 -1.36,-0.62 -1.36,-1.37 0,-0.75 0.61,-1.36 1.36,-1.36zm2.07 0.78c0.58,-0.3 1.17,-0.62 1.74,-0.95 0.95,-0.55 1.86,-1.12 2.72,-1.72 -0.21,1.7 -0.53,3.3 -0.96,4.76 -1.11,-0.27 -2.27,-0.63 -3.46,-1.08 0.03,-0.14 0.04,-0.28 0.04,-0.43 0,-0.2 -0.03,-0.4 -0.08,-0.58l0 0zm1.35 -1.63c-0.56,0.32 -1.13,0.63 -1.7,0.92 -0.39,-0.52 -1.02,-0.86 -1.72,-0.86 -0.7,0 -1.33,0.34 -1.72,0.86 -0.57,-0.29 -1.14,-0.6 -1.7,-0.92 -1.13,-0.66 -2.21,-1.35 -3.23,-2.08 -0.12,-1.24 -0.18,-2.53 -0.18,-3.84 0,-1.31 0.06,-2.59 0.18,-3.84 1.02,-0.72 2.1,-1.42 3.23,-2.08 1.14,-0.65 2.28,-1.24 3.42,-1.76 1.14,0.52 2.28,1.11 3.42,1.76 1.13,0.66 2.21,1.36 3.23,2.08 0.12,1.24 0.18,2.53 0.18,3.84 0,1.31 -0.06,2.6 -0.18,3.84 -1.02,0.73 -2.1,1.42 -3.23,2.08l0 0zm-10.91 -2.7c-1.36,-1.03 -2.59,-2.12 -3.64,-3.22 1.05,-1.1 2.28,-2.18 3.64,-3.22 -0.08,1.05 -0.13,2.13 -0.13,3.22 0,1.09 0.05,2.17 0.13,3.22zm0.96 -8.1c0.21,-1.69 0.53,-3.3 0.96,-4.76 1.48,0.36 3.04,0.88 4.61,1.54 -0.95,0.46 -1.9,0.96 -2.85,1.5 -0.94,0.55 -1.85,1.12 -2.72,1.72zm7.49 -3.22c1.58,-0.66 3.13,-1.18 4.61,-1.54 0.43,1.46 0.75,3.06 0.97,4.76 -0.87,-0.59 -1.78,-1.17 -2.73,-1.72 -0.95,-0.54 -1.9,-1.04 -2.85,-1.5zm6.53 4.88c1.37,1.04 2.59,2.12 3.65,3.22 -1.06,1.1 -2.28,2.19 -3.65,3.22 0.09,-1.05 0.13,-2.13 0.13,-3.22 0,-1.09 -0.04,-2.17 -0.13,-3.22zm-1.93 -10.74c0,0.75 -0.61,1.36 -1.36,1.36 -0.76,0 -1.37,-0.61 -1.37,-1.36 0,-0.76 0.61,-1.37 1.37,-1.37 0.75,0 1.36,0.61 1.36,1.37zm-10.31 1.98c1.28,-3.04 3.01,-4.78 4.75,-4.78 0.9,0 1.79,0.45 2.63,1.33 -0.36,0.38 -0.58,0.9 -0.58,1.47 0,1.18 0.96,2.15 2.15,2.15 0.2,0 0.39,-0.03 0.58,-0.08 0.2,0.47 0.38,0.97 0.56,1.5 -1.72,0.42 -3.52,1.04 -5.34,1.85 -1.82,-0.81 -3.62,-1.43 -5.33,-1.85 0.18,-0.56 0.37,-1.08 0.58,-1.59l0 0zm-7.99 10.1c-2,-2.63 -2.64,-5 -1.77,-6.5 0.86,-1.5 3.24,-2.13 6.51,-1.72 0.54,0.07 1.1,0.16 1.67,0.28 -0.5,1.7 -0.85,3.57 -1.07,5.55 -1.6,1.18 -3.05,2.42 -4.27,3.69 -0.39,-0.43 -0.75,-0.86 -1.07,-1.3zm-1.12 3.55c0.75,0 1.36,0.61 1.36,1.36 0,0.76 -0.61,1.37 -1.36,1.37 -0.75,0 -1.37,-0.61 -1.37,-1.37 0,-0.75 0.62,-1.36 1.37,-1.36zm3.83 8.55c-2.85,-0.03 -4.01,-1.02 -4.48,-1.84 -0.5,-0.85 -0.51,-1.99 -0.05,-3.31 0.22,0.07 0.45,0.11 0.7,0.11 1.18,0 2.15,-0.96 2.15,-2.15 0,-0.62 -0.27,-1.19 -0.7,-1.58 0.23,-0.29 0.48,-0.58 0.74,-0.87 1.22,1.27 2.66,2.52 4.28,3.69 0.21,1.98 0.56,3.86 1.06,5.55 -1.34,0.28 -2.58,0.42 -3.7,0.4l0 0zm14.78 1.76c-1.28,3.04 -3.01,4.78 -4.75,4.78 -1.74,0 -3.47,-1.74 -4.75,-4.78 -0.21,-0.5 -0.4,-1.03 -0.58,-1.58 1.12,-0.28 2.3,-0.65 3.52,-1.12 0.38,0.6 1.05,1 1.81,1 0.76,0 1.43,-0.4 1.81,-1 1.22,0.47 2.4,0.84 3.53,1.12 -0.18,0.55 -0.38,1.08 -0.59,1.58zm9.76 -3.6c-0.85,1.49 -2.91,1.82 -4.48,1.84 -1.12,0.02 -2.36,-0.12 -3.69,-0.4 0.49,-1.69 0.85,-3.57 1.06,-5.55 1.61,-1.17 3.05,-2.42 4.27,-3.69 0.39,0.43 0.75,0.86 1.08,1.3 1.99,2.63 2.63,5 1.76,6.5l0 0z"/>
       <path class="fil7" d="M53.55 28.56c-0.2,-0.07 -0.43,0.03 -0.5,0.24 -0.08,0.2 0.03,0.43 0.23,0.5 1.32,0.48 2.2,1.74 2.2,3.14 0,1.84 -1.5,3.34 -3.34,3.34 -1.84,0 -3.34,-1.5 -3.34,-3.34 0,-1.38 0.87,-2.64 2.16,-3.12 0.2,-0.08 0.31,-0.31 0.23,-0.51 -0.08,-0.2 -0.3,-0.31 -0.51,-0.23 -1.59,0.6 -2.66,2.16 -2.66,3.86 0,2.28 1.85,4.13 4.12,4.13 2.28,0 4.13,-1.85 4.13,-4.13 0,-1.73 -1.1,-3.29 -2.72,-3.88l0 0z"/>
      </g>
     </g>
     <path class="fil6" d="M41.35 18.94c-0.1,0 -0.21,-0.04 -0.28,-0.12 -0.16,-0.15 -0.16,-0.4 0,-0.55l0.26 -0.26 -0.39 -0.25c-0.1,-0.07 -0.17,-0.17 -0.18,-0.29 -0.02,-0.12 0.02,-0.24 0.11,-0.32l0.61 -0.61c0.15,-0.15 0.4,-0.15 0.55,0 0.16,0.15 0.16,0.4 0,0.56l-0.26 0.26 0.4 0.25c0.1,0.06 0.16,0.17 0.18,0.29 0.01,0.11 -0.03,0.23 -0.12,0.32l-0.61 0.6c-0.07,0.08 -0.17,0.12 -0.27,0.12z"/>
     <path class="fil6" d="M62.98 40.07c-0.1,0 -0.21,-0.04 -0.28,-0.11 -0.16,-0.16 -0.16,-0.4 0,-0.56l0.26 -0.26 -0.39 -0.25c-0.1,-0.06 -0.17,-0.17 -0.18,-0.29 -0.02,-0.12 0.02,-0.23 0.11,-0.32l0.61 -0.61c0.15,-0.15 0.4,-0.15 0.55,0 0.16,0.16 0.16,0.4 0,0.56l-0.26 0.26 0.4 0.25c0.1,0.06 0.16,0.17 0.18,0.29 0.01,0.12 -0.03,0.23 -0.12,0.32l-0.61 0.61c-0.07,0.07 -0.17,0.11 -0.27,0.11z"/>
     <path class="fil8" d="M42.38 27.2c-0.22,0 -0.4,-0.18 -0.4,-0.4 0,-0.26 -0.21,-0.47 -0.47,-0.47 -0.22,0 -0.39,-0.17 -0.39,-0.39 0,-0.22 0.17,-0.39 0.39,-0.39 0.26,0 0.47,-0.22 0.47,-0.48 0,-0.21 0.18,-0.39 0.4,-0.39 0.21,0 0.39,0.18 0.39,0.39 0,0.26 0.21,0.48 0.47,0.48 0.22,0 0.39,0.17 0.39,0.39 0,0.22 -0.17,0.39 -0.39,0.39 -0.26,0 -0.47,0.21 -0.47,0.47 0,0.22 -0.18,0.4 -0.39,0.4z"/>
     <path class="fil9" d="M44.06 48.33c-0.22,0 -0.39,-0.18 -0.39,-0.4 0,-0.26 -0.21,-0.47 -0.47,-0.47 -0.22,0 -0.4,-0.17 -0.4,-0.39 0,-0.22 0.18,-0.39 0.4,-0.39 0.26,0 0.47,-0.21 0.47,-0.48 0,-0.21 0.17,-0.39 0.39,-0.39 0.22,0 0.39,0.18 0.39,0.39 0,0.27 0.22,0.48 0.48,0.48 0.21,0 0.39,0.17 0.39,0.39 0,0.22 -0.18,0.39 -0.39,0.39 -0.26,0 -0.48,0.21 -0.48,0.47 0,0.22 -0.17,0.4 -0.39,0.4z"/>
     <path class="fil6" d="M67.85 34.75c-0.22,0 -0.39,-0.17 -0.39,-0.39 0,-0.26 -0.22,-0.47 -0.48,-0.47 -0.21,0 -0.39,-0.18 -0.39,-0.4 0,-0.21 0.18,-0.39 0.39,-0.39 0.26,0 0.48,-0.21 0.48,-0.47 0,-0.22 0.17,-0.39 0.39,-0.39 0.22,0 0.39,0.17 0.39,0.39 0,0.26 0.21,0.47 0.47,0.47 0.22,0 0.4,0.18 0.4,0.39 0,0.22 -0.18,0.4 -0.4,0.4 -0.26,0 -0.47,0.21 -0.47,0.47 0,0.22 -0.17,0.39 -0.39,0.39z"/>
    </g>
   </g>
  </g>
 </g>
</svg>
