<?xml version="1.0" encoding="UTF-8"?>
<!DOCTYPE svg PUBLIC "-//W3C//DTD SVG 1.1//EN" "http://www.w3.org/Graphics/SVG/1.1/DTD/svg11.dtd">
<!-- Creator: CorelDRAW 2019 (64-Bit) -->
<svg xmlns="http://www.w3.org/2000/svg" xml:space="preserve" width="293px" height="180px" version="1.1" style="shape-rendering:geometricPrecision; text-rendering:geometricPrecision; image-rendering:optimizeQuality; fill-rule:evenodd; clip-rule:evenodd"
viewBox="0 0 10.8 6.64"
 xmlns:xlink="http://www.w3.org/1999/xlink">
 <defs>
  <style type="text/css">
   <![CDATA[
    .fil0 {fill:none}
    .fil5 {fill:#1F81A3}
    .fil6 {fill:#2C92BF}
    .fil2 {fill:#2D303B}
    .fil3 {fill:#3C3F4D}
    .fil4 {fill:#83B2C6}
    .fil1 {fill:#C4E2F2}
    .fil7 {fill:#FF491F}
    .fil8 {fill:#FFE14D}
    .fil9 {fill:white}
   ]]>
  </style>
 </defs>
 <g id="Layer_x0020_1">
  <metadata id="CorelCorpID_0Corel-Layer"/>
  <rect class="fil0" width="10.8" height="6.64"/>
  <g id="e-commerce.svg">
   <path class="fil1" d="M8.34 0.89l0 3.16c0,0.29 -0.23,0.51 -0.51,0.51l-4.86 0c-0.28,0 -0.51,-0.22 -0.51,-0.51l0 -3.16c0,-0.28 0.23,-0.51 0.51,-0.51l4.87 0c0.27,0 0.5,0.23 0.5,0.51zm0 0z"/>
   <path class="fil2" d="M6.59 5.24l-1.19 0.28 -1.19 -0.28 0.17 -0.68 0.97 -0.35 1.07 0.35 0.06 0.22 0.11 0.46zm0 0z"/>
   <path class="fil3" d="M8.34 3.99l0 0.06c0,0.29 -0.23,0.51 -0.51,0.51l-4.86 0c-0.28,0 -0.51,-0.22 -0.51,-0.51l0 -0.06 5.88 0zm0 0z"/>
   <path class="fil3" d="M6.59 5.24l-1.82 0 0.11 -0.46 1.6 0 0.11 0.46zm0 0z"/>
   <path class="fil2" d="M7.28 5.62l0 0.17 -3.76 0 0 -0.17c0,-0.21 0.16,-0.38 0.37,-0.38l3.02 0c0.21,0 0.37,0.17 0.37,0.38l0 0zm0 0z"/>
   <path class="fil4" d="M7.71 4.56l-2.66 0 0.13 -1.25 2.4 0 0.13 1.25zm0 0z"/>
   <path class="fil5" d="M5.21 1.89l-0.03 0.24 -0.1 0.77c-0.02,0.14 -0.14,0.24 -0.28,0.24l-1.2 0c-0.14,0 -0.26,-0.1 -0.27,-0.24l-0.14 -1.01 1.01 -0.27 1.01 0.27zm0 0z"/>
   <path class="fil6" d="M5.18 2.13l-0.1 0.77c-0.02,0.14 -0.14,0.24 -0.28,0.24l-0.82 0c-0.13,0 -0.25,-0.1 -0.27,-0.24l-0.07 -0.52c-0.02,-0.13 0.09,-0.25 0.22,-0.25l1.32 0zm0 0z"/>
   <path class="fil5" d="M5.35 1.62l0 0.15c0,0.07 -0.06,0.12 -0.13,0.12l-2.04 0c-0.07,0 -0.12,-0.05 -0.12,-0.12l0 -0.15c0,-0.07 0.05,-0.12 0.12,-0.12l2.04 0c0.07,0 0.13,0.05 0.13,0.12zm0 0z"/>
   <path class="fil6" d="M5.35 1.62l0 0.15c0,0.07 -0.06,0.12 -0.13,0.12l-1.56 0c-0.07,0 -0.12,-0.05 -0.12,-0.12l0 -0.15c0,-0.07 0.05,-0.12 0.12,-0.12l1.56 0c0.07,0 0.13,0.05 0.13,0.12zm0 0z"/>
   <path class="fil3" d="M4.2 0.93c-0.11,0 -0.2,0.1 -0.2,0.21l0 0.97c0,0.11 0.09,0.2 0.2,0.2 0.11,0 0.21,-0.09 0.21,-0.2l0 -0.97c0,-0.11 -0.1,-0.21 -0.21,-0.21zm0 0z"/>
   <path class="fil2" d="M7.7 4.56l-2.66 0 0.06 -0.57 2.54 0 0.06 0.57zm0 0z"/>
   <path class="fil7" d="M7.74 3.31l-2.4 0 -0.31 2.94 3.01 0 -0.3 -2.94zm0 0z"/>
   <path class="fil8" d="M6.33 4.26l-1.67 0 -0.21 1.99 2.09 0 -0.21 -1.99zm0 0z"/>
   <path class="fil9" d="M7.18 3.69c-0.05,0 -0.09,-0.04 -0.09,-0.09l0 -0.6c0,-0.3 -0.25,-0.56 -0.55,-0.56 -0.31,0 -0.56,0.26 -0.56,0.56l0 0.6c0,0.05 -0.04,0.09 -0.09,0.09 -0.05,0 -0.09,-0.04 -0.09,-0.09l0 -0.6c0,-0.4 0.33,-0.74 0.74,-0.74 0.4,0 0.73,0.34 0.73,0.74l0 0.6c0,0.05 -0.04,0.09 -0.09,0.09zm0 0z"/>
   <path class="fil3" d="M5.49 5.49c-0.26,0 -0.47,-0.22 -0.47,-0.48l0 -0.39c0,-0.05 0.04,-0.09 0.09,-0.09 0.05,0 0.09,0.04 0.09,0.09l0 0.39c0,0.16 0.13,0.3 0.29,0.3 0.17,0 0.3,-0.14 0.3,-0.3l0 -0.39c0,-0.05 0.04,-0.09 0.09,-0.09 0.05,0 0.09,0.04 0.09,0.09l0 0.39c0,0.26 -0.21,0.48 -0.48,0.48l0 0zm0 0z"/>
   <path class="fil7" d="M6.25 1.39l-0.38 0c-0.05,0 -0.09,-0.04 -0.09,-0.09 0,-0.05 0.04,-0.09 0.09,-0.09l0.38 0c0.05,0 0.09,0.04 0.09,0.09 0,0.05 -0.04,0.09 -0.09,0.09l0 0zm0 0z"/>
   <path class="fil3" d="M7.89 1.39l-1.24 0c-0.05,0 -0.09,-0.04 -0.09,-0.09 0,-0.05 0.04,-0.09 0.09,-0.09l1.24 0c0.05,0 0.09,0.04 0.09,0.09 0,0.05 -0.04,0.09 -0.09,0.09l0 0zm0 0z"/>
   <path class="fil7" d="M6.25 1.81l-0.38 0c-0.05,0 -0.09,-0.04 -0.09,-0.09 0,-0.05 0.04,-0.09 0.09,-0.09l0.38 0c0.05,0 0.09,0.04 0.09,0.09 0,0.05 -0.04,0.09 -0.09,0.09l0 0zm0 0z"/>
   <path class="fil3" d="M7.89 1.81l-1.24 0c-0.05,0 -0.09,-0.04 -0.09,-0.09 0,-0.05 0.04,-0.09 0.09,-0.09l1.24 0c0.05,0 0.09,0.04 0.09,0.09 0,0.05 -0.04,0.09 -0.09,0.09l0 0zm0 0z"/>
  </g>
 </g>
</svg>
