<?xml version="1.0" encoding="UTF-8"?>
<!DOCTYPE svg PUBLIC "-//W3C//DTD SVG 1.1//EN" "http://www.w3.org/Graphics/SVG/1.1/DTD/svg11.dtd">
<!-- Creator: CorelDRAW 2019 (64-Bit) -->
<svg xmlns="http://www.w3.org/2000/svg" xml:space="preserve" width="293px" height="180px" version="1.1" style="shape-rendering:geometricPrecision; text-rendering:geometricPrecision; image-rendering:optimizeQuality; fill-rule:evenodd; clip-rule:evenodd"
viewBox="0 0 12.91 7.93"
 xmlns:xlink="http://www.w3.org/1999/xlink"
 enable-background="new 0 0 511.97 511.97">
 <defs>
  <style type="text/css">
   <![CDATA[
    .fil0 {fill:none}
    .fil8 {fill:black}
    .fil2 {fill:#294B64}
    .fil1 {fill:#365E7D}
    .fil4 {fill:#3F6D8E}
    .fil3 {fill:#477B9E}
    .fil6 {fill:#F2AB08}
    .fil5 {fill:#FFD064}
    .fil7 {fill:#FFE07D}
   ]]>
  </style>
 </defs>
 <g id="Layer_x0020_1">
  <metadata id="CorelCorpID_0Corel-Layer"/>
  <rect class="fil0" width="12.91" height="7.93"/>
  <g id="education.svg">
   <g>
    <g>
     <path class="fil1" d="M4.24 4.94l0.08 0.15c0,0 1.14,0.94 2.13,0.94 0.98,0 2.14,-0.94 2.14,-0.94l0.07 -0.15 0 0c-0.11,-0.33 -0.25,-0.78 -0.34,-1.26l-0.22 -0.12 -3.34 0 -0.18 0.12c-0.09,0.48 -0.23,0.93 -0.34,1.26l0 0z"/>
     <path class="fil2" d="M5.22 3.61l0.08 -0.05 -0.54 0 -0.18 0.12c-0.09,0.48 -0.23,0.93 -0.34,1.26l0 0 0.08 0.15c0,0 0.17,0.15 0.45,0.32 0.16,-0.54 0.32,-1.15 0.45,-1.8l0 0z"/>
     <path class="fil3" d="M10.22 2.55l-3.58 -1.21c-0.12,-0.05 -0.26,-0.05 -0.38,0l-3.58 1.21c-0.09,0.03 -0.1,0.15 -0.01,0.2l3.52 1.71c0.16,0.08 0.36,0.08 0.52,0l3.52 -1.71c0.09,-0.05 0.08,-0.17 -0.01,-0.2z"/>
     <path class="fil4" d="M3.75 2.75c-0.09,-0.05 -0.08,-0.17 0.01,-0.2l3.23 -1.1 -0.35 -0.11c-0.12,-0.05 -0.26,-0.05 -0.38,0l-3.58 1.21c-0.09,0.03 -0.1,0.15 -0.01,0.2l3.52 1.71c0.16,0.08 0.36,0.08 0.52,0l0.28 -0.13 -3.24 -1.58z"/>
     <path class="fil5" d="M9.63 5.73l-0.41 0 -0.04 0.75c-0.01,0.06 0.04,0.11 0.1,0.11l0.29 0c0.06,0 0.11,-0.05 0.11,-0.11l-0.05 -0.75z"/>
     <path class="fil6" d="M9.44 6.48l0.05 -0.75 -0.27 0 -0.04 0.75c-0.01,0.06 0.04,0.11 0.1,0.11l0.26 0c-0.06,0 -0.1,-0.05 -0.1,-0.11z"/>
     <path class="fil7" d="M9.52 5.19l-0.19 0c-0.09,0 -0.17,0.07 -0.17,0.17l0 0.33c0,0.04 0.03,0.06 0.06,0.06l0.42 0c0.03,0 0.05,-0.02 0.05,-0.06l0 -0.33c0,-0.1 -0.08,-0.17 -0.17,-0.17z"/>
     <path class="fil5" d="M9.46 5.69l0 -0.33c0,-0.08 0.05,-0.14 0.12,-0.16 -0.02,-0.01 -0.04,-0.01 -0.06,-0.01l-0.19 0c-0.09,0 -0.17,0.07 -0.17,0.17l0 0.33c0,0.04 0.03,0.06 0.06,0.06l0.3 0c-0.03,0 -0.06,-0.02 -0.06,-0.06z"/>
     <path class="fil4" d="M6.47 2.08c-0.22,-0.01 -0.4,0.16 -0.4,0.38l0 0.01c0,0.09 0.08,0.17 0.18,0.17l0.4 0c0.1,0 0.19,-0.07 0.18,-0.2 -0.01,-0.19 -0.16,-0.35 -0.36,-0.36z"/>
     <path class="fil1" d="M6.41 2.47c0,-0.01 0,-0.01 0,-0.01 0,-0.15 0.09,-0.27 0.21,-0.34 -0.04,-0.02 -0.09,-0.04 -0.15,-0.04 -0.22,-0.01 -0.4,0.16 -0.4,0.38l0 0.01c0,0.09 0.08,0.17 0.18,0.17l0.35 0c-0.1,0 -0.19,-0.08 -0.19,-0.17z"/>
     <path class="fil7" d="M8.66 4.94c-0.41,0.34 -1.06,0.71 -1.77,0.93 -0.28,0.1 -0.59,0.1 -0.88,0 -0.71,-0.22 -1.36,-0.59 -1.77,-0.93 -0.04,0.12 -0.07,0.22 -0.1,0.3 -0.05,0.14 -0.01,0.3 0.11,0.39 0.65,0.51 1.33,0.79 1.76,0.93 0.14,0.04 0.29,0.07 0.44,0.07 0.15,0 0.3,-0.03 0.44,-0.07 0.43,-0.14 1.11,-0.42 1.76,-0.93 0.12,-0.09 0.16,-0.25 0.11,-0.39 -0.03,-0.08 -0.06,-0.18 -0.1,-0.3l0 0z"/>
     <path class="fil5" d="M4.79 5.32c-0.21,-0.12 -0.4,-0.25 -0.55,-0.38 -0.04,0.12 -0.07,0.22 -0.1,0.3 -0.05,0.14 -0.01,0.3 0.11,0.39 0.12,0.1 0.24,0.18 0.37,0.26 0.05,-0.17 0.11,-0.36 0.17,-0.57z"/>
    </g>
    <g>
     <path class="fil8" d="M10.26 2.44l-1.67 -0.57c-0.06,-0.02 -0.13,0.01 -0.15,0.07 -0.02,0.06 0.01,0.13 0.07,0.15l1.66 0.56 -0.78 0.38c-0.03,-0.02 -0.07,-0.04 -0.11,-0.05l-2.34 -0.61c-0.07,-0.38 -0.54,-0.54 -0.83,-0.27 -0.1,0.09 -0.16,0.23 -0.16,0.36l0 0.01c0,0.16 0.14,0.29 0.3,0.29l0.41 0c0.1,0 0.2,-0.06 0.26,-0.16l2.18 0.57c-0.69,0.34 -2.24,1.09 -2.43,1.19 -0.14,0.07 -0.3,0.06 -0.43,0l-3.5 -1.71 3.56 -1.2c0.1,-0.04 0.21,-0.04 0.31,0l1.39 0.47c0.06,0.02 0.13,-0.02 0.15,-0.08 0.02,-0.06 -0.02,-0.12 -0.08,-0.14l-1.39 -0.47c-0.15,-0.05 -0.31,-0.05 -0.46,0l-3.57 1.21c-0.19,0.06 -0.21,0.32 -0.03,0.41l1.84 0.9c-0.11,0.48 -0.26,0.99 -0.43,1.45 -0.07,0.19 -0.01,0.4 0.15,0.52 0.53,0.42 1.16,0.74 1.8,0.95 0.3,0.09 0.64,0.1 0.95,0 0.64,-0.21 1.27,-0.53 1.8,-0.95 0.15,-0.12 0.21,-0.33 0.14,-0.52 -0.16,-0.45 -0.32,-0.97 -0.42,-1.45l0.86 -0.43 0 1.75c-0.14,0.01 -0.26,0.14 -0.26,0.29l0 0.33c0,0.05 0.02,0.1 0.06,0.13l-0.05 0.65c-0.01,0.13 0.1,0.24 0.22,0.24l0.3 0c0.12,0 0.23,-0.11 0.22,-0.24l-0.05 -0.65c0.04,-0.03 0.06,-0.08 0.06,-0.13l0 -0.33c0,-0.15 -0.12,-0.28 -0.26,-0.29l0 -1.75c0,-0.03 -0.01,-0.07 -0.02,-0.1l0.76 -0.37c0.18,-0.09 0.16,-0.35 -0.03,-0.41l0 0zm-3.6 0.09l-0.41 0c-0.03,0 -0.06,-0.03 -0.06,-0.06l0 -0.01c0,-0.07 0.03,-0.14 0.08,-0.19 0.17,-0.16 0.44,-0.05 0.45,0.18 0,0.05 -0.03,0.08 -0.06,0.08l0 0zm1.86 2.37c-0.62,0.49 -1.51,0.85 -1.82,0.9 -0.06,0.02 -0.1,0.08 -0.09,0.14 0.01,0.06 0.07,0.1 0.14,0.09 0.32,-0.06 1.19,-0.4 1.85,-0.89 0.02,0.04 0.04,0.09 0.06,0.14 0.03,0.09 0,0.2 -0.08,0.26 -0.62,0.49 -1.28,0.76 -1.72,0.91 -0.27,0.08 -0.55,0.08 -0.81,0 -0.44,-0.15 -1.1,-0.42 -1.73,-0.91 -0.07,-0.06 -0.1,-0.17 -0.07,-0.26 0,0 0,0 0,0 0.02,-0.05 0.04,-0.1 0.05,-0.14 0.65,0.48 1.52,0.83 1.86,0.89 0.06,0.01 0.12,-0.03 0.14,-0.09 0.01,-0.06 -0.03,-0.12 -0.1,-0.14 -0.28,-0.05 -1.18,-0.4 -1.82,-0.9 0.1,-0.28 0.21,-0.65 0.29,-1.05l1.47 0.72c0.2,0.09 0.42,0.1 0.63,0l1.47 -0.72c0.08,0.4 0.19,0.77 0.28,1.05l0 0zm0.78 1.58l0.04 -0.61 0.18 0 0.05 0.61 -0.27 0zm0.28 -1.12l0 0.27 -0.3 0 0 -0.27c0,-0.03 0.03,-0.06 0.06,-0.06l0.18 0c0.03,0 0.06,0.03 0.06,0.06l0 0z"/>
    </g>
   </g>
  </g>
 </g>
</svg>
