<?xml version="1.0" encoding="UTF-8"?>
<!DOCTYPE svg PUBLIC "-//W3C//DTD SVG 1.1//EN" "http://www.w3.org/Graphics/SVG/1.1/DTD/svg11.dtd">
<!-- Creator: CorelDRAW 2019 (64-Bit) -->
<svg xmlns="http://www.w3.org/2000/svg" xml:space="preserve" width="293px" height="180px" version="1.1" style="shape-rendering:geometricPrecision; text-rendering:geometricPrecision; image-rendering:optimizeQuality; fill-rule:evenodd; clip-rule:evenodd"
viewBox="0 0 16.17 9.93"
 xmlns:xlink="http://www.w3.org/1999/xlink"
 enable-background="new 0 0 512 512">
 <defs>
  <style type="text/css">
   <![CDATA[
    .fil0 {fill:none}
    .fil4 {fill:#407093}
    .fil2 {fill:#61A2F9}
    .fil1 {fill:#80B4FB}
    .fil6 {fill:#D64553}
    .fil5 {fill:#DB5C6E}
    .fil7 {fill:#FFC250}
    .fil3 {fill:#FFD064}
   ]]>
  </style>
 </defs>
 <g id="Layer_x0020_1">
  <metadata id="CorelCorpID_0Corel-Layer"/>
  <rect class="fil0" width="16.17" height="9.93"/>
  <g id="fashion.svg">
   <g>
    <path class="fil1" d="M11.08 4c0,0 1.27,1.31 1.27,3.32 0,0 -0.2,0.07 -0.55,0.15 -0.08,0.02 -0.16,0.04 -0.25,0.06 -0.11,0.02 -0.22,0.04 -0.34,0.06 -0.08,0.01 -0.17,0.03 -0.26,0.04 -0.39,0.05 -0.86,0.09 -1.38,0.09 -0.66,0 -1.23,-0.06 -1.68,-0.14 -0.69,-0.11 -1.1,-0.26 -1.1,-0.26 0,-2.01 1.27,-3.32 1.27,-3.32l0 -0.82 -0.68 -0.56 -0.59 -0.47 1.12 -1c0.13,-0.12 0.3,-0.19 0.47,-0.2 0.08,-0.01 0.16,0 0.24,0.02 0.13,0.03 0.25,0.09 0.35,0.18l0.12 0.11c0.27,0.25 0.69,0.25 0.96,0l0.12 -0.11c0.1,-0.09 0.22,-0.15 0.35,-0.18 0.25,-0.06 0.51,0 0.71,0.18l1.12 1 -0.94 0.77 -0.33 0.26 0 0.82z"/>
    <g>
     <path class="fil2" d="M8.45 2.59l0 1.49c0,0 -0.52,1.57 -0.52,2.34 0,0.3 -0.02,0.74 -0.04,1.16 -0.69,-0.11 -1.1,-0.26 -1.1,-0.26 0,-2.01 1.27,-3.32 1.27,-3.32l0 -1.61 0.18 0c0.12,0 0.21,0.09 0.21,0.2l0 0z"/>
     <path class="fil2" d="M8.38 0.95c-0.39,0.36 -0.84,1.12 -1,1.67l-0.59 -0.47 1.12 -1c0.13,-0.12 0.3,-0.19 0.47,-0.2z"/>
     <path class="fil2" d="M10.52 0.97c-0.04,0.19 -0.36,1.61 -0.95,1.82 -0.59,-0.21 -0.91,-1.63 -0.95,-1.82 0.13,0.03 0.25,0.09 0.35,0.18l0.12 0.11c0.27,0.25 0.69,0.25 0.96,0l0.12 -0.11c0.1,-0.09 0.22,-0.15 0.35,-0.18z"/>
     <path class="fil2" d="M11.21 7.59c-0.08,0.01 -0.17,0.03 -0.26,0.04 -0.01,-0.53 -0.06,-1.06 -0.16,-1.57 -0.01,-0.07 0.03,-0.14 0.1,-0.15 0.07,-0.01 0.14,0.03 0.15,0.1 0.1,0.52 0.15,1.05 0.17,1.58z"/>
     <path class="fil2" d="M11.8 7.47c-0.08,0.02 -0.16,0.04 -0.25,0.06 -0.03,-0.41 -0.08,-0.81 -0.15,-1.2 -0.02,-0.07 0.03,-0.14 0.1,-0.15 0.07,-0.02 0.14,0.03 0.15,0.1 0.07,0.39 0.12,0.79 0.15,1.19z"/>
     <path class="fil2" d="M11.41 2.92l-0.33 0.26 0 -0.51c0,-0.08 0.11,-0.11 0.15,-0.04l0.18 0.29z"/>
    </g>
    <path class="fil3" d="M9.57 4.26c-0.51,0 -1.03,-0.04 -1.53,-0.13 -0.07,-0.01 -0.12,-0.08 -0.11,-0.15 0.01,-0.07 0.08,-0.12 0.15,-0.1 0.99,0.17 1.99,0.17 2.98,0 0.07,-0.02 0.14,0.03 0.15,0.1 0.01,0.07 -0.04,0.14 -0.11,0.15 -0.5,0.09 -1.02,0.13 -1.53,0.13l0 0z"/>
    <path class="fil4" d="M4.43 6.16c-0.07,0 -0.12,-0.05 -0.13,-0.11 -0.08,-0.52 0.39,-0.88 0.89,-1.26 0.22,-0.16 0.44,-0.33 0.64,-0.53 -0.16,-0.09 -0.31,-0.18 -0.44,-0.28 -0.42,-0.3 -0.63,-0.61 -0.63,-0.93 0,-0.51 0.28,-0.73 0.45,-0.81 0.32,-0.16 0.73,-0.11 1.04,0.13 0.31,0.24 0.44,0.63 0.35,1.07 -0.05,0.29 -0.19,0.54 -0.36,0.75 0.18,0.1 0.36,0.19 0.54,0.28 0.94,0.46 1.82,0.9 1.88,1.55 0.01,0.07 -0.05,0.13 -0.12,0.14 -0.07,0 -0.13,-0.05 -0.14,-0.12 -0.05,-0.5 -0.9,-0.93 -1.73,-1.34 -0.2,-0.1 -0.41,-0.2 -0.61,-0.31 -0.22,0.23 -0.47,0.42 -0.71,0.61 -0.46,0.34 -0.85,0.65 -0.8,1.01 0.01,0.07 -0.03,0.13 -0.11,0.15 0,0 -0.01,0 -0.01,0l0 0zm1.18 -3.75c-0.1,0 -0.2,0.02 -0.28,0.06 -0.21,0.1 -0.31,0.3 -0.31,0.58 0,0.38 0.43,0.71 0.99,1.02 0.16,-0.2 0.29,-0.42 0.34,-0.68 0.1,-0.46 -0.12,-0.71 -0.26,-0.82 -0.14,-0.11 -0.31,-0.16 -0.48,-0.16z"/>
    <g>
     <path class="fil5" d="M8.53 5.94c-1.37,-0.07 -2.74,-0.07 -4.1,0 -0.28,0.02 -0.51,0.23 -0.55,0.5 -0.08,0.67 -0.08,1.33 0,1.99 0.04,0.28 0.27,0.49 0.55,0.5 1.36,0.08 2.73,0.08 4.1,0 0.28,-0.01 0.51,-0.22 0.54,-0.5 0.09,-0.66 0.09,-1.32 0,-1.99 -0.03,-0.27 -0.26,-0.48 -0.54,-0.5z"/>
     <path class="fil6" d="M4.68 8.95c-0.09,-0.01 -0.17,-0.01 -0.25,-0.02 -0.28,-0.01 -0.51,-0.22 -0.55,-0.5 -0.08,-0.66 -0.08,-1.32 0,-1.99 0.04,-0.27 0.27,-0.48 0.55,-0.5 0.08,0 0.16,-0.01 0.25,-0.01 -0.18,0.09 -0.31,0.26 -0.34,0.46 -0.09,0.7 -0.09,1.4 0,2.09 0.03,0.21 0.16,0.38 0.34,0.47z"/>
     <path class="fil6" d="M9.07 7.32c-0.03,0.28 -0.26,0.49 -0.54,0.5 -1.37,0.08 -2.74,0.08 -4.1,0 -0.28,-0.01 -0.51,-0.22 -0.55,-0.5 -0.02,-0.14 -0.03,-0.29 -0.04,-0.43 -0.03,0.36 -0.03,0.72 0,1.08 0.1,0.16 0.28,0.26 0.47,0.27 1.45,0.08 2.89,0.08 4.33,0 0.2,-0.01 0.38,-0.11 0.48,-0.27 0.02,-0.36 0.02,-0.72 0,-1.08 -0.01,0.14 -0.03,0.29 -0.05,0.43l0 0z"/>
     <path class="fil3" d="M7.17 8.27c-0.41,0.03 -0.83,0.03 -1.24,0 -0.18,-0.01 -0.32,-0.15 -0.34,-0.33 -0.02,-0.25 -0.02,-0.5 0,-0.74 0.02,-0.18 0.16,-0.33 0.34,-0.34 0.41,-0.02 0.83,-0.02 1.24,0 0.18,0.01 0.33,0.16 0.34,0.34 0.02,0.24 0.02,0.49 0,0.74 -0.01,0.18 -0.16,0.32 -0.34,0.33l0 0z"/>
     <path class="fil5" d="M6.55 7.83c-0.17,0 -0.34,0 -0.51,-0.01 -0.01,-0.17 -0.01,-0.34 0,-0.51 0.17,0 0.34,-0.01 0.51,-0.01 0.17,0 0.34,0.01 0.51,0.01 0.01,0.17 0.01,0.34 0,0.51 -0.17,0.01 -0.34,0.01 -0.51,0.01z"/>
     <path class="fil7" d="M6.55 7.96c-0.17,0 -0.34,0 -0.52,-0.01 -0.06,0 -0.11,-0.05 -0.12,-0.12 -0.01,-0.17 -0.01,-0.35 0,-0.52 0.01,-0.07 0.06,-0.12 0.12,-0.12 0.18,-0.01 0.35,-0.02 0.52,-0.02 0.17,0 0.35,0.01 0.52,0.02 0.06,0 0.12,0.05 0.12,0.12 0.01,0.17 0.01,0.35 0,0.52 0,0.07 -0.06,0.12 -0.12,0.12 -0.17,0.01 -0.35,0.01 -0.52,0.01zm-0.39 -0.26c0.26,0.01 0.52,0.01 0.78,0 0,-0.09 0,-0.17 0,-0.26 -0.26,-0.01 -0.52,-0.01 -0.78,0 0,0.09 0,0.17 0,0.26z"/>
    </g>
   </g>
  </g>
 </g>
</svg>
