<?xml version="1.0" encoding="UTF-8"?>
<!DOCTYPE svg PUBLIC "-//W3C//DTD SVG 1.1//EN" "http://www.w3.org/Graphics/SVG/1.1/DTD/svg11.dtd">
<!-- Creator: CorelDRAW 2019 (64-Bit) -->
<svg xmlns="http://www.w3.org/2000/svg" xml:space="preserve" width="293px" height="180px" version="1.1" style="shape-rendering:geometricPrecision; text-rendering:geometricPrecision; image-rendering:optimizeQuality; fill-rule:evenodd; clip-rule:evenodd"
viewBox="0 0 11.74 7.21"
 xmlns:xlink="http://www.w3.org/1999/xlink">
 <defs>
  <style type="text/css">
   <![CDATA[
    .fil0 {fill:none}
    .fil5 {fill:#009FF5}
    .fil2 {fill:#D45D13}
    .fil4 {fill:#DE6A1E}
    .fil6 {fill:#DEAE7E}
    .fil3 {fill:#F07F2F}
    .fil1 {fill:#F5C99D}
   ]]>
  </style>
 </defs>
 <g id="Layer_x0020_1">
  <metadata id="CorelCorpID_0Corel-Layer"/>
  <rect class="fil0" width="11.74" height="7.21"/>
  <g id="funding.svg">
   <path class="fil1" d="M6.46 4.38l0 0.49c0,0.21 -0.06,0.42 -0.18,0.59l-1 0 0 -1.08 1.18 0z"/>
   <path class="fil2" d="M5.37 1.75c0,0.12 0.04,0.23 0.1,0.33l0.09 0.12 0 0.09 0.54 0 0 -0.09 0.08 -0.12c0.06,-0.1 0.1,-0.21 0.1,-0.33l-0.91 0z"/>
   <path class="fil3" d="M6.82 4.04l0 -1.02c0,-0.45 -0.36,-0.82 -0.81,-0.82l-0.36 0c-0.45,0 -0.82,0.37 -0.82,0.82l0 0.9c0,0 0,0 0,0 0,0.07 -0.03,0.12 -0.09,0.15 -0.06,0.03 -0.09,0.09 -0.09,0.15l0 0.16 2.35 0 0 -0.08c0,-0.12 -0.07,-0.22 -0.18,-0.26l0 0z"/>
   <path class="fil4" d="M5.74 2.2l0 0c0,0.15 0.12,0.28 0.27,0.28l0 0c0.25,0 0.45,0.2 0.45,0.45l0 1.1 0.36 0 0 -1.01c0,-0.45 -0.36,-0.82 -0.81,-0.82l-0.27 0z"/>
   <path class="fil1" d="M3.74 4.02l0.25 0c0,0 0,0 0,0 0.25,0 0.49,0.09 0.66,0.27l0.45 0 0.18 0.18 0 0.54 -0.54 0c0,0 0,0 0,0 -0.29,0 -0.58,-0.09 -0.82,-0.27l-0.18 0 0 -0.72z"/>
   <polygon class="fil5" points="3.2,3.74 3.74,3.74 3.74,4.83 3.2,4.83 "/>
   <path class="fil1" d="M7.91 4.02l-0.16 0c-0.24,0 -0.48,0.09 -0.66,0.27l-0.45 0 -0.18 0.18 0 0.54 0.54 0c0.3,0 0.58,-0.09 0.82,-0.27l0.09 0 0 -0.72z"/>
   <polygon class="fil5" points="7.91,3.74 8.54,3.74 8.54,4.83 7.91,4.83 "/>
   <g>
    <polygon class="fil3" points="4.29,2.38 4.56,2.38 4.56,2.57 4.29,2.57 "/>
    <polygon class="fil3" points="7.09,2.38 7.37,2.38 7.37,2.57 7.09,2.57 "/>
    <polygon class="fil3" points="6.66,1.51 6.85,1.32 6.98,1.45 6.79,1.64 "/>
   </g>
   <path class="fil2" d="M5.92 3.2l-0.18 0c-0.05,0 -0.09,-0.04 -0.09,-0.09 0,-0.05 0.04,-0.09 0.09,-0.09l0.36 0 0 -0.18 -0.18 0 0 -0.18 -0.18 0 0 0.18c-0.15,0 -0.28,0.12 -0.28,0.27 0,0.15 0.13,0.27 0.28,0.27l0.18 0c0,0 0,0 0,0 0.05,0 0.09,0.04 0.09,0.09 0,0.05 -0.04,0.09 -0.09,0.09l-0.36 0 0 0.18 0.18 0 0 0.18 0.18 0 0 -0.18 0 0c0.15,0 0.27,-0.12 0.27,-0.27 0,-0.15 -0.12,-0.27 -0.27,-0.27 0,0 0,0 0,0l0 0z"/>
   <polygon class="fil3" points="5.74,0.94 5.92,0.94 5.92,1.21 5.74,1.21 "/>
   <polygon class="fil3" points="4.67,1.45 4.8,1.32 4.99,1.51 4.87,1.64 "/>
   <path class="fil6" d="M5.27 4.38c-0.04,-0.11 -0.14,-0.18 -0.26,-0.18l0 0 -0.32 0c-0.19,-0.18 -0.44,-0.28 -0.69,-0.28 0,0 -0.01,0 -0.01,0l-0.25 0 0 0.19 0.25 0c0,0 0,0 0.01,0 0.22,0 0.43,0.08 0.59,0.24 0.01,0.02 0.04,0.03 0.06,0.03l0 0 0.36 0c0,0 0,0 0,0 0.05,0 0.09,0.04 0.09,0.09 0,0.05 -0.04,0.09 -0.09,0.09l-0.45 0 0 0.18 0.36 0 0.27 0 0 0.18 -0.45 0c-0.27,0 -0.54,-0.09 -0.76,-0.25 -0.02,-0.01 -0.04,-0.02 -0.06,-0.02 0,0 0,0 0,0l-0.18 0 0 0.18 0.15 0c0.25,0.18 0.55,0.27 0.85,0.27l0.45 0 0 0.36 0.18 0 0 -1.08 -0.1 0z"/>
   <path class="fil1" d="M6.1 4.59l0 -0.3c0,-0.1 0.08,-0.18 0.18,-0.18 0.1,0 0.18,0.08 0.18,0.18l0 0.3 -0.36 0z"/>
   <path class="fil6" d="M6.63 4.38l0.46 0c0,0 0,0 0.01,0 0.02,0 0.04,-0.01 0.06,-0.03 0.16,-0.16 0.37,-0.24 0.59,-0.24 0,0 0,0 0,0l0.16 0 0 -0.19 -0.16 0c0,0 0,0 0,0 -0.26,0 -0.5,0.1 -0.69,0.28l-0.43 0c0,0 0,0 0,0 -0.03,0 -0.06,0 -0.09,0.01 -0.03,-0.11 -0.14,-0.19 -0.26,-0.19 -0.15,0 -0.27,0.12 -0.27,0.27 0,0 0,0 0,0l0 0.27c-0.12,0.13 -0.18,0.3 -0.18,0.47 0,0 0,0 0,0l0 0.11 0.18 0 0 -0.11c0,0 0,0 0,0 0,-0.14 0.05,-0.27 0.15,-0.37 0.02,-0.02 0.03,-0.04 0.03,-0.07 0,0 0,0 0,0l0 -0.3c0,-0.05 0.04,-0.09 0.09,-0.09 0.05,0 0.09,0.04 0.09,0.09l0 0.58c0,0 0,0 0,0 0,0.19 -0.06,0.38 -0.17,0.54 -0.01,0.02 -0.01,0.04 -0.01,0.05l0 0.19 0.18 0 0 -0.16c0.08,-0.12 0.13,-0.25 0.16,-0.39l0.47 0c0.31,0 0.6,-0.09 0.85,-0.27l0.06 0 0 -0.18 -0.09 0c-0.02,0 -0.04,0.01 -0.05,0.02 -0.22,0.16 -0.49,0.25 -0.77,0.25l-0.45 0c0,-0.02 0,-0.04 0,-0.05l0 -0.13 0.33 0 0.22 0 0 -0.18 -0.47 0c-0.04,0 -0.08,-0.04 -0.08,-0.09 0,0 0,0 0,0 0,-0.03 0.01,-0.05 0.03,-0.07 0.01,-0.01 0.03,-0.02 0.05,-0.02z"/>
   <polygon class="fil5" points="5.19,5.46 6.46,5.46 6.46,6.28 5.19,6.28 "/>
  </g>
 </g>
</svg>
