<?xml version="1.0" encoding="UTF-8"?>
<!DOCTYPE svg PUBLIC "-//W3C//DTD SVG 1.1//EN" "http://www.w3.org/Graphics/SVG/1.1/DTD/svg11.dtd">
<!-- Creator: CorelDRAW 2019 (64-Bit) -->
<svg xmlns="http://www.w3.org/2000/svg" xml:space="preserve" width="293px" height="180px" version="1.1" style="shape-rendering:geometricPrecision; text-rendering:geometricPrecision; image-rendering:optimizeQuality; fill-rule:evenodd; clip-rule:evenodd"
viewBox="0 0 14.38 8.84"
 xmlns:xlink="http://www.w3.org/1999/xlink">
 <defs>
  <style type="text/css">
   <![CDATA[
    .fil0 {fill:none}
    .fil2 {fill:#30323A}
    .fil1 {fill:#F55557}
   ]]>
  </style>
 </defs>
 <g id="Layer_x0020_1">
  <metadata id="CorelCorpID_0Corel-Layer"/>
  <rect class="fil0" width="14.38" height="8.84"/>
  <g id="health.svg">
   <path class="fil1" d="M7.24 7.46c0,0 -1.94,-1.15 -2.94,-2.62 -0.59,-0.85 -0.67,-1.58 -0.5,-2.16 0.24,-0.83 1.17,-1.65 2.48,-1.17 0.63,0.24 0.96,0.5 0.96,0.5 0,0 0.33,-0.26 0.96,-0.5 1.3,-0.48 2.24,0.34 2.48,1.17 0.17,0.57 0.09,1.3 -0.5,2.16 -1.01,1.47 -2.94,2.62 -2.94,2.62z"/>
   <path class="fil2" d="M11.39 4.29l-0.73 0c0.31,-0.7 0.27,-1.26 0.16,-1.64 -0.2,-0.68 -0.86,-1.4 -1.85,-1.4 -0.27,0 -0.53,0.04 -0.81,0.15 -0.47,0.18 -0.78,0.37 -0.91,0.46 -0.14,-0.09 -0.44,-0.28 -0.92,-0.46 -0.27,-0.11 -0.53,-0.15 -0.8,-0.15 -0.99,0 -1.65,0.72 -1.85,1.4 -0.13,0.4 -0.17,1.01 0.21,1.78l-0.9 0c-0.07,0 -0.13,0.05 -0.13,0.13 0,0.08 0.06,0.13 0.13,0.13l1.05 0c0.05,0.08 0.09,0.15 0.14,0.23 0.86,1.23 2.72,2.57 3.06,2.66l0 0.01c0,0 0.01,0 0.02,-0.01 0.01,0 0.02,0 0.02,0l0 -0.01c0.29,-0.14 2.07,-1.29 3.02,-2.66 0.08,-0.12 0.16,-0.26 0.22,-0.37l0.87 0c0.08,0 0.13,-0.06 0.13,-0.13 0,-0.07 -0.05,-0.12 -0.13,-0.12zm-7.46 -1.56c0.17,-0.59 0.74,-1.22 1.59,-1.22 0.23,0 0.46,0.05 0.71,0.13 0.6,0.23 0.92,0.49 0.92,0.49 0.05,0.03 0.13,0.03 0.17,0 0,0 0.33,-0.26 0.93,-0.49 0.24,-0.08 0.48,-0.13 0.71,-0.13 0.85,0 1.42,0.63 1.59,1.22 0.14,0.48 0.07,1.01 -0.2,1.56l-0.8 0 -0.34 -0.58c-0.02,-0.04 -0.06,-0.07 -0.11,-0.07 -0.05,0 -0.1,0.02 -0.11,0.06l-0.29 0.42 -0.45 -1.48c-0.02,-0.05 -0.08,-0.09 -0.13,-0.09 -0.06,0 -0.12,0.04 -0.14,0.09l-0.76 2.66 -0.83 -2.13c-0.02,-0.04 -0.07,-0.08 -0.12,-0.08 -0.06,0 -0.11,0.03 -0.13,0.07l-0.65 1.27 -1.29 0c-0.33,-0.61 -0.43,-1.18 -0.27,-1.7zm6.14 2.04c-0.88,1.27 -2.48,2.31 -2.83,2.53 -0.35,-0.22 -1.95,-1.27 -2.83,-2.53 -0.02,-0.03 -0.03,-0.05 -0.05,-0.08l1.22 0c0.05,0 0.09,-0.03 0.12,-0.07l0.55 -1.08 0.87 2.22c0.02,0.06 0.06,0.08 0.12,0.08 0,0 0,0 0.01,0 0.06,0 0.1,-0.03 0.12,-0.09l0.76 -2.6 0.4 1.32c0.02,0.04 0.06,0.08 0.12,0.09 0.04,0.01 0.1,-0.02 0.13,-0.06l0.32 -0.46 0.27 0.46c0.03,0.04 0.07,0.07 0.12,0.07l0.72 0c-0.05,0.06 -0.09,0.13 -0.14,0.2z"/>
   <g>
   </g>
   <g>
   </g>
   <g>
   </g>
   <g>
   </g>
   <g>
   </g>
   <g>
   </g>
   <g>
   </g>
   <g>
   </g>
   <g>
   </g>
   <g>
   </g>
   <g>
   </g>
   <g>
   </g>
   <g>
   </g>
   <g>
   </g>
   <g>
   </g>
  </g>
 </g>
</svg>
