<?xml version="1.0" encoding="UTF-8"?>
<!DOCTYPE svg PUBLIC "-//W3C//DTD SVG 1.1//EN" "http://www.w3.org/Graphics/SVG/1.1/DTD/svg11.dtd">
<!-- Creator: CorelDRAW 2019 (64-Bit) -->
<svg xmlns="http://www.w3.org/2000/svg" xml:space="preserve" width="293px" height="180px" version="1.1" style="shape-rendering:geometricPrecision; text-rendering:geometricPrecision; image-rendering:optimizeQuality; fill-rule:evenodd; clip-rule:evenodd"
viewBox="0 0 16.16 9.93"
 xmlns:xlink="http://www.w3.org/1999/xlink">
 <defs>
  <style type="text/css">
   <![CDATA[
    .fil0 {fill:none}
    .fil6 {fill:#40596B}
    .fil4 {fill:#54C0EB}
    .fil5 {fill:#84DBFF}
    .fil7 {fill:#ACB3BA}
    .fil1 {fill:#E8EAEA}
    .fil3 {fill:#F2F2F2}
    .fil2 {fill:#FF7058}
   ]]>
  </style>
 </defs>
 <g id="Layer_x0020_1">
  <metadata id="CorelCorpID_0Corel-Layer"/>
  <rect class="fil0" width="16.16" height="9.93"/>
  <g id="hotel.svg">
   <g>
    <rect class="fil1" x="4.17" y="3.6" width="1.73" height="5.28"/>
    <rect class="fil1" x="10.26" y="3.6" width="1.73" height="5.28"/>
   </g>
   <path class="fil2" d="M4.17 3.7l0 0 7.82 0 0 0c0,-0.2 -0.16,-0.36 -0.36,-0.36l-7.1 0c-0.19,0 -0.36,0.16 -0.36,0.36z"/>
   <rect class="fil3" x="5.9" y="2.72" width="4.36" height="6.15"/>
   <path class="fil2" d="M10.51 2.36l-4.85 0c-0.1,0 -0.18,0.08 -0.18,0.18 0,0.1 0.08,0.18 0.18,0.18l4.85 0c0.1,0 0.18,-0.08 0.18,-0.18 0,-0.1 -0.08,-0.18 -0.18,-0.18z"/>
   <g>
    <rect class="fil4" x="4.66" y="4.09" width="0.75" height="0.83"/>
    <rect class="fil4" x="4.66" y="5.24" width="0.75" height="0.83"/>
    <rect class="fil4" x="4.66" y="6.4" width="0.75" height="0.83"/>
    <rect class="fil4" x="4.66" y="7.55" width="0.75" height="0.83"/>
    <rect class="fil4" x="10.75" y="4.09" width="0.75" height="0.83"/>
    <rect class="fil4" x="10.75" y="5.24" width="0.75" height="0.83"/>
    <rect class="fil4" x="10.75" y="6.4" width="0.75" height="0.83"/>
    <rect class="fil4" x="10.75" y="7.55" width="0.75" height="0.83"/>
   </g>
   <rect class="fil5" x="6.39" y="5.53" width="0.81" height="0.83"/>
   <rect class="fil6" x="7.2" y="6.84" width="1.74" height="2.04"/>
   <rect class="fil7" x="4.17" y="8.53" width="7.82" height="0.34"/>
   <g>
    <rect class="fil5" x="6.39" y="3.22" width="0.81" height="0.83"/>
    <rect class="fil5" x="6.39" y="4.38" width="0.81" height="0.83"/>
    <rect class="fil5" x="7.67" y="3.22" width="0.81" height="0.83"/>
    <rect class="fil5" x="7.67" y="4.38" width="0.81" height="0.83"/>
    <rect class="fil5" x="7.67" y="5.53" width="0.81" height="0.83"/>
    <rect class="fil5" x="8.96" y="3.22" width="0.81" height="0.83"/>
    <rect class="fil5" x="8.96" y="4.38" width="0.81" height="0.83"/>
    <rect class="fil5" x="8.96" y="5.53" width="0.81" height="0.83"/>
   </g>
   <g>
    <polygon class="fil6" points="6.42,1.07 6.63,1.07 6.63,2.03 6.42,2.03 6.42,1.66 6.03,1.66 6.03,2.03 5.82,2.03 5.82,1.07 6.03,1.07 6.03,1.48 6.42,1.48 6.42,1.07 "/>
    <path class="fil6" d="M7.67 1.9c-0.09,0.1 -0.21,0.15 -0.35,0.15 -0.15,0 -0.26,-0.05 -0.36,-0.15 -0.1,-0.09 -0.15,-0.21 -0.15,-0.35 0,-0.15 0.05,-0.26 0.15,-0.36 0.1,-0.08 0.21,-0.13 0.36,-0.13 0.14,0 0.26,0.05 0.35,0.14 0.1,0.1 0.15,0.22 0.15,0.36 0,0.13 -0.05,0.26 -0.15,0.34zm-0.06 -0.34c0,-0.08 -0.03,-0.16 -0.08,-0.23 -0.05,-0.06 -0.13,-0.09 -0.21,-0.09 -0.08,0 -0.15,0.03 -0.22,0.09 -0.04,0.07 -0.08,0.13 -0.08,0.23 0,0.1 0.04,0.16 0.08,0.21 0.07,0.07 0.14,0.1 0.22,0.1 0.08,0 0.14,-0.03 0.21,-0.1 0.06,-0.06 0.08,-0.13 0.08,-0.21z"/>
    <polygon class="fil6" points="8.39,1.27 8.39,2.05 8.18,2.05 8.18,1.27 7.9,1.27 7.9,1.07 8.67,1.07 8.67,1.25 8.39,1.25 "/>
    <polygon class="fil6" points="9.51,1.07 9.51,1.27 9.03,1.27 9.03,1.46 9.47,1.46 9.47,1.64 9.03,1.64 9.03,1.84 9.51,1.84 9.51,2.03 8.8,2.03 8.8,1.07 "/>
    <polygon class="fil6" points="9.73,2.05 9.73,1.07 9.94,1.07 9.94,1.84 10.35,1.84 10.35,2.03 9.73,2.03 9.73,2.05 "/>
   </g>
   <g>
   </g>
   <g>
   </g>
   <g>
   </g>
   <g>
   </g>
   <g>
   </g>
   <g>
   </g>
   <g>
   </g>
   <g>
   </g>
   <g>
   </g>
   <g>
   </g>
   <g>
   </g>
   <g>
   </g>
   <g>
   </g>
   <g>
   </g>
   <g>
   </g>
  </g>
 </g>
</svg>
