<?xml version="1.0" encoding="UTF-8"?>
<!DOCTYPE svg PUBLIC "-//W3C//DTD SVG 1.1//EN" "http://www.w3.org/Graphics/SVG/1.1/DTD/svg11.dtd">
<!-- Creator: CorelDRAW 2019 (64-Bit) -->
<svg xmlns="http://www.w3.org/2000/svg" xml:space="preserve" width="293px" height="180px" version="1.1" style="shape-rendering:geometricPrecision; text-rendering:geometricPrecision; image-rendering:optimizeQuality; fill-rule:evenodd; clip-rule:evenodd"
viewBox="0 0 18.48 11.36"
 xmlns:xlink="http://www.w3.org/1999/xlink">
 <defs>
  <style type="text/css">
   <![CDATA[
    .fil0 {fill:none}
    .fil6 {fill:#2C3E50}
    .fil3 {fill:#3D324C}
    .fil5 {fill:#41767F}
    .fil1 {fill:#894B9D}
    .fil2 {fill:#B49ACA}
    .fil7 {fill:#F09372}
    .fil4 {fill:#FDD7AD}
   ]]>
  </style>
 </defs>
 <g id="Layer_x0020_1">
  <metadata id="CorelCorpID_0Corel-Layer"/>
  <rect class="fil0" width="18.48" height="11.36"/>
  <g id="insurance.svg">
   <g id="Page-1">
    <g id="_033---Insurance">
     <path id="Shape" class="fil1" d="M9.31 7.24l1.76 -1.26c0.44,-0.31 0.7,-0.82 0.7,-1.36l0 -2.58c0,-0.03 -0.01,-0.06 -0.04,-0.07l-2.47 -1.07c-0.02,-0.01 -0.05,-0.01 -0.07,0l-2.47 1.07c-0.03,0.01 -0.05,0.04 -0.05,0.07l0 2.59c0.01,0.54 0.27,1.04 0.71,1.35l1.76 1.26c0.05,0.03 0.12,0.03 0.17,0z"/>
     <path id="Shape_0" class="fil2" d="M7.75 5.46c-0.27,-0.19 -0.44,-0.5 -0.44,-0.84l0 -2.21 1.91 -0.83 1.92 0.83 0 2.22c0,0.33 -0.17,0.64 -0.44,0.83l-1.48 1.06 -1.47 -1.06z"/>
     <path id="Shape_1" class="fil3" d="M8.86 5.06c-0.04,0 -0.07,-0.02 -0.1,-0.04l-0.72 -0.54c-0.05,-0.04 -0.07,-0.09 -0.07,-0.15 0.01,-0.06 0.05,-0.1 0.1,-0.13 0.05,-0.02 0.11,-0.01 0.16,0.02l0.6 0.46 1.36 -1.7c0.06,-0.07 0.16,-0.08 0.23,-0.03 0.07,0.06 0.08,0.16 0.02,0.22l-1.46 1.83c-0.03,0.03 -0.07,0.06 -0.12,0.06z"/>
     <g>
      <path id="Shape_2" class="fil4" d="M6.74 7.71l-0.73 -0.73c-0.15,-0.16 -0.28,-0.34 -0.36,-0.54l-0.36 -0.84c-0.06,-0.12 -0.18,-0.21 -0.32,-0.21 -0.12,0 -0.23,0.06 -0.29,0.16 -0.07,0.1 -0.08,0.23 -0.03,0.34l0.63 1.37c0.07,0.17 0.18,0.32 0.31,0.45l1.15 1.16 1.55 0 0 -0.46c0,-0.34 -0.11,-0.67 -0.32,-0.94 -0.12,-0.16 -0.27,-0.28 -0.46,-0.34 -0.35,-0.15 -0.68,-0.36 -0.96,-0.62 -0.23,-0.19 -0.56,-0.17 -0.77,0.04l0.96 1.16zm0 0l0 0 0 0z"/>
     </g>
     <g>
      <path id="Shape_3" class="fil4" d="M11.74 7.71l0.73 -0.73c0.16,-0.16 0.28,-0.34 0.37,-0.54l0.35 -0.84c0.06,-0.12 0.19,-0.21 0.33,-0.21 0.11,0 0.22,0.06 0.29,0.16 0.06,0.1 0.07,0.23 0.02,0.34l-0.62 1.37c-0.08,0.17 -0.18,0.32 -0.32,0.45l-1.15 1.16 -1.54 0 0 -0.46c-0.01,-0.34 0.1,-0.67 0.31,-0.94 0.12,-0.16 0.28,-0.28 0.46,-0.34 0.35,-0.15 0.68,-0.36 0.96,-0.62 0.23,-0.19 0.57,-0.17 0.78,0.04l-0.97 1.16zm0 0l0 0 0 0z"/>
     </g>
     <path class="fil5" d="M11.79 10.46l-1.75 0c-0.09,0 -0.16,-0.07 -0.16,-0.16l0 -1.27c0,-0.09 0.07,-0.16 0.16,-0.16l1.75 0c0.09,0 0.16,0.07 0.16,0.16l0 1.27c0,0.09 -0.07,0.16 -0.16,0.16z"/>
     <path id="Shape_4" class="fil6" d="M10.68 9.82l-0.16 0c-0.09,0 -0.16,-0.07 -0.16,-0.16 0,-0.09 0.07,-0.16 0.16,-0.16l0.16 0c0.08,0 0.16,0.07 0.16,0.16 0,0.09 -0.08,0.16 -0.16,0.16z"/>
     <path class="fil5" d="M6.69 8.87l1.75 0c0.09,0 0.16,0.07 0.16,0.16l0 1.27c0,0.09 -0.07,0.16 -0.16,0.16l-1.75 0c-0.09,0 -0.16,-0.07 -0.16,-0.16l0 -1.27c0,-0.09 0.07,-0.16 0.16,-0.16z"/>
     <path id="Shape_5" class="fil6" d="M7.97 9.82l-0.16 0c-0.09,0 -0.16,-0.07 -0.16,-0.16 0,-0.09 0.07,-0.16 0.16,-0.16l0.16 0c0.08,0 0.16,0.07 0.16,0.16 0,0.09 -0.08,0.16 -0.16,0.16z"/>
     <path id="Shape_6" class="fil7" d="M7 7.75c-0.07,0.06 -0.17,0.06 -0.23,0l-0.73 -0.73c-0.1,-0.11 -0.2,-0.22 -0.27,-0.35 -0.02,-0.03 -0.03,-0.05 -0.04,-0.07l0.06 -0.06c0.05,-0.06 0.12,-0.1 0.2,-0.13 0.07,0.14 0.17,0.27 0.28,0.39l0.73 0.72c0.06,0.06 0.06,0.17 0,0.23z"/>
     <path id="Shape_7" class="fil7" d="M11.5 7.75c0.06,0.06 0.16,0.06 0.23,0l0.72 -0.73c0.11,-0.11 0.2,-0.22 0.28,-0.35 0.02,-0.03 0.03,-0.05 0.04,-0.07l-0.06 -0.06c-0.06,-0.06 -0.13,-0.1 -0.2,-0.13 -0.08,0.14 -0.17,0.27 -0.28,0.39l-0.73 0.72c-0.06,0.06 -0.06,0.17 0,0.23z"/>
    </g>
   </g>
  </g>
 </g>
</svg>
