<?xml version="1.0" encoding="UTF-8"?>
<!DOCTYPE svg PUBLIC "-//W3C//DTD SVG 1.1//EN" "http://www.w3.org/Graphics/SVG/1.1/DTD/svg11.dtd">
<!-- Creator: CorelDRAW 2019 (64-Bit) -->
<svg xmlns="http://www.w3.org/2000/svg" xml:space="preserve" width="150px" height="100px" version="1.1" style="shape-rendering:geometricPrecision; text-rendering:geometricPrecision; image-rendering:optimizeQuality; fill-rule:evenodd; clip-rule:evenodd"
viewBox="0 0 4.08 2.72"
 xmlns:xlink="http://www.w3.org/1999/xlink"
 enable-background="new 0 0 512 512">
 <defs>
  <style type="text/css">
   <![CDATA[
    .fil0 {fill:none}
    .fil7 {fill:#00C2F3}
    .fil3 {fill:#415E6F}
    .fil6 {fill:#4DD4F7}
    .fil2 {fill:#56788B}
    .fil1 {fill:#90ABBD}
    .fil5 {fill:#BAE1E5}
    .fil4 {fill:#D9F0F4}
    .fil8 {fill:#FF6B81}
   ]]>
  </style>
 </defs>
 <g id="Layer_x0020_1">
  <metadata id="CorelCorpID_0Corel-Layer"/>
  <rect class="fil0" width="4.08" height="2.72"/>
  <g id="inetrnet-of-thing.svg">
   <g>
    <g>
     <g>
      <g>
       <polygon class="fil1" points="2.32,2.54 1.75,2.54 1.85,2.24 2.23,2.24 "/>
       <path class="fil2" d="M3.26 0.65l0 1.37c0,0.14 -0.11,0.25 -0.25,0.25l-1.94 0c-0.14,0 -0.25,-0.11 -0.25,-0.25l0 -1.37c0,-0.14 0.11,-0.25 0.25,-0.25l1.94 0c0.14,0 0.25,0.11 0.25,0.25l0 0z"/>
       <path class="fil3" d="M3.26 0.65l0 1.37c0,0.14 -0.11,0.25 -0.25,0.25l-0.1 0c0.14,0 0.25,-0.11 0.25,-0.25l0 -1.37c0,-0.14 -0.11,-0.25 -0.25,-0.25l0.1 0c0.14,0 0.25,0.11 0.25,0.25l0 0z"/>
       <path class="fil4" d="M3.12 0.65l0 1.23c0,0.06 -0.05,0.11 -0.12,0.11l-1.93 0c-0.06,0 -0.11,-0.05 -0.11,-0.11l0 -1.23c0,-0.06 0.05,-0.12 0.11,-0.12l1.93 0c0.07,0 0.12,0.06 0.12,0.12l0 0z"/>
       <path class="fil5" d="M3.12 0.65l0 1.23c0,0.06 -0.05,0.11 -0.12,0.11l-0.09 0c0.06,0 0.11,-0.05 0.11,-0.11l0 -1.23c0,-0.06 -0.05,-0.12 -0.11,-0.12l0.09 0c0.07,0 0.12,0.06 0.12,0.12l0 0z"/>
       <path class="fil2" d="M2.51 2.51l-0.94 0c-0.02,0 -0.04,0.02 -0.04,0.03 0,0.02 0.02,0.04 0.04,0.04l0.94 0c0.02,0 0.04,-0.02 0.04,-0.04 0,-0.01 -0.02,-0.03 -0.04,-0.03l0 0z"/>
       <g>
        <path class="fil3" d="M1.27 2.1l-0.15 0c-0.02,0 -0.03,0.02 -0.03,0.03 0,0.02 0.01,0.04 0.03,0.04l0.15 0c0.02,0 0.03,-0.02 0.03,-0.04 0,-0.01 -0.01,-0.03 -0.03,-0.03z"/>
        <path class="fil3" d="M1.56 2.1l-0.15 0c-0.02,0 -0.04,0.02 -0.04,0.03 0,0.02 0.02,0.04 0.04,0.04l0.15 0c0.01,0 0.03,-0.02 0.03,-0.04 0,-0.01 -0.02,-0.03 -0.03,-0.03z"/>
       </g>
      </g>
     </g>
     <g>
      <path class="fil1" d="M1.27 1.63l-0.15 0c-0.02,0 -0.04,0.02 -0.04,0.04 0,0.02 0.02,0.03 0.04,0.03l0.15 0c0.02,0 0.04,-0.01 0.04,-0.03 0,-0.02 -0.02,-0.04 -0.04,-0.04z"/>
      <path class="fil1" d="M1.08 1.84c0,0.02 0.02,0.03 0.04,0.03l0.25 0c0.02,0 0.03,-0.01 0.03,-0.03 0,-0.02 -0.01,-0.04 -0.03,-0.04l-0.25 0c-0.02,0 -0.04,0.02 -0.04,0.04l0 0z"/>
     </g>
    </g>
    <g>
     <path class="fil4" d="M2.82 0.96c0,0.36 -0.25,0.67 -0.58,0.76 -0.07,0.01 -0.13,0.02 -0.2,0.02 -0.43,0 -0.78,-0.35 -0.78,-0.78 0,-0.43 0.35,-0.78 0.78,-0.78 0.07,0 0.13,0 0.2,0.02 0.33,0.09 0.58,0.39 0.58,0.76z"/>
     <path class="fil5" d="M2.82 0.96c0,0.36 -0.25,0.67 -0.58,0.76 0.29,-0.13 0.5,-0.42 0.5,-0.76 0,-0.34 -0.21,-0.63 -0.5,-0.76 0.33,0.09 0.58,0.39 0.58,0.76z"/>
     <path class="fil6" d="M2.04 0.14c-0.02,0 -0.04,0 -0.06,0 -0.42,0.03 -0.76,0.38 -0.76,0.82 0,0.43 0.34,0.79 0.76,0.82 0.02,0 0.04,0 0.06,0 0.45,0 0.82,-0.37 0.82,-0.82 0,-0.45 -0.37,-0.82 -0.82,-0.82zm0.48 0.24c0.15,0.13 0.26,0.33 0.27,0.54l-0.24 0c0,-0.18 -0.05,-0.36 -0.12,-0.5 0.03,-0.01 0.05,-0.02 0.08,-0.03 0,0 0.01,-0.01 0.01,-0.01l0 0zm-0.13 1.18c0.02,0.01 0.04,0.01 0.06,0.02 -0.04,0.03 -0.09,0.06 -0.14,0.08 0.03,-0.03 0.06,-0.06 0.08,-0.1zm-0.32 0.15l0 -0.2c0.09,0 0.17,0.01 0.25,0.03 -0.07,0.1 -0.16,0.15 -0.25,0.17zm0.29 -0.23c-0.09,-0.03 -0.19,-0.04 -0.29,-0.04l0 -0.15 -0.07 0 0 0.15c-0.1,0 -0.19,0.01 -0.28,0.04 -0.08,-0.14 -0.12,-0.3 -0.12,-0.49l0.4 0 0 0.13 0.07 0 0 -0.13 0.41 0c0,0.19 -0.05,0.35 -0.12,0.49l0 0zm-0.76 -0.56c0,-0.18 0.04,-0.35 0.12,-0.48 0.09,0.02 0.18,0.04 0.28,0.04l0 0.44 -0.4 0zm0.47 0l0 -0.44c0.1,0 0.2,-0.02 0.29,-0.04 0.07,0.13 0.12,0.3 0.12,0.48l-0.41 0zm0.25 -0.54c-0.08,0.01 -0.16,0.03 -0.25,0.03l0 -0.2c0.09,0.01 0.18,0.07 0.25,0.17zm-0.01 -0.12c0.05,0.02 0.1,0.04 0.14,0.07 -0.02,0.01 -0.04,0.02 -0.06,0.03 -0.02,-0.04 -0.05,-0.07 -0.08,-0.1l0 0zm-0.31 -0.05l0 0.2c-0.08,0 -0.16,-0.02 -0.24,-0.03 0.07,-0.1 0.15,-0.16 0.24,-0.17zm-0.23 0.05c-0.03,0.03 -0.06,0.06 -0.08,0.1 -0.02,-0.01 -0.04,-0.02 -0.07,-0.03 0.05,-0.03 0.1,-0.05 0.15,-0.07l0 0zm-0.21 0.12c0.03,0.02 0.06,0.03 0.09,0.04 -0.08,0.14 -0.12,0.32 -0.13,0.5l-0.23 0c0.01,-0.21 0.11,-0.41 0.27,-0.54l0 0zm-0.27 0.61l0.23 0c0.01,0.19 0.05,0.37 0.13,0.51 -0.03,0.01 -0.06,0.02 -0.09,0.03 -0.16,-0.13 -0.26,-0.32 -0.27,-0.54zm0.33 0.59c0.03,-0.01 0.05,-0.01 0.07,-0.02 0.02,0.04 0.05,0.07 0.08,0.1 -0.05,-0.02 -0.1,-0.05 -0.15,-0.08zm0.14 -0.04c0.08,-0.02 0.16,-0.03 0.24,-0.03l0 0.2c-0.09,-0.02 -0.17,-0.07 -0.24,-0.17zm0.76 -0.01c0,0 -0.01,0 -0.01,0 -0.03,-0.01 -0.05,-0.02 -0.08,-0.03 0.07,-0.14 0.12,-0.32 0.12,-0.51l0.24 0c-0.01,0.22 -0.12,0.41 -0.27,0.54l0 0z"/>
     <path class="fil7" d="M2.86 0.96c0,0.45 -0.37,0.82 -0.82,0.82 -0.02,0 -0.04,0 -0.06,0 0.21,-0.02 0.39,-0.11 0.53,-0.25 0,0 0.01,0 0.01,0 0.15,-0.13 0.26,-0.32 0.27,-0.54l-0.05 0c0,-0.01 0,-0.02 0,-0.03 0,-0.01 0,-0.03 0,-0.04l0.05 0c-0.01,-0.21 -0.12,-0.41 -0.27,-0.54 0,0 -0.01,0.01 -0.01,0.01 -0.14,-0.14 -0.32,-0.23 -0.53,-0.25 0.02,0 0.04,0 0.06,0 0.45,0 0.82,0.37 0.82,0.82l0 0z"/>
     <g>
      <circle class="fil8" cx="1.37" cy="0.55" r="0.12"/>
      <path class="fil8" d="M2.04 1.09c-0.07,0 -0.12,0.05 -0.12,0.12 0,0.06 0.05,0.12 0.12,0.12 0.06,0 0.12,-0.06 0.12,-0.12 0,-0.07 -0.06,-0.12 -0.12,-0.12z"/>
      <circle class="fil8" cx="2.49" cy="0.7" r="0.12"/>
     </g>
    </g>
   </g>
  </g>
 </g>
</svg>
