<?xml version="1.0" encoding="UTF-8"?>
<!DOCTYPE svg PUBLIC "-//W3C//DTD SVG 1.1//EN" "http://www.w3.org/Graphics/SVG/1.1/DTD/svg11.dtd">
<!-- Creator: CorelDRAW 2019 (64-Bit) -->
<svg xmlns="http://www.w3.org/2000/svg" xml:space="preserve" width="884px" height="562px" version="1.1" style="shape-rendering:geometricPrecision; text-rendering:geometricPrecision; image-rendering:optimizeQuality; fill-rule:evenodd; clip-rule:evenodd"
viewBox="0 0 141.73 90.1"
 xmlns:xlink="http://www.w3.org/1999/xlink"
 enable-background="new 0 0 512 512">
 <defs>
  <style type="text/css">
   <![CDATA[
    .fil0 {fill:none}
    .fil11 {fill:#02FFB3}
    .fil14 {fill:#2626BC}
    .fil12 {fill:#6583FE}
    .fil4 {fill:#8399FE}
    .fil10 {fill:#97FFD2}
    .fil3 {fill:#9FB0FE}
    .fil7 {fill:#B7C5FF}
    .fil6 {fill:#DCFDEE}
    .fil9 {fill:#FF5BA8}
    .fil8 {fill:#FF7EB8}
    .fil13 {fill:#FFA8CF}
    .fil5 {fill:white}
    .fil2 {fill:#2626BC;fill-opacity:0.101961}
    .fil1 {fill:url(#id0)}
   ]]>
  </style>
  <linearGradient id="id0" gradientUnits="userSpaceOnUse" x1="37.52" y1="44.88" x2="103.85" y2="44.31">
   <stop offset="0" style="stop-opacity:1; stop-color:#FFDBED"/>
   <stop offset="1" style="stop-opacity:1; stop-color:#DCFDEE"/>
  </linearGradient>
 </defs>
 <g id="Layer_x0020_1">
  <metadata id="CorelCorpID_0Corel-Layer"/>
  <rect class="fil0" width="141.73" height="90.1"/>
  <ellipse class="fil0" cx="70.86" cy="45.05" rx="43.42" ry="44.28"/>
  <g id="lag-free-interaction.svg">
   <g>
    <path class="fil1" d="M99.35 30.96c-4.38,-4.51 -11.23,-5.13 -16.29,-1.87 -1.44,0.93 -3.19,1.24 -4.86,0.87 -3.96,-0.88 -8.11,-0.28 -11.64,1.64 -2.37,1.29 -5.26,1.06 -7.48,-0.48 -1.47,-1.03 -3.17,-1.76 -5.05,-2.11 -6.96,-1.28 -13.72,3.33 -15.06,10.28 -1.37,7.11 3.34,13.94 10.44,15.2 1.74,0.31 3.45,0.26 5.07,-0.1 2.63,-0.58 5.37,0.39 7.07,2.48 1.07,1.32 2.36,2.5 3.86,3.48 7.75,5.05 18.13,2.87 23.18,-4.88 0.01,-0.01 0.02,-0.01 0.02,-0.02 0.93,-1.43 2.37,-2.44 4.03,-2.78 2.43,-0.49 4.75,-1.68 6.62,-3.58 4.95,-4.98 4.99,-13.1 0.09,-18.13l0 0z"/>
    <path class="fil2" d="M95.97 25.29l0 31.91c0,1.04 -0.85,1.88 -1.88,1.88l-46.45 0c-1.04,0 -1.88,-0.84 -1.88,-1.88l0 -31.91c0,-1.04 0.84,-1.88 1.88,-1.88l46.45 0c1.03,0 1.88,0.84 1.88,1.88z"/>
    <polygon class="fil3" points="77.98,70.85 63.75,70.85 66.59,59.56 75.14,59.56 "/>
    <polygon class="fil4" points="76.13,63.49 65.6,63.49 66.59,59.56 75.14,59.56 "/>
    <path class="fil5" d="M95.97 27.92l0 31.92c0,1.04 -0.85,1.88 -1.88,1.88l-46.45 0c-1.04,0 -1.88,-0.84 -1.88,-1.88l0 -31.92c0,-1.04 0.84,-1.88 1.88,-1.88l46.45 0c1.03,0 1.88,0.85 1.88,1.88l0 0z"/>
    <path class="fil6" d="M88.35 32.09c0,9.66 -7.83,17.48 -17.49,17.48 -9.65,0 -17.48,-7.82 -17.48,-17.48l34.97 0z"/>
    <path class="fil7" d="M66.96 55.39c0,-2.15 1.75,-3.9 3.9,-3.9 2.16,0 3.91,1.75 3.91,3.9l-7.81 0z"/>
    <path class="fil8" d="M95.97 32.09l0 -4.17c0,-1.04 -0.84,-1.88 -1.88,-1.88l-46.45 0c-1.04,0 -1.88,0.84 -1.88,1.88l0 4.17 50.21 0z"/>
    <path class="fil7" d="M45.76 55.39l0 4.45c0,1.04 0.84,1.88 1.88,1.88l46.45 0c1.04,0 1.88,-0.84 1.88,-1.88l0 -4.45 -50.21 0z"/>
    <path class="fil9" d="M81.46 55.39c0,-5.85 -4.75,-10.59 -10.6,-10.59 -5.84,0 -10.59,4.74 -10.59,10.59l-4 0c0,-8.06 6.53,-14.59 14.59,-14.59 8.07,0 14.6,6.53 14.6,14.59l-4 0z"/>
    <path class="fil10" d="M70.86 44.8c-5.84,0 -10.59,4.74 -10.59,10.59l-4 0c0,-8.06 6.53,-14.59 14.59,-14.59l0 4z"/>
    <path class="fil8" d="M81.77 45.69l-2.84 2.84c-1.94,-2.28 -4.84,-3.73 -8.07,-3.73l0 -4c4.34,0 8.24,1.89 10.91,4.89l0 0z"/>
    <path class="fil11" d="M70.86 40.8l0 4c-3.22,0 -6.12,1.45 -8.06,3.73l-2.84 -2.84c2.67,-3 6.57,-4.89 10.9,-4.89l0 0z"/>
    <path class="fil3" d="M74.55 49.17l-0.01 -0.01 0.2 -0.29c0.19,-0.29 0.12,-0.68 -0.17,-0.87 -0.28,-0.2 -0.67,-0.13 -0.87,0.16l-0.2 0.3 -0.02 -0.02c-0.28,-0.19 -0.67,-0.12 -0.87,0.17 -0.19,0.29 -0.12,0.68 0.17,0.87l0.01 0.01 -2.44 3.6c-0.2,0.28 -0.12,0.67 0.16,0.87 0.11,0.07 0.23,0.11 0.35,0.11 0.2,0 0.4,-0.1 0.52,-0.28l2.45 -3.59 0.02 0.01c0.11,0.08 0.23,0.11 0.35,0.11 0.2,0 0.4,-0.1 0.52,-0.27 0.2,-0.29 0.12,-0.68 -0.17,-0.88z"/>
    <path class="fil7" d="M58.94 35.86l-8.36 0c-0.36,0 -0.65,-0.28 -0.65,-0.64 0,-0.35 0.29,-0.64 0.65,-0.64l8.36 0c0.35,0 0.64,0.29 0.64,0.64 0,0.36 -0.29,0.64 -0.64,0.64l0 0z"/>
    <path class="fil12" d="M56.68 38.25l-3.84 0c-0.36,0 -0.65,-0.29 -0.65,-0.64 0,-0.36 0.29,-0.65 0.65,-0.65l3.84 0c0.35,0 0.64,0.29 0.64,0.65 0,0.35 -0.29,0.64 -0.64,0.64l0 0z"/>
    <path class="fil7" d="M91.15 35.86l-8.36 0c-0.35,0 -0.64,-0.28 -0.64,-0.64 0,-0.35 0.29,-0.64 0.64,-0.64l8.36 0c0.36,0 0.64,0.29 0.64,0.64 0,0.36 -0.28,0.64 -0.64,0.64l0 0z"/>
    <path class="fil12" d="M88.89 38.25l-3.84 0c-0.35,0 -0.64,-0.29 -0.64,-0.64 0,-0.36 0.29,-0.65 0.64,-0.65l3.84 0c0.36,0 0.65,0.29 0.65,0.65 0,0.35 -0.29,0.64 -0.65,0.64l0 0z"/>
    <path class="fil13" d="M55.62 44.52l-1.72 0c-0.21,0 -0.38,-0.16 -0.38,-0.37l0 -3.08c0,-0.2 0.17,-0.37 0.38,-0.37l1.72 0c0.2,0 0.37,0.17 0.37,0.37l0 3.08c0,0.21 -0.17,0.37 -0.37,0.37l0 0z"/>
    <path class="fil13" d="M87.83 44.52l-1.72 0c-0.2,0 -0.37,-0.16 -0.37,-0.37l0 -3.08c0,-0.2 0.17,-0.37 0.37,-0.37l1.72 0c0.21,0 0.38,0.17 0.38,0.37l0 3.08c0,0.21 -0.17,0.37 -0.38,0.37l0 0z"/>
    <g>
     <circle class="fil12" cx="72.99" cy="37.61" r="0.7"/>
     <circle class="fil12" cx="70.86" cy="37.61" r="0.7"/>
     <circle class="fil12" cx="68.74" cy="37.61" r="0.7"/>
     <path class="fil12" d="M54.35 69.94c-0.16,0 -0.32,-0.06 -0.44,-0.18l-1.39 -1.38c-0.11,-0.12 -0.18,-0.28 -0.18,-0.45 0,-0.16 0.07,-0.32 0.18,-0.44l1.39 -1.38c0.24,-0.25 0.64,-0.25 0.88,0l1.39 1.38c0.11,0.12 0.18,0.28 0.18,0.44 0,0.17 -0.07,0.33 -0.18,0.45l-1.39 1.38c-0.12,0.12 -0.28,0.18 -0.44,0.18zm-0.5 -2.01l0.5 0.5 0.5 -0.5 -0.5 -0.49 -0.5 0.49z"/>
    </g>
    <path class="fil8" d="M82.05 24.16c-0.34,0 -0.62,-0.29 -0.62,-0.63 0,-0.42 -0.34,-0.76 -0.76,-0.76 -0.35,0 -0.63,-0.28 -0.63,-0.62 0,-0.35 0.28,-0.63 0.63,-0.63 0.42,0 0.76,-0.34 0.76,-0.76 0,-0.34 0.28,-0.62 0.62,-0.62 0.35,0 0.63,0.28 0.63,0.62 0,0.42 0.34,0.76 0.76,0.76 0.34,0 0.62,0.28 0.62,0.63 0,0.34 -0.28,0.62 -0.62,0.62 -0.42,0 -0.76,0.34 -0.76,0.76 0,0.34 -0.28,0.63 -0.63,0.63z"/>
    <path class="fil8" d="M84.17 67.96c-0.35,0 -0.63,-0.28 -0.63,-0.63 0,-0.42 -0.34,-0.75 -0.75,-0.75 -0.35,0 -0.63,-0.29 -0.63,-0.63 0,-0.35 0.28,-0.63 0.63,-0.63 0.41,0 0.75,-0.34 0.75,-0.76 0,-0.34 0.28,-0.62 0.63,-0.62 0.35,0 0.63,0.28 0.63,0.62 0,0.42 0.34,0.76 0.75,0.76 0.35,0 0.63,0.28 0.63,0.63 0,0.34 -0.28,0.63 -0.63,0.63 -0.41,0 -0.75,0.33 -0.75,0.75 0,0.35 -0.28,0.63 -0.63,0.63z"/>
    <path class="fil10" d="M89.25 22.65c-0.16,0 -0.32,-0.06 -0.44,-0.18l-1.39 -1.38c-0.24,-0.25 -0.24,-0.65 0,-0.89l1.39 -1.38c0.24,-0.25 0.64,-0.25 0.88,0l1.39 1.38c0.24,0.24 0.24,0.64 0,0.89l-1.39 1.38c-0.12,0.12 -0.28,0.18 -0.44,0.18zm-0.5 -2.01l0.5 0.5 0.5 -0.5 -0.5 -0.49 -0.5 0.49z"/>
    <g>
     <path class="fil14" d="M50.54 28.43c-0.35,0 -0.63,0.28 -0.63,0.63l0 0.01c0,0.35 0.28,0.63 0.63,0.63 0.35,0 0.63,-0.28 0.63,-0.63l0 -0.01c0,-0.35 -0.28,-0.63 -0.63,-0.63z"/>
     <path class="fil14" d="M52.97 28.43c-0.35,0 -0.63,0.28 -0.63,0.63l0 0.01c0,0.35 0.28,0.63 0.63,0.63 0.34,0 0.62,-0.28 0.62,-0.63l0 -0.01c0,-0.35 -0.28,-0.63 -0.62,-0.63z"/>
     <path class="fil14" d="M55.39 28.43c-0.34,0 -0.63,0.28 -0.63,0.63l0 0.01c0,0.35 0.29,0.63 0.63,0.63 0.35,0 0.63,-0.28 0.63,-0.63l0 -0.01c0,-0.35 -0.28,-0.63 -0.63,-0.63z"/>
     <path class="fil14" d="M94.09 25.41l-46.45 0c-1.38,0 -2.51,1.13 -2.51,2.51l0 31.92c0,1.38 1.13,2.51 2.51,2.51l17.6 0 -1.98 7.87 -1.93 0c-0.34,0 -0.62,0.28 -0.62,0.62 0,0.35 0.28,0.63 0.62,0.63l19.07 0c0.34,0 0.62,-0.28 0.62,-0.63 0,-0.34 -0.28,-0.62 -0.62,-0.62l-1.93 0 -1.98 -7.87 17.6 0c1.38,0 2.51,-1.13 2.51,-2.51l0 -4.45c0,-0.34 -0.29,-0.62 -0.63,-0.62 -0.01,0 -0.02,0 -0.04,0 -0.01,0 -0.02,0 -0.03,0l-49.51 0 0 -22.05 48.95 0 0 19.22c0,0.34 0.28,0.63 0.63,0.63 0.34,0 0.63,-0.29 0.63,-0.63l0 -24.02c0,-1.38 -1.13,-2.51 -2.51,-2.51l0 0zm-16.91 44.81l-12.63 0 1.99 -7.87 8.65 0 1.99 7.87zm18.16 -14.2l0 3.82c0,0.69 -0.56,1.25 -1.25,1.25l-46.45 0c-0.69,0 -1.25,-0.56 -1.25,-1.25l0 -3.82 48.95 0zm-48.95 -24.56l0 -3.54c0,-0.69 0.56,-1.25 1.25,-1.25l46.45 0c0.69,0 1.25,0.56 1.25,1.25l0 3.54 -48.95 0 0 0z"/>
    </g>
   </g>
  </g>
 </g>
</svg>
