<?xml version="1.0" encoding="UTF-8"?>
<!DOCTYPE svg PUBLIC "-//W3C//DTD SVG 1.1//EN" "http://www.w3.org/Graphics/SVG/1.1/DTD/svg11.dtd">
<!-- Creator: CorelDRAW 2019 (64-Bit) -->
<svg xmlns="http://www.w3.org/2000/svg" xml:space="preserve" width="150px" height="100px" version="1.1" style="shape-rendering:geometricPrecision; text-rendering:geometricPrecision; image-rendering:optimizeQuality; fill-rule:evenodd; clip-rule:evenodd"
viewBox="0 0 4.06 2.7"
 xmlns:xlink="http://www.w3.org/1999/xlink"
 enable-background="new 0 0 64 64">
 <defs>
  <style type="text/css">
   <![CDATA[
    .fil0 {fill:none}
    .fil3 {fill:#1A1A1A}
    .fil1 {fill:#6599ED}
    .fil2 {fill:#F6DB40}
   ]]>
  </style>
 </defs>
 <g id="Layer_x0020_1">
  <metadata id="CorelCorpID_0Corel-Layer"/>
  <rect class="fil0" width="4.06" height="2.7"/>
  <g id="machine-learning.svg">
   <path class="fil1" d="M2.97 1.04l0 0c-0.01,-0.48 -0.41,-0.86 -0.89,-0.83 -0.44,0.02 -0.78,0.38 -0.8,0.81 -0.01,0.18 0.04,0.34 0.12,0.47 0.17,0.28 0.27,0.6 0.27,0.93l0 0.08 0.63 0 0 -0.32 0.56 0 0 -0.51 0.31 0 -0.2 -0.63z"/>
   <g>
    <path class="fil2" d="M2.46 1.04c0.05,0 0.08,0.03 0.08,0.08 0,0.04 -0.03,0.07 -0.08,0.07 -0.03,0 -0.05,-0.01 -0.07,-0.04 0,-0.01 -0.01,-0.02 -0.01,-0.03 0,-0.02 0.01,-0.03 0.01,-0.04 0.02,-0.03 0.04,-0.04 0.07,-0.04l0 0z"/>
    <path class="fil2" d="M2.46 0.64c0.05,0 0.08,0.04 0.08,0.08 0,0.04 -0.03,0.08 -0.08,0.08 -0.03,0 -0.05,-0.02 -0.07,-0.04 0,-0.01 -0.01,-0.03 -0.01,-0.04 0,-0.01 0.01,-0.03 0.01,-0.04 0.02,-0.02 0.04,-0.04 0.07,-0.04l0 0z"/>
    <path class="fil2" d="M2.18 1.27c0,0.02 0.01,0.03 0.01,0.04 0,0.05 -0.04,0.08 -0.08,0.08 -0.05,0 -0.08,-0.03 -0.08,-0.08 0,-0.01 0,-0.02 0.01,-0.04 0.01,-0.02 0.04,-0.04 0.07,-0.04 0.03,0 0.05,0.02 0.07,0.04l0 0z"/>
    <path class="fil2" d="M1.82 1.15c-0.01,0.03 -0.04,0.04 -0.07,0.04 -0.04,0 -0.08,-0.03 -0.08,-0.07 0,-0.05 0.04,-0.08 0.08,-0.08 0.03,0 0.06,0.01 0.07,0.04 0.01,0.01 0.01,0.02 0.01,0.04 0,0.01 0,0.02 -0.01,0.03l0 0z"/>
    <path class="fil2" d="M2.18 0.88c0,0.01 0.01,0.02 0.01,0.04 0,0.01 -0.01,0.02 -0.01,0.04 -0.02,0.02 -0.04,0.04 -0.07,0.04 -0.03,0 -0.06,-0.02 -0.07,-0.04 -0.01,-0.02 -0.01,-0.03 -0.01,-0.04 0,-0.02 0,-0.03 0.01,-0.04 0.01,-0.02 0.04,-0.04 0.07,-0.04 0.03,0 0.05,0.02 0.07,0.04z"/>
    <path class="fil2" d="M1.82 0.76c-0.01,0.02 -0.04,0.04 -0.07,0.04 -0.04,0 -0.08,-0.04 -0.08,-0.08 0,-0.04 0.04,-0.08 0.08,-0.08 0.03,0 0.06,0.02 0.07,0.04 0.01,0.01 0.01,0.03 0.01,0.04 0,0.01 0,0.03 -0.01,0.04l0 0z"/>
    <path class="fil2" d="M2.19 0.52c0,0.02 -0.01,0.03 -0.01,0.04 -0.02,0.03 -0.04,0.04 -0.07,0.04 -0.03,0 -0.06,-0.01 -0.07,-0.04 -0.01,-0.01 -0.01,-0.02 -0.01,-0.04 0,-0.04 0.03,-0.08 0.08,-0.08 0.04,0 0.08,0.04 0.08,0.08l0 0z"/>
    <circle class="fil2" cx="0.96" cy="0.92" r="0.08"/>
    <circle class="fil2" cx="0.96" cy="0.56" r="0.08"/>
    <circle class="fil2" cx="0.96" cy="1.27" r="0.08"/>
   </g>
   <path class="fil3" d="M1.64 1.08l-0.36 0c-0.01,0 -0.02,0 -0.03,0.01l-0.15 0.14 -0.03 0c-0.01,-0.04 -0.06,-0.08 -0.11,-0.08 -0.06,0 -0.12,0.06 -0.12,0.12 0,0.07 0.06,0.12 0.12,0.12 0.05,0 0.1,-0.03 0.11,-0.08l0.05 0c0.01,0 0.02,0 0.03,-0.01l0.14 -0.15 0.35 0c0.02,0.05 0.06,0.08 0.11,0.08 0.03,0 0.06,-0.01 0.08,-0.03l0.16 0.09c0,0.01 0,0.02 0,0.02 0,0.07 0.05,0.12 0.12,0.12 0.06,0 0.12,-0.05 0.12,-0.12 0,0 -0.01,-0.01 -0.01,-0.02l0.16 -0.09c0.02,0.02 0.05,0.03 0.08,0.03 0.07,0 0.12,-0.05 0.12,-0.11 0,-0.06 -0.03,-0.1 -0.08,-0.12l0 -0.17c0.05,-0.01 0.08,-0.06 0.08,-0.11 0,-0.06 -0.05,-0.12 -0.12,-0.12 -0.03,0 -0.06,0.01 -0.08,0.03l-0.16 -0.09c0,0 0.01,-0.01 0.01,-0.02 0,-0.06 -0.06,-0.11 -0.12,-0.11 -0.07,0 -0.12,0.05 -0.12,0.11 0,0.01 0,0.02 0,0.02l-0.16 0.09c-0.02,-0.02 -0.05,-0.03 -0.08,-0.03 -0.05,0 -0.09,0.04 -0.11,0.08l-0.35 0 -0.14 -0.14c-0.01,-0.01 -0.02,-0.02 -0.03,-0.02l-0.05 0c-0.01,-0.04 -0.06,-0.08 -0.11,-0.08 -0.06,0 -0.12,0.06 -0.12,0.12 0,0.07 0.06,0.12 0.12,0.12 0.05,0 0.1,-0.03 0.11,-0.08l0.03 0 0.15 0.15c0.01,0.01 0.02,0.01 0.03,0.01l0.36 0c0.01,0.03 0.04,0.06 0.07,0.07l0 0.05 -0.64 0c-0.01,-0.05 -0.06,-0.08 -0.11,-0.08 -0.06,0 -0.12,0.05 -0.12,0.12 0,0.06 0.06,0.12 0.12,0.12 0.05,0 0.1,-0.04 0.11,-0.08l0.64 0 0 0.04c-0.03,0.02 -0.06,0.04 -0.07,0.08zm-0.68 0.23c-0.02,0 -0.04,-0.02 -0.04,-0.04 0,-0.02 0.02,-0.04 0.04,-0.04 0.02,0 0.04,0.02 0.04,0.04 0,0.02 -0.02,0.04 -0.04,0.04zm0 -0.71c-0.02,0 -0.04,-0.02 -0.04,-0.04 0,-0.02 0.02,-0.04 0.04,-0.04 0.02,0 0.04,0.02 0.04,0.04 0,0.02 -0.02,0.04 -0.04,0.04zm0 0.36c-0.02,0 -0.04,-0.02 -0.04,-0.04 0,-0.02 0.02,-0.04 0.04,-0.04 0.02,0 0.04,0.02 0.04,0.04 0,0.02 -0.02,0.04 -0.04,0.04zm0.79 0.19c-0.02,0 -0.04,-0.01 -0.04,-0.03 0,-0.03 0.02,-0.04 0.04,-0.04 0.02,0 0.04,0.01 0.04,0.04 0,0.02 -0.02,0.03 -0.04,0.03zm0.08 -0.34l0.16 0.09c0,0 0,0.01 0,0.02 0,0 0,0.01 0,0.02l-0.16 0.09c-0.01,-0.01 -0.02,-0.02 -0.04,-0.03l0 -0.17c0.02,0 0.03,-0.01 0.04,-0.02zm0.55 0.22l-0.16 -0.09c0,-0.01 0.01,-0.02 0.01,-0.02 0,-0.01 -0.01,-0.02 -0.01,-0.02l0.16 -0.09c0.02,0.01 0.03,0.02 0.04,0.02l0 0.17c-0.01,0.01 -0.03,0.02 -0.04,0.03zm-0.51 0.07l0.16 -0.09c0.01,0.01 0.02,0.01 0.04,0.02l0 0.17c-0.02,0.01 -0.03,0.01 -0.04,0.02l-0.16 -0.09c0,0 0,-0.01 0,-0.01 0,-0.01 0,-0.02 0,-0.02zm0.24 -0.22c0.02,0 0.04,0.02 0.04,0.04 0,0.02 -0.02,0.04 -0.04,0.04 -0.03,0 -0.04,-0.02 -0.04,-0.04 0,-0.02 0.01,-0.04 0.04,-0.04zm0.04 0.15c0.01,-0.01 0.02,-0.01 0.03,-0.02l0.17 0.09c-0.01,0 -0.01,0.01 -0.01,0.02 0,0 0,0.01 0.01,0.01l-0.17 0.09c-0.01,-0.01 -0.02,-0.01 -0.03,-0.02l0 -0.17zm0.2 -0.29l-0.17 0.09c-0.01,-0.01 -0.02,-0.02 -0.03,-0.02l0 -0.18c0.01,0 0.02,-0.01 0.03,-0.02l0.17 0.09c-0.01,0.01 -0.01,0.01 -0.01,0.02 0,0.01 0,0.01 0.01,0.02zm-0.28 0.07c-0.02,0 -0.03,0.01 -0.04,0.02l-0.16 -0.09c0,-0.01 0,-0.01 0,-0.02 0,-0.01 0,-0.01 0,-0.02l0.16 -0.09c0.01,0.01 0.02,0.02 0.04,0.02l0 0.18zm0.04 0.54c-0.03,0 -0.04,-0.02 -0.04,-0.04 0,-0.02 0.01,-0.04 0.04,-0.04 0.02,0 0.04,0.02 0.04,0.04 0,0.02 -0.02,0.04 -0.04,0.04zm0.35 -0.2c-0.02,0 -0.04,-0.01 -0.04,-0.03 0,-0.03 0.02,-0.04 0.04,-0.04 0.02,0 0.04,0.01 0.04,0.04 0,0.02 -0.02,0.03 -0.04,0.03zm0 -0.47c0.02,0 0.04,0.02 0.04,0.04 0,0.02 -0.02,0.04 -0.04,0.04 -0.02,0 -0.04,-0.02 -0.04,-0.04 0,-0.02 0.02,-0.04 0.04,-0.04zm-0.35 -0.2c0.02,0 0.04,0.02 0.04,0.04 0,0.03 -0.02,0.04 -0.04,0.04 -0.03,0 -0.04,-0.01 -0.04,-0.04 0,-0.02 0.01,-0.04 0.04,-0.04zm-0.36 0.2c0.02,0 0.04,0.02 0.04,0.04 0,0.02 -0.02,0.04 -0.04,0.04 -0.02,0 -0.04,-0.02 -0.04,-0.04 0,-0.02 0.02,-0.04 0.04,-0.04z"/>
   <path class="fil3" d="M1.67 2.54l0.63 0c0.03,0 0.04,-0.02 0.04,-0.04l0 -0.28 0.52 0c0.02,0 0.04,-0.02 0.04,-0.04l0 -0.47 0.27 0c0.01,0 0.03,-0.01 0.03,-0.02 0.01,-0.01 0.01,-0.02 0.01,-0.03l-0.2 -0.63c-0.01,-0.24 -0.11,-0.46 -0.28,-0.63 -0.18,-0.16 -0.41,-0.24 -0.66,-0.23 -0.28,0.02 -0.54,0.17 -0.69,0.41l0.07 0.04c0.14,-0.22 0.37,-0.36 0.63,-0.37 0.22,-0.01 0.43,0.06 0.59,0.21 0.17,0.15 0.26,0.36 0.26,0.58 0,0.01 0.01,0.01 0.01,0.02l0.18 0.57 -0.26 0c-0.03,0 -0.04,0.02 -0.04,0.04l0 0.16 -0.12 0c-0.07,0 -0.12,-0.06 -0.12,-0.12l-0.08 0c0,0.11 0.09,0.19 0.2,0.19l0.12 0 0 0.24 -0.52 0c-0.02,0 -0.04,0.02 -0.04,0.04l0 0.28 -0.55 0 0 -0.04c0,-0.32 -0.09,-0.65 -0.28,-0.95 -0.04,-0.06 -0.07,-0.13 -0.09,-0.21l-0.07 0.02c0.02,0.08 0.05,0.16 0.1,0.24 0.17,0.28 0.26,0.59 0.26,0.9l0 0.08c0,0.02 0.02,0.04 0.04,0.04l0 0z"/>
  </g>
 </g>
</svg>
