<?xml version="1.0" encoding="UTF-8"?>
<!DOCTYPE svg PUBLIC "-//W3C//DTD SVG 1.1//EN" "http://www.w3.org/Graphics/SVG/1.1/DTD/svg11.dtd">
<!-- Creator: CorelDRAW 2019 (64-Bit) -->
<svg xmlns="http://www.w3.org/2000/svg" xml:space="preserve" width="293px" height="180px" version="1.1" style="shape-rendering:geometricPrecision; text-rendering:geometricPrecision; image-rendering:optimizeQuality; fill-rule:evenodd; clip-rule:evenodd"
viewBox="0 0 14.38 8.83"
 xmlns:xlink="http://www.w3.org/1999/xlink">
 <defs>
  <style type="text/css">
   <![CDATA[
    .fil0 {fill:none}
    .fil4 {fill:#029BC5}
    .fil6 {fill:#0489A8}
    .fil8 {fill:#3E6B82}
    .fil3 {fill:#D5D6DB}
    .fil2 {fill:#EBF0F3}
    .fil7 {fill:#F7BE56}
    .fil5 {fill:#FCD462}
    .fil1 {fill:#FE7058}
   ]]>
  </style>
 </defs>
 <g id="Layer_x0020_1">
  <metadata id="CorelCorpID_0Corel-Layer"/>
  <rect class="fil0" width="14.38" height="8.83"/>
  <g id="marketplace.svg">
   <g id="Circle_Grid" data-name="Circle Grid">
    <circle class="fil1" cx="7.19" cy="4.42" r="3.83"/>
   </g>
   <g id="icon">
    <polygon class="fil2" points="5.17,3.21 9.21,3.21 9.21,6 5.17,6 "/>
    <polygon class="fil3" points="5.74,4.4 6.71,4.4 6.71,5.91 5.74,5.91 "/>
    <polygon class="fil4" points="6.62,4.49 6.62,5.91 5.82,5.91 5.82,4.49 "/>
    <polygon class="fil3" points="7.11,4.4 8.88,4.4 8.88,5.35 7.11,5.35 "/>
    <polygon class="fil4" points="8.8,4.49 8.8,5.26 7.19,5.26 7.19,4.49 "/>
    <polygon class="fil5" points="6.2,3.4 5.55,3.4 5.78,2.79 6.34,2.79 "/>
    <polygon class="fil4" points="6.86,3.4 6.2,3.4 6.34,2.79 6.91,2.79 "/>
    <polygon class="fil5" points="7.52,3.4 6.86,3.4 6.91,2.79 7.47,2.79 "/>
    <polygon class="fil4" points="8.18,3.4 7.52,3.4 7.47,2.79 8.04,2.79 "/>
    <polygon class="fil5" points="8.83,3.4 8.18,3.4 8.04,2.79 8.6,2.79 "/>
    <path class="fil4" d="M5.18 2.85l-0.29 0.55 0.66 0 0.23 -0.61 -0.49 0c-0.04,0 -0.09,0.02 -0.11,0.06l0 0z"/>
    <path class="fil4" d="M9.2 2.85c-0.02,-0.04 -0.06,-0.06 -0.11,-0.06l-0.49 0 0.23 0.61 0.66 0 -0.29 -0.55z"/>
    <path class="fil6" d="M4.89 3.4l0 0.23c0,0.01 0,0.01 0,0.01 0,0.18 0.15,0.33 0.33,0.33 0.18,0 0.33,-0.15 0.33,-0.33 0,0 0,0 0,-0.01l0 -0.23 -0.66 0z"/>
    <path class="fil7" d="M5.55 3.4l0 0.23c0,0.19 0.14,0.33 0.33,0.33 0.18,0 0.32,-0.14 0.32,-0.33l0 -0.23 -0.65 0z"/>
    <path class="fil6" d="M6.2 3.4l0 0.23c0,0.01 0,0.01 0,0.01 0,0.18 0.15,0.33 0.33,0.33 0.18,0 0.33,-0.15 0.33,-0.33 0,0 0,0 0,-0.01l0 -0.23 -0.66 0z"/>
    <path class="fil7" d="M6.86 3.4l0 0.23c0,0.19 0.15,0.33 0.33,0.33 0.18,0 0.33,-0.14 0.33,-0.33l0 -0.23 -0.66 0z"/>
    <path class="fil6" d="M7.52 3.4l0 0.23c0,0.01 0,0.01 0,0.01 0,0.18 0.15,0.33 0.33,0.33 0.18,0 0.33,-0.15 0.33,-0.33 0,0 0,0 0,-0.01l0 -0.23 -0.66 0z"/>
    <path class="fil7" d="M8.18 3.4l0 0.23c0,0.19 0.14,0.33 0.33,0.33 0.18,0 0.32,-0.14 0.32,-0.33l0 -0.23 -0.65 0z"/>
    <path class="fil6" d="M8.83 3.4l0 0.23c0,0.01 0,0.01 0,0.01 0,0.18 0.15,0.33 0.33,0.33 0.19,0 0.33,-0.15 0.33,-0.33 0,0 0,0 0,-0.01l0 -0.23 -0.66 0z"/>
    <polygon class="fil3" points="4.95,5.83 9.43,5.83 9.43,6.05 4.95,6.05 "/>
    <circle class="fil8" cx="5.94" cy="5.16" r="0.04"/>
   </g>
  </g>
 </g>
</svg>
