<?xml version="1.0" encoding="UTF-8"?>
<!DOCTYPE svg PUBLIC "-//W3C//DTD SVG 1.1//EN" "http://www.w3.org/Graphics/SVG/1.1/DTD/svg11.dtd">
<!-- Creator: CorelDRAW 2019 (64-Bit) -->
<svg xmlns="http://www.w3.org/2000/svg" xml:space="preserve" width="884px" height="562px" version="1.1" style="shape-rendering:geometricPrecision; text-rendering:geometricPrecision; image-rendering:optimizeQuality; fill-rule:evenodd; clip-rule:evenodd"
viewBox="0 0 142.62 90.67"
 xmlns:xlink="http://www.w3.org/1999/xlink"
 enable-background="new 0 0 512 512">
 <defs>
  <style type="text/css">
   <![CDATA[
    .fil0 {fill:none}
    .fil7 {fill:#02FFB3}
    .fil6 {fill:#2626BC}
    .fil10 {fill:#6583FE}
    .fil11 {fill:#97FFD2}
    .fil5 {fill:#B7C5FF}
    .fil8 {fill:#FF7EB8}
    .fil9 {fill:#FFA8CF}
    .fil4 {fill:#FFC4DF}
    .fil3 {fill:white}
    .fil2 {fill:#2626BC;fill-opacity:0.101961}
    .fil1 {fill:url(#id0)}
   ]]>
  </style>
  <linearGradient id="id0" gradientUnits="userSpaceOnUse" x1="38.79" y1="36.28" x2="103.8" y2="59.12">
   <stop offset="0" style="stop-opacity:1; stop-color:#D2DEFF"/>
   <stop offset="0.0509804" style="stop-opacity:1; stop-color:#D2DEFF"/>
   <stop offset="1" style="stop-opacity:1; stop-color:#DCFDEE"/>
  </linearGradient>
 </defs>
 <g id="Layer_x0020_1">
  <metadata id="CorelCorpID_0Corel-Layer"/>
  <rect class="fil0" width="142.62" height="90.67"/>
  <ellipse class="fil0" cx="71.31" cy="45.34" rx="43.69" ry="44.56"/>
  <g id="mobile-app-devlopment-new.svg">
   <g>
    <path class="fil1" d="M87.04 34.84c-0.03,0 -0.05,0 -0.07,0 -3.98,-0.01 -7.75,-1.72 -10.37,-4.72 -3.9,-4.47 -9.64,-7.28 -16.04,-7.25 -11.62,0.05 -21.2,9.81 -21.05,21.42 0.15,11.56 9.56,20.87 21.15,20.87 3.27,0 6.37,-0.74 9.13,-2.07 2.39,-1.14 5.23,-0.84 7.33,0.77 2.71,2.08 6.11,3.32 9.79,3.32 8.87,0.02 16.15,-7.21 16.2,-16.07 0.05,-8.95 -7.13,-16.22 -16.07,-16.27l0 0z"/>
    <path class="fil2" d="M86.18 21.05l0 45.34c0,1.23 -1,2.24 -2.24,2.24l-25.26 0c-1.24,0 -2.24,-1.01 -2.24,-2.24l0 -45.34c0,-1.23 1,-2.24 2.24,-2.24l25.26 0c1.24,0 2.24,1.01 2.24,2.24l0 0z"/>
    <path class="fil3" d="M86.18 23.66l0 45.34c0,1.23 -1,2.24 -2.24,2.24l-25.26 0c-1.24,0 -2.24,-1.01 -2.24,-2.24l0 -45.34c0,-1.23 1,-2.24 2.24,-2.24l25.26 0c1.24,0 2.24,1.01 2.24,2.24l0 0z"/>
    <path class="fil4" d="M56.44 61.63l0 7.37c0,1.23 1,2.24 2.24,2.24l25.26 0c1.24,0 2.24,-1.01 2.24,-2.24l0 -7.37 -29.74 0z"/>
    <path class="fil5" d="M80.18 24.51l0.99 -3.09 -19.72 0 0.99 3.09c0.15,0.45 0.56,0.75 1.02,0.75l15.7 0c0.46,0 0.87,-0.3 1.02,-0.75l0 0z"/>
    <path class="fil6" d="M83.94 20.8l-2.77 0c-0.27,0 -0.51,0.18 -0.59,0.43l-0.99 3.09c-0.07,0.19 -0.24,0.32 -0.43,0.32l-15.7 0c-0.19,0 -0.36,-0.13 -0.43,-0.32l-0.73 -2.28 15.45 0c0.34,0 0.62,-0.27 0.62,-0.62 0,-0.34 -0.28,-0.62 -0.62,-0.62l-19.07 0c-1.58,0 -2.86,1.28 -2.86,2.86l0 34.54c0,0.35 0.27,0.63 0.62,0.63 0.34,0 0.62,-0.28 0.62,-0.63l0 -34.54c0,-0.89 0.72,-1.62 1.62,-1.62l2.32 0 0.85 2.66c0.23,0.7 0.88,1.18 1.61,1.18l15.7 0c0.73,0 1.38,-0.48 1.61,-1.18l0.85 -2.66 2.32 0c0.9,0 1.62,0.73 1.62,1.62l0 45.34c0,0.89 -0.72,1.61 -1.62,1.61l-25.26 0c-0.9,0 -1.62,-0.72 -1.62,-1.61l0 -7.37c0,-0.34 -0.28,-0.62 -0.62,-0.62 -0.35,0 -0.62,0.28 -0.62,0.62l0 7.37c0,1.57 1.28,2.86 2.86,2.86l25.26 0c1.58,0 2.86,-1.29 2.86,-2.86l0 -45.34c0,-1.58 -1.28,-2.86 -2.86,-2.86l0 0z"/>
    <path class="fil7" d="M75.43 54.28l-8.24 0c-0.35,0 -0.64,-0.29 -0.64,-0.64 0,-0.36 0.29,-0.64 0.64,-0.64l8.24 0c0.35,0 0.64,0.28 0.64,0.64 0,0.35 -0.29,0.64 -0.64,0.64l0 0z"/>
    <path class="fil5" d="M73.2 56.66l-3.78 0c-0.35,0 -0.64,-0.29 -0.64,-0.64 0,-0.36 0.29,-0.64 0.64,-0.64l3.78 0c0.35,0 0.64,0.28 0.64,0.64 0,0.35 -0.29,0.64 -0.64,0.64z"/>
    <path class="fil5" d="M73.2 59.04l-3.78 0c-0.35,0 -0.64,-0.29 -0.64,-0.65 0,-0.35 0.29,-0.64 0.64,-0.64l3.78 0c0.35,0 0.64,0.29 0.64,0.64 0,0.36 -0.29,0.65 -0.64,0.65z"/>
    <g>
     <ellipse class="fil8" cx="73.4" cy="65.81" rx="0.69" ry="0.7"/>
     <ellipse class="fil8" cx="71.31" cy="65.81" rx="0.69" ry="0.7"/>
     <ellipse class="fil8" cx="69.22" cy="65.81" rx="0.69" ry="0.7"/>
    </g>
    <path class="fil9" d="M71.31 31.46l-10.7 9.04 2.49 0c0.21,0 0.37,0.17 0.37,0.37l0 9.56c0,0.21 0.17,0.38 0.38,0.38l14.92 0c0.21,0 0.38,-0.17 0.38,-0.38l0 -9.56c0,-0.2 0.16,-0.37 0.37,-0.37l2.49 0 -10.7 -9.04z"/>
    <path class="fil8" d="M82.01 41.12c-0.14,0 -0.29,-0.05 -0.4,-0.15l-10.3 -8.69 -10.3 8.69c-0.26,0.23 -0.65,0.19 -0.87,-0.07 -0.22,-0.26 -0.19,-0.65 0.07,-0.87l10.7 -9.04c0.23,-0.2 0.57,-0.2 0.8,0l10.7 9.04c0.26,0.22 0.29,0.61 0.07,0.87 -0.12,0.15 -0.3,0.22 -0.47,0.22z"/>
    <g>
     <path class="fil10" d="M71.85 50.81l-5.23 0 0 -8.42c0,-0.34 0.28,-0.62 0.63,-0.62l3.98 0c0.34,0 0.62,0.28 0.62,0.62l0 8.42z"/>
     <circle class="fil10" cx="74.95" cy="43.34" r="1.58"/>
     <path class="fil10" d="M64.12 30.56c0,-1.14 -0.92,-2.06 -2.06,-2.06 -1.14,0 -2.07,0.92 -2.07,2.06 0,0.57 0.23,1.07 0.59,1.45 -0.36,0.37 -0.59,0.88 -0.59,1.44 0,0.35 0.28,0.62 0.62,0.62 0.34,0 0.62,-0.27 0.62,-0.62 0,-0.45 0.37,-0.82 0.83,-0.82 0.45,0 0.82,0.37 0.82,0.82 0,0.35 0.28,0.62 0.62,0.62 0.34,0 0.62,-0.27 0.62,-0.62 0,-0.56 -0.22,-1.07 -0.59,-1.44 0.37,-0.37 0.59,-0.88 0.59,-1.45zm-2.06 -0.82c0.45,0 0.82,0.37 0.82,0.82 0,0.46 -0.37,0.83 -0.82,0.83 -0.46,0 -0.83,-0.37 -0.83,-0.83 0,-0.45 0.37,-0.82 0.83,-0.82z"/>
    </g>
    <path class="fil11" d="M90.88 34.72c-0.35,0 -0.63,-0.28 -0.63,-0.62 0,-0.42 -0.33,-0.75 -0.75,-0.75 -0.34,0 -0.62,-0.28 -0.62,-0.62 0,-0.35 0.28,-0.63 0.62,-0.63 0.42,0 0.75,-0.33 0.75,-0.74 0,-0.35 0.28,-0.63 0.63,-0.63 0.34,0 0.62,0.28 0.62,0.63 0,0.41 0.33,0.74 0.75,0.74 0.34,0 0.62,0.28 0.62,0.63 0,0.34 -0.28,0.62 -0.62,0.62 -0.42,0 -0.75,0.33 -0.75,0.75 0,0.34 -0.28,0.62 -0.62,0.62z"/>
    <path class="fil10" d="M51.02 55.41c-0.34,0 -0.62,-0.27 -0.62,-0.62 0,-0.41 -0.33,-0.75 -0.75,-0.75 -0.34,0 -0.62,-0.27 -0.62,-0.62 0,-0.34 0.28,-0.62 0.62,-0.62 0.42,0 0.75,-0.34 0.75,-0.75 0,-0.34 0.28,-0.62 0.62,-0.62 0.35,0 0.63,0.28 0.63,0.62 0,0.41 0.33,0.75 0.75,0.75 0.34,0 0.62,0.28 0.62,0.62 0,0.35 -0.28,0.62 -0.62,0.62 -0.42,0 -0.75,0.34 -0.75,0.75 0,0.35 -0.28,0.62 -0.63,0.62z"/>
    <path class="fil8" d="M91.6 42.75c-0.16,0 -0.32,-0.06 -0.44,-0.18l-1.37 -1.37c-0.24,-0.24 -0.24,-0.63 0,-0.88l1.37 -1.36c0.24,-0.25 0.63,-0.25 0.88,0l1.37 1.36c0.24,0.25 0.24,0.64 0,0.88l-1.37 1.37c-0.12,0.12 -0.28,0.18 -0.44,0.18zm-0.49 -1.99l0.49 0.49 0.49 -0.49 -0.49 -0.49 -0.49 0.49z"/>
    <path class="fil10" d="M52.18 48.51c-0.35,0 -0.62,-0.28 -0.62,-0.62 0,-0.42 -0.34,-0.75 -0.75,-0.75 -0.35,0 -0.62,-0.28 -0.62,-0.63 0,-0.34 0.27,-0.62 0.62,-0.62 0.41,0 0.75,-0.33 0.75,-0.75 0,-0.34 0.27,-0.62 0.62,-0.62 0.34,0 0.62,0.28 0.62,0.62 0,0.42 0.33,0.75 0.75,0.75 0.34,0 0.62,0.28 0.62,0.62 0,0.35 -0.28,0.63 -0.62,0.63 -0.42,0 -0.75,0.33 -0.75,0.75 0,0.34 -0.28,0.62 -0.62,0.62z"/>
   </g>
  </g>
 </g>
</svg>
