<?xml version="1.0" encoding="UTF-8"?>
<!DOCTYPE svg PUBLIC "-//W3C//DTD SVG 1.1//EN" "http://www.w3.org/Graphics/SVG/1.1/DTD/svg11.dtd">
<!-- Creator: CorelDRAW 2019 (64-Bit) -->
<svg xmlns="http://www.w3.org/2000/svg" xml:space="preserve" width="150px" height="100px" version="1.1" style="shape-rendering:geometricPrecision; text-rendering:geometricPrecision; image-rendering:optimizeQuality; fill-rule:evenodd; clip-rule:evenodd"
viewBox="0 0 3.59 2.39"
 xmlns:xlink="http://www.w3.org/1999/xlink"
 enable-background="new 0 0 512 512">
 <defs>
  <style type="text/css">
   <![CDATA[
    .fil0 {fill:none}
    .fil2 {fill:#687780}
    .fil1 {fill:#7A8A93}
    .fil4 {fill:#7FB4FB}
    .fil11 {fill:#95D6A4}
    .fil3 {fill:#9CC6FA}
    .fil9 {fill:#B3E59F}
    .fil8 {fill:#DD636E}
    .fil7 {fill:#E28086}
    .fil5 {fill:#F9F6F6}
    .fil10 {fill:#FFCBBE}
    .fil13 {fill:#FFD064}
    .fil12 {fill:#FFE07D}
    .fil6 {fill:#FFECE4}
   ]]>
  </style>
 </defs>
 <g id="Layer_x0020_1">
  <metadata id="CorelCorpID_0Corel-Layer"/>
  <rect class="fil0" width="3.59" height="2.39"/>
  <g id="mobile-app-devlopment.svg">
   <g>
    <g>
     <path class="fil1" d="M2.14 0.14l-1.07 0c-0.14,0 -0.26,0.11 -0.26,0.26l0 1.6c0,0.14 0.12,0.26 0.26,0.26l1.07 0c0.14,0 0.26,-0.12 0.26,-0.26l0 -1.6c0,-0.15 -0.12,-0.26 -0.26,-0.26l0 0z"/>
     <path class="fil2" d="M1.22 2.26l-0.15 0c-0.14,0 -0.26,-0.12 -0.26,-0.26l0 -1.6c0,-0.15 0.12,-0.26 0.26,-0.26l0.15 0c-0.14,0 -0.26,0.11 -0.26,0.26l0 1.6c0,0.14 0.12,0.26 0.26,0.26l0 0z"/>
     <path class="fil3" d="M2.23 0.46l0 1.48c0,0.08 -0.07,0.15 -0.15,0.15l-0.95 0c-0.08,0 -0.15,-0.07 -0.15,-0.15l0 -1.48c0,-0.09 0.07,-0.15 0.15,-0.15l0.15 0 0 0c0,0.09 0.07,0.16 0.15,0.16l0.35 0c0.09,0 0.15,-0.07 0.15,-0.16l0 0 0.15 0c0.08,0 0.15,0.06 0.15,0.15l0 0z"/>
     <path class="fil4" d="M1.27 2.09l-0.14 0c-0.08,0 -0.15,-0.07 -0.15,-0.15l0 -1.48c0,-0.09 0.07,-0.15 0.15,-0.15l0.14 0c-0.08,0 -0.14,0.06 -0.14,0.15l0 1.48c0,0.08 0.06,0.15 0.14,0.15z"/>
     <path class="fil2" d="M1.78 0.34l-0.34 0c-0.02,0 -0.04,-0.02 -0.04,-0.03 0,-0.02 0.02,-0.04 0.04,-0.04l0.34 0c0.01,0 0.03,0.02 0.03,0.04 0,0.01 -0.02,0.03 -0.03,0.03z"/>
    </g>
    <g>
     <path class="fil5" d="M1.48 1.17c0,0 -0.01,0 -0.02,-0.01l-0.14 -0.14c-0.01,-0.01 -0.01,-0.03 0,-0.04l0.14 -0.14c0.01,-0.01 0.03,-0.01 0.05,0 0.01,0.01 0.01,0.03 0,0.04l-0.12 0.12 0.12 0.12c0.01,0.01 0.01,0.03 0,0.04 -0.01,0.01 -0.02,0.01 -0.03,0.01z"/>
     <path class="fil5" d="M1.82 1.17c-0.01,0 -0.01,0 -0.02,-0.01 -0.01,-0.01 -0.01,-0.03 0,-0.04l0.11 -0.12 -0.11 -0.12c-0.01,-0.01 -0.01,-0.03 0,-0.04 0.01,-0.01 0.03,-0.01 0.04,0l0.14 0.14c0.01,0.01 0.01,0.03 0,0.04l-0.14 0.14c0,0.01 -0.01,0.01 -0.02,0.01z"/>
     <path class="fil5" d="M1.59 1.27c0,0 -0.01,0 -0.01,0 -0.02,0 -0.03,-0.02 -0.02,-0.04l0.11 -0.48c0.01,-0.02 0.03,-0.03 0.04,-0.02 0.02,0 0.03,0.02 0.03,0.04l-0.12 0.48c0,0.01 -0.02,0.02 -0.03,0.02l0 0z"/>
    </g>
    <g>
     <path class="fil6" d="M2.21 1.73l-0.01 0c-0.03,0.04 -0.07,0.06 -0.12,0.07l-0.1 0.01 -0.1 0c-0.05,0.01 -0.09,-0.03 -0.08,-0.08l-0.01 -0.1 0.02 -0.1c0,-0.05 0.03,-0.09 0.06,-0.13l0.01 0c0.01,0 0.16,-0.14 0.17,-0.13l0.28 0.28c0.01,0.01 -0.13,0.17 -0.12,0.18l0 0z"/>
     <path class="fil7" d="M2.74 0.99l-0.13 -0.12c-0.06,-0.06 -0.15,-0.06 -0.21,0l-0.06 0.06 0.1 0.23 0.23 0.11 0.07 -0.07c0.05,-0.05 0.05,-0.15 0,-0.21l0 0z"/>
     <path class="fil8" d="M2.51 1.19l-0.07 -0.03 -0.1 -0.23 0.06 -0.06c0.06,-0.06 0.15,-0.06 0.21,0l0.1 0.1c-0.06,-0.06 -0.15,-0.06 -0.21,0l-0.06 0.06 0.07 0.16z"/>
     <path class="fil9" d="M2.54 1.39l-0.33 0.34c-0.01,-0.01 -0.01,-0.02 -0.02,-0.03 -0.02,-0.02 -0.05,-0.03 -0.07,-0.03 -0.03,0 -0.05,0.01 -0.07,0.03 0.02,-0.02 0.03,-0.05 0.03,-0.07 0,-0.03 -0.01,-0.05 -0.03,-0.07 -0.02,-0.02 -0.05,-0.03 -0.07,-0.03 -0.03,0 -0.05,0.01 -0.07,0.03 0.02,-0.02 0.03,-0.05 0.03,-0.07 0,-0.03 -0.01,-0.05 -0.03,-0.07 -0.01,-0.01 -0.02,-0.02 -0.03,-0.02l0.33 -0.34 0.11 0.05 0.05 0.02 0.07 0.03 0.03 0.08 0.03 0.05 0.04 0.1z"/>
     <path class="fil10" d="M1.81 1.78c-0.02,-0.01 -0.02,-0.03 -0.01,-0.05l-0.01 -0.1 0.02 -0.1c0,-0.05 0.03,-0.09 0.06,-0.13l0.01 0c0.01,0 0.16,-0.14 0.17,-0.13l0.07 0.07 -0.16 0.15c-0.03,0.04 -0.06,0.07 -0.08,0.11l-0.09 0.18c-0.01,0.01 0.01,-0.01 0.02,0l0 0z"/>
     <path class="fil11" d="M1.96 1.49c-0.01,0.01 -0.02,0.03 -0.03,0.04 0.01,-0.04 0.01,-0.08 -0.02,-0.11 -0.01,-0.01 -0.02,-0.02 -0.03,-0.02l0.33 -0.34 0.23 0.1 -0.14 -0.01 -0.34 0.34z"/>
     <path class="fil11" d="M2.5 1.28l-0.38 0.39c-0.03,0 -0.05,0.01 -0.07,0.03 0.02,-0.02 0.03,-0.05 0.03,-0.07l0.38 -0.39c0,0 0.01,0 0.01,0 0.01,-0.01 0.02,0 0.03,0 0.01,0.01 0.01,0.03 0,0.04l0 0z"/>
     <path class="fil12" d="M2.54 1.39l-0.33 -0.33c-0.03,-0.03 -0.03,-0.09 0,-0.13 0.04,-0.03 0.09,-0.03 0.13,0l0.33 0.34c0.04,0.03 0.04,0.09 0,0.12 -0.03,0.04 -0.09,0.04 -0.13,0z"/>
     <path class="fil13" d="M2.35 1.2l-0.14 -0.14c-0.03,-0.03 -0.03,-0.09 0,-0.13 0.02,-0.01 0.04,-0.02 0.07,-0.02 0.02,0 0.04,0.01 0.06,0.02l0.14 0.14c-0.02,-0.01 -0.04,-0.02 -0.06,-0.02 -0.03,0 -0.05,0.01 -0.07,0.02 -0.03,0.04 -0.03,0.1 0,0.13z"/>
     <path class="fil1" d="M1.98 1.81l-0.13 0.02c-0.02,0.01 -0.04,0 -0.06,-0.01 -0.01,-0.02 -0.02,-0.04 -0.02,-0.07l0.02 -0.12 0.19 0.18z"/>
     <path class="fil2" d="M1.79 1.82c-0.01,-0.02 -0.02,-0.04 -0.02,-0.07l0.02 -0.12 0.05 0.05 -0.05 0.1c-0.01,0.01 -0.01,0.03 0,0.04l0 0z"/>
     <g>
      <path class="fil3" d="M2.21 1.73l0 0 0 0zm0 0l0 0 0 0z"/>
     </g>
    </g>
   </g>
  </g>
 </g>
</svg>
