<?xml version="1.0" encoding="UTF-8"?>
<!DOCTYPE svg PUBLIC "-//W3C//DTD SVG 1.1//EN" "http://www.w3.org/Graphics/SVG/1.1/DTD/svg11.dtd">
<!-- Creator: CorelDRAW 2019 (64-Bit) -->
<svg xmlns="http://www.w3.org/2000/svg" xml:space="preserve" width="1480px" height="650px" version="1.1" style="shape-rendering:geometricPrecision; text-rendering:geometricPrecision; image-rendering:optimizeQuality; fill-rule:evenodd; clip-rule:evenodd"
viewBox="0 0 328.91 144.45"
 xmlns:xlink="http://www.w3.org/1999/xlink">
 <defs>
  <style type="text/css">
   <![CDATA[
    .fil61 {fill:none}
    .fil27 {fill:black}
    .fil15 {fill:#002134}
    .fil5 {fill:#002655}
    .fil9 {fill:#002856}
    .fil40 {fill:#041D8B}
    .fil24 {fill:#0E2A94}
    .fil2 {fill:#117DDF}
    .fil31 {fill:#122B96}
    .fil19 {fill:#1550D1}
    .fil14 {fill:#1939A4}
    .fil36 {fill:#2A0E0D}
    .fil20 {fill:#2D3EBB}
    .fil22 {fill:#2D50B1}
    .fil33 {fill:#3343C4}
    .fil39 {fill:#3344BD}
    .fil10 {fill:#3345C2}
    .fil17 {fill:#3B58D8}
    .fil26 {fill:#3C59A3}
    .fil25 {fill:#4159DA}
    .fil56 {fill:#4553C9}
    .fil46 {fill:#4E6AD1}
    .fil16 {fill:#5071E8}
    .fil43 {fill:#6C87FB}
    .fil41 {fill:#7495F4}
    .fil21 {fill:#779AF9}
    .fil29 {fill:#7A8AFA}
    .fil11 {fill:#7A8AFC}
    .fil54 {fill:#7B8BF4}
    .fil42 {fill:#7C8BF9}
    .fil6 {fill:#8393FD}
    .fil53 {fill:#858AF6}
    .fil3 {fill:#8AA5F8}
    .fil34 {fill:#97A8D6}
    .fil47 {fill:#9CACFE}
    .fil55 {fill:#9CB4FB}
    .fil23 {fill:#A8B7F7}
    .fil35 {fill:#ACBDFE}
    .fil1 {fill:#AEC2FD}
    .fil57 {fill:#B7C4F7}
    .fil32 {fill:#BBCBFE}
    .fil58 {fill:#C3CBFC}
    .fil48 {fill:#C6D6FB}
    .fil60 {fill:#CFE8FB}
    .fil52 {fill:#D5E4FE}
    .fil51 {fill:#DAE2FE}
    .fil18 {fill:#DCE2F9}
    .fil30 {fill:#DDE4FA}
    .fil0 {fill:#DEE2FD}
    .fil59 {fill:#E2E3F4}
    .fil7 {fill:#E3EAFE}
    .fil44 {fill:#E7F4FC}
    .fil50 {fill:#EAECFE}
    .fil37 {fill:#EAF3FD}
    .fil12 {fill:#EFF5FF}
    .fil38 {fill:#F7F9F6}
    .fil45 {fill:#F99599}
    .fil49 {fill:#FB9387}
    .fil4 {fill:#FBFBFC}
    .fil28 {fill:#FD9393}
    .fil13 {fill:#FEFEFA}
    .fil8 {fill:#FEFEFF}
   ]]>
  </style>
   <clipPath id="id0">
    <path d="M0 0l328.91 0 0 144.45 -328.91 0 0 -144.45z"/>
   </clipPath>
     <clipPath id="id1">
      <path d="M0 0l328.91 0 0 144.45 -328.91 0 0 -144.45z"/>
     </clipPath>
     <clipPath id="id2">
      <path d="M0 0l328.91 0 0 144.45 -328.91 0 0 -144.45z"/>
     </clipPath>
 </defs>
 <g id="Layer_x0020_1">
  <metadata id="CorelCorpID_0Corel-Layer"/>
  <g>
  </g>
  <g style="clip-path:url(#id0)">
   <g>
    <g id="_1890066534160">
    </g>
    <g style="clip-path:url(#id1)">
     <image id="mobile-app-devlopment-new.svg" x="-4.44" y="-40.28" width="337.79" height="225.01" xlink:href="mobile-app-devlopment-services_Images\mobile-app-devlopment-services_ImgID1.jpg"/>
    </g>
    <g style="clip-path:url(#id2)">
     <g>
      <path class="fil0" d="M154.17 57.39c1.87,-0.02 0.68,-1.07 1.53,1.21l0.2 6.88c0.01,11.4 1.42,9.89 -14.13,10.08 -2.44,0.02 -4.25,0.13 -5.01,-2.42 -0.36,-1.2 -0.12,-4.98 -0.11,-6.58 0.03,-4.86 -1.33,-9.98 4.02,-10.39 1.82,-0.14 10.98,-0.41 12.68,0.41 2.69,1.3 -0.13,-0.64 0.82,0.81zm-24.59 22.98l2.83 1.51 1.35 -2.28c1.12,-3.12 2.84,-2.45 6.41,-2.42l24.28 0.01c5.4,0 10.8,-0.03 16.19,-0.01 8.47,0.03 11.48,-1.25 13.42,2.56 3.26,1.19 2.52,3.43 2.49,7.32 -0.02,3.06 -0.02,6.12 -0.02,9.18 0.02,10.11 1.5,12.73 -5.6,12.7 -5.95,-0.02 -32.85,-0.38 -36.52,0.16 -1.79,2.36 -2.36,6.15 -4.15,8.47 -2.95,0.13 -7.39,-1.95 -9.7,-3.12l-1.85 0.84c-1.31,-0.02 -3.89,-1.72 -6.71,-1.99l-3.5 5.36c0.87,1.02 0.92,1.52 0.92,4l-0.2 12.36c-0.29,1.23 -0.08,0.65 -0.52,1.25 1.38,2.26 3.35,6.84 5.31,8.3 1.07,-0.65 9.87,-0.55 12.18,-0.5 3.62,0.08 2.59,-0.78 2.72,2.35 -3.09,0.94 -10.38,0.5 -14.11,0 0.17,1.13 -0.18,0.92 0.8,0.92l13.75 0.02c0.5,-4.31 -0.83,-6.83 4.27,-7.18 3.68,-0.24 8.1,0.07 11.92,-0.03 1.82,0.07 3.63,-0.11 4.56,1.74 0.82,1.62 0.28,1.42 0.44,2.91 0.31,2.89 -0.72,1.41 0.93,2.6l0 -3.94c0.91,1.26 2.97,0.62 7.01,0.64 27.11,0.13 20.64,3.72 21.09,-37.07 0.1,-9.2 0.61,-61.33 -0.24,-66.2l3.58 -0.18c-1.07,-0.71 -2.57,-0.63 -3.92,-0.58 -1.54,0.06 -2.88,0.1 -4.43,0.06 -1.43,3.67 0.72,9.56 -1.63,11.74 -1.88,1.75 -8.45,1.49 -10.89,0.22 -0.16,1.28 0.69,0.65 -1.87,0.84l-21.11 -0.01c-4.28,0.04 -21.27,1.61 -23.75,-0.91 -2.99,-0.4 -2.26,-7.77 -0.68,-9.98 -1.22,-1.11 -0.53,-0.11 -1.05,-1.9l-0.13 -14.58c-0.02,-20.53 -3.24,-17.45 20.21,-17.52 7.01,-0.02 14.03,-0.02 21.05,0 4.84,0.01 17.48,-1.7 19.01,2.21 1.77,4.54 -1.06,15.63 0.9,20.75l6.01 0.13c1.41,-0.06 -0.37,0.14 0.99,-0.09 1.04,-0.18 0.75,-0.11 1.32,-0.43l-3.5 -0.31c0.78,-6.33 0.19,-17.36 0.17,-24.19 -0.01,-9.31 -7.57,-7.75 -16.13,-7.27 -1.74,2.1 -0.62,2.71 -2.71,3.79 -2.5,1.09 -28.77,0.95 -32.67,0.26l-2.66 -4.05c-12.89,-0.79 -16.11,-0.8 -16.07,8.37 0.05,10.05 0.43,68.16 -0.19,73.17l0.4 0z"/>
      <path class="fil1" d="M179.86 11.44c11.56,-2.68 14.8,14.25 4.21,16.95 -11.56,2.96 -15.58,-14.31 -4.21,-16.95zm-45.23 30.59c0.44,-2.23 5.26,-9.7 6.78,-12.54 8.54,-15.93 7.69,-13.27 13.93,-2.41 1.44,2.5 4.88,7.92 5.24,9.59 1.75,-0.16 0.74,0.64 2.09,-1.56 5.72,-9.27 3.62,-10.74 12.55,4.51 1.67,2.85 6.25,9.98 6.82,12.47 2.44,1.27 9.01,1.53 10.89,-0.22 2.35,-2.18 0.2,-8.07 1.63,-11.74 -1.15,0.02 -2.64,0.14 -3.75,0.11 -0.15,0 -1.45,-0.11 -1.53,-0.13 -1.75,-0.45 -0.79,0.26 -1.44,-0.85 -0.39,-1.11 0.2,-0.34 -0.76,-1.26 -0.93,-0.89 -0.23,-0.36 -1.28,-0.76 -0.98,-0.75 -0.31,0.67 -0.94,-1.18 -0.5,-1.48 0.73,-3.29 1.65,-4.09 1.98,-1.73 5.47,-1.05 8.11,-0.98 -1.96,-5.12 0.87,-16.21 -0.9,-20.75 -1.53,-3.91 -14.17,-2.2 -19.01,-2.21 -7.02,-0.02 -14.04,-0.02 -21.05,0 -23.45,0.07 -20.23,-3.01 -20.21,17.52l0.13 14.58c0.52,1.79 -0.17,0.79 1.05,1.9z"/>
      <path class="fil2" d="M115.59 96.85c-5.6,2.88 -5.07,6.63 -6.61,12.41 -0.9,3.42 -3.67,11.33 -5.97,13.36l1.37 1.12c4.92,1.7 5.08,2.35 11.49,2.55 8.72,0.26 5.06,0.56 9.96,4.17 0.09,-2.04 -0.19,-5.33 0.06,-7.14 0.25,-1.88 1.64,-2.99 2.61,-4.66l3.5 -5.36c2.82,0.27 5.4,1.97 6.71,1.99l1.85 -0.84c0.76,-2.14 2.72,-4.66 2.4,-6.83 0.69,-1.35 -0.69,-0.76 0.82,-1.08 -1.86,-0.32 -2.2,-0.88 -2.63,-2.33l-4.88 -4.77 -3.4 -1.68 -2.83 -0.68 -5.88 -0.38c-3.99,-0.06 -4.63,-0.31 -8.57,0.15z"/>
      <path class="fil3" d="M132.41 81.88c1.54,0.79 2,0.47 3.24,1.95 -0.53,1.6 -1.32,2.59 -2.24,3.74l0.15 7.8 2.7 -0.13c0.21,-3.63 -0.31,-7.66 0.55,-10.91 2.9,-0.63 16.49,-0.97 19.01,0.17 1.46,2.47 0.62,6.18 0.74,9.01 2.07,-1.36 0.35,-1.3 3.67,-1.74 0.23,3.52 -0.67,4.55 -2.01,7.18 -0.51,3.01 -0.25,0.69 0.43,1.6 2.38,0.26 6.22,0.24 9.04,-0.08l17.38 -0.1c3.47,0.53 6.26,-0.53 9.06,-0.89l-0.15 4.86 -0.1 -22.75 -59.97 -0.04 -0.15 -1.95 -1.35 2.28z"/>
      <path class="fil4" d="M126.12 80.28l3.46 0.09 -0.4 0c0.62,-5.01 0.24,-63.12 0.19,-73.17 -0.04,-9.17 3.18,-9.16 16.07,-8.37l2.66 4.05c3.9,0.69 30.17,0.83 32.67,-0.26 2.09,-1.08 0.97,-1.69 2.71,-3.79 8.56,-0.48 16.12,-2.04 16.13,7.27 0.02,6.83 0.61,17.86 -0.17,24.19l3.5 0.31 -0.11 -27.87c-1.71,-6.88 -6.92,-6.59 -14.63,-6.58l-42.09 0c-6.44,0 -15.16,-1.18 -18.36,2.95 -3.07,3.96 -1.91,13.05 -1.91,18.9 0,11.27 -0.77,57.74 0.28,62.28z"/>
      <path class="fil5" d="M113.45 143.43c2.08,0.91 0.29,-0.42 2.41,1.95 1.21,1.35 1.17,0.76 2.2,2.25l-4.2 0.05 -0.41 -4.25zm-8.91 4.13l-0.48 4.43c1.72,1.11 6.86,1.36 9.81,2.66l13.99 3.07 9.14 -0.19c2.19,-2.43 0.26,-5.02 -0.64,-7.85l-0.76 -2.34c-0.98,0 -0.63,0.21 -0.8,-0.92 -1.4,-0.83 -0.71,-0.64 -0.79,-1.85 -1.96,-1.46 -3.93,-6.04 -5.31,-8.3 -1.37,-2.07 -2.6,-3.36 -2.87,-5.81 -4.9,-3.61 -1.24,-3.91 -9.96,-4.17 -6.41,-0.2 -6.57,-0.85 -11.49,-2.55 -0.83,6.33 -1.07,8.56 2.63,12.67 1.44,1.61 2.91,2.84 4.36,4.28 1.72,1.72 1.98,3.56 1.85,6.81l-8.68 0.06z"/>
      <path class="fil6" d="M109.96 33.64c-0.4,2.05 -0.47,2.48 -1.49,4.03 -4.8,7.27 -15.12,7.29 -19.81,0.64l-1.64 -3.09c-0.28,-0.69 -1.49,-2.77 -0.49,-6.42l1.71 -4.05c6.79,-10.68 24.41,-4.94 21.72,8.89zm-7.31 -19.96c2,0.14 1.05,0.05 1.91,1.08 -3.47,-0.7 -1.46,0.08 -2.7,-3.24l-7.01 0c-0.88,2.34 -0.19,2.5 -1.96,3.23l-1.22 0.43c-3.44,1.41 -1.21,0.77 -4.92,0.12l-4.31 3.78 0.79 3.11 -1.8 4.51c-0.71,0.79 -1.46,0.52 -2.77,1.01l0 7.01c1.99,0.75 2.45,0.3 3.1,1.59l0.26 0.76c2.43,6.27 0.75,-0.24 0.42,6.28 1.29,0.87 1.61,1.46 2.86,2.5 1.49,1.24 0.42,-0.32 1.99,2.41l2.05 -2.31c1.31,1.2 2.28,1.22 3.55,1.73 2.14,0.87 1.14,1.04 1.96,3.23l6.99 0c0.24,-0.6 0.68,-2.38 0.81,-2.54l1.16 -0.69c4.79,-1.99 2.74,-1.06 6.68,-0.55l2.77 -3.13c1.61,-1.98 -0.64,-2.34 0.97,-5.66 2.41,-4.96 -0.62,-1.95 3.82,-3.62l0 -7.01c-3.47,-1.49 -2.29,0.97 -3.54,-2.68 -2.2,-6.45 0.6,-2.11 -0.53,-8.29l-0.14 -0.47c-0.77,-1.76 -0.45,-0.32 -2.26,-2.05l1.75 -0.93c0.13,-0.08 0.53,-0.51 0.94,-0.71 -0.5,1.23 -0.63,-1.06 -2.55,1.31l-0.69 0.86c-2.15,-0.47 -1.2,-0.36 -3.64,-0.13 0.05,-0.21 0.16,-0.7 0.2,-0.6l0.75 -1.96c-1.01,2.15 1.46,0.42 -1.18,0.76 -4.37,0.55 -0.66,-1.79 -3.12,-0.56 -0.1,0.06 -0.39,0.33 -0.5,0.43 -0.08,0.07 -0.2,0.22 -0.28,0.3l-0.61 0.69z"/>
      <path class="fil2" d="M202.74 93.66c-0.19,0.42 0.23,18.77 0.4,21.44 1.85,-0.16 0.96,0.4 2,-0.73 -1.05,-0.07 0.02,0.49 -0.79,-0.33l0.22 -10.77 2.65 8.55c0.31,1.99 0.45,0.78 -0.21,2.18l0.3 -0.01 28.14 0.34c-0.59,-3.4 -4.74,-19.21 -6,-20.84l-1.34 -0.01 -6.72 0.02 -16.88 0c-0.41,-5.54 0.87,-51.04 -0.67,-53.53l-0.41 2.81c-0.02,1.04 0.05,2.21 0.06,3.27l0.01 34c0,2.34 -0.01,4.68 0,7.02l-0.22 5.32c-0.04,0.15 -0.11,0.3 -0.15,0.44 -0.05,0.14 -0.15,0.31 -0.19,0.42 -0.04,0.11 -0.12,0.28 -0.2,0.41z"/>
      <path class="fil7" d="M53.39 117.75l-2.11 1.85c-0.73,0.68 -1.18,1.21 -1.75,2.02 -4.99,7.11 -0.27,9.49 -2.16,18.67l-5.23 -0.36c-6.79,0.09 -5.57,-0.1 -4.51,6.45 0.54,3.35 1.74,7.95 1.53,11.24 -3.6,-0.07 -19.33,-0.65 -21.31,0.61l293.23 -0.12c-1.65,-1 -24.81,-0.76 -28.35,-0.36l-4.19 0.09 -50.48 -0.09 -11.67 -0.08 -10.1 -0.09 -11.53 0.11 -25.93 -0.12 -2.67 0.17 -29.16 -0.21 -9.14 0.19 -14.95 -0.14 -5.58 0.11 -33.39 -0.08c2.82,-4.09 2.61,-8.2 -4.24,-7.48 -0.83,-2.2 -1.47,-3.25 -3.99,-3.33 -5.19,-0.16 -2.67,2.83 -5.75,4.71 -1.08,0.66 -4.85,2.49 -1.36,6.1l-8.3 -0.06c-0.21,-2.53 1.02,-8.01 1.51,-10.94 1.08,-6.49 2.57,-6.68 -3.95,-6.67 0.41,-6.97 8.48,-12.19 10.22,-24.46 -1.69,0.25 -3.34,1.65 -4.69,2.27z"/>
      <path class="fil4" d="M221.97 87.88l0 1.34c1.42,0.66 2.26,1.34 3.75,1.88 2.15,0.78 2.27,-0.08 2.39,2.38l1.34 0.01c2.26,1.21 3.34,9.39 4.45,12.39 4.33,-1.44 9.99,-6.46 13.99,-9.1 0.17,-2.21 -0.66,-3.42 -1.06,-5.65 4.16,-0.25 4.05,-1.08 7.06,-1.95 0.85,-2.25 -1.71,-7.66 -3.24,-10.07 -2.17,-3.42 -5.02,-4.5 -9.99,-5.22 -0.4,3.63 -2.99,4.57 -6.96,3.27 -0.51,-1.24 -0.62,-1.99 -0.12,-3.48 -7.58,2.32 -9.66,5.97 -11.61,14.2z"/>
      <path class="fil8" d="M134.63 42.03c-1.58,2.21 -2.31,9.58 0.68,9.98 3.69,1.31 13.24,0.88 17.39,0.47 1.83,-4.65 8.64,-12.77 7.88,-15.81 -0.36,-1.67 -3.8,-7.09 -5.24,-9.59 -6.24,-10.86 -5.39,-13.52 -13.93,2.41 -1.52,2.84 -6.34,10.31 -6.78,12.54z"/>
      <path class="fil9" d="M207.31 113.99c2.81,2.11 8.77,1.13 12.59,1.13 -4.46,-0.7 -3.83,5.08 -3.02,8.1l-3.32 1.04 2.69 -0.21c1.57,1.91 3.72,15.26 3.63,17.07l1.07 2.83c0.22,1.04 0.39,1.94 0.62,3.06 0.48,2.3 1.02,4.88 1.08,7.03l4.95 -0.29c0.13,-4.52 -1.15,-27.52 -0.74,-29.03l17.45 -1.91 2.16 -0.6c1.6,-1.84 2.31,-1.75 2.54,-5 0.18,-2.5 -0.28,-5.34 -1.03,-7.56l-2.63 0.8c-1.86,0.25 -3.49,0.42 -5.36,0.53 -2.05,0.13 -4.79,0.76 -5.01,-1.23l-1.08 -3.87c-1.11,-3 -2.19,-11.18 -4.45,-12.39 1.26,1.63 5.41,17.44 6,20.84l-28.14 -0.34z"/>
      <path class="fil10" d="M227.6 153.75l0.58 4 15.59 -0.14c-0.55,-5.3 -0.22,-12.19 -0.21,-17.66 0.02,-4.56 -0.93,-14.26 0.75,-17.14l-17.45 1.91c-0.41,1.51 0.87,24.51 0.74,29.03z"/>
      <path class="fil11" d="M98.16 66.25l-1.15 -0.31 -5.62 0.62c2.23,0 4.47,0.03 6.69,0 8.49,-0.1 5.53,-0.44 6.48,1.62 -0.92,0.76 -1.13,0.98 -3.22,1.15l-10.27 -0.07c0.47,0.12 1.92,0.2 2.09,0.3 2.64,1.45 -0.04,-1.38 0.95,1.3l0.2 1.09c1.02,-2.14 0.42,-2.25 5.39,-2.22 6.07,0.05 4.49,0.13 4.86,2.17 2.13,-1.46 1.41,-0.59 2.7,-1.29l1.08 2.59c2.21,-0.41 6.89,-1.07 8.63,0.38 -2.21,1.82 -3.48,0.78 -6.48,0.67 -0.61,-0.02 -1.17,0.07 -2.15,0.08 -0.52,1.42 3.25,1.05 -0.94,1.41l-18.49 0c1.35,1.68 0.48,1.77 5.94,1.62l17.8 -0.09c3.84,1.18 3.35,3.15 3.19,7.66 -0.07,1.93 -0.12,2.26 -1.31,3.45 -1.98,1.99 -1.53,-0.69 -1.53,3.99l-1.62 -0.06c1.31,3.26 1.16,0.78 -0.82,2.04 -0.11,0.06 -0.28,0.1 -0.39,0.14 -0.14,0.06 -1.17,0.1 -1.35,0.13 0.98,2.84 1.56,0.46 4.43,0.02l3.72 -0.02c-0.18,0.1 -0.41,0.09 -0.5,0.34 -0.08,0.23 -0.35,0.25 -0.45,0.31 -1.3,0.74 -0.74,0.9 -1.21,0.43 2.54,0 -0.01,-0.35 0.78,1.15 3.94,-0.46 4.58,-0.21 8.57,-0.15l-2.61 -0.74c0.77,-1.6 3.39,-1.19 4.53,-1.2 -3.26,0.1 -4.6,0.71 -5.53,-2.63 -0.72,-2.55 -0.71,-5.17 -0.32,-7.91 0.18,-0.13 0.72,-0.46 0.89,-0.6 1.72,-1.5 0.76,-1.41 3.2,-3.08l0.15 -20.61c-1.66,-0.25 -0.07,0.08 -1.23,-0.79 -5.19,-3.89 -6.02,1.17 -7.99,-4.83 -3.04,0.92 -0.13,1.27 -3.13,1.46 0.42,2.74 0.56,1.78 1.07,3.23l-0.99 1.2c-0.66,1.13 -1.22,-0.48 -0.41,2.58 -1.53,-0.7 -1.08,0.59 -1.83,-2.16 0.92,0.7 0.53,0.22 0.53,2.27 -1.88,-1.34 -0.25,1.15 -1.72,-2.16 -1.17,0.57 -0.42,-0.8 -0.98,1.51 -0.12,-0.19 -0.27,-0.67 -0.38,-0.54l-0.82 -0.9c-0.16,-0.09 -0.28,-0.21 -0.45,-0.28 -2.43,-0.88 -1.82,0.11 -2.5,0.64 1.88,0.18 3.29,-0.18 2.34,2.31l-0.47 0.73c-0.1,0.14 -0.46,0.51 -0.58,0.64 -0.1,0.11 -0.2,0.22 -0.3,0.32 -1.39,1.38 -1.11,1.27 -2.3,1.42 -2.86,0.37 -2.18,-0.24 -2.63,-1.64 -0.27,0.23 -0.85,0.04 -0.94,0.52 -0.55,2.82 -0.5,0.65 -0.6,0.79z"/>
      <path class="fil10" d="M252.26 19.32c0.41,0.26 0.89,-0.89 0.72,0.91 -0.13,1.47 -0.14,0.56 -0.57,1.12l-0.15 -2.03zm10.32 -10.16l2.06 0.2c-0.82,0.76 1.26,0.35 -0.96,0.57 -2.75,0.27 -0.05,0.25 -1.1,-0.77zm-21.93 0.2c0.84,-0.58 -1.06,-0.3 1.03,-0.46 2.71,-0.2 0.05,-0.18 1.21,0.46 -2.4,1.18 -2.1,0.09 -2.24,0zm11.09 1.19c-0.51,-4.46 -2.2,-5 -3.43,-8.62 1.28,0.49 4.66,6.94 6.32,8.97 1.04,1.28 1.51,0.86 1.86,2.51 -2.54,-0.94 -1.64,-2.38 -4.75,-2.86zm1.75 -13.84c-0.12,0.45 -0.19,0.08 -0.17,1.37 0,0.1 0.16,2.05 0.16,2.11 -1.7,-1.39 -1,-0.29 -1.6,-3.03 -0.02,-0.11 0.03,-0.31 -0.01,-0.45 -7.13,1.19 -12.12,5.35 -11.93,13.2 0.17,6.99 5.53,12.15 12.49,12.25 15.43,0.22 18.72,-22.72 1.06,-25.45z"/>
      <path class="fil11" d="M109.96 33.64c2.69,-13.83 -14.93,-19.57 -21.72,-8.89l-1.71 4.05c-1,3.65 0.21,5.73 0.49,6.42l1.64 3.09c4.69,6.65 15.01,6.63 19.81,-0.64 1.02,-1.55 1.09,-1.98 1.49,-4.03z"/>
      <path class="fil12" d="M160.58 36.67c0.76,3.04 -6.05,11.16 -7.88,15.81 -4.15,0.41 -13.7,0.84 -17.39,-0.47 2.48,2.52 19.47,0.95 23.75,0.91l21.11 0.01c2.56,-0.19 1.71,0.44 1.87,-0.84 -0.57,-2.49 -5.15,-9.62 -6.82,-12.47 -8.93,-15.25 -6.83,-13.78 -12.55,-4.51 -1.35,2.2 -0.34,1.4 -2.09,1.56z"/>
      <path class="fil4" d="M171.47 147.4l24.88 0.31c1.29,-1.2 1.41,-0.76 2.82,-1.66 1.14,-0.73 1.45,-1.36 2.42,-2.38 -0.11,-4.71 0.2,-9.87 0.32,-14.62 0.05,-2.49 0.13,-4.98 0.2,-7.47 0.1,-3.32 0.88,-4.23 1.03,-6.48 -0.17,-2.67 -0.59,-21.02 -0.4,-21.44l0.17 -53.01 -3.58 0.18c0.85,4.87 0.34,57 0.24,66.2 -0.45,40.79 6.02,37.2 -21.09,37.07 -4.04,-0.02 -6.1,0.62 -7.01,-0.64l0 3.94z"/>
      <path class="fil6" d="M269.68 57.42c2.24,0.32 2.56,0.77 0.53,2.34 -1.67,-1.19 -1.6,-0.6 -0.53,-2.34zm-9.18 0c2.24,0.35 2.51,0.78 0.54,2.35 -1.73,-1.28 -1.57,-0.59 -0.54,-2.35zm13.1 1.06c0,-1.52 1.05,-1.12 2.32,-1.22l-0.03 2.53c-1.3,-0.14 -2.28,0.22 -2.29,-1.31zm-6.92 0.65c-1.13,0.69 -1.05,0.68 -2.27,0.08l0.18 -2.03 2.1 0.07 -0.01 1.88zm-9.21 0.67l-2.09 -0.08 0.03 -1.87c1.42,-0.86 1.17,-0.39 2.22,0.05l-0.16 1.9zm-7.22 2.98l1.62 1.64c1.49,1.31 0.53,0.47 1.06,1.69l1.63 2.61c0.8,-1.19 2.04,-2.54 2.7,-3.78 7.51,0 16.62,0.77 23.2,-0.54 1,-2.23 1.13,-2.65 1.13,-5.93 0.02,-8.62 -3.63,-6.48 -14.61,-6.48 -3.46,0 -10.58,-0.4 -13.6,0.04 -2.28,0.33 -3.3,1.36 -3.64,3.63 -0.08,0.53 -0.1,2.74 -0.08,3.36l0.59 3.76z"/>
      <path class="fil13" d="M233.39 38.39c-1.11,-0.33 -1.11,-0.57 -2.31,-0.58 -1.26,0 -1.64,0.58 -2.8,-0.51 -2.17,-2.05 -0.3,-3.64 0.94,-4.77l2.93 0.4c1.4,3.69 -0.39,0.58 1.24,5.46zm-47.59 -1.15c1.05,0.4 0.35,-0.13 1.28,0.76 0.96,0.92 0.37,0.15 0.76,1.26 4.39,0.84 34.44,0.31 43.01,0.28 4.77,-0.01 8.4,-3.07 5.04,-6.62 -2.51,-2.64 -33.72,-1.49 -41.76,-1.48 -4.87,0 -9.7,-0.24 -8.33,5.8z"/>
      <path class="fil13" d="M136.26 95.24l2.77 -1.64c-0.78,1.68 -1.28,1.2 -0.95,2.55 0.02,0.09 0.22,0.17 0.27,0.95l-2.08 2.34 4.88 4.77 10.48 -0.01c3.77,-4.34 2.77,-4.85 3.48,-10.86 1.83,0.49 0.41,2.48 1.45,0.17 -0.12,-2.83 0.72,-6.54 -0.74,-9.01 -2.52,-1.14 -16.11,-0.8 -19.01,-0.17 -0.86,3.25 -0.34,7.28 -0.55,10.91z"/>
      <path class="fil11" d="M206.13 154.53l0.16 3.05 10.1 0.09c0.6,-2.03 1.64,-1.64 3.46,-2.48l0.03 -14.07c0.09,-1.81 -2.06,-15.16 -3.63,-17.07l-2.69 0.21 -2.45 0.27 -4.98 30z"/>
      <path class="fil14" d="M68.02 101.63l6.86 -0.47c-2.32,1.49 -3.1,0.69 -5.42,0.98 -3.09,0.39 2.52,-0.64 -1.03,0.21 -0.18,0.05 -0.36,0.13 -0.5,0.17 -0.15,0.04 -0.34,0.11 -0.5,0.19 0.76,1.96 -1.58,1.56 3.08,1.74 1.86,0.07 2.92,-0.38 4.37,-0.65 -1.56,0.64 -2.16,0.43 -3.78,0.49 -2.36,0.1 -2.51,0.07 -3.77,1.12 1.72,1.95 3.66,1.37 6.47,1.38 -0.17,0.05 -0.42,-0.07 -0.53,0.13 -0.5,0.9 -3.28,-0.65 -5.94,1.19 2.04,1.12 5.12,0.71 7.55,0.54 -2.1,1.44 -4.5,0.87 -7.22,0.97 0.03,1.22 0.08,1.31 0.1,2.26l0.03 2.23c3.91,0.3 5.36,-0.29 8.71,-0.36 -0.42,-0.65 0.06,-0.45 -0.54,-0.79l22.15 0.04c1.96,-0.3 0.17,0.06 1.62,-0.49l1.05 -0.62c-2.25,-1.87 -8.59,-1.08 -12.95,-1.08 -3.83,0 -8.17,0.18 -11.9,0 0.33,-1.11 22.64,-0.55 22.96,-0.49 0.14,0.02 0.27,0.05 0.41,0.09l2.56 0.93 -0.11 -3.28c-0.23,-1.66 -0.43,-1.73 -2.01,-2l-23.86 -0.11c0.46,-1.23 15.16,-0.58 18.42,-0.54 0.76,0.01 2.66,0.13 3.26,0.08 2.09,-0.17 2.3,-0.4 3.22,-1.16 -1.01,-0.83 -0.43,-0.6 -2.12,-1.02 -0.04,-0.01 -1.54,-0.13 -1.65,-0.13l-9.72 0.08c-1.85,0 -11.01,0.76 -11.34,-0.55l23.83 0.18c0.15,0.04 0.82,0.29 0.94,0.32 0.08,0.01 0.29,0.03 0.35,0.04l0.79 -3.77c-0.16,0.09 -0.86,0.59 -1.03,0.69 -2.97,1.72 -12.07,0.81 -15.7,0.83 -12.85,0.05 -5.1,-0.33 -12.92,0.59 -1.2,0.14 -2.94,0.04 -4.19,0.04z"/>
      <path class="fil15" d="M205.14 114.37c-1.04,1.13 -0.15,0.57 -2,0.73 -0.15,2.25 -0.93,3.16 -1.03,6.48 -0.07,2.49 -0.15,4.98 -0.2,7.47 -0.12,4.75 -0.43,9.91 -0.32,14.62l-0.24 10.06c2.55,-0.04 3.08,-0.31 4.78,0.8l4.98 -30 2.45 -0.27 3.32 -1.04c-0.81,-3.02 -1.44,-8.8 3.02,-8.1 -3.82,0 -9.78,0.98 -12.59,-1.13l-0.3 0.01 -1.87 0.37z"/>
      <path class="fil16" d="M244.31 122.81c-1.68,2.88 -0.73,12.58 -0.75,17.14 -0.01,5.47 -0.34,12.36 0.21,17.66l9.17 0.12 -0.15 -35.59 -6.32 0.07 -2.16 0.6z"/>
      <path class="fil17" d="M155.51 146c1.77,-0.06 4.81,1.76 6.03,3.12 -1.06,1.4 -4.14,3.26 -6.05,3.15l0.02 -6.27zm-19.91 1.34l0.76 2.34 13.07 0.04c0.05,2.78 -0.38,4.95 0.7,7.1 3.74,1.68 11.4,0.26 16.05,0.7 1.73,-2.3 1.18,-5.25 1.19,-8.94 0.02,-3.99 0.25,-6.38 -1.83,-8.43 -3.82,0.1 -8.24,-0.21 -11.92,0.03 -5.1,0.35 -3.77,2.87 -4.27,7.18l-13.75 -0.02z"/>
      <path class="fil18" d="M141.5 66.02l2.33 2.79c-1.47,-0.49 -1.73,-0.08 -3.37,-2.79l3.02 -3.18c-1.05,3.53 0.01,0.43 -1.98,3.18zm12.67 -8.63c-2.94,-0.13 -13.17,-0.65 -15.63,0.29 -1.41,2.09 -1.91,13.1 -0.53,15.9 1.39,1.92 14.18,1.4 15.53,0.55 2.33,-1.46 1.49,-2.88 1.49,-8.11 0.01,-3.75 0.38,-5.83 -0.86,-8.63z"/>
      <path class="fil11" d="M110.93 84.22c-2.02,0.35 -2.99,0.1 -1.52,-2.17 1.97,0.46 1.74,-0.07 1.52,2.17zm-4.51 -1.54c0.21,2.29 -0.33,2.03 -2.36,1.45l0.02 -1.87c1.27,-0.34 1.43,-0.23 2.34,0.42zm-4.75 1.46c-0.53,0.14 -0.78,0.53 -1.67,-0.06 -1.42,-0.96 -0.36,-0.58 -0.54,-1.33 0.28,-0.18 0.55,-1.66 2.08,-0.27 1.04,0.95 0.14,1.6 0.13,1.66zm-5.27 0.19c-2.28,0.83 -0.97,-0.07 -1.61,-0.25l0.6 -1.94c1.11,-0.05 2.66,-0.21 1.93,1.44 -0.64,1.44 0.17,0.36 -0.92,0.75zm-5.65 -0.18c-1.16,-1 -0.43,-0.85 -0.35,-2.16 2.29,0.08 2.41,-0.15 2.17,2.14 -0.09,0.03 -0.58,1.09 -1.82,0.02zm19.68 5.75c1.09,0.36 0.62,-1.74 0.95,1.37 0.11,-0.15 0.21,-0.58 0.27,-0.49l1.42 -2.29c1.74,-1.97 3.1,-2.75 1.61,-9.49 -2.55,-1.46 -24.82,-1.83 -27.62,-0.26 -1.28,2.29 -0.79,7.14 0.11,9.37 3.47,0.64 13.95,0.4 18.5,0.31 2.97,-0.05 3.77,-0.62 4.76,1.48z"/>
      <path class="fil11" d="M57.68 79.14l0.53 -3.95c-2.08,1.93 0.44,1.63 1.52,2.04 0.02,-1.28 0.24,-3.07 -0.14,-4.28 -0.06,-0.17 -0.12,-0.29 -0.19,-0.45 -0.5,-1.12 -1.07,-0.76 -1.29,-2.27 -0.23,-1.57 0.04,-6.35 0.04,-8.28 -0.92,3.19 -0.12,0.54 3.95,2.76 0.09,0.06 0.21,0.16 0.31,0.2 1.75,0.83 -1.85,0.27 1.8,0.49 0.59,-1.94 0.59,-3.83 2.58,-4.84 6.43,-3.26 8.61,9.21 6.88,12.87 1.4,1.79 1.01,1.92 1.21,4.46 -4.08,0 -8.52,0.5 -12.41,-0.59 1.7,1.47 -1.7,0.47 2.67,1.17l9.74 -1.35c3.36,0.53 -0.42,0.04 1.93,2.93 2.99,-0.09 -0.35,-0.48 2.61,-0.14 1.94,-3.54 1.24,-6.45 1.22,-11.19 -0.02,-4.06 0.45,-7.96 -0.67,-11.5 -2.42,-0.52 -20.71,-1.72 -22.52,0.91 -0.88,1.29 -1.27,18.72 0.23,21.01z"/>
      <path class="fil19" d="M188.89 79.51c0.84,-0.88 -0.48,-0.34 0.84,-0.51 2.19,-0.28 -0.35,-0.44 0.59,0.51 -1.01,0.57 0.09,0.97 -1.43,0zm-2.53 0.33l-1.13 0.15 0.27 -1.32c1.08,0.46 0.71,-0.36 0.86,1.17zm-5.15 -0.33c1.03,-1 -0.49,-0.32 0.86,-0.5 1.66,-0.22 -0.02,-0.13 0.5,0.5 -1.46,1.06 -0.83,0.32 -1.36,0zm-47.45 0.09l0.15 1.95 59.97 0.04 0.18 -1.85c-1.94,-3.81 -4.95,-2.53 -13.42,-2.56 -5.39,-0.02 -10.79,0.01 -16.19,0.01l-24.28 -0.01c-3.57,-0.03 -5.29,-0.7 -6.41,2.42z"/>
      <path class="fil20" d="M124.37 35.11l0.1 3.75 -0.08 17.3 0.08 3.77 -0.15 20.61 1.8 -0.26c-1.05,-4.54 -0.28,-51.01 -0.28,-62.28 0,-5.85 -1.16,-14.94 1.91,-18.9 3.2,-4.13 11.92,-2.95 18.36,-2.95l42.09 0c7.71,-0.01 12.92,-0.3 14.63,6.58 1.69,3.8 0.01,21.45 0.57,26.6 0.26,2.4 -0.29,-1.24 0.17,0.97l0.27 0.89c0.68,-1.11 0.3,0.23 0.61,-1.87l0.03 -7.55c0,-9.28 1.52,-21.61 -4,-25.23 -4.71,-3.08 -30.04,-1.7 -37.65,-1.69 -46.41,0.06 -37.46,-4.74 -38.46,40.26z"/>
      <path class="fil12" d="M179.86 11.44c-11.37,2.64 -7.35,19.91 4.21,16.95 10.59,-2.7 7.35,-19.63 -4.21,-16.95z"/>
      <path class="fil11" d="M170.1 155.33c-0.31,2.68 0.46,-0.27 -0.34,1.28l-0.57 0.66c-0.04,-0.09 -0.25,0.2 -0.36,0.3l25.93 0.12c0.47,-1.27 -0.38,-0.45 1.08,-1.47 0.68,-0.48 1.14,-0.54 1.93,-0.8 1.82,-0.6 1.71,-0.22 3.12,-1.54l0.4 -6.49c-4.92,2.75 -7.77,2.17 -14.17,2.17 -5.38,-0.01 -11.14,0.21 -16.47,-0.08 0,1.98 0.4,4.74 -0.55,5.85z"/>
      <path class="fil21" d="M155.19 106.57c6.68,-0.05 13.37,0 20.06,0 3.41,0 6.83,-0.04 10.25,-0.01 4.2,0.02 6.51,0.86 8.48,-2.22l0.15 -4.86c-2.8,0.36 -5.59,1.42 -9.06,0.89l-17.38 0.1c-2.82,0.32 -6.66,0.34 -9.04,0.08 -0.68,-0.91 -0.94,1.41 -0.43,-1.6 -1.33,1.67 -2.63,5.12 -3.03,7.62z"/>
      <path class="fil17" d="M266.89 138.03c2.04,-0.31 5.9,-0.56 4.73,3.33 -0.94,3.15 -3.72,1.44 -5.21,0.74 -1.27,-1.4 -1.05,2 -1.05,-2.15l-1.22 0.41c-0.04,0.02 -0.19,0.07 -0.24,0.09 -2.17,1.05 -1.02,4.34 -1.47,7.59l-0.85 6.93c0.83,-1.88 0.24,-3.4 0.62,-4.81 0.51,-1.9 -0.13,-0.91 1.13,-2.12 0.37,-0.4 2.64,-5.8 8.12,-3.41 0.7,0.31 0.82,0.49 1.32,0.83l1.12 0.72c1.12,-1.32 -0.32,-0.5 2.26,-0.82 0.68,10.08 0.88,4.61 1.62,9.69 -3.91,1.66 -7.97,1.16 -13.49,1.07 -2.2,-0.04 -3.93,-0.22 -5.39,1.09 3.61,0.42 17.94,-0.34 19.65,0.63l4.19 -0.09 0 -0.36 -3.74 0.1c1.23,-2.07 1.7,-1.65 1.81,-5.1 0.1,-3.03 0.52,-12.93 -0.71,-15.27 -0.1,-0.2 -0.57,-0.84 -0.73,-1.07l-0.87 -1.17 3.49 0.28c-1.43,-1.1 -2.83,-0.99 -4.75,-0.46 -2.42,1.72 -9.99,0.96 -13.09,0.88l-1.06 1.4c-2.28,-0.08 -2.02,-0.09 -3.02,1.48 -0.09,0.13 -0.32,0.62 -0.4,0.74 -0.05,0.09 -0.15,0.25 -0.2,0.33l-0.34 0.44c-0.06,0.1 -1.77,-0.38 0.3,0.24 0,2.69 -1.09,9.62 0.54,11.11 0.37,-1.11 0.51,-3.57 0.45,-4.86 -0.05,-1.36 -0.45,-3.29 -0.45,-5.97 1.92,-0.81 2.3,-1.48 2.7,-3.78 2.2,0.72 2.61,1.53 4.23,1.32z"/>
      <path class="fil6" d="M57.68 79.14l-0.07 1.45c0.17,1.03 -2.22,0.61 1.7,0.96 3.88,-0.5 19.18,1.11 20.8,-1.47l-0.69 -0.17c-2.96,-0.34 0.38,0.05 -2.61,0.14 -2.35,-2.89 1.43,-2.4 -1.93,-2.93l-9.74 1.35c-4.37,-0.7 -0.97,0.3 -2.67,-1.17 3.89,1.09 8.33,0.59 12.41,0.59 -0.2,-2.54 0.19,-2.67 -1.21,-4.46l-9.7 -0.18 -0.64 -1.84c-0.36,-2.01 0.01,-4.63 0.88,-6.01 -3.65,-0.22 -0.05,0.34 -1.8,-0.49 -0.1,-0.04 -0.22,-0.14 -0.31,-0.2 -4.07,-2.22 -4.87,0.43 -3.95,-2.76 0,1.93 -0.27,6.71 -0.04,8.28 0.22,1.51 0.79,1.15 1.29,2.27 0.07,0.16 0.13,0.28 0.19,0.45 0.38,1.21 0.16,3 0.14,4.28 -1.08,-0.41 -3.6,-0.11 -1.52,-2.04l-0.53 3.95z"/>
      <path class="fil22" d="M68.02 101.63c1.25,0 2.99,0.1 4.19,-0.04 7.82,-0.92 0.07,-0.54 12.92,-0.59 3.63,-0.02 12.73,0.89 15.7,-0.83 0.17,-0.1 0.87,-0.6 1.03,-0.69l-0.79 3.77c-0.06,-0.01 -0.27,-0.03 -0.35,-0.04 -0.12,-0.03 -0.79,-0.28 -0.94,-0.32l-23.83 -0.18c0.33,1.31 9.49,0.55 11.34,0.55l9.72 -0.08c0.11,0 1.61,0.12 1.65,0.13 1.69,0.42 1.11,0.19 2.12,1.02 -0.92,0.76 -1.13,0.99 -3.22,1.16 -0.6,0.05 -2.5,-0.07 -3.26,-0.08 -3.26,-0.04 -17.96,-0.69 -18.42,0.54l23.86 0.11c1.58,0.27 1.78,0.34 2.01,2l0.11 3.28 -2.56 -0.93c-0.14,-0.04 -0.27,-0.07 -0.41,-0.09 -0.32,-0.06 -22.63,-0.62 -22.96,0.49 3.73,0.18 8.07,0 11.9,0 4.36,0 10.7,-0.79 12.95,1.08l-1.05 0.62c-1.45,0.55 0.34,0.19 -1.62,0.49l-22.15 -0.04c0.6,0.34 0.12,0.14 0.54,0.79l21.7 0.01c2.32,0.01 1.73,0.8 1.61,-0.22 3.84,-0.06 0.43,-0.28 1.78,1.39 1.27,-2.4 0.77,-17.03 -0.06,-18.09l-0.26 1.36c0.03,-0.01 -1.55,-1.02 -1.63,-1.05l-2.46 -0.1c-0.05,0 -0.21,0.03 -0.26,0.03 -4.86,0.15 -0.47,0.65 -9.63,0.64 -3.24,-0.01 -6.47,-0.01 -9.71,-0.01 -2.83,0 -8.26,-0.37 -10.25,0.69 1.05,0.86 0.02,0.37 1.58,0.86 0.74,0.23 1.39,0.27 2.18,0.29l30.23 -0.24c-2.08,1.13 -5.56,0.71 -8.09,0.7l-24.98 0c-0.75,0.87 -0.54,0.65 -0.23,1.62z"/>
      <path class="fil23" d="M44.15 124.65l-0.68 8.61c-0.51,-2.55 -0.74,-0.73 -3.23,-5.64 -0.48,-0.93 -1.02,-1.65 -1.72,-2.59 -0.4,-0.53 -0.48,-0.63 -0.92,-1.22l-0.99 -1.3c-0.05,-0.07 -0.16,-0.23 -0.26,-0.33 -0.51,-0.54 -3.52,-2.14 -6.09,-2.47 0.85,2.6 3.84,8.59 5.19,11.07 3.66,6.76 7.03,3.33 6.69,9.15l5.23 0.36c1.89,-9.18 -2.83,-11.56 2.16,-18.67 0.57,-0.81 1.02,-1.34 1.75,-2.02l2.11 -1.85 -0.63 -1.99c-2.95,1.65 -6.22,5.42 -7.72,9.79l-0.89 -0.9z"/>
      <path class="fil24" d="M101.59 114.93c-1.35,-1.67 2.06,-1.45 -1.78,-1.39 0.12,1.02 0.71,0.23 -1.61,0.22l-21.7 -0.01c-3.35,0.07 -4.8,0.66 -8.71,0.36l-0.03 -2.23c-0.02,-0.95 -0.07,-1.04 -0.1,-2.26 2.72,-0.1 5.12,0.47 7.22,-0.97 -2.43,0.17 -5.51,0.58 -7.55,-0.54 2.66,-1.84 5.44,-0.29 5.94,-1.19 0.11,-0.2 0.36,-0.08 0.53,-0.13 -2.81,-0.01 -4.75,0.57 -6.47,-1.38 1.26,-1.05 1.41,-1.02 3.77,-1.12 1.62,-0.06 2.22,0.15 3.78,-0.49 -1.45,0.27 -2.51,0.72 -4.37,0.65 -4.66,-0.18 -2.32,0.22 -3.08,-1.74 0.16,-0.08 0.35,-0.15 0.5,-0.19 0.14,-0.04 0.32,-0.12 0.5,-0.17 3.55,-0.85 -2.06,0.18 1.03,-0.21 2.32,-0.29 3.1,0.51 5.42,-0.98l-6.86 0.47c-0.31,-0.97 -0.52,-0.75 0.23,-1.62l24.98 0c2.53,0.01 6.01,0.43 8.09,-0.7l-30.23 0.24c-0.79,-0.02 -1.44,-0.06 -2.18,-0.29 -1.56,-0.49 -0.53,0 -1.58,-0.86 1.99,-1.06 7.42,-0.69 10.25,-0.69 3.24,0 6.47,0 9.71,0.01 9.16,0.01 4.77,-0.49 9.63,-0.64 0.05,0 0.21,-0.03 0.26,-0.03l2.46 0.1c0.08,0.03 1.66,1.04 1.63,1.05l0.26 -1.36c-0.36,-0.47 0.29,-1.03 -3.41,-1.07 -6.17,-0.06 -28.62,-0.22 -31.45,0.38 -0.66,2.7 -0.73,16.79 0.09,18.4 1.21,1.64 6.12,0.89 8.12,0.9 3.06,0.02 6.11,0.01 9.17,0.02 3.89,0.02 14.96,0.63 17.54,-0.54z"/>
      <path class="fil25" d="M258.89 157.21c1.46,-1.31 3.19,-1.13 5.39,-1.09 5.52,0.09 9.58,0.59 13.49,-1.07 -0.74,-5.08 -0.94,0.39 -1.62,-9.69 -2.58,0.32 -1.14,-0.5 -2.26,0.82 1.1,3.39 1.07,4.13 0.93,8.19 -2.82,0.9 -8.56,0.54 -11.72,0.28l0.23 -6.61c-1.26,1.21 -0.62,0.22 -1.13,2.12 -0.38,1.41 0.21,2.93 -0.62,4.81l0.85 -6.93c0.45,-3.25 -0.7,-6.54 1.47,-7.59 0.05,-0.02 0.2,-0.07 0.24,-0.09l1.22 -0.41c0,4.15 -0.22,0.75 1.05,2.15l0.48 -4.07c-1.62,0.21 -2.03,-0.6 -4.23,-1.32 -0.4,2.3 -0.78,2.97 -2.7,3.78 0,2.68 0.4,4.61 0.45,5.97 0.06,1.29 -0.08,3.75 -0.45,4.86 -1.63,-1.49 -0.54,-8.42 -0.54,-11.11 -2.07,-0.62 -0.36,-0.14 -0.3,-0.24l0.34 -0.44c0.05,-0.08 0.15,-0.24 0.2,-0.33 0.08,-0.12 0.31,-0.61 0.4,-0.74 1,-1.57 0.74,-1.56 3.02,-1.48l1.06 -1.4c3.1,0.08 10.67,0.84 13.09,-0.88 -5.68,0.06 -17.97,-1.81 -19.6,2.89 -0.66,1.91 -0.33,8.06 -0.34,10.45 -0.01,4.1 -0.63,6.47 1.6,9.17z"/>
      <path class="fil26" d="M193.88 81.59l0.1 22.75c-1.97,3.08 -4.28,2.24 -8.48,2.22 -3.42,-0.03 -6.84,0.01 -10.25,0.01 -6.69,0 -13.38,-0.05 -20.06,0l-0.78 2.53c3.67,-0.54 30.57,-0.18 36.52,-0.16 7.1,0.03 5.62,-2.59 5.6,-12.7 0,-3.06 0,-6.12 0.02,-9.18 0.03,-3.89 0.77,-6.13 -2.49,-7.32l-0.18 1.85z"/>
      <path class="fil27" d="M101.85 146.04l0.47 1.52 2.22 0 8.68 -0.06c0.13,-3.25 -0.13,-5.09 -1.85,-6.81 -1.45,-1.44 -2.92,-2.67 -4.36,-4.28 -3.7,-4.11 -3.46,-6.34 -2.63,-12.67l-1.37 -1.12c-5.5,8.12 -1.81,13.84 -1.16,23.42z"/>
      <path class="fil28" d="M156.56 93.51c-1.04,2.31 0.38,0.32 -1.45,-0.17 -0.71,6.01 0.29,6.52 -3.48,10.86 -0.32,1.13 0.11,0.25 -0.47,1.37 -0.42,0.84 -0.36,0.52 -0.86,1.03 -0.48,1.48 -0.24,1.13 -1.27,2.27l-0.96 2.28c-1.21,-0.45 -1.69,-1.28 -2.43,-2.21 -1.1,-0.85 -0.92,-1.16 -2.68,-1.32 0.32,2.17 -1.64,4.69 -2.4,6.83 2.31,1.17 6.75,3.25 9.7,3.12 1.79,-2.32 2.36,-6.11 4.15,-8.47l0.78 -2.53c0.4,-2.5 1.7,-5.95 3.03,-7.62 1.34,-2.63 2.24,-3.66 2.01,-7.18 -3.32,0.44 -1.6,0.38 -3.67,1.74z"/>
      <path class="fil29" d="M265.22 103.38c-0.62,-1.57 0.17,-0.15 -0.97,-1.07 -0.8,-0.64 -0.32,0.8 -0.69,-0.44 -0.05,-0.18 -0.25,-0.14 -0.35,-0.24 2.76,-1.03 2.26,0.79 2.91,-2.46l0.96 1.3c1.73,2.02 2.02,0.53 3.13,-1.15l0.06 3.46c-0.64,0.81 -0.32,0.29 -0.71,1.55l2.06 1.08c-1.41,0.86 -1.02,0.06 -2.19,0.83l-1.12 1.17c-0.05,-0.09 -0.16,0.24 -0.25,0.34 -0.71,-1.8 0.54,-1.64 -1.18,-1.85 -2.04,-0.26 -1.31,-0.02 -2.06,1.68l-0.99 -2.65c0.07,-0.06 0.23,-0.17 0.3,-0.24l1.09 -1.31zm8.44 -6.3c-2.61,-0.83 -6.95,-0.53 -9.98,-0.4 -4.33,0.2 -3.09,3.07 -3.06,7.11 0.03,4.61 -1.26,6.57 3.61,6.61 1.89,0.01 9.09,0.63 9.59,-0.91 0.54,-1.67 0.82,-10.34 -0.16,-12.41z"/>
      <path class="fil28" d="M233.9 105.88l1.08 3.87c0.37,-2.98 7.37,-4.1 10.04,-4.98l2.31 -0.81 8 -3.8c0.5,-3.74 -0.51,-7.81 -1.44,-10.98 -3.01,0.87 -2.9,1.7 -7.06,1.95 0.4,2.23 1.23,3.44 1.06,5.65 -4,2.64 -9.66,7.66 -13.99,9.1z"/>
      <path class="fil5" d="M126.08 94.76c0.61,-1.12 0.66,-1.2 0.94,-2.48 0.87,-3.95 -0.14,-2.25 3.91,-3.69 0.84,-0.3 0.93,-0.24 1.68,-0.39l0.8 -0.63c0.92,-1.15 1.71,-2.14 2.24,-3.74 -1.24,-1.48 -1.7,-1.16 -3.24,-1.95l-2.83 -1.51 -3.46 -0.09 -1.8 0.26c-2.44,1.67 -1.48,1.58 -3.2,3.08 -0.17,0.14 -0.71,0.47 -0.89,0.6 -0.39,2.74 -0.4,5.36 0.32,7.91 0.93,3.34 2.27,2.73 5.53,2.63z"/>
      <path class="fil28" d="M228.86 63.29c0.9,3.73 0.73,5.04 2.38,8.27l2.61 0.56c0.13,0.04 0.32,0.14 0.42,0.18 0.1,0.04 0.29,0.1 0.4,0.2l-1.09 1.18c-0.5,1.49 -0.39,2.24 0.12,3.48 3.97,1.3 6.56,0.36 6.96,-3.27 -1.65,-1.24 -1.23,-1.87 -1.18,-4.25l-0.49 -6.3c-3.66,0.06 -0.37,-0.25 -2.07,0.7 -3.71,2.07 1.34,0.21 -1.18,0.81 -0.23,-1.14 -0.58,-1.93 -1.14,-3.21l-5.63 0.18 -0.11 1.47z"/>
      <path class="fil9" d="M228.86 63.29l0.11 -1.47 5.63 -0.18c0.56,1.28 0.91,2.07 1.14,3.21 2.52,-0.6 -2.53,1.26 1.18,-0.81 1.7,-0.95 -1.59,-0.64 2.07,-0.7l0.49 6.3c1.16,-1.22 1.82,-3.74 2.24,-5.67 1.18,-5.46 -1.92,-9.34 -7.65,-8.95 -1.94,0.13 -6.01,0.66 -7.88,0.97 -0.4,1.84 -0.33,2.27 0.55,3.85l1.3 2.01c0.06,0.11 0.14,0.25 0.2,0.36 0.46,0.78 0.05,0.3 0.62,1.08z"/>
      <path class="fil13" d="M263.33 148.04l-0.23 6.61c3.16,0.26 8.9,0.62 11.72,-0.28 0.14,-4.06 0.17,-4.8 -0.93,-8.19l-1.12 -0.72c-0.5,-0.34 -0.62,-0.52 -1.32,-0.83 -5.48,-2.39 -7.75,3.01 -8.12,3.41z"/>
      <path class="fil18" d="M115.25 54.31c1.97,6 2.8,0.94 7.99,4.83 1.16,0.87 -0.43,0.54 1.23,0.79l-0.08 -3.77c-3.79,-2.04 -7.38,-3.13 -7.12,-9.03 0.26,-5.72 4,-6.29 7.2,-8.27l-0.1 -3.75 -1.22 0.93c-4.26,3.51 -3.89,0.06 -6.56,2.06 -1.97,1.48 -0.57,2.18 -1.02,4.39 -0.61,3.03 -1.24,2.35 -2.77,3.57l0 3.26c2.1,1.03 1.08,-0.26 2.26,1.93 0.63,1.18 1.25,2.46 0.19,3.06z"/>
      <path class="fil30" d="M36.35 122.18c0.1,0.1 0.21,0.26 0.26,0.33l0.99 1.3c0.44,0.59 0.52,0.69 0.92,1.22 0.7,0.94 1.24,1.66 1.72,2.59 2.49,4.91 2.72,3.09 3.23,5.64l0.68 -8.61c-0.42,-5.79 -7.61,-13.43 -11.03,-14.72l3.23 12.25z"/>
      <path class="fil11" d="M137 157.53l29.16 0.21 0.02 -0.22c-4.65,-0.44 -12.31,0.98 -16.05,-0.7 -1.08,-2.15 -0.65,-4.32 -0.7,-7.1l-13.07 -0.04c0.9,2.83 2.83,5.42 0.64,7.85z"/>
      <path class="fil31" d="M282.73 157.39c3.41,-2.6 2.31,-6.66 2.32,-11.51 0,-4.44 1.02,-9.31 -3.07,-10.72l-3.49 -0.28 0.87 1.17c0.16,0.23 0.63,0.87 0.73,1.07 1.23,2.34 0.81,12.24 0.71,15.27 -0.11,3.45 -0.58,3.03 -1.81,5.1l3.74 -0.1z"/>
      <path class="fil11" d="M124.39 56.16l0.08 -17.3c-3.2,1.98 -6.94,2.55 -7.2,8.27 -0.26,5.9 3.33,6.99 7.12,9.03z"/>
      <path class="fil18" d="M69.98 68.7c0.23,3.41 -1.57,3.01 -1.57,3.01 -2.42,-5.09 1.4,-5.56 1.57,-3.01zm-4.42 -3c0.15,-2.72 0.56,-4.45 3.33,-4.35 2.69,0.08 2.87,1.69 2.97,4.42l-6.3 -0.07zm-1.35 -0.3c-0.87,1.38 -1.24,4 -0.88,6.01l0.64 1.84 9.7 0.18c1.73,-3.66 -0.45,-16.13 -6.88,-12.87 -1.99,1.01 -1.99,2.9 -2.58,4.84z"/>
      <path class="fil31" d="M80.11 80.08c-1.62,2.58 -16.92,0.97 -20.8,1.47 2.4,2.24 6.01,1.5 10.17,1.5 14.98,0.01 13.94,2.47 13.59,-18.68 -0.04,-2.47 -0.07,-3.72 -1.6,-4.71 -0.01,3.56 -0.01,7.12 -0.01,10.68 0,3.14 0.84,7.62 -1.35,9.74z"/>
      <path class="fil23" d="M57.61 80.59l0.07 -1.45c-1.5,-2.29 -1.11,-19.72 -0.23,-21.01 1.81,-2.63 20.1,-1.43 22.52,-0.91 1.12,3.54 0.65,7.44 0.67,11.5 0.02,4.74 0.72,7.65 -1.22,11.19l0.69 0.17c2.19,-2.12 1.35,-6.6 1.35,-9.74 0,-3.56 0,-7.12 0.01,-10.68 -0.37,-4.4 -1.05,-3.88 -9.83,-3.94 -2.64,-0.02 -11.71,-0.32 -13.57,0.49 -3.39,1.48 -2.21,12.38 -2.19,18.46 0,0.82 -0.02,2.44 0.08,3.19 0.39,2.78 -0.18,2.04 1.65,2.73z"/>
      <path class="fil32" d="M110.43 89.9c-0.99,-2.1 -1.79,-1.53 -4.76,-1.48 -4.55,0.09 -15.03,0.33 -18.5,-0.31 -0.9,-2.23 -1.39,-7.08 -0.11,-9.37 2.8,-1.57 25.07,-1.2 27.62,0.26 1.49,6.74 0.13,7.52 -1.61,9.49l-1.42 2.29c-0.06,-0.09 -0.16,0.34 -0.27,0.49 -0.33,-3.11 0.14,-1.01 -0.95,-1.37zm0 0c0.23,0.99 0.35,0.88 0.43,1.09 0.46,1.15 0.31,0.27 0.52,1.32l1.62 0.06c0,-4.68 -0.45,-2 1.53,-3.99 1.19,-1.19 1.24,-1.52 1.31,-3.45 0.16,-4.51 0.65,-6.48 -3.19,-7.66 -4.4,-0.58 -22.13,-0.4 -26.21,0.4 -1.36,3.05 -1.12,7.02 -0.35,10.62 4.85,1.95 16.38,0.42 21.69,0.95 1.02,0.1 0.6,0.05 1.4,0.24l1.25 0.42z"/>
      <path class="fil33" d="M196.35 147.71c2.71,0.52 -21.94,-0.67 -25.82,0.36l-0.43 7.26c0.95,-1.11 0.55,-3.87 0.55,-5.85 5.33,0.29 11.09,0.07 16.47,0.08 6.4,0 9.25,0.58 14.17,-2.17l-0.4 6.49 0.46 -0.15 0.24 -10.06c-0.97,1.02 -1.28,1.65 -2.42,2.38 -1.41,0.9 -1.53,0.46 -2.82,1.66z"/>
      <path class="fil34" d="M154.17 57.39c1.24,2.8 0.87,4.88 0.86,8.63 0,5.23 0.84,6.65 -1.49,8.11 -1.35,0.85 -14.14,1.37 -15.53,-0.55 -1.38,-2.8 -0.88,-13.81 0.53,-15.9 2.46,-0.94 12.69,-0.42 15.63,-0.29zm0 0c-0.95,-1.45 1.87,0.49 -0.82,-0.81 -1.7,-0.82 -10.86,-0.55 -12.68,-0.41 -5.35,0.41 -3.99,5.53 -4.02,10.39 -0.01,1.6 -0.25,5.38 0.11,6.58 0.76,2.55 2.57,2.44 5.01,2.42 15.55,-0.19 14.14,1.32 14.13,-10.08l-0.2 -6.88c-0.85,-2.28 0.34,-1.23 -1.53,-1.21z"/>
      <path class="fil31" d="M166.18 157.52l-0.02 0.22 2.67 -0.17c0.11,-0.1 0.32,-0.39 0.36,-0.3l0.57 -0.66c0.8,-1.55 0.03,1.4 0.34,-1.28l0.43 -7.26c3.88,-1.03 28.53,0.16 25.82,-0.36l-24.88 -0.31c-1.65,-1.19 -0.62,0.29 -0.93,-2.6 -0.16,-1.49 0.38,-1.29 -0.44,-2.91 -0.93,-1.85 -2.74,-1.67 -4.56,-1.74 2.08,2.05 1.85,4.44 1.83,8.43 -0.01,3.69 0.54,6.64 -1.19,8.94z"/>
      <path class="fil27" d="M100.75 156.14l6.58 1.55 5.58 -0.11c0.5,-0.81 0.8,-1.47 0.96,-2.93 -2.95,-1.3 -8.09,-1.55 -9.81,-2.66l-1.81 -0.36c-1.26,0.87 -1.63,2.1 -2.43,3.42 0.3,0.35 -0.35,0.2 0.93,1.09z"/>
      <path class="fil2" d="M97.63 147.9c-0.3,2.87 -1.57,3.32 -2.17,6.33l-1.5 -0.19c2.33,1.71 0.49,0.52 1.78,3.1l4.5 0.26 0.51 -1.26c-1.28,-0.89 -0.63,-0.74 -0.93,-1.09 0.8,-1.32 1.17,-2.55 2.43,-3.42 -0.57,-0.49 -0.33,-0.29 -0.86,-0.82 0.04,-2.26 0.02,-1.79 0.93,-3.25l-0.47 -1.52c0.05,2.07 0.13,0.36 -0.53,0.95 -4.24,-1.32 -0.77,-0.64 -3.69,0.91z"/>
      <path class="fil4" d="M125.83 130.46c0.27,2.45 1.5,3.74 2.87,5.81 0.44,-0.6 0.23,-0.02 0.52,-1.25l0.2 -12.36c0,-2.48 -0.05,-2.98 -0.92,-4 -0.97,1.67 -2.36,2.78 -2.61,4.66 -0.25,1.81 0.03,5.1 -0.06,7.14z"/>
      <path class="fil27" d="M87.61 151.89c1.45,1.25 4.1,1.68 6.35,2.15l1.5 0.19c0.6,-3.01 1.87,-3.46 2.17,-6.33l-9.46 0.06 -0.56 3.93z"/>
      <path class="fil4" d="M234.98 109.75c0.22,1.99 2.96,1.36 5.01,1.23 1.87,-0.11 3.5,-0.28 5.36,-0.53 0.49,-1.38 0.64,-1.57 0.5,-3.36 -0.01,-0.1 -0.17,-1.15 -0.22,-1.3 -0.3,-1 -0.32,-0.62 -0.61,-1.02 -2.67,0.88 -9.67,2 -10.04,4.98z"/>
      <path class="fil2" d="M85.09 151.23l0.18 -3c-0.55,-2.5 -2.31,-2.97 -4.42,1.42 -1.25,2.59 -2.28,3.59 -1.91,7.05 2.03,0.95 3.13,0.69 5.38,0.68 -0.07,-0.16 -0.24,-0.53 -0.28,-0.44 -0.01,0.02 -1.02,-1.19 -0.51,-2.37 0.71,-1.66 1.11,-1.33 1.56,-3.34z"/>
      <path class="fil28" d="M126.08 94.76c-1.14,0.01 -3.76,-0.4 -4.53,1.2l2.61 0.74 5.88 0.38c0.93,-2.45 1.73,-5.93 2.57,-8.88 -0.75,0.15 -0.84,0.09 -1.68,0.39 -4.05,1.44 -3.04,-0.26 -3.91,3.69 -0.28,1.28 -0.33,1.36 -0.94,2.48z"/>
      <path class="fil35" d="M273.66 97.08c0.98,2.07 0.7,10.74 0.16,12.41 -0.5,1.54 -7.7,0.92 -9.59,0.91 -4.87,-0.04 -3.58,-2 -3.61,-6.61 -0.03,-4.04 -1.27,-6.91 3.06,-7.11 3.03,-0.13 7.37,-0.43 9.98,0.4zm-0.37 13.61l1.37 -0.15 0.35 -12 -0.15 -2.17c-3.22,-0.88 -12.09,-1.26 -14.8,0.48 -0.84,2.64 -1.07,11.65 0.46,13.4 1.11,1.05 -0.26,0.54 2.64,0.53l10.13 -0.09z"/>
      <path class="fil13" d="M134.8 146.42c3.73,0.5 11.02,0.94 14.11,0 -0.13,-3.13 0.9,-2.27 -2.72,-2.35 -2.31,-0.05 -11.11,-0.15 -12.18,0.5 0.08,1.21 -0.61,1.02 0.79,1.85z"/>
      <path class="fil36" d="M222.65 154.04l-2.8 1.15c-1.82,0.84 -2.86,0.45 -3.46,2.48l11.67 0.08 0.12 0 -0.58 -4 -4.95 0.29z"/>
      <path class="fil36" d="M194.76 157.69l11.53 -0.11 -0.16 -3.05c-1.7,-1.11 -2.23,-0.84 -4.78,-0.8l-0.46 0.15c-1.41,1.32 -1.3,0.94 -3.12,1.54 -0.79,0.26 -1.25,0.32 -1.93,0.8 -1.46,1.02 -0.61,0.2 -1.08,1.47z"/>
      <path class="fil37" d="M265.87 104.86c0.26,-2.58 0.23,-2.66 2.96,-2.37 -0.22,2.65 -0.47,2.26 -2.96,2.37zm-2.66 -3.23c0.1,0.1 0.3,0.06 0.35,0.24 0.37,1.24 -0.11,-0.2 0.69,0.44 1.14,0.92 0.35,-0.5 0.97,1.07l-1.09 1.31c-0.07,0.07 -0.23,0.18 -0.3,0.24l0.99 2.65c0.75,-1.7 0.02,-1.94 2.06,-1.68 1.72,0.21 0.47,0.05 1.18,1.85 0.09,-0.1 0.2,-0.43 0.25,-0.34l1.12 -1.17c1.17,-0.77 0.78,0.03 2.19,-0.83l-2.06 -1.08c0.39,-1.26 0.07,-0.74 0.71,-1.55l-0.06 -3.46c-1.11,1.68 -1.4,3.17 -3.13,1.15l-0.96 -1.3c-0.65,3.25 -0.15,1.43 -2.91,2.46z"/>
      <path class="fil38" d="M155.49 152.27c1.91,0.11 4.99,-1.75 6.05,-3.15 -1.22,-1.36 -4.26,-3.18 -6.03,-3.12l-0.02 6.27z"/>
      <path class="fil39" d="M219.85 155.19l2.8 -1.15c-0.06,-2.15 -0.6,-4.73 -1.08,-7.03 -0.23,-1.12 -0.4,-2.02 -0.62,-3.06l-1.07 -2.83 -0.03 14.07z"/>
      <path class="fil4" d="M266.89 138.03l-0.48 4.07c1.49,0.7 4.27,2.41 5.21,-0.74 1.17,-3.89 -2.69,-3.64 -4.73,-3.33z"/>
      <path class="fil29" d="M65.56 65.7l6.3 0.07c-0.1,-2.73 -0.28,-4.34 -2.97,-4.42 -2.77,-0.1 -3.18,1.63 -3.33,4.35z"/>
      <path class="fil40" d="M273.29 110.69l-1.44 0.61 -9.59 -0.01c2.16,1.5 10.7,0.93 12.98,0.23 0.62,-2.24 1.43,-11.31 -0.23,-12.98l-0.35 12 -1.37 0.15z"/>
      <path class="fil41" d="M143.78 106.54l6.52 0.06c0.5,-0.51 0.44,-0.19 0.86,-1.03 0.58,-1.12 0.15,-0.24 0.47,-1.37l-10.48 0.01c0.43,1.45 0.77,2.01 2.63,2.33z"/>
      <path class="fil42" d="M112.91 157.58l14.95 0.14 -13.99 -3.07c-0.16,1.46 -0.46,2.12 -0.96,2.93z"/>
      <path class="fil18" d="M130.04 97.08l2.83 0.68c0.46,-1.4 0.53,-1.42 0.69,-2.39l-0.15 -7.8 -0.8 0.63c-0.84,2.95 -1.64,6.43 -2.57,8.88z"/>
      <path class="fil43" d="M205.14 114.37l1.87 -0.37c0.66,-1.4 0.52,-0.19 0.21,-2.18l-2.65 -8.55 -0.22 10.77c0.81,0.82 -0.26,0.26 0.79,0.33z"/>
      <path class="fil44" d="M213.08 47.13c1.09,1.47 4.5,0.8 6.41,0.81 1.27,0 2.54,-0.01 3.81,0.01 3.15,0.04 2.27,0.67 3.24,-0.82 -1.82,-1.08 -11.88,-1.07 -13.46,0z"/>
      <path class="fil45" d="M221.39 93.5l6.72 -0.02c-0.12,-2.46 -0.24,-1.6 -2.39,-2.38 -1.49,-0.54 -2.33,-1.22 -3.75,-1.88l0 -1.34 -0.58 5.62z"/>
      <path class="fil45" d="M136.26 95.24l-2.7 0.13c-0.16,0.97 -0.23,0.99 -0.69,2.39l3.4 1.68 2.08 -2.34c-0.05,-0.78 -0.25,-0.86 -0.27,-0.95 -0.33,-1.35 0.17,-0.87 0.95,-2.55l-2.77 1.64z"/>
      <path class="fil37" d="M206.9 44.44c2.07,0.95 8.19,1.07 10.44,0 -0.92,-1.41 -6.11,-1.12 -8.15,-0.98 -2.42,0.16 -1.39,-0.29 -2.29,0.98z"/>
      <path class="fil46" d="M231.43 33.65c0.9,2.17 0.12,4.77 -2.41,2.91 -1.49,-1.09 -0.81,-3.35 2.41,-2.91zm1.96 4.74c-1.63,-4.88 0.16,-1.77 -1.24,-5.46l-2.93 -0.4c-1.24,1.13 -3.11,2.72 -0.94,4.77 1.16,1.09 1.54,0.51 2.8,0.51 1.2,0.01 1.2,0.25 2.31,0.58z"/>
      <path class="fil37" d="M251.74 10.55c3.11,0.48 2.21,1.92 4.75,2.86 -0.35,-1.65 -0.82,-1.23 -1.86,-2.51 -1.66,-2.03 -5.04,-8.48 -6.32,-8.97 1.23,3.62 2.92,4.16 3.43,8.62z"/>
      <path class="fil26" d="M142.96 107.62c1.76,0.16 1.58,0.47 2.68,1.32l3.39 -0.07c1.03,-1.14 0.79,-0.79 1.27,-2.27l-6.52 -0.06c-1.51,0.32 -0.13,-0.27 -0.82,1.08z"/>
      <path class="fil47" d="M63.55 41.47c-2.75,2.02 -1.47,4.61 0.98,4.07 2.26,-0.51 2.32,-3.55 -0.98,-4.07z"/>
      <path class="fil47" d="M215.42 70.69l1.3 -2.41c-3.85,-4.44 -6.76,2.77 -1.3,2.41z"/>
      <path class="fil48" d="M245.35 110.45l2.63 -0.8 -0.65 -5.69 -2.31 0.81c0.29,0.4 0.31,0.02 0.61,1.02 0.05,0.15 0.21,1.2 0.22,1.3 0.14,1.79 -0.01,1.98 -0.5,3.36z"/>
      <path class="fil49" d="M102.25 151.63l1.81 0.36 0.48 -4.43 -2.22 0c-0.91,1.46 -0.89,0.99 -0.93,3.25 0.53,0.53 0.29,0.33 0.86,0.82z"/>
      <path class="fil50" d="M218.6 44.44c1.8,0.99 6.15,0.87 7.91,0 -1.05,-1.51 -2.1,-0.94 -4.32,-0.93 -1.54,0 -3.53,-0.45 -3.59,0.93z"/>
      <path class="fil11" d="M118.06 147.63c-1.03,-1.49 -0.99,-0.9 -2.2,-2.25 -2.12,-2.37 -0.33,-1.04 -2.41,-1.95l0.41 4.25 4.2 -0.05z"/>
      <path class="fil38" d="M231.43 33.65c-3.22,-0.44 -3.9,1.82 -2.41,2.91 2.53,1.86 3.31,-0.74 2.41,-2.91z"/>
      <polygon class="fil38" points="61.74,13.14 64.79,13.15 64.88,9.83 61.79,9.87 "/>
      <path class="fil28" d="M85.27 148.23l-0.18 3 2.52 0.66 0.56 -3.93c-1.22,-0.38 -2.01,-0.15 -2.9,0.27z"/>
      <polygon class="fil38" points="57.46,13.09 60.59,13.04 60.65,10.09 57.52,9.83 "/>
      <polygon class="fil18" points="77.31,122.42 80.28,122.32 80.46,119.4 77.27,119.11 "/>
      <polygon class="fil18" points="85.97,122.34 89.02,122.4 88.97,119.31 85.83,119.33 "/>
      <polygon class="fil51" points="273.11,124.01 275.97,124.12 276.21,120.98 273.01,120.95 "/>
      <polygon class="fil18" points="277.35,124.03 280.22,124.09 280.47,121.01 277.26,120.94 "/>
      <polygon class="fil38" points="65.96,12.88 68.99,13.23 69.08,9.87 66.11,9.99 "/>
      <polygon class="fil18" points="81.69,122.26 84.8,122.44 84.78,119.22 81.89,119.27 "/>
      <polygon class="fil52" points="281.58,124.12 284.46,124.04 284.68,121.11 281.53,120.89 "/>
      <path class="fil53" d="M68.41 71.71c0,0 1.8,0.4 1.57,-3.01 -0.17,-2.55 -3.99,-2.08 -1.57,3.01z"/>
      <path class="fil7" d="M97.01 65.94l1.15 0.31 -0.12 -1.58c-2.12,-0.03 -5.41,-0.66 -6.48,0.81 1.59,0.79 3.39,0.5 5.45,0.46z"/>
      <path class="fil47" d="M294.66 132.59c0.67,-2.11 -0.9,-3.33 -2.29,-1.82 -0.57,0.62 -0.69,1.18 -0.14,1.84 1.25,1.5 1.85,0.33 2.43,-0.02z"/>
      <polygon class="fil47" points="281.99,87.84 282.02,90.37 284.75,90.51 284.88,88.08 "/>
      <path class="fil47" d="M77.77 129.95c-0.28,1.9 0.29,2.48 2.18,2.21 1.48,-2.24 0.49,-3.64 -2.18,-2.21z"/>
      <path class="fil47" d="M279.39 33.59c-1.08,2.08 -0.3,2.84 1.89,2.46 1.44,-2.39 0.41,-2.98 -1.89,-2.46z"/>
      <path class="fil47" d="M259.83 130.77l-0.14 2.4c0.68,0.02 0.87,0.14 1.3,-0.01 2.67,-0.91 1.63,-3.85 -1.16,-2.39z"/>
      <path class="fil54" d="M265.87 104.86c2.49,-0.11 2.74,0.28 2.96,-2.37 -2.73,-0.29 -2.7,-0.21 -2.96,2.37z"/>
      <path class="fil55" d="M110.35 -1.6c-0.64,1.5 -0.65,0.02 -0.13,2.06l2.23 0.23c0.27,-1.11 0.43,-2.68 -0.93,-2.6 -1.29,0.09 -0.82,0.16 -1.17,0.31z"/>
      <path class="fil56" d="M141.5 66.02c1.99,-2.75 0.93,0.35 1.98,-3.18l-3.02 3.18c1.64,2.71 1.9,2.3 3.37,2.79l-2.33 -2.79z"/>
      <path class="fil57" d="M92.57 84.13c0.24,-2.29 0.12,-2.06 -2.17,-2.14 -0.08,1.31 -0.81,1.16 0.35,2.16 1.24,1.07 1.73,0.01 1.82,-0.02z"/>
      <path class="fil57" d="M275.89 59.79l0.03 -2.53c-1.27,0.1 -2.32,-0.3 -2.32,1.22 0.01,1.53 0.99,1.17 2.29,1.31z"/>
      <path class="fil57" d="M94.79 84.08c0.64,0.18 -0.67,1.08 1.61,0.25 1.09,-0.39 0.28,0.69 0.92,-0.75 0.73,-1.65 -0.82,-1.49 -1.93,-1.44l-0.6 1.94z"/>
      <path class="fil57" d="M104.08 82.26l-0.02 1.87c2.03,0.58 2.57,0.84 2.36,-1.45 -0.91,-0.65 -1.07,-0.76 -2.34,-0.42z"/>
      <path class="fil57" d="M264.41 59.21c1.22,0.6 1.14,0.61 2.27,-0.08l0.01 -1.88 -2.1 -0.07 -0.18 2.03z"/>
      <path class="fil32" d="M99.46 82.75c0.18,0.75 -0.88,0.37 0.54,1.33 0.89,0.59 1.14,0.2 1.67,0.06 0.01,-0.06 0.91,-0.71 -0.13,-1.66 -1.53,-1.39 -1.8,0.09 -2.08,0.27z"/>
      <path class="fil57" d="M255.41 57.85l-0.03 1.87 2.09 0.08 0.16 -1.9c-1.05,-0.44 -0.8,-0.91 -2.22,-0.05z"/>
      <path class="fil58" d="M110.93 84.22c0.22,-2.24 0.45,-1.71 -1.52,-2.17 -1.47,2.27 -0.5,2.52 1.52,2.17z"/>
      <path class="fil59" d="M149.03 108.87l-3.39 0.07c0.74,0.93 1.22,1.76 2.43,2.21l0.96 -2.28z"/>
      <path class="fil58" d="M270.21 59.76c2.03,-1.57 1.71,-2.02 -0.53,-2.34 -1.07,1.74 -1.14,1.15 0.53,2.34z"/>
      <path class="fil58" d="M261.04 59.77c1.97,-1.57 1.7,-2 -0.54,-2.35 -1.03,1.76 -1.19,1.07 0.54,2.35z"/>
      <path class="fil48" d="M240.65 9.36c0.14,0.09 -0.16,1.18 2.24,0 -1.16,-0.64 1.5,-0.66 -1.21,-0.46 -2.09,0.16 -0.19,-0.12 -1.03,0.46z"/>
      <path class="fil60" d="M252.98 20.23c0.17,-1.8 -0.31,-0.65 -0.72,-0.91l0.15 2.03c0.43,-0.56 0.44,0.35 0.57,-1.12z"/>
      <path class="fil60" d="M262.58 9.16c1.05,1.02 -1.65,1.04 1.1,0.77 2.22,-0.22 0.14,0.19 0.96,-0.57l-2.06 -0.2z"/>
      <path class="fil52" d="M185.23 79.99l1.13 -0.15c-0.15,-1.53 0.22,-0.71 -0.86,-1.17l-0.27 1.32z"/>
      <path class="fil52" d="M181.21 79.51c0.53,0.32 -0.1,1.06 1.36,0 -0.52,-0.63 1.16,-0.72 -0.5,-0.5 -1.35,0.18 0.17,-0.5 -0.86,0.5z"/>
      <path class="fil60" d="M188.89 79.51c1.52,0.97 0.42,0.57 1.43,0 -0.94,-0.95 1.6,-0.79 -0.59,-0.51 -1.32,0.17 0,-0.37 -0.84,0.51z"/>
     </g>
    </g>
   </g>
  </g>
  <polygon class="fil61" points="0,0 328.91,0 328.91,144.45 0,144.45 "/>
 </g>
</svg>
