<?xml version="1.0" encoding="UTF-8"?>
<!DOCTYPE svg PUBLIC "-//W3C//DTD SVG 1.1//EN" "http://www.w3.org/Graphics/SVG/1.1/DTD/svg11.dtd">
<!-- Creator: CorelDRAW 2019 (64-Bit) -->
<svg xmlns="http://www.w3.org/2000/svg" xml:space="preserve" width="884px" height="562px" version="1.1" style="shape-rendering:geometricPrecision; text-rendering:geometricPrecision; image-rendering:optimizeQuality; fill-rule:evenodd; clip-rule:evenodd"
viewBox="0 0 80.81 51.38"
 xmlns:xlink="http://www.w3.org/1999/xlink"
 enable-background="new 0 0 512 512">
 <defs>
  <style type="text/css">
   <![CDATA[
    .fil0 {fill:none}
    .fil12 {fill:#590BB2}
    .fil4 {fill:#8E8CA8}
    .fil3 {fill:#AFABC6}
    .fil8 {fill:#C182F9}
    .fil9 {fill:#CECAE0}
    .fil7 {fill:#DDD9E4}
    .fil5 {fill:#F5F4F9}
    .fil11 {fill:#FDD250}
    .fil14 {fill:#FF8736}
    .fil10 {fill:#FFA052}
    .fil6 {fill:#FFBE92}
    .fil13 {fill:#FFE783}
    .fil2 {fill:#590BB2;fill-opacity:0.101961}
    .fil1 {fill:url(#id0)}
   ]]>
  </style>
  <linearGradient id="id0" gradientUnits="userSpaceOnUse" x1="35.05" y1="27.26" x2="78.33" y2="27.26">
   <stop offset="0" style="stop-opacity:1; stop-color:#FFF0D5"/>
   <stop offset="0.509804" style="stop-opacity:1; stop-color:#FFDFFF"/>
   <stop offset="1" style="stop-opacity:1; stop-color:#D9CEFF"/>
  </linearGradient>
 </defs>
 <g id="Layer_x0020_1">
  <metadata id="CorelCorpID_0Corel-Layer"/>
  <rect class="fil0" width="80.81" height="51.38"/>
  <ellipse class="fil0" cx="40.41" cy="25.69" rx="24.76" ry="25.25"/>
  <g id="responsive.svg">
   <path class="fil1" d="M55.89 19.91c-2.38,-2.45 -6.1,-2.79 -8.86,-1.01 -0.78,0.5 -1.73,0.67 -2.64,0.47 -2.15,-0.48 -4.4,-0.15 -6.32,0.89 -1.29,0.7 -2.86,0.58 -4.07,-0.26 -0.8,-0.56 -1.72,-0.96 -2.74,-1.15 -3.78,-0.69 -7.46,1.82 -8.19,5.59 -0.74,3.86 1.82,7.58 5.68,8.26 0.94,0.17 1.87,0.14 2.75,-0.05 1.43,-0.32 2.92,0.21 3.84,1.35 0.59,0.71 1.29,1.35 2.1,1.88 4.21,2.75 9.86,1.57 12.6,-2.64 0.01,-0.01 0.01,-0.01 0.01,-0.02 0.5,-0.77 1.29,-1.32 2.19,-1.51 1.32,-0.26 2.58,-0.91 3.6,-1.94 2.69,-2.71 2.71,-7.12 0.05,-9.86l0 0z"/>
   <path class="fil2" d="M55.76 30.71l0 -4.87c0,-0.38 -0.31,-0.68 -0.69,-0.68l-3.34 0 0 -7.46c0,-0.56 -0.46,-1.02 -1.02,-1.02l-18.64 0c-0.56,0 -1.02,0.46 -1.02,1.02l0 5.41 -5.31 0c-0.38,0 -0.68,0.31 -0.68,0.68l0 6.92 30.7 0z"/>
   <polygon class="fil3" points="44.46,37.24 38.32,37.24 39.12,34.05 39.55,32.37 43.23,32.37 43.66,34.05 "/>
   <polygon class="fil4" points="43.66,34.05 39.12,34.05 39.55,32.37 43.23,32.37 "/>
   <path class="fil5" d="M50.71 33.3l-18.64 0c-0.56,0 -1.02,-0.46 -1.02,-1.02l0 -13.35c0,-0.56 0.46,-1.02 1.02,-1.02l18.64 0c0.56,0 1.02,0.46 1.02,1.02l0 13.35c0,0.56 -0.46,1.02 -1.02,1.02l0 0z"/>
   <path class="fil6" d="M48.93 25.65l-15.08 0c-0.11,0 -0.2,-0.09 -0.2,-0.2l0 -4.93 15.48 0 0 4.93c0,0.11 -0.09,0.2 -0.2,0.2l0 0z"/>
   <path class="fil7" d="M42.84 27.25l-7.27 0c-0.19,0 -0.34,-0.15 -0.34,-0.34 0,-0.19 0.15,-0.34 0.34,-0.34l7.27 0c0.19,0 0.34,0.15 0.34,0.34 0,0.19 -0.15,0.34 -0.34,0.34z"/>
   <path class="fil7" d="M42.84 28.61l-7.27 0c-0.19,0 -0.34,-0.15 -0.34,-0.34 0,-0.18 0.15,-0.34 0.34,-0.34l7.27 0c0.19,0 0.34,0.15 0.34,0.34 0,0.19 -0.15,0.34 -0.34,0.34l0 0z"/>
   <path class="fil6" d="M46.45 28.61l-1.12 0c-0.19,0 -0.34,-0.15 -0.34,-0.34 0,-0.18 0.15,-0.34 0.34,-0.34l1.12 0c0.19,0 0.35,0.15 0.35,0.34 0,0.19 -0.16,0.34 -0.35,0.34l0 0z"/>
   <path class="fil8" d="M51.73 20.52l0 -1.59c0,-0.56 -0.46,-1.02 -1.02,-1.02l-18.64 0c-0.56,0 -1.02,0.46 -1.02,1.02l0 1.59 20.68 0z"/>
   <path class="fil9" d="M31.05 30.57l0 1.71c0,0.56 0.46,1.02 1.02,1.02l18.64 0c0.56,0 1.02,-0.46 1.02,-1.02l0 -1.71 -20.68 0z"/>
   <path class="fil10" d="M55.07 37.24l-5.05 0c-0.37,0 -0.68,-0.31 -0.68,-0.69l0 -9.48c0,-0.38 0.31,-0.68 0.68,-0.68l5.05 0c0.38,0 0.69,0.3 0.69,0.68l0 9.48c0,0.38 -0.31,0.69 -0.69,0.69z"/>
   <path class="fil5" d="M49.34 33.01l0 3.54c0,0.38 0.31,0.69 0.68,0.69l5.05 0c0.38,0 0.69,-0.31 0.69,-0.69l0 -3.54 -6.42 0z"/>
   <path class="fil9" d="M53.85 27.36l0.31 -0.97 -3.23 0 0.32 0.97c0.05,0.14 0.18,0.23 0.32,0.23l1.95 0c0.15,0 0.28,-0.09 0.33,-0.23z"/>
   <path class="fil5" d="M34.88 37.24l-9.14 0c-0.38,0 -0.68,-0.31 -0.68,-0.69l0 -11.53c0,-0.38 0.3,-0.68 0.68,-0.68l9.14 0c0.38,0 0.69,0.3 0.69,0.68l0 11.53c0,0.38 -0.31,0.69 -0.69,0.69z"/>
   <path class="fil11" d="M35.57 26.57l0 -1.55c0,-0.38 -0.31,-0.68 -0.69,-0.68l-9.14 0c-0.38,0 -0.68,0.3 -0.68,0.68l0 1.55 10.51 0z"/>
   <path class="fil6" d="M28.98 35.86l-2.11 0c-0.12,0 -0.21,-0.09 -0.21,-0.2l0 -7.34c0,-0.11 0.09,-0.2 0.21,-0.2l2.11 0c0.11,0 0.21,0.09 0.21,0.2l0 7.34c0,0.11 -0.1,0.2 -0.21,0.2l0 0z"/>
   <path class="fil6" d="M33.76 30.64l-3.41 0c-0.12,0 -0.21,-0.09 -0.21,-0.2l0 -2.12c0,-0.11 0.09,-0.2 0.21,-0.2l3.41 0c0.11,0 0.2,0.09 0.2,0.2l0 2.12c0,0.11 -0.09,0.2 -0.2,0.2l0 0z"/>
   <path class="fil6" d="M33.76 35.86l-3.41 0c-0.12,0 -0.21,-0.09 -0.21,-0.2l0 -3.86c0,-0.11 0.09,-0.21 0.21,-0.21l3.41 0c0.11,0 0.2,0.1 0.2,0.21l0 3.86c0,0.11 -0.09,0.2 -0.2,0.2l0 0z"/>
   <g>
    <path class="fil12" d="M33.11 18.87c-0.19,0 -0.34,0.15 -0.34,0.34l0 0.01c0,0.19 0.15,0.34 0.34,0.34 0.19,0 0.34,-0.15 0.34,-0.34l0 -0.01c0,-0.19 -0.15,-0.34 -0.34,-0.34z"/>
    <path class="fil12" d="M34.16 18.87c-0.19,0 -0.35,0.15 -0.35,0.34l0 0.01c0,0.19 0.16,0.34 0.35,0.34 0.18,0 0.34,-0.15 0.34,-0.34l0 -0.01c0,-0.19 -0.16,-0.34 -0.34,-0.34z"/>
    <path class="fil12" d="M35.2 18.87c-0.19,0 -0.34,0.15 -0.34,0.34l0 0.01c0,0.19 0.15,0.34 0.34,0.34 0.19,0 0.34,-0.15 0.34,-0.34l0 -0.01c0,-0.19 -0.15,-0.34 -0.34,-0.34z"/>
    <path class="fil12" d="M55.07 26.04l-3 0 0 -7.11c0,-0.75 -0.61,-1.36 -1.36,-1.36l-18.64 0c-0.75,0 -1.36,0.61 -1.36,1.36l0 3.53c0,0.19 0.15,0.34 0.34,0.34 0.19,0 0.34,-0.15 0.34,-0.34l0 -1.6 20 0 0 5.18 -1.37 0c-0.56,0 -1.02,0.46 -1.02,1.03l0 1.62c0,0.19 0.15,0.34 0.34,0.34 0.19,0 0.34,-0.15 0.34,-0.34l0 -1.62c0,-0.19 0.16,-0.34 0.34,-0.34l0.67 0 0.24 0.73c0.09,0.28 0.35,0.47 0.64,0.47l1.95 0c0.3,0 0.56,-0.19 0.65,-0.47l0.24 -0.73 0.66 0c0.19,0 0.34,0.15 0.34,0.34l0 9.48c0,0.19 -0.15,0.34 -0.34,0.34l-5.05 0c-0.18,0 -0.34,-0.15 -0.34,-0.34l0 -5.98c0,-0.19 -0.15,-0.34 -0.34,-0.34l-13.43 0 0 -5.21c0,-0.56 -0.46,-1.02 -1.03,-1.02l-9.14 0c-0.56,0 -1.02,0.46 -1.02,1.02l0 11.53c0,0.57 0.46,1.03 1.02,1.03l9.14 0c0.57,0 1.03,-0.46 1.03,-1.03l0 -2.91 2.96 0 -0.82 3.25 -0.77 0c-0.19,0 -0.34,0.16 -0.34,0.35 0,0.18 0.15,0.34 0.34,0.34l8.22 0c0.19,0 0.34,-0.16 0.34,-0.34 0,-0.19 -0.15,-0.35 -0.34,-0.35l-0.77 0 -0.83 -3.25 5.1 0 0 2.91c0,0.57 0.46,1.03 1.02,1.03l5.05 0c0.57,0 1.03,-0.46 1.03,-1.03l0 -9.48c0,-0.57 -0.46,-1.03 -1.03,-1.03l0 0zm-23.68 -5.86l0 -1.25c0,-0.37 0.3,-0.68 0.68,-0.68l18.64 0c0.37,0 0.68,0.31 0.68,0.68l0 1.25 -20 0zm22.13 7.07l-1.95 0 -0.17 -0.52 2.29 0 -0.17 0.52zm-27.78 -2.57l9.14 0c0.19,0 0.34,0.15 0.34,0.34l0 1.21 -9.82 0 0 -1.21c0,-0.19 0.15,-0.34 0.34,-0.34zm9.48 11.87c0,0.19 -0.15,0.34 -0.34,0.34l-9.14 0c-0.19,0 -0.34,-0.15 -0.34,-0.34l0 -9.64 9.82 0 0 9.64zm8.8 0.34l-5.26 0 0.82 -3.25 3.62 0 0.82 3.25zm-8.11 -3.93l0 -2.05 13.09 0 0 2.05 -13.09 0z"/>
    <path class="fil12" d="M26.84 25.8c0.19,0 0.34,-0.15 0.34,-0.34l0 -0.01c0,-0.19 -0.15,-0.34 -0.34,-0.34 -0.19,0 -0.34,0.15 -0.34,0.34l0 0.01c0,0.19 0.15,0.34 0.34,0.34z"/>
    <path class="fil12" d="M27.89 25.8c0.19,0 0.34,-0.15 0.34,-0.34l0 -0.01c0,-0.19 -0.15,-0.34 -0.34,-0.34 -0.19,0 -0.34,0.15 -0.34,0.34l0 0.01c0,0.19 0.15,0.34 0.34,0.34z"/>
    <path class="fil12" d="M28.94 25.8c0.18,0 0.34,-0.15 0.34,-0.34l0 -0.01c0,-0.19 -0.16,-0.34 -0.34,-0.34 -0.19,0 -0.35,0.15 -0.35,0.34l0 0.01c0,0.19 0.16,0.34 0.35,0.34z"/>
    <path class="fil12" d="M41.23 22.9l0.16 -0.15 0.16 0.15c0.06,0.07 0.15,0.1 0.24,0.1 0.08,0 0.17,-0.03 0.24,-0.1 0.13,-0.13 0.13,-0.35 0,-0.48l-0.4 -0.4c-0.13,-0.13 -0.35,-0.13 -0.48,0l-0.4 0.4c-0.13,0.13 -0.13,0.35 0,0.48 0.13,0.14 0.35,0.14 0.48,0l0 0z"/>
   </g>
   <path class="fil13" d="M51.87 35.65l-0.96 0c-0.11,0 -0.2,-0.1 -0.2,-0.21l0 -5.86c0,-0.11 0.09,-0.2 0.2,-0.2l0.96 0c0.11,0 0.2,0.09 0.2,0.2l0 5.86c0,0.11 -0.09,0.21 -0.2,0.21l0 0z"/>
   <path class="fil13" d="M50.09 15.98c-0.19,0 -0.34,-0.15 -0.34,-0.34 0,-0.22 -0.19,-0.41 -0.41,-0.41 -0.19,0 -0.34,-0.15 -0.34,-0.34 0,-0.19 0.15,-0.34 0.34,-0.34 0.22,0 0.41,-0.18 0.41,-0.41 0,-0.19 0.15,-0.34 0.34,-0.34 0.19,0 0.34,0.15 0.34,0.34 0,0.23 0.18,0.41 0.41,0.41 0.19,0 0.34,0.15 0.34,0.34 0,0.19 -0.15,0.34 -0.34,0.34 -0.23,0 -0.41,0.19 -0.41,0.41 0,0.19 -0.15,0.34 -0.34,0.34z"/>
   <path class="fil8" d="M54.16 24.83c-0.18,0 -0.34,-0.16 -0.34,-0.35 0,-0.22 -0.18,-0.41 -0.41,-0.41 -0.19,0 -0.34,-0.15 -0.34,-0.34 0,-0.18 0.15,-0.34 0.34,-0.34 0.23,0 0.41,-0.18 0.41,-0.41 0,-0.18 0.16,-0.34 0.34,-0.34 0.19,0 0.34,0.16 0.34,0.34 0,0.23 0.19,0.41 0.41,0.41 0.19,0 0.35,0.16 0.35,0.34 0,0.19 -0.16,0.34 -0.35,0.34 -0.22,0 -0.41,0.19 -0.41,0.41 0,0.19 -0.15,0.35 -0.34,0.35z"/>
   <path class="fil10" d="M53.21 17.5c-0.09,0 -0.18,-0.04 -0.24,-0.1l-0.75 -0.75c-0.14,-0.14 -0.14,-0.35 0,-0.49l0.75 -0.75c0.13,-0.13 0.35,-0.13 0.48,0l0.75 0.75c0.13,0.14 0.13,0.35 0,0.49l-0.75 0.75c-0.07,0.06 -0.15,0.1 -0.24,0.1zm-0.27 -1.1l0.27 0.27 0.27 -0.27 -0.27 -0.26 -0.27 0.26z"/>
   <path class="fil10" d="M27.92 22.44c-0.08,0 -0.17,-0.04 -0.24,-0.1l-0.75 -0.75c-0.13,-0.14 -0.13,-0.35 0,-0.49l0.75 -0.75c0.14,-0.13 0.35,-0.13 0.49,0l0.75 0.75c0.13,0.14 0.13,0.35 0,0.49l-0.75 0.75c-0.07,0.06 -0.16,0.1 -0.25,0.1zm-0.26 -1.09l0.26 0.26 0.27 -0.26 -0.27 -0.27 -0.26 0.27z"/>
   <circle class="fil14" cx="47.73" cy="24.34" r="0.38"/>
   <circle class="fil14" cx="47.73" cy="23.18" r="0.38"/>
   <circle class="fil14" cx="47.73" cy="22.03" r="0.38"/>
  </g>
 </g>
</svg>
