<?xml version="1.0" encoding="UTF-8"?>
<!DOCTYPE svg PUBLIC "-//W3C//DTD SVG 1.1//EN" "http://www.w3.org/Graphics/SVG/1.1/DTD/svg11.dtd">
<!-- Creator: CorelDRAW 2019 (64-Bit) -->
<svg xmlns="http://www.w3.org/2000/svg" xml:space="preserve" width="293px" height="180px" version="1.1" style="shape-rendering:geometricPrecision; text-rendering:geometricPrecision; image-rendering:optimizeQuality; fill-rule:evenodd; clip-rule:evenodd"
viewBox="0 0 10.8 6.64"
 xmlns:xlink="http://www.w3.org/1999/xlink"
 enable-background="new 0 0 512 512">
 <defs>
  <style type="text/css">
   <![CDATA[
    .fil0 {fill:none}
    .fil6 {fill:#4C403F}
    .fil5 {fill:#605553}
    .fil8 {fill:#D2EBFF}
    .fil2 {fill:#EA7B0C}
    .fil7 {fill:#EEF9FF}
    .fil4 {fill:#FBBE2C}
    .fil1 {fill:#FD9827}
    .fil3 {fill:#FFE780}
   ]]>
  </style>
 </defs>
 <g id="Layer_x0020_1">
  <metadata id="CorelCorpID_0Corel-Layer"/>
  <rect class="fil0" width="10.8" height="6.64"/>
  <g id="resturant.svg">
   <g>
    <g id="XMLID_117_">
     <g id="XMLID_118_">
      <g id="XMLID_119_">
       <g id="XMLID_120_">
        <g id="XMLID_121_">
         <g id="XMLID_122_">
          <g id="XMLID_123_">
           <g id="XMLID_124_">
            <g id="XMLID_125_">
             <g id="XMLID_126_">
              <g id="XMLID_127_">
               <g id="XMLID_128_">
                <g id="XMLID_129_">
                 <g id="XMLID_130_">
                  <circle id="XMLID_131_" class="fil1" cx="5.4" cy="3.32" r="2.42"/>
                 </g>
                </g>
               </g>
              </g>
             </g>
            </g>
           </g>
          </g>
         </g>
        </g>
       </g>
      </g>
     </g>
    </g>
    <path class="fil2" d="M7.82 3.32c0,-0.28 -0.05,-0.55 -0.13,-0.8l-1 -1c0,0 -0.68,0.19 -0.79,0.48l-0.44 -0.42 -0.25 0.33 -0.33 -0.33 -0.22 0.33 -0.37 -0.33 -0.3 0 0.32 1.14c0,0.19 -0.11,0.46 -0.11,0.46l0.31 0.32 0.03 1.67 0.55 0.55c0.1,0.01 0.21,0.02 0.31,0.02 1.34,0 2.42,-1.09 2.42,-2.42l0 0z"/>
    <g>
     <g>
      <polygon class="fil3" points="4.41,3.24 5.04,3.24 5.04,4.06 4.41,4.06 "/>
      <polygon class="fil4" points="4.73,3.24 5.04,3.24 5.04,4.06 4.73,4.06 "/>
      <path class="fil5" d="M4.73 5.23c-0.18,0 -0.32,-0.14 -0.32,-0.31l0 -1.14 0.63 0 0 1.14c0,0.17 -0.14,0.31 -0.31,0.31l0 0z"/>
      <polygon class="fil3" points="6.06,3.24 6.69,3.24 6.69,4.06 6.06,4.06 "/>
      <polygon class="fil4" points="6.37,3.24 6.69,3.24 6.69,4.06 6.37,4.06 "/>
      <path class="fil5" d="M6.37 5.23c-0.17,0 -0.31,-0.14 -0.31,-0.31l0 -1.14 0.63 0 0 1.14c0,0.17 -0.14,0.31 -0.32,0.31l0 0z"/>
      <path class="fil6" d="M6.69 3.78l0 1.14c0,0.17 -0.14,0.31 -0.32,0.31l0 -1.45 0.32 0z"/>
      <path class="fil7" d="M6.69 3.28l-0.53 0c-0.19,0 -0.35,-0.15 -0.35,-0.34l0 -0.67c0,-0.41 0.34,-0.75 0.76,-0.75l0.12 0 0 1.76z"/>
      <path class="fil7" d="M5.16 1.58l0 0.79c0,0.08 -0.06,0.14 -0.14,0.14 -0.08,0 -0.14,-0.06 -0.14,-0.14l0 -0.79 -0.3 0 0 0.79c0,0.08 -0.07,0.14 -0.14,0.14 -0.08,0 -0.15,-0.06 -0.15,-0.14l0 -0.79 -0.3 0 0 1.14c0,0.34 0.27,0.61 0.61,0.61l0.25 0c0.34,0 0.61,-0.27 0.61,-0.61l0 -1.14 -0.3 0z"/>
      <path class="fil8" d="M5.46 1.58l0 1.14c0,0.27 -0.17,0.5 -0.42,0.58 -0.06,0.02 -0.12,0.03 -0.19,0.03l-0.12 0 0 -1.75 0.15 0 0 0.79c0,0.08 0.06,0.14 0.14,0.14l0 0c0.08,0 0.14,-0.06 0.14,-0.14l0 -0.79 0.3 0z"/>
     </g>
     <path class="fil6" d="M5.04 3.78l0 1.14c0,0.17 -0.14,0.31 -0.31,0.31l0 -1.45 0.31 0z"/>
     <path class="fil8" d="M6.69 1.52l0 1.76 -0.32 0 0 -1.74c0.07,-0.01 0.13,-0.02 0.2,-0.02l0.12 0z"/>
    </g>
   </g>
  </g>
 </g>
</svg>
