<?xml version="1.0" encoding="UTF-8"?>
<!DOCTYPE svg PUBLIC "-//W3C//DTD SVG 1.1//EN" "http://www.w3.org/Graphics/SVG/1.1/DTD/svg11.dtd">
<!-- Creator: CorelDRAW 2019 (64-Bit) -->
<svg xmlns="http://www.w3.org/2000/svg" xml:space="preserve" width="150px" height="100px" version="1.1" style="shape-rendering:geometricPrecision; text-rendering:geometricPrecision; image-rendering:optimizeQuality; fill-rule:evenodd; clip-rule:evenodd"
viewBox="0 0 3.81 2.54"
 xmlns:xlink="http://www.w3.org/1999/xlink">
 <defs>
  <style type="text/css">
   <![CDATA[
    .fil0 {fill:none}
    .fil5 {fill:#136EF1}
    .fil4 {fill:#1689FC}
    .fil3 {fill:#17ACE8}
    .fil2 {fill:#FEC478}
    .fil1 {fill:#FEDBAB}
   ]]>
  </style>
 </defs>
 <g id="Layer_x0020_1">
  <metadata id="CorelCorpID_0Corel-Layer"/>
  <rect class="fil0" width="3.81" height="2.54"/>
  <g id="ser.svg">
   <path class="fil1" d="M2.94 1.41l-0.36 0.52c-0.07,0.1 -0.18,0.15 -0.3,0.15l-1.06 0 -0.07 -0.65 0.07 -0.06c0.09,-0.08 0.15,-0.14 0.28,-0.17 0.14,-0.03 0.29,0.01 0.38,0.1 0.03,0.02 0.04,0.04 0.07,0.04l0.02 0c0.29,0 0.03,0 0.31,0 0.07,0 0.13,0.05 0.13,0.12 0,0.07 -0.06,0.13 -0.13,0.13l-0.25 0c-0.03,0 -0.06,0.02 -0.06,0.06 0,0.03 0.03,0.06 0.06,0.06l0.29 0c0.03,0 0.07,-0.01 0.1,-0.04l0.33 -0.42c0.05,-0.04 0.12,-0.05 0.17,-0.01 0.05,0.04 0.06,0.12 0.02,0.17z"/>
   <g>
    <path class="fil2" d="M1.97 1.65l0 -0.31c0.29,0 0.03,0 0.31,0 0.07,0 0.13,0.05 0.13,0.12 0,0.07 -0.06,0.13 -0.13,0.13l-0.25 0c-0.03,0 -0.06,0.02 -0.06,0.06z"/>
    <path class="fil2" d="M2.94 1.41l-0.36 0.52c-0.07,0.1 -0.18,0.15 -0.3,0.15l-0.31 0 0 -0.43c0,0.03 0.03,0.06 0.06,0.06l0.29 0c0.03,0 0.07,-0.01 0.1,-0.04l0.33 -0.42c0.05,-0.04 0.12,-0.05 0.17,-0.01 0.05,0.04 0.06,0.12 0.02,0.17z"/>
   </g>
   <path class="fil3" d="M1.22 2.3l-0.37 -0.75c-0.01,-0.03 0,-0.07 0.03,-0.08l0.14 -0.07c0.09,-0.05 0.2,-0.01 0.25,0.08l0.26 0.53c0.04,0.09 0.01,0.2 -0.08,0.25l-0.14 0.07c-0.03,0.01 -0.07,0 -0.09,-0.03z"/>
   <path class="fil4" d="M1.97 0.58c-0.21,0 -0.38,0.17 -0.38,0.38l0 0.07c0,0.03 0.03,0.06 0.06,0.06l0.63 0c0.04,0 0.07,-0.03 0.07,-0.06l0 -0.07c0,-0.21 -0.18,-0.38 -0.38,-0.38z"/>
   <path class="fil5" d="M2.35 0.96l0 0.07c0,0.03 -0.03,0.06 -0.07,0.06l-0.31 0 0 -0.51c0.2,0 0.38,0.17 0.38,0.38z"/>
   <path class="fil3" d="M1.97 0.21c-0.14,0 -0.25,0.11 -0.25,0.25 0,0.13 0.11,0.25 0.25,0.25 0.14,0 0.25,-0.12 0.25,-0.25 0,-0.14 -0.11,-0.25 -0.25,-0.25z"/>
   <path class="fil4" d="M2.22 0.46c0,0.13 -0.11,0.25 -0.25,0.25l0 -0.5c0.14,0 0.25,0.11 0.25,0.25z"/>
   <g>
   </g>
   <g>
   </g>
   <g>
   </g>
   <g>
   </g>
   <g>
   </g>
   <g>
   </g>
   <g>
   </g>
   <g>
   </g>
   <g>
   </g>
   <g>
   </g>
   <g>
   </g>
   <g>
   </g>
   <g>
   </g>
   <g>
   </g>
   <g>
   </g>
  </g>
 </g>
</svg>
