<?xml version="1.0" encoding="UTF-8"?>
<!DOCTYPE svg PUBLIC "-//W3C//DTD SVG 1.1//EN" "http://www.w3.org/Graphics/SVG/1.1/DTD/svg11.dtd">
<!-- Creator: CorelDRAW 2019 (64-Bit) -->
<svg xmlns="http://www.w3.org/2000/svg" xml:space="preserve" width="150px" height="100px" version="1.1" style="shape-rendering:geometricPrecision; text-rendering:geometricPrecision; image-rendering:optimizeQuality; fill-rule:evenodd; clip-rule:evenodd"
viewBox="0 0 3.59 2.4"
 xmlns:xlink="http://www.w3.org/1999/xlink"
 enable-background="new 0 0 64 64">
 <defs>
  <style type="text/css">
   <![CDATA[
    .fil0 {fill:none}
    .fil5 {fill:black}
    .fil1 {fill:#B4DD7F}
    .fil2 {fill:#E6E9ED}
    .fil3 {fill:#F0D0B4}
    .fil4 {fill:#FCD770}
   ]]>
  </style>
 </defs>
 <g id="Layer_x0020_1">
  <metadata id="CorelCorpID_0Corel-Layer"/>
  <rect class="fil0" width="3.59" height="2.4"/>
  <g id="software-devlopment.svg">
   <g>
    <g>
     <g>
      <path class="fil1" d="M2.71 0.22l0 0.35 -1.96 0 0 -0.35c0,-0.04 0.03,-0.07 0.07,-0.07l1.82 0c0.04,0 0.07,0.03 0.07,0.07z"/>
     </g>
     <g>
      <path class="fil2" d="M0.75 0.57l0 1.12c0,0.04 0.03,0.07 0.07,0.07l1.89 0 0 -1.19 -1.96 0z"/>
     </g>
     <g>
      <polygon class="fil2" points="1.45,0.29 1.59,0.29 1.59,0.43 1.45,0.43 "/>
     </g>
     <g>
      <polygon class="fil2" points="1.17,0.29 1.31,0.29 1.31,0.43 1.17,0.43 "/>
     </g>
     <g>
      <polygon class="fil2" points="0.89,0.29 1.03,0.29 1.03,0.43 0.89,0.43 "/>
     </g>
     <g>
      <path class="fil3" d="M1.94 0.71l-0.98 0c-0.04,0 -0.07,0.03 -0.07,0.07l0 0.56c0,0.04 0.03,0.07 0.07,0.07l0.52 0 0.2 0.13c0.01,0.01 0.02,0.01 0.03,0.01 0.03,0 0.05,-0.03 0.05,-0.06l0 -0.08 0.18 0c0.04,0 0.07,-0.03 0.07,-0.07l0 -0.56c0,-0.04 -0.03,-0.07 -0.07,-0.07z"/>
     </g>
     <g>
      <path class="fil4" d="M2.71 1.52c0,0 0,0 0,0l0.03 0.02c0.01,0.02 0.02,0.04 0.02,0.06 0,0.01 0,0.02 -0.01,0.03 -0.01,0.02 -0.01,0.04 0,0.06 0,0 0,0.01 0,0.01 0.01,0.02 0.03,0.04 0.05,0.04 0.03,0.01 0.05,0.04 0.05,0.07l0 0.04c0,0.03 -0.02,0.06 -0.05,0.07 -0.02,0 -0.04,0.02 -0.05,0.04 0,0 0,0.01 0,0.01 -0.01,0.01 -0.01,0.02 -0.01,0.03 0,0.01 0.01,0.02 0.01,0.03 0.02,0.03 0.01,0.06 -0.01,0.08l-0.03 0.03c-0.01,0.01 -0.03,0.02 -0.05,0.02 -0.01,0 -0.02,0 -0.03,-0.01 -0.02,-0.01 -0.04,-0.01 -0.06,0 -0.01,0 -0.01,0 -0.01,0.01 -0.02,0 -0.04,0.02 -0.05,0.04 -0.01,0.03 -0.03,0.05 -0.06,0.05l-0.04 0c-0.03,0 -0.06,-0.02 -0.07,-0.05 -0.01,-0.02 -0.02,-0.04 -0.04,-0.04 0,-0.01 -0.01,-0.01 -0.01,-0.01 -0.01,0 -0.02,-0.01 -0.03,-0.01 -0.01,0 -0.02,0.01 -0.03,0.01 -0.03,0.02 -0.07,0.01 -0.09,-0.01l-0.02 -0.03c-0.02,-0.01 -0.02,-0.03 -0.02,-0.05 0,-0.01 0,-0.02 0,-0.03 0.01,-0.02 0.02,-0.04 0.01,-0.06 0,0 -0.01,-0.01 -0.01,-0.01 -0.01,-0.02 -0.02,-0.04 -0.04,-0.04 -0.03,-0.01 -0.05,-0.04 -0.05,-0.07l0 -0.04c0,-0.02 0.01,-0.04 0.02,-0.05 0.01,-0.01 0.02,-0.01 0.03,-0.02 0.02,0 0.03,-0.02 0.04,-0.04l0.01 -0.01c0,-0.01 0,-0.02 0,-0.03 0,-0.01 0,-0.02 -0.01,-0.03 -0.01,-0.03 0,-0.06 0.02,-0.09l0.02 -0.02c0.02,-0.01 0.04,-0.02 0.05,-0.02 0.02,0 0.03,0 0.04,0.01 0.02,0.01 0.04,0.01 0.06,0 0,0 0.01,-0.01 0.01,-0.01 0.02,-0.01 0.03,-0.02 0.04,-0.04 0.01,-0.03 0.04,-0.05 0.07,-0.05l0.04 0c0.03,0 0.05,0.02 0.06,0.05 0.01,0.02 0.03,0.03 0.05,0.04l0.01 0.01c0.01,0 0.02,0 0.03,0 0.01,0 0.02,0 0.03,0 0.02,-0.02 0.06,-0.01 0.08,0.01z"/>
     </g>
    </g>
    <g>
     <polygon class="fil5" points="2.36,2.07 2.43,1.58 2.5,1.59 2.43,2.08 "/>
     <polygon class="fil5" points="2.51,1.75 2.59,1.83 2.51,1.91 2.56,1.96 2.69,1.83 2.56,1.7 "/>
     <polygon class="fil5" points="2.3,1.7 2.17,1.83 2.3,1.96 2.35,1.91 2.27,1.83 2.35,1.75 "/>
     <path class="fil5" d="M2.81 1.71c-0.01,0 -0.02,-0.01 -0.02,-0.02 -0.01,-0.01 -0.01,-0.01 -0.01,-0.02 0,-0.01 0,-0.02 0,-0.03 0.02,-0.04 0.02,-0.09 -0.02,-0.12l-0.02 -0.02 0 -1.28c0,-0.06 -0.04,-0.11 -0.1,-0.11l-1.82 0c-0.06,0 -0.11,0.05 -0.11,0.11l0 1.47c0,0.06 0.05,0.1 0.11,0.1l1.15 0c0,0.01 0,0.02 0,0.02l0 0.04c0,0.04 0.03,0.08 0.08,0.1 0.01,0 0.02,0.01 0.02,0.02 0,0 0,0.01 0,0.01 0.01,0.01 0.01,0.02 0,0.03 -0.02,0.05 -0.01,0.1 0.02,0.13l0.03 0.02c0.03,0.04 0.08,0.04 0.12,0.02 0.01,0 0.02,0 0.03,0 0.01,0 0.01,0.01 0.02,0.01 0.01,0 0.01,0.01 0.02,0.02 0.01,0.04 0.05,0.07 0.1,0.07l0.04 0c0.04,0 0.08,-0.03 0.1,-0.07 0,-0.01 0.01,-0.02 0.02,-0.02 0,0 0.01,-0.01 0.01,-0.01 0.01,0 0.02,0 0.03,0 0.04,0.02 0.09,0.02 0.13,-0.02l0.02 -0.02c0.04,-0.03 0.04,-0.08 0.02,-0.13 0,-0.01 0,-0.02 0,-0.03 0,0 0,-0.01 0.01,-0.01 0,-0.01 0.01,-0.02 0.02,-0.02 0.04,-0.02 0.07,-0.06 0.07,-0.1l0 -0.04c0,-0.05 -0.03,-0.09 -0.07,-0.1l0 0zm-1.99 -1.53l1.82 0c0.02,0 0.03,0.02 0.03,0.04l0 0.31 -1.89 0 0 -0.31c0,-0.02 0.02,-0.04 0.04,-0.04l0 0zm-0.04 1.51l0 -1.09 1.89 0 0 0.86c-0.02,0 -0.04,0 -0.06,0.01 -0.01,0.01 -0.02,0.01 -0.03,0.01 0,-0.01 -0.01,-0.01 -0.01,-0.01 -0.01,0 -0.02,-0.01 -0.02,-0.02 -0.02,-0.05 -0.06,-0.08 -0.1,-0.08l-0.04 0c-0.05,0 -0.09,0.03 -0.1,0.08 -0.01,0.01 -0.01,0.02 -0.02,0.02 -0.01,0 -0.01,0 -0.02,0.01 -0.01,0 -0.02,0 -0.03,-0.01 -0.04,-0.02 -0.09,-0.01 -0.12,0.02l-0.03 0.03c-0.03,0.03 -0.04,0.08 -0.02,0.12 0.01,0.01 0.01,0.02 0,0.03 0,0.01 0,0.01 0,0.02 0,0.01 -0.01,0.02 -0.02,0.02 -0.01,0 -0.02,0.01 -0.03,0.01l-1.2 0c-0.02,0 -0.04,-0.01 -0.04,-0.03l0 0zm2.03 0.16c0,0.01 -0.01,0.03 -0.02,0.03 -0.03,0.01 -0.06,0.03 -0.07,0.06 0,0.01 0,0.01 0,0.02 -0.02,0.02 -0.01,0.06 0,0.09 0.01,0.01 0,0.03 -0.01,0.04l-0.02 0.02c-0.01,0.02 -0.03,0.02 -0.05,0.01 -0.02,-0.01 -0.06,-0.01 -0.09,0 0,0 0,0 -0.01,0 -0.03,0.01 -0.05,0.04 -0.06,0.07 0,0.01 -0.02,0.02 -0.03,0.02l-0.04 0c-0.02,0 -0.03,-0.01 -0.04,-0.02 -0.01,-0.03 -0.03,-0.06 -0.06,-0.07 0,0 -0.01,0 -0.01,0 -0.01,-0.01 -0.03,-0.01 -0.04,-0.01 -0.02,0 -0.03,0 -0.05,0.01 -0.01,0.01 -0.03,0.01 -0.04,-0.01l-0.03 -0.02c-0.01,-0.01 -0.01,-0.03 0,-0.04 0.01,-0.03 0.01,-0.07 0,-0.09 0,-0.01 0,-0.01 -0.01,-0.02 -0.01,-0.03 -0.03,-0.05 -0.06,-0.06 -0.02,0 -0.03,-0.02 -0.03,-0.03l0 -0.04c0,-0.01 0.01,-0.03 0.03,-0.03 0.03,-0.01 0.05,-0.04 0.06,-0.07 0.01,0 0.01,0 0.01,-0.01 0.01,-0.03 0.01,-0.06 0,-0.09 -0.01,-0.01 -0.01,-0.03 0,-0.04l0.03 -0.03c0.01,-0.01 0.03,-0.01 0.04,0 0.03,0.01 0.06,0.01 0.09,0 0,0 0.01,0 0.01,0 0.03,-0.02 0.05,-0.04 0.06,-0.07 0.01,-0.02 0.02,-0.03 0.04,-0.03l0.04 0c0.01,0 0.03,0.01 0.03,0.03 0.01,0.03 0.03,0.05 0.06,0.07 0.01,0 0.01,0 0.01,0 0.03,0.01 0.07,0.01 0.09,0 0.02,-0.01 0.04,-0.01 0.05,0l0.02 0.03c0.01,0.01 0.02,0.03 0.01,0.04 -0.01,0.03 -0.02,0.06 0,0.09 0,0.01 0,0.01 0,0.01 0.01,0.03 0.04,0.06 0.07,0.07 0.01,0 0.02,0.02 0.02,0.03l0 0.04z"/>
     <path class="fil5" d="M1.06 0.25l-0.21 0 0 0.21 0.21 0 0 -0.21zm-0.07 0.14l-0.07 0 0 -0.07 0.07 0 0 0.07z"/>
     <path class="fil5" d="M1.34 0.25l-0.21 0 0 0.21 0.21 0 0 -0.21zm-0.07 0.14l-0.07 0 0 -0.07 0.07 0 0 0.07z"/>
     <path class="fil5" d="M1.62 0.25l-0.21 0 0 0.21 0.21 0 0 -0.21zm-0.07 0.14l-0.07 0 0 -0.07 0.07 0 0 0.07z"/>
     <path class="fil5" d="M2.04 1.34l0 -0.56c0,-0.06 -0.04,-0.11 -0.1,-0.11l-0.98 0c-0.06,0 -0.11,0.05 -0.11,0.11l0 0.56c0,0.06 0.05,0.1 0.11,0.1l0.51 0 0.19 0.13c0.01,0.01 0.03,0.01 0.05,0.01 0.05,0 0.09,-0.04 0.09,-0.09l0 -0.05 0.14 0c0.06,0 0.1,-0.04 0.1,-0.1zm-0.07 0c0,0.02 -0.01,0.03 -0.03,0.03l-0.21 0 0 0.12c0,0.02 -0.02,0.03 -0.03,0.02l-0.21 -0.14 -0.53 0c-0.02,0 -0.04,-0.01 -0.04,-0.03l0 -0.56c0,-0.02 0.02,-0.04 0.04,-0.04l0.98 0c0.02,0 0.03,0.02 0.03,0.04l0 0.56z"/>
     <polygon class="fil5" points="0.92,1.58 0.99,1.58 0.99,1.65 0.92,1.65 "/>
     <polygon class="fil5" points="1.06,1.58 1.13,1.58 1.13,1.65 1.06,1.65 "/>
     <polygon class="fil5" points="1.2,1.58 1.27,1.58 1.27,1.65 1.2,1.65 "/>
     <polygon class="fil5" points="1.34,1.58 1.41,1.58 1.41,1.65 1.34,1.65 "/>
     <path class="fil5" d="M1.06 0.95c0,0.04 -0.03,0.07 -0.07,0.07l0 0.07c0.04,0 0.07,0.03 0.07,0.07 0,0.08 0.06,0.14 0.14,0.14l0 -0.07c-0.04,0 -0.07,-0.03 -0.07,-0.07 0,-0.04 -0.02,-0.08 -0.05,-0.1 0.03,-0.03 0.05,-0.07 0.05,-0.11 0,-0.04 0.03,-0.07 0.07,-0.07l0 -0.07c-0.08,0 -0.14,0.07 -0.14,0.14l0 0z"/>
     <path class="fil5" d="M1.83 0.95c0,-0.07 -0.06,-0.14 -0.14,-0.14l0 0.07c0.04,0 0.07,0.03 0.07,0.07 0,0.04 0.02,0.08 0.05,0.11 -0.03,0.02 -0.05,0.06 -0.05,0.1 0,0.04 -0.03,0.07 -0.07,0.07l0 0.07c0.08,0 0.14,-0.06 0.14,-0.14 0,-0.04 0.03,-0.07 0.07,-0.07l0 -0.07c-0.04,0 -0.07,-0.03 -0.07,-0.07l0 0z"/>
     <polygon class="fil5" points="1.27,0.81 1.62,0.81 1.62,0.88 1.27,0.88 "/>
     <polygon class="fil5" points="1.27,0.95 1.62,0.95 1.62,1.02 1.27,1.02 "/>
     <polygon class="fil5" points="1.27,1.09 1.34,1.09 1.34,1.16 1.27,1.16 "/>
     <polygon class="fil5" points="1.41,1.09 1.62,1.09 1.62,1.16 1.41,1.16 "/>
     <polygon class="fil5" points="1.27,1.23 1.62,1.23 1.62,1.3 1.27,1.3 "/>
     <polygon class="fil5" points="2.11,0.81 2.18,0.81 2.18,0.88 2.11,0.88 "/>
     <polygon class="fil5" points="2.25,0.81 2.6,0.81 2.6,0.88 2.25,0.88 "/>
     <polygon class="fil5" points="2.11,0.95 2.6,0.95 2.6,1.02 2.11,1.02 "/>
     <polygon class="fil5" points="2.11,1.09 2.25,1.09 2.25,1.16 2.11,1.16 "/>
     <polygon class="fil5" points="2.32,1.09 2.39,1.09 2.39,1.16 2.32,1.16 "/>
     <polygon class="fil5" points="2.46,1.09 2.6,1.09 2.6,1.16 2.46,1.16 "/>
     <polygon class="fil5" points="2.11,1.23 2.6,1.23 2.6,1.3 2.11,1.3 "/>
     <polygon class="fil5" points="2.11,0.67 2.6,0.67 2.6,0.74 2.11,0.74 "/>
    </g>
   </g>
  </g>
 </g>
</svg>
