<?xml version="1.0" encoding="UTF-8"?>
<!DOCTYPE svg PUBLIC "-//W3C//DTD SVG 1.1//EN" "http://www.w3.org/Graphics/SVG/1.1/DTD/svg11.dtd">
<!-- Creator: CorelDRAW 2019 (64-Bit) -->
<svg xmlns="http://www.w3.org/2000/svg" xml:space="preserve" width="884px" height="562px" version="1.1" style="shape-rendering:geometricPrecision; text-rendering:geometricPrecision; image-rendering:optimizeQuality; fill-rule:evenodd; clip-rule:evenodd"
viewBox="0 0 81.1 51.56"
 xmlns:xlink="http://www.w3.org/1999/xlink"
 enable-background="new 0 0 512 512">
 <defs>
  <style type="text/css">
   <![CDATA[
    .fil0 {fill:none}
    .fil12 {fill:#590BB2}
    .fil5 {fill:#C182F9}
    .fil7 {fill:#DDD9E4}
    .fil8 {fill:#E2CCFF}
    .fil4 {fill:#E8E6ED}
    .fil3 {fill:#F5F4F9}
    .fil13 {fill:#FFA052}
    .fil11 {fill:#FFBE92}
    .fil10 {fill:#FFC136}
    .fil6 {fill:#FFD5B8}
    .fil9 {fill:#FFE783}
    .fil2 {fill:#590BB2;fill-opacity:0.101961}
    .fil1 {fill:url(#id0)}
   ]]>
  </style>
  <linearGradient id="id0" gradientUnits="userSpaceOnUse" x1="36.31" y1="25.7" x2="87.24" y2="25.7">
   <stop offset="0" style="stop-opacity:1; stop-color:#FFF0D5"/>
   <stop offset="0.509804" style="stop-opacity:1; stop-color:#FFDFFF"/>
   <stop offset="1" style="stop-opacity:1; stop-color:#D9CEFF"/>
  </linearGradient>
 </defs>
 <g id="Layer_x0020_1">
  <metadata id="CorelCorpID_0Corel-Layer"/>
  <rect class="fil0" width="81.1" height="51.56"/>
  <ellipse class="fil0" cx="40.55" cy="25.78" rx="24.85" ry="25.34"/>
  <g id="ui-ux.svg">
   <path class="fil1" d="M51.4 18.75c-0.01,0 -0.03,0 -0.05,0 -2.74,0 -5.34,-1.18 -7.15,-3.25 -2.69,-3.09 -6.65,-5.03 -11.07,-5.01 -8.01,0.04 -14.63,6.77 -14.52,14.79 0.1,7.97 6.59,14.4 14.59,14.4 2.26,0 4.4,-0.52 6.3,-1.43 1.65,-0.79 3.61,-0.58 5.06,0.53 1.87,1.43 4.22,2.29 6.76,2.29 6.12,0.01 11.14,-4.97 11.18,-11.09 0.03,-6.18 -4.93,-11.19 -11.1,-11.23l0 0z"/>
   <path class="fil2" d="M57.7 11.97l0 24.37c0,0.71 -0.58,1.28 -1.29,1.28l-31.72 0c-0.71,0 -1.28,-0.57 -1.28,-1.28l0 -24.37c0,-0.71 0.57,-1.28 1.28,-1.28l31.72 0c0.71,0 1.29,0.57 1.29,1.28l0 0z"/>
   <path class="fil3" d="M57.7 13.77l0 24.37c0,0.71 -0.58,1.28 -1.29,1.28l-31.72 0c-0.71,0 -1.28,-0.57 -1.28,-1.28l0 -24.37c0,-0.71 0.57,-1.28 1.28,-1.28l31.72 0c0.71,0 1.29,0.57 1.29,1.28l0 0z"/>
   <polygon class="fil4" points="26.53,16.62 54.57,16.62 54.57,25.89 26.53,25.89 "/>
   <path class="fil5" d="M57.7 16.62l0 -2.85c0,-0.71 -0.58,-1.28 -1.29,-1.28l-31.72 0c-0.71,0 -1.28,0.57 -1.28,1.28l0 2.85 34.29 0z"/>
   <path class="fil6" d="M33.65 27.86l-7.11 0c-0.18,0 -0.32,-0.14 -0.32,-0.31l0 -5.73c0,-0.18 0.14,-0.32 0.32,-0.32l7.11 0c0.17,0 0.32,0.14 0.32,0.32l0 5.73c0,0.17 -0.15,0.31 -0.32,0.31z"/>
   <path class="fil7" d="M32.95 30.98l-5.71 0c-0.24,0 -0.44,-0.2 -0.44,-0.44 0,-0.25 0.2,-0.44 0.44,-0.44l5.71 0c0.24,0 0.44,0.19 0.44,0.44 0,0.24 -0.2,0.44 -0.44,0.44l0 0z"/>
   <path class="fil8" d="M44.11 27.86l-7.11 0c-0.18,0 -0.32,-0.14 -0.32,-0.31l0 -5.73c0,-0.18 0.14,-0.32 0.32,-0.32l7.11 0c0.17,0 0.31,0.14 0.31,0.32l0 5.73c0,0.17 -0.14,0.31 -0.31,0.31z"/>
   <path class="fil7" d="M43.41 30.98l-5.71 0c-0.25,0 -0.44,-0.2 -0.44,-0.44 0,-0.25 0.19,-0.44 0.44,-0.44l5.71 0c0.24,0 0.43,0.19 0.43,0.44 0,0.24 -0.19,0.44 -0.43,0.44l0 0z"/>
   <path class="fil9" d="M54.56 27.86l-7.11 0c-0.17,0 -0.31,-0.14 -0.31,-0.31l0 -5.73c0,-0.18 0.14,-0.32 0.31,-0.32l7.11 0c0.18,0 0.32,0.14 0.32,0.32l0 5.73c0,0.17 -0.14,0.31 -0.32,0.31z"/>
   <path class="fil7" d="M53.86 30.98l-5.7 0c-0.25,0 -0.44,-0.2 -0.44,-0.44 0,-0.25 0.19,-0.44 0.44,-0.44l5.7 0c0.25,0 0.44,0.19 0.44,0.44 0,0.24 -0.19,0.44 -0.44,0.44l0 0z"/>
   <path class="fil10" d="M54.56 21.07l-7.11 0c-0.41,0 -0.74,0.34 -0.74,0.75l0 5.73c0,0.41 0.33,0.74 0.74,0.74l7.11 0c0.42,0 0.75,-0.33 0.75,-0.74l0 -5.73c0,-0.41 -0.33,-0.75 -0.75,-0.75zm-0.11 3.18l-4.24 0 0 -2.32 4.24 0 0 2.32zm-6.89 -2.32l1.79 0 0 5.51 -1.79 0 0 -5.51zm2.65 5.51l0 -2.33 4.24 0 0 2.33 -4.24 0z"/>
   <path class="fil10" d="M52.32 31.73l-2.62 0c-0.24,0 -0.44,0.19 -0.44,0.44 0,0.24 0.2,0.44 0.44,0.44l2.62 0c0.24,0 0.44,-0.2 0.44,-0.44 0,-0.25 -0.2,-0.44 -0.44,-0.44z"/>
   <path class="fil6" d="M32.06 36.55l-3.94 0c-0.14,0 -0.26,-0.12 -0.26,-0.26l0 -1.43c0,-0.14 0.12,-0.25 0.26,-0.25l3.94 0c0.15,0 0.26,0.11 0.26,0.25l0 1.43c0,0.14 -0.11,0.26 -0.26,0.26l0 0z"/>
   <path class="fil8" d="M42.61 36.55l-3.94 0c-0.14,0 -0.26,-0.12 -0.26,-0.26l0 -1.43c0,-0.14 0.12,-0.25 0.26,-0.25l3.94 0c0.15,0 0.26,0.11 0.26,0.25l0 1.43c0,0.14 -0.11,0.26 -0.26,0.26l0 0z"/>
   <path class="fil9" d="M53.16 36.55l-3.94 0c-0.14,0 -0.26,-0.12 -0.26,-0.26l0 -1.43c0,-0.14 0.12,-0.25 0.26,-0.25l3.94 0c0.14,0 0.26,0.11 0.26,0.25l0 1.43c0,0.14 -0.12,0.26 -0.26,0.26l0 0z"/>
   <path class="fil11" d="M40.67 36.81l2.68 7.22c0.11,0.3 0.53,0.33 0.69,0.05l1.52 -2.72c0.04,-0.06 0.09,-0.11 0.15,-0.15l2.72 -1.52c0.28,-0.16 0.25,-0.58 -0.06,-0.69l-7.21 -2.68c-0.31,-0.11 -0.61,0.18 -0.49,0.49z"/>
   <g>
    <path class="fil12" d="M26.24 14.54l0 0.02c0,0.23 0.19,0.43 0.43,0.43 0.24,0 0.43,-0.2 0.43,-0.43l0 -0.02c0,-0.23 -0.19,-0.42 -0.43,-0.42 -0.24,0 -0.43,0.19 -0.43,0.42z"/>
    <path class="fil12" d="M27.9 14.54l0 0.02c0,0.23 0.19,0.43 0.43,0.43 0.23,0 0.43,-0.2 0.43,-0.43l0 -0.02c0,-0.23 -0.2,-0.42 -0.43,-0.42 -0.24,0 -0.43,0.19 -0.43,0.42z"/>
    <path class="fil12" d="M29.56 14.54l0 0.02c0,0.23 0.19,0.43 0.42,0.43 0.24,0 0.43,-0.2 0.43,-0.43l0 -0.02c0,-0.23 -0.19,-0.42 -0.43,-0.42 -0.23,0 -0.42,0.19 -0.42,0.42z"/>
    <path class="fil12" d="M56.41 12.06l-31.72 0c-0.94,0 -1.71,0.77 -1.71,1.71l0 2.85c0,0.23 0.19,0.42 0.43,0.42l31.34 0c0.24,0 0.43,-0.19 0.43,-0.42 0,-0.24 -0.19,-0.43 -0.43,-0.43l-30.91 0 0 -2.42c0,-0.47 0.38,-0.86 0.85,-0.86l31.72 0c0.47,0 0.86,0.39 0.86,0.86l0 24.37c0,0.47 -0.39,0.86 -0.86,0.86l-7.45 0c-0.09,-0.18 -0.24,-0.33 -0.44,-0.4l-7.22 -2.68c-0.3,-0.11 -0.62,-0.04 -0.85,0.18 -0.23,0.23 -0.3,0.56 -0.19,0.86l0.76 2.04 -16.33 0c-0.47,0 -0.85,-0.39 -0.85,-0.86l0 -19.16c0,-0.24 -0.2,-0.43 -0.43,-0.43 -0.24,0 -0.43,0.19 -0.43,0.43l0 19.16c0,0.94 0.77,1.71 1.71,1.71l16.65 0 1.61 4.33c0.11,0.29 0.37,0.5 0.69,0.52 0.02,0 0.05,0 0.07,0 0.29,0 0.56,-0.15 0.7,-0.41l1.52 -2.71 2.71 -1.52c0.09,-0.05 0.18,-0.12 0.24,-0.21l7.53 0c0.95,0 1.71,-0.77 1.71,-1.71l0 -24.37c0,-0.94 -0.76,-1.71 -1.71,-1.71l0 0zm-10.91 28.78c-0.13,0.07 -0.24,0.18 -0.31,0.31l-1.48 2.63 -2.61 -7.02 7.03 2.61 -2.63 1.47z"/>
   </g>
   <path class="fil9" d="M39.61 44.01c-0.23,0 -0.42,-0.19 -0.42,-0.43 0,-0.28 -0.24,-0.52 -0.52,-0.52 -0.24,0 -0.43,-0.19 -0.43,-0.42 0,-0.24 0.19,-0.43 0.43,-0.43 0.28,0 0.52,-0.23 0.52,-0.52 0,-0.24 0.19,-0.43 0.42,-0.43 0.24,0 0.43,0.19 0.43,0.43 0,0.29 0.23,0.52 0.52,0.52 0.24,0 0.43,0.19 0.43,0.43 0,0.23 -0.19,0.42 -0.43,0.42 -0.29,0 -0.52,0.24 -0.52,0.52 0,0.24 -0.19,0.43 -0.43,0.43z"/>
   <path class="fil13" d="M33.65 21.07l-7.11 0c-0.41,0 -0.75,0.34 -0.75,0.75l0 5.73c0,0.41 0.34,0.74 0.75,0.74l7.11 0c0.41,0 0.75,-0.33 0.75,-0.74l0 -5.73c0,-0.41 -0.34,-0.75 -0.75,-0.75zm-0.11 0.86l0 1.43 -6.89 0 0 -1.43 6.89 0zm-6.89 2.28l4.69 0 0 3.23 -4.69 0 0 -3.23zm5.54 3.23l0 -3.23 1.35 0 0 3.23 -1.35 0z"/>
   <path class="fil13" d="M31.4 31.73l-2.62 0c-0.24,0 -0.44,0.19 -0.44,0.44 0,0.24 0.2,0.44 0.44,0.44l2.62 0c0.25,0 0.44,-0.2 0.44,-0.44 0,-0.25 -0.19,-0.44 -0.44,-0.44z"/>
   <path class="fil13" d="M39.66 9.41l-0.94 -0.94c-0.17,-0.17 -0.44,-0.17 -0.61,0l-0.94 0.94c-0.08,0.08 -0.13,0.19 -0.13,0.3 0,0.11 0.05,0.22 0.13,0.3l0.94 0.95c0.08,0.08 0.19,0.12 0.3,0.12 0.11,0 0.22,-0.04 0.31,-0.12l0.94 -0.95c0.08,-0.08 0.12,-0.19 0.12,-0.3 0,-0.11 -0.04,-0.22 -0.12,-0.3zm-1.25 0.64l-0.33 -0.34 0.33 -0.34 0.34 0.34 -0.34 0.34z"/>
   <path class="fil5" d="M44.11 21.07l-7.11 0c-0.42,0 -0.75,0.34 -0.75,0.75l0 5.73c0,0.41 0.33,0.74 0.75,0.74l7.11 0c0.41,0 0.74,-0.33 0.74,-0.74l0 -5.73c0,-0.41 -0.33,-0.75 -0.74,-0.75zm-0.11 3.31l-2.25 0 0 -2.45 2.25 0 0 2.45 0 0zm-3.11 -2.45l0 2.45 -3.78 0 0 -2.45 3.78 0zm-3.78 3.31l1.9 0 0 2.2 -1.9 0 0 -2.2zm2.76 2.2l0 -2.2 4.13 0 0 2.2 -4.13 0z"/>
   <path class="fil5" d="M41.86 31.73l-2.62 0c-0.24,0 -0.44,0.19 -0.44,0.44 0,0.24 0.2,0.44 0.44,0.44l2.62 0c0.24,0 0.44,-0.2 0.44,-0.44 0,-0.25 -0.2,-0.44 -0.44,-0.44z"/>
   <path class="fil5" d="M34.33 7.8c-0.28,0 -0.52,-0.23 -0.52,-0.51 0,-0.24 -0.19,-0.43 -0.42,-0.43 -0.24,0 -0.43,0.19 -0.43,0.43 0,0.28 -0.23,0.51 -0.52,0.51 -0.24,0 -0.43,0.19 -0.43,0.43 0,0.24 0.19,0.43 0.43,0.43 0.29,0 0.52,0.23 0.52,0.52 0,0.23 0.19,0.42 0.43,0.42 0.23,0 0.42,-0.19 0.42,-0.42 0,-0.29 0.24,-0.52 0.52,-0.52 0.24,0 0.43,-0.19 0.43,-0.43 0,-0.24 -0.19,-0.43 -0.43,-0.43z"/>
   <path class="fil5" d="M50.13 9.41l-0.94 -0.94c-0.17,-0.17 -0.44,-0.17 -0.61,0l-0.94 0.94c-0.08,0.08 -0.13,0.19 -0.13,0.3 0,0.11 0.05,0.22 0.13,0.3l0.94 0.95c0.08,0.08 0.19,0.12 0.3,0.12 0.11,0 0.22,-0.04 0.31,-0.12l0.94 -0.95c0.08,-0.08 0.13,-0.19 0.13,-0.3 0,-0.11 -0.05,-0.22 -0.13,-0.3zm-1.25 0.64l-0.33 -0.34 0.33 -0.34 0.34 0.34 -0.34 0.34z"/>
  </g>
 </g>
</svg>
