<?xml version="1.0" encoding="UTF-8"?>
<!DOCTYPE svg PUBLIC "-//W3C//DTD SVG 1.1//EN" "http://www.w3.org/Graphics/SVG/1.1/DTD/svg11.dtd">
<!-- Creator: CorelDRAW 2019 (64-Bit) -->
<svg xmlns="http://www.w3.org/2000/svg" xml:space="preserve" width="150px" height="100px" version="1.1" style="shape-rendering:geometricPrecision; text-rendering:geometricPrecision; image-rendering:optimizeQuality; fill-rule:evenodd; clip-rule:evenodd"
viewBox="0 0 4.08 2.72"
 xmlns:xlink="http://www.w3.org/1999/xlink"
 enable-background="new 0 0 256 256">
 <defs>
  <style type="text/css">
   <![CDATA[
    .fil0 {fill:none}
    .fil10 {fill:black}
    .fil3 {fill:#5290DB}
    .fil4 {fill:#70D6F9}
    .fil9 {fill:#87D147}
    .fil2 {fill:#C7D7E5}
    .fil7 {fill:#EDB311}
    .fil1 {fill:#EDF4FC}
    .fil8 {fill:#F5C84C}
    .fil6 {fill:#FC657E}
    .fil5 {fill:#FCDD86}
   ]]>
  </style>
 </defs>
 <g id="Layer_x0020_1">
  <metadata id="CorelCorpID_0Corel-Layer"/>
  <rect class="fil0" width="4.08" height="2.72"/>
  <g id="ui-ux_x0020_design.svg">
   <g id="Layer_41">
    <g>
     <g>
      <g>
       <path class="fil1" d="M2.28 2.32l-0.77 0c-0.03,0 -0.05,0.03 -0.05,0.06 0,0.02 0.02,0.05 0.05,0.05l0.77 0c0.03,0 0.06,-0.03 0.06,-0.05 0,-0.03 -0.03,-0.06 -0.06,-0.06l0 0z"/>
      </g>
     </g>
     <g>
      <g>
       <polygon class="fil2" points="1.68,2.08 2.11,2.08 2.11,2.32 1.68,2.32 "/>
      </g>
     </g>
     <g>
      <g>
       <path class="fil3" d="M3.05 1.27l-0.49 0c-0.05,0 -0.1,0.05 -0.1,0.11l0 0.94c0,0.06 0.05,0.11 0.1,0.11l0.49 0c0.06,0 0.11,-0.05 0.11,-0.11l0 -0.94c0,-0.06 -0.05,-0.11 -0.11,-0.11z"/>
      </g>
     </g>
     <g>
      <g>
       <path class="fil3" d="M2.46 1.38c0,-0.06 0.05,-0.11 0.1,-0.11l0.41 0 0 -0.71c0,-0.06 -0.05,-0.11 -0.11,-0.11l-1.92 0c-0.06,0 -0.12,0.05 -0.12,0.11l0 1.41c0,0.06 0.06,0.11 0.12,0.11l1.52 0 0 -0.7z"/>
      </g>
     </g>
     <g>
      <g>
       <path class="fil1" d="M2.46 1.78l-1.64 0 0 0.19c0,0.06 0.06,0.11 0.12,0.11l1.52 0 0 -0.3z"/>
      </g>
     </g>
     <g>
      <g>
       <path class="fil2" d="M1.9 1.88c-0.03,0 -0.06,0.02 -0.06,0.05 0,0.03 0.03,0.06 0.06,0.06 0.03,0 0.05,-0.03 0.05,-0.06 0,-0.03 -0.02,-0.05 -0.05,-0.05z"/>
      </g>
     </g>
     <g>
      <g>
       <path class="fil1" d="M2.46 1.38c0,-0.06 0.05,-0.11 0.1,-0.11l0.32 0 0 -0.71c0,-0.01 -0.01,-0.02 -0.02,-0.02l-1.92 0c-0.01,0 -0.02,0.01 -0.02,0.02l0 1.22 1.54 0 0 -0.4z"/>
      </g>
     </g>
     <g>
      <g>
       <g>
        <path class="fil4" d="M2.27 1.59l0 -0.22 -0.14 0 0 0.22c0,0.03 -0.02,0.05 -0.04,0.05l-0.37 0c-0.02,0 -0.04,-0.02 -0.04,-0.05l0 -0.22 -0.15 0 0 0.22c0,0.03 -0.02,0.05 -0.04,0.05l-0.37 0c-0.02,0 -0.04,-0.02 -0.04,-0.05l0 -0.22 -0.16 0 0 0.41 1.54 0 0 -0.14 -0.15 0c-0.02,0 -0.04,-0.02 -0.04,-0.05l0 0z"/>
       </g>
      </g>
     </g>
     <g>
      <g>
       <path class="fil1" d="M3.03 1.37l-0.11 0c-0.01,0 -0.02,0.01 -0.03,0.02 -0.01,0.03 -0.04,0.05 -0.08,0.05 -0.04,0 -0.07,-0.02 -0.08,-0.05 -0.01,-0.01 -0.02,-0.02 -0.04,-0.02l-0.11 0c-0.01,0 -0.03,0.01 -0.03,0.03l0 0.9c0,0.02 0.02,0.04 0.03,0.04l0.45 0c0.02,0 0.03,-0.02 0.03,-0.04l0 -0.9c0,-0.02 -0.01,-0.03 -0.03,-0.03l0 0z"/>
      </g>
     </g>
     <g>
      <g>
       <path class="fil4" d="M2.9 1.63c0,0.05 -0.04,0.08 -0.09,0.08 -0.05,0 -0.09,-0.03 -0.09,-0.08l-0.17 0 0 0.67c0,0.02 0.02,0.04 0.03,0.04l0.45 0c0.02,0 0.03,-0.02 0.03,-0.04l0 -0.67 -0.16 0z"/>
      </g>
     </g>
     <g>
      <g>
       <path class="fil5" d="M2.69 1.91l0.24 0c0.03,0 0.05,-0.02 0.05,-0.05 0,-0.03 -0.02,-0.06 -0.05,-0.06l-0.24 0c-0.03,0 -0.06,0.03 -0.06,0.06 0,0.03 0.03,0.05 0.06,0.05z"/>
      </g>
     </g>
     <g>
      <g>
       <path class="fil5" d="M2.93 2l-0.24 0c-0.03,0 -0.06,0.03 -0.06,0.06 0,0.03 0.03,0.05 0.06,0.05l0.24 0c0.03,0 0.05,-0.02 0.05,-0.05 0,-0.03 -0.02,-0.06 -0.05,-0.06z"/>
      </g>
     </g>
     <g>
      <g>
       <circle class="fil6" cx="2.81" cy="1.63" r="0.09"/>
      </g>
     </g>
     <g>
      <g>
       <path class="fil7" d="M2.74 1.8l-0.05 0c-0.03,0 -0.06,0.03 -0.06,0.06 0,0.03 0.03,0.05 0.06,0.05l0.05 0 0 -0.11z"/>
      </g>
     </g>
     <g>
      <g>
       <path class="fil7" d="M2.74 2l-0.05 0c-0.03,0 -0.06,0.03 -0.06,0.06 0,0.03 0.03,0.05 0.06,0.05l0.05 0 0 -0.11z"/>
      </g>
     </g>
     <g>
      <g>
       <path class="fil5" d="M1.49 1.13l-0.37 0c-0.02,0 -0.04,0.02 -0.04,0.05l0 0.41c0,0.03 0.02,0.05 0.04,0.05l0.37 0c0.02,0 0.04,-0.02 0.04,-0.05l0 -0.41c0,-0.03 -0.02,-0.05 -0.04,-0.05l0 0z"/>
      </g>
     </g>
     <g>
      <g>
       <path class="fil5" d="M2.46 1.38c0,-0.06 0.05,-0.11 0.1,-0.11l0.16 0 0 -0.09c0,-0.03 -0.02,-0.05 -0.04,-0.05l-0.37 0c-0.02,0 -0.04,0.02 -0.04,0.05l0 0.41c0,0.03 0.02,0.05 0.04,0.05l0.15 0 0 -0.26 0 0z"/>
      </g>
     </g>
     <g>
      <g>
       <path class="fil5" d="M2.09 1.13l-0.37 0c-0.02,0 -0.04,0.02 -0.04,0.05l0 0.41c0,0.03 0.02,0.05 0.04,0.05l0.37 0c0.02,0 0.04,-0.02 0.04,-0.05l0 -0.41c0,-0.03 -0.02,-0.05 -0.04,-0.05l0 0z"/>
      </g>
     </g>
     <g>
      <g>
       <path class="fil5" d="M1.56 1l0.68 0c0.03,0 0.06,-0.02 0.06,-0.05 0,-0.03 -0.03,-0.06 -0.06,-0.06l-0.68 0c-0.03,0 -0.05,0.03 -0.05,0.06 0,0.03 0.02,0.05 0.05,0.05z"/>
      </g>
     </g>
     <g>
      <g>
       <circle class="fil6" cx="2.68" cy="0.73" r="0.09"/>
      </g>
     </g>
     <g>
      <g>
       <path class="fil7" d="M1.63 0.89l-0.07 0c-0.03,0 -0.05,0.03 -0.05,0.06 0,0.03 0.02,0.05 0.05,0.05l0.07 0 0 -0.11z"/>
      </g>
     </g>
     <g>
      <g>
       <g>
        <path class="fil4" d="M1.24 0.78l-0.11 0c-0.03,0 -0.05,-0.03 -0.05,-0.05 0,-0.03 0.02,-0.05 0.05,-0.05l0.11 0c0.03,0 0.05,0.02 0.05,0.05 0,0.02 -0.02,0.05 -0.05,0.05z"/>
       </g>
      </g>
     </g>
     <g>
      <g>
       <path class="fil8" d="M3.28 1.11c-0.05,-0.01 -0.08,-0.04 -0.09,-0.09 0,0 0,0 0,0 -0.01,0.05 -0.04,0.08 -0.09,0.09 0,0 0,0 0,0 0.05,0.01 0.08,0.04 0.09,0.09 0,0 0,0 0,0 0.01,-0.05 0.04,-0.08 0.09,-0.09 0,0 0,0 0,0l0 0z"/>
      </g>
     </g>
     <g>
      <g>
       <path class="fil9" d="M2.34 0.32c-0.03,-0.01 -0.05,-0.03 -0.05,-0.05 0,0 0,0 0,0 -0.01,0.02 -0.03,0.04 -0.05,0.05 0,0 0,0 0,0 0.02,0 0.04,0.02 0.05,0.05 0,0 0,0 0,0 0,-0.03 0.02,-0.05 0.05,-0.05 0,0 0,0 0,0z"/>
      </g>
     </g>
     <g>
      <g>
       <path class="fil4" d="M1.17 2.26l0.03 0 0 -0.03c0,-0.01 0.01,-0.03 0.03,-0.03 0.01,0 0.03,0.02 0.03,0.03l0 0.03 0.02 0c0.02,0 0.03,0.01 0.03,0.03 0,0.01 -0.01,0.03 -0.03,0.03l-0.02 0 0 0.02c0,0.02 -0.02,0.03 -0.03,0.03 -0.02,0 -0.03,-0.01 -0.03,-0.03l0 -0.02 -0.03 0c-0.01,0 -0.03,-0.02 -0.03,-0.03 0,-0.02 0.02,-0.03 0.03,-0.03l0 0z"/>
      </g>
     </g>
     <g>
      <g>
       <circle class="fil8" cx="0.98" cy="2.21" r="0.03"/>
      </g>
     </g>
     <g>
      <g>
       <circle class="fil6" cx="3.09" cy="0.89" r="0.03"/>
      </g>
     </g>
     <g>
      <g>
       <path class="fil10" d="M2.84 2.22l-0.07 0c-0.01,0 -0.02,-0.01 -0.02,-0.02 0,-0.01 0.01,-0.03 0.02,-0.03l0.07 0c0.02,0 0.03,0.02 0.03,0.03 0,0.01 -0.01,0.02 -0.03,0.02l0 0z"/>
      </g>
     </g>
     <g>
      <g>
       <path class="fil10" d="M2.48 0.75l-0.05 0c-0.01,0 -0.02,-0.01 -0.02,-0.02 0,-0.02 0.01,-0.03 0.02,-0.03l0.05 0c0.01,0 0.02,0.01 0.02,0.03 0,0.01 -0.01,0.02 -0.02,0.02z"/>
      </g>
     </g>
     <g>
      <g>
       <path class="fil10" d="M2.33 0.75l-0.05 0c-0.01,0 -0.02,-0.01 -0.02,-0.02 0,-0.02 0.01,-0.03 0.02,-0.03l0.05 0c0.01,0 0.03,0.01 0.03,0.03 0,0.01 -0.02,0.02 -0.03,0.02z"/>
      </g>
     </g>
     <g>
      <g>
       <path class="fil10" d="M2.18 0.75l-0.04 0c-0.02,0 -0.03,-0.01 -0.03,-0.02 0,-0.02 0.01,-0.03 0.03,-0.03l0.04 0c0.02,0 0.03,0.01 0.03,0.03 0,0.01 -0.01,0.02 -0.03,0.02z"/>
      </g>
     </g>
     <g>
      <g>
       <path class="fil10" d="M1.52 1.65c-0.01,0 -0.02,-0.01 -0.02,-0.01l-0.43 -0.47c0,-0.01 0,-0.03 0.01,-0.04 0.01,-0.01 0.02,0 0.03,0.01l0.43 0.47c0,0.01 0,0.02 -0.01,0.03 0,0 -0.01,0.01 -0.01,0.01z"/>
      </g>
     </g>
     <g>
      <g>
       <path class="fil10" d="M1.09 1.65c0,0 -0.01,-0.01 -0.02,-0.01 -0.01,-0.01 -0.01,-0.02 0,-0.03l0.43 -0.48c0.01,-0.01 0.02,-0.01 0.03,0 0.01,0.01 0.01,0.03 0.01,0.04l-0.43 0.47c-0.01,0 -0.01,0.01 -0.02,0.01z"/>
      </g>
     </g>
     <g>
      <g>
       <path class="fil10" d="M2.12 1.65c-0.01,0 -0.02,-0.01 -0.02,-0.01l-0.43 -0.47c0,-0.01 0,-0.03 0.01,-0.04 0.01,-0.01 0.02,0 0.03,0.01l0.43 0.47c0,0.01 0,0.02 -0.01,0.03 0,0 -0.01,0.01 -0.01,0.01z"/>
      </g>
     </g>
     <g>
      <g>
       <path class="fil10" d="M1.69 1.65c0,0 -0.01,-0.01 -0.02,-0.01 0,-0.01 -0.01,-0.02 0,-0.03l0.43 -0.48c0.01,-0.01 0.02,-0.01 0.03,0 0.01,0.01 0.01,0.03 0.01,0.04l-0.43 0.47c-0.01,0 -0.01,0.01 -0.02,0.01z"/>
      </g>
     </g>
     <g>
      <g>
       <path class="fil10" d="M2.46 1.37c-0.01,0 -0.01,0 -0.02,-0.01l-0.18 -0.19c0,-0.01 0,-0.03 0.01,-0.04 0.01,-0.01 0.02,0 0.03,0.01l0.18 0.19c0.01,0.01 0.01,0.03 0,0.04 -0.01,0 -0.01,0 -0.02,0z"/>
      </g>
     </g>
     <g>
      <g>
       <path class="fil10" d="M2.28 1.65c0,0 -0.01,-0.01 -0.01,-0.01 -0.01,-0.01 -0.02,-0.02 -0.01,-0.03l0.18 -0.2c0.01,-0.01 0.02,-0.01 0.03,0 0.01,0.01 0.01,0.02 0,0.03l-0.17 0.2c-0.01,0 -0.01,0.01 -0.02,0.01z"/>
      </g>
     </g>
     <g>
      <g>
       <path class="fil10" d="M2.6 1.3c-0.01,0 -0.01,-0.01 -0.02,-0.01 -0.01,-0.01 -0.01,-0.02 0,-0.03l0.11 -0.13c0.01,-0.01 0.02,-0.01 0.03,0 0.01,0.01 0.01,0.03 0.01,0.04l-0.11 0.12c-0.01,0 -0.02,0.01 -0.02,0.01z"/>
      </g>
     </g>
     <g>
      <g>
       <path class="fil10" d="M2.28 2.45l-0.77 0c-0.04,0 -0.08,-0.03 -0.08,-0.07 0,-0.05 0.04,-0.08 0.08,-0.08l0.77 0c0.05,0 0.08,0.03 0.08,0.08 0,0.04 -0.03,0.07 -0.08,0.07zm-0.77 -0.1c-0.01,0 -0.03,0.01 -0.03,0.03 0,0.01 0.02,0.02 0.03,0.02l0.77 0c0.02,0 0.03,-0.01 0.03,-0.02 0,-0.02 -0.01,-0.03 -0.03,-0.03l-0.77 0z"/>
      </g>
     </g>
     <g>
      <g>
       <path class="fil10" d="M2.11 2.35l-0.43 0c-0.01,0 -0.02,-0.01 -0.02,-0.03l0 -0.24c0,-0.01 0.01,-0.02 0.02,-0.02l0.43 0c0.01,0 0.02,0.01 0.02,0.02l0 0.24c0,0.02 -0.01,0.03 -0.02,0.03l0 0zm-0.4 -0.05l0.38 0 0 -0.19 -0.38 0 0 0.19z"/>
      </g>
     </g>
     <g>
      <g>
       <path class="fil10" d="M3.05 2.45l-0.49 0c-0.07,0 -0.13,-0.06 -0.13,-0.13l0 -0.94c0,-0.07 0.06,-0.13 0.13,-0.13l0.49 0c0.07,0 0.13,0.06 0.13,0.13l0 0.94c0,0.07 -0.06,0.13 -0.13,0.13zm-0.49 -1.15c-0.04,0 -0.08,0.03 -0.08,0.08l0 0.94c0,0.05 0.04,0.08 0.08,0.08l0.49 0c0.05,0 0.08,-0.03 0.08,-0.08l0 -0.94c0,-0.05 -0.03,-0.08 -0.08,-0.08l-0.49 0z"/>
      </g>
     </g>
     <g>
      <g>
       <path class="fil10" d="M2.45 2.11l-1.51 0c-0.08,0 -0.14,-0.07 -0.14,-0.14l0 -1.41c0,-0.07 0.06,-0.13 0.14,-0.13l1.92 0c0.07,0 0.13,0.06 0.13,0.13l0 0.71c0,0.01 -0.01,0.02 -0.02,0.02 -0.01,0 -0.02,-0.01 -0.02,-0.02l0 -0.71c0,-0.05 -0.04,-0.09 -0.09,-0.09l-1.92 0c-0.05,0 -0.09,0.04 -0.09,0.09l0 1.41c0,0.05 0.04,0.09 0.09,0.09l1.51 0c0.01,0 0.03,0.01 0.03,0.02 0,0.01 -0.02,0.03 -0.03,0.03z"/>
      </g>
     </g>
     <g>
      <g>
       <path class="fil10" d="M2.45 1.81l-1.62 0c-0.01,0 -0.02,-0.02 -0.02,-0.03 0,-0.01 0.01,-0.02 0.02,-0.02l1.62 0c0.01,0 0.03,0.01 0.03,0.02 0,0.01 -0.02,0.03 -0.03,0.03z"/>
      </g>
     </g>
     <g>
      <g>
       <path class="fil10" d="M1.9 2.01c-0.05,0 -0.08,-0.03 -0.08,-0.08 0,-0.04 0.03,-0.08 0.08,-0.08 0.04,0 0.08,0.04 0.08,0.08 0,0.05 -0.04,0.08 -0.08,0.08zm0 -0.11c-0.02,0 -0.03,0.01 -0.03,0.03 0,0.02 0.01,0.03 0.03,0.03 0.01,0 0.03,-0.01 0.03,-0.03 0,-0.02 -0.02,-0.03 -0.03,-0.03z"/>
      </g>
     </g>
     <g>
      <g>
       <path class="fil10" d="M0.92 1.8c-0.01,0 -0.03,-0.01 -0.03,-0.02l0 -1.22c0,-0.02 0.02,-0.04 0.05,-0.04l1.92 0c0.02,0 0.04,0.02 0.04,0.04l0 0.71c0,0.01 -0.01,0.02 -0.02,0.02 -0.02,0 -0.03,-0.01 -0.03,-0.02l0 -0.7 -1.91 0 0 1.21c0,0.01 -0.01,0.02 -0.02,0.02z"/>
      </g>
     </g>
     <g>
      <g>
       <g>
        <path class="fil10" d="M1.07 1.39l-0.14 0c-0.02,0 -0.03,-0.01 -0.03,-0.02 0,-0.02 0.01,-0.03 0.03,-0.03l0.14 0c0.01,0 0.02,0.01 0.02,0.03 0,0.01 -0.01,0.02 -0.02,0.02l0 0z"/>
       </g>
      </g>
      <g>
       <g>
        <path class="fil10" d="M1.67 1.39l-0.13 0c-0.02,0 -0.03,-0.01 -0.03,-0.02 0,-0.02 0.01,-0.03 0.03,-0.03l0.13 0c0.01,0 0.02,0.01 0.02,0.03 0,0.01 -0.01,0.02 -0.02,0.02l0 0z"/>
       </g>
      </g>
      <g>
       <g>
        <path class="fil10" d="M2.26 1.39l-0.12 0c-0.01,0 -0.02,-0.01 -0.02,-0.02 0,-0.02 0.01,-0.03 0.02,-0.03l0.12 0c0.01,0 0.03,0.01 0.03,0.03 0,0.01 -0.02,0.02 -0.03,0.02l0 0z"/>
       </g>
      </g>
     </g>
     <g>
      <g>
       <path class="fil10" d="M3.03 2.36l-0.45 0c-0.03,0 -0.05,-0.03 -0.05,-0.06l0 -0.9c0,-0.03 0.02,-0.06 0.05,-0.06l0.11 0c0.03,0 0.05,0.02 0.06,0.04 0.01,0.02 0.03,0.04 0.06,0.04 0.02,0 0.05,-0.02 0.06,-0.04 0.01,-0.02 0.03,-0.04 0.05,-0.04l0.11 0c0.03,0 0.06,0.03 0.06,0.06l0 0.9c0,0.03 -0.03,0.06 -0.06,0.06l0 0zm-0.45 -0.97c0,0 0,0 0,0.01l0 0.9c0,0.01 0,0.01 0,0.01l0.45 0c0.01,0 0.01,0 0.01,-0.01l0 -0.9c0,-0.01 0,-0.01 -0.01,-0.01l-0.11 0c0,0 -0.01,0 -0.01,0.01 -0.01,0.04 -0.06,0.07 -0.1,0.07 -0.05,0 -0.09,-0.03 -0.11,-0.07 0,-0.01 0,-0.01 -0.01,-0.01l-0.11 0z"/>
      </g>
     </g>
     <g>
      <g>
       <path class="fil10" d="M2.71 1.65l-0.15 0c-0.01,0 -0.02,-0.01 -0.02,-0.02 0,-0.02 0.01,-0.03 0.02,-0.03l0.15 0c0.02,0 0.03,0.01 0.03,0.03 0,0.01 -0.01,0.02 -0.03,0.02z"/>
      </g>
     </g>
     <g>
      <g>
       <path class="fil10" d="M3.06 1.65l-0.16 0c-0.01,0 -0.02,-0.01 -0.02,-0.02 0,-0.02 0.01,-0.03 0.02,-0.03l0.16 0c0.01,0 0.02,0.01 0.02,0.03 0,0.01 -0.01,0.02 -0.02,0.02z"/>
      </g>
     </g>
     <g>
      <g>
       <path class="fil10" d="M2.93 1.93l-0.24 0c-0.05,0 -0.08,-0.03 -0.08,-0.07 0,-0.05 0.03,-0.08 0.08,-0.08l0.24 0c0.04,0 0.08,0.03 0.08,0.08 0,0.04 -0.04,0.07 -0.08,0.07l0 0zm-0.24 -0.1c-0.02,0 -0.03,0.01 -0.03,0.03 0,0.01 0.01,0.03 0.03,0.03l0.24 0c0.01,0 0.03,-0.02 0.03,-0.03 0,-0.02 -0.02,-0.03 -0.03,-0.03l-0.24 0z"/>
      </g>
     </g>
     <g>
      <g>
       <path class="fil10" d="M2.93 2.13l-0.24 0c-0.05,0 -0.08,-0.03 -0.08,-0.07 0,-0.05 0.03,-0.08 0.08,-0.08l0.24 0c0.04,0 0.08,0.03 0.08,0.08 0,0.04 -0.04,0.07 -0.08,0.07zm-0.24 -0.11c-0.02,0 -0.03,0.02 -0.03,0.04 0,0.01 0.01,0.03 0.03,0.03l0.24 0c0.01,0 0.03,-0.02 0.03,-0.03 0,-0.02 -0.02,-0.04 -0.03,-0.04l-0.24 0z"/>
      </g>
     </g>
     <g>
      <g>
       <path class="fil10" d="M2.81 1.74c-0.06,0 -0.11,-0.05 -0.11,-0.11 0,-0.06 0.05,-0.11 0.11,-0.11 0.06,0 0.11,0.05 0.11,0.11 0,0.06 -0.05,0.11 -0.11,0.11zm0 -0.18c-0.04,0 -0.06,0.03 -0.06,0.07 0,0.03 0.02,0.06 0.06,0.06 0.03,0 0.06,-0.03 0.06,-0.06 0,-0.04 -0.03,-0.07 -0.06,-0.07z"/>
      </g>
     </g>
     <g>
      <g>
       <path class="fil10" d="M2.74 1.93c-0.01,0 -0.02,-0.01 -0.02,-0.02l0 -0.1c0,-0.02 0.01,-0.03 0.02,-0.03 0.02,0 0.03,0.01 0.03,0.03l0 0.1c0,0.01 -0.01,0.02 -0.03,0.02z"/>
      </g>
     </g>
     <g>
      <g>
       <path class="fil10" d="M2.74 2.13c-0.01,0 -0.02,-0.01 -0.02,-0.02l0 -0.1c0,-0.02 0.01,-0.03 0.02,-0.03 0.02,0 0.03,0.01 0.03,0.03l0 0.1c0,0.01 -0.01,0.02 -0.03,0.02z"/>
      </g>
     </g>
     <g>
      <g>
       <path class="fil10" d="M1.49 1.66l-0.37 0c-0.04,0 -0.07,-0.03 -0.07,-0.07l0 -0.41c0,-0.04 0.03,-0.07 0.07,-0.07l0.37 0c0.03,0 0.07,0.03 0.07,0.07l0 0.41c0,0.04 -0.04,0.07 -0.07,0.07l0 0zm-0.37 -0.5c-0.01,0 -0.02,0.01 -0.02,0.02l0 0.41c0,0.01 0.01,0.02 0.02,0.02l0.37 0c0.01,0 0.02,-0.01 0.02,-0.02l0 -0.41c0,-0.01 -0.01,-0.02 -0.02,-0.02l-0.37 0z"/>
      </g>
     </g>
     <g>
      <g>
       <path class="fil10" d="M2.45 1.66l-0.14 0c-0.04,0 -0.07,-0.03 -0.07,-0.07l0 -0.41c0,-0.04 0.03,-0.07 0.07,-0.07l0.37 0c0.04,0 0.07,0.03 0.07,0.07l0 0.09c0,0.01 -0.01,0.02 -0.03,0.02 -0.01,0 -0.02,-0.01 -0.02,-0.02l0 -0.09c0,-0.01 -0.01,-0.02 -0.02,-0.02l-0.37 0c-0.01,0 -0.02,0.01 -0.02,0.02l0 0.41c0,0.01 0.01,0.02 0.02,0.02l0.14 0c0.01,0 0.03,0.01 0.03,0.03 0,0.01 -0.02,0.02 -0.03,0.02z"/>
      </g>
     </g>
     <g>
      <g>
       <path class="fil10" d="M2.09 1.66l-0.37 0c-0.04,0 -0.07,-0.03 -0.07,-0.07l0 -0.41c0,-0.04 0.03,-0.07 0.07,-0.07l0.37 0c0.04,0 0.07,0.03 0.07,0.07l0 0.41c0,0.04 -0.03,0.07 -0.07,0.07l0 0zm-0.37 -0.5c-0.01,0 -0.02,0.01 -0.02,0.02l0 0.41c0,0.01 0.01,0.02 0.02,0.02l0.37 0c0.01,0 0.02,-0.01 0.02,-0.02l0 -0.41c0,-0.01 -0.01,-0.02 -0.02,-0.02l-0.37 0z"/>
      </g>
     </g>
     <g>
      <g>
       <path class="fil10" d="M2.24 1.03l-0.68 0c-0.04,0 -0.07,-0.04 -0.07,-0.08 0,-0.05 0.03,-0.08 0.07,-0.08l0.68 0c0.04,0 0.08,0.03 0.08,0.08 0,0.04 -0.04,0.08 -0.08,0.08zm-0.68 -0.11c-0.01,0 -0.03,0.01 -0.03,0.03 0,0.01 0.02,0.03 0.03,0.03l0.68 0c0.02,0 0.03,-0.02 0.03,-0.03 0,-0.02 -0.01,-0.03 -0.03,-0.03l-0.68 0z"/>
      </g>
     </g>
     <g>
      <g>
       <path class="fil10" d="M2.68 0.84c-0.06,0 -0.11,-0.05 -0.11,-0.11 0,-0.06 0.05,-0.11 0.11,-0.11 0.06,0 0.11,0.05 0.11,0.11 0,0.06 -0.05,0.11 -0.11,0.11zm0 -0.18c-0.03,0 -0.06,0.03 -0.06,0.07 0,0.03 0.03,0.06 0.06,0.06 0.04,0 0.07,-0.03 0.07,-0.06 0,-0.04 -0.03,-0.07 -0.07,-0.07z"/>
      </g>
     </g>
     <g>
      <g>
       <path class="fil10" d="M1.63 1.02c-0.01,0 -0.03,-0.01 -0.03,-0.03l0 -0.09c0,-0.01 0.02,-0.03 0.03,-0.03 0.01,0 0.02,0.02 0.02,0.03l0 0.09c0,0.02 -0.01,0.03 -0.02,0.03z"/>
      </g>
     </g>
     <g>
      <g>
       <g>
        <path class="fil10" d="M1.24 0.8l-0.11 0c-0.04,0 -0.08,-0.03 -0.08,-0.07 0,-0.04 0.04,-0.07 0.08,-0.07l0.11 0c0.04,0 0.07,0.03 0.07,0.07 0,0.04 -0.03,0.07 -0.07,0.07l0 0zm-0.11 -0.1c-0.02,0 -0.03,0.01 -0.03,0.03 0,0.01 0.01,0.02 0.03,0.02l0.11 0c0.01,0 0.02,-0.01 0.02,-0.02 0,-0.02 -0.01,-0.03 -0.02,-0.03l-0.11 0z"/>
       </g>
      </g>
     </g>
    </g>
   </g>
  </g>
 </g>
</svg>
