<?xml version="1.0" encoding="UTF-8"?>
<!DOCTYPE svg PUBLIC "-//W3C//DTD SVG 1.1//EN" "http://www.w3.org/Graphics/SVG/1.1/DTD/svg11.dtd">
<!-- Creator: CorelDRAW 2019 (64-Bit) -->
<svg xmlns="http://www.w3.org/2000/svg" xml:space="preserve" width="150px" height="100px" version="1.1" style="shape-rendering:geometricPrecision; text-rendering:geometricPrecision; image-rendering:optimizeQuality; fill-rule:evenodd; clip-rule:evenodd"
viewBox="0 0 3.59 2.39"
 xmlns:xlink="http://www.w3.org/1999/xlink">
 <defs>
  <style type="text/css">
   <![CDATA[
    .fil0 {fill:none}
    .fil5 {fill:black}
    .fil2 {fill:#29ABE2}
    .fil1 {fill:#B3B3B3}
    .fil3 {fill:#E6E6E6}
    .fil4 {fill:#FBB03B}
   ]]>
  </style>
 </defs>
 <g id="Layer_x0020_1">
  <metadata id="CorelCorpID_0Corel-Layer"/>
  <rect class="fil0" width="3.59" height="2.39"/>
  <g id="website-devlopmennt.svg">
   <polygon class="fil1" points="2.26,2.03 2.08,1.66 1.51,1.66 1.33,2.03 "/>
   <path class="fil2" d="M1.05 0.25l1.49 0c0.09,0 0.17,0.07 0.17,0.16l0 1.11c0,0.09 -0.08,0.16 -0.17,0.16l-1.49 0c-0.09,0 -0.17,-0.07 -0.17,-0.16l0 -1.11c0,-0.09 0.08,-0.16 0.17,-0.16z"/>
   <g>
    <path class="fil3" d="M2.54 1.68l-1.49 0c-0.09,0 -0.17,-0.07 -0.17,-0.16l0 -0.1 1.83 0 0 0.1c0,0.09 -0.08,0.16 -0.17,0.16z"/>
    <path class="fil3" d="M1.14 2.01l1.3 0c0.04,0 0.07,0.03 0.07,0.06l0 0c0,0.04 -0.03,0.07 -0.07,0.07l-1.3 0c-0.03,0 -0.06,-0.03 -0.06,-0.07l0 0c0,-0.03 0.03,-0.06 0.06,-0.06z"/>
   </g>
   <polygon class="fil4" points="1.55,1.42 1.57,1.37 1.7,1.32 1.7,1.2 1.57,1.15 1.54,1.05 1.61,0.94 1.54,0.84 1.41,0.87 1.33,0.81 1.32,0.68 1.2,0.64 1.11,0.74 1.01,0.74 0.93,0.64 0.88,0.65 0.88,1.42 "/>
   <path class="fil2" d="M1.28 1.42c0.09,-0.12 0.07,-0.29 -0.05,-0.38 -0.11,-0.08 -0.25,-0.07 -0.35,0.01l0 0.37 0.4 0z"/>
   <polygon class="fil5" points="1.7,0.51 2.57,0.51 2.57,0.58 1.7,0.58 "/>
   <polygon class="fil5" points="1.7,0.64 2.25,0.64 2.25,0.71 1.7,0.71 "/>
   <polygon class="fil5" points="1.7,0.77 2.25,0.77 2.25,0.84 1.7,0.84 "/>
   <polygon class="fil5" points="1.96,0.38 2.57,0.38 2.57,0.45 1.96,0.45 "/>
   <polygon class="fil5" points="1.83,0.38 1.89,0.38 1.89,0.45 1.83,0.45 "/>
   <polygon class="fil5" points="1.76,1.52 1.83,1.52 1.83,1.59 1.76,1.59 "/>
   <path class="fil5" d="M1.32 0.57l0.04 -0.05 -0.04 -0.04 0.04 -0.04 -0.04 -0.05 -0.07 0.07c-0.01,0.01 -0.01,0.03 0,0.04l0.07 0.07z"/>
   <path class="fil5" d="M1.56 0.57l0.06 -0.07c0.01,-0.01 0.01,-0.03 0,-0.04l-0.06 -0.07 -0.05 0.05 0.04 0.04 -0.04 0.04 0.05 0.05z"/>
   <polygon class="fil5" points="1.37,0.57 1.44,0.37 1.5,0.39 1.43,0.59 "/>
   <polygon class="fil5" points="2.51,0.97 2.44,0.97 2.44,1.23 2.38,1.23 2.38,0.9 2.31,0.9 2.31,1.23 2.25,1.23 2.25,1.07 2.18,1.07 2.18,1.23 2.12,1.23 2.12,1.03 2.05,1.03 2.05,1.23 1.99,1.23 1.99,1.1 1.92,1.1 1.92,1.23 1.86,1.23 1.86,1.29 2.57,1.29 2.57,1.23 2.51,1.23 "/>
   <path class="fil5" d="M0.85 1.42l0 0.1c0,0.11 0.09,0.2 0.2,0.2l0.4 0 -0.13 0.26 -0.18 0c-0.05,0 -0.09,0.04 -0.09,0.09 0,0.06 0.04,0.1 0.09,0.1l1.3 0c0.06,0 0.1,-0.04 0.1,-0.1 0,-0.05 -0.04,-0.09 -0.1,-0.09l-0.17 0 -0.13 -0.26 0.4 0c0.11,0 0.2,-0.09 0.2,-0.2l0 -1.11c0,-0.1 -0.09,-0.19 -0.2,-0.19l-1.49 0c-0.11,0 -0.2,0.09 -0.2,0.19l0 0.64 0 0 0 0.37zm0.66 -0.36l0.03 0.1c0,0.01 0.01,0.01 0.02,0.02l0.1 0.04 0 0.08 -0.1 0.04c-0.01,0 -0.02,0.01 -0.02,0.02l-0.01 0.03 -0.19 0c0.07,-0.15 0.01,-0.33 -0.14,-0.41 -0.09,-0.04 -0.2,-0.04 -0.29,0.01l0 -0.31 0.08 0.09c0.01,0 0.01,0.01 0.02,0.01l0.1 0c0.01,0 0.02,-0.01 0.03,-0.01l0.07 -0.09 0.08 0.02 0 0.12c0,0.01 0.01,0.01 0.02,0.02l0.08 0.06c0.01,0 0.02,0.01 0.02,0l0.12 -0.02 0.04 0.06 -0.06 0.1c0,0 -0.01,0.01 0,0.02l0 0zm-0.6 0.33l0 -0.32c0.11,-0.08 0.26,-0.06 0.34,0.04 0.07,0.08 0.07,0.19 0.02,0.28l-0.36 0zm1.57 0.68c0,0.02 -0.02,0.04 -0.04,0.04l-1.3 0c-0.02,0 -0.03,-0.02 -0.03,-0.04 0,-0.01 0.01,-0.03 0.03,-0.03l1.3 0c0.02,0 0.04,0.02 0.04,0.03zm-0.28 -0.09l-0.81 0 0.13 -0.26 0.55 0 0.13 0.26zm0.34 -0.33l-1.49 0c-0.08,0 -0.14,-0.06 -0.14,-0.13l0 -0.06 0.37 0 0 0 1.39 0 0 0.06c0,0.07 -0.06,0.13 -0.13,0.13zm-1.49 -1.37l1.49 0c0.07,0 0.13,0.06 0.13,0.13l0 0.98 -1.06 0 0.1 -0.04c0.01,0 0.02,-0.02 0.02,-0.03l0 -0.12c0,-0.01 -0.01,-0.03 -0.02,-0.03l-0.11 -0.05 -0.03 -0.06 0.07 -0.11c0.01,-0.01 0,-0.02 0,-0.03l-0.07 -0.1c-0.01,-0.01 -0.03,-0.02 -0.04,-0.01l-0.12 0.03 -0.05 -0.04 -0.01 -0.13c0,-0.01 -0.01,-0.02 -0.02,-0.02l-0.12 -0.04c-0.01,-0.01 -0.02,0 -0.03,0.01l-0.08 0.09 -0.07 0 -0.08 -0.09c-0.01,-0.01 -0.02,-0.02 -0.03,-0.01l-0.01 0 0 -0.2c0,-0.07 0.06,-0.13 0.14,-0.13l0 0z"/>
   <g>
   </g>
   <g>
   </g>
   <g>
   </g>
   <g>
   </g>
   <g>
   </g>
   <g>
   </g>
   <g>
   </g>
   <g>
   </g>
   <g>
   </g>
   <g>
   </g>
   <g>
   </g>
   <g>
   </g>
   <g>
   </g>
   <g>
   </g>
   <g>
   </g>
  </g>
 </g>
</svg>
